<svg xmlns="http://www.w3.org/2000/svg" viewBox="0 0 296.52 286.97"><defs><style>.cls-1{fill:#9cd9d9;}</style></defs><g id="Layer_2" data-name="Layer 2"><g id="Layer_4" data-name="Layer 4"><path class="cls-1" d="M295,1.5v284H20.75L1.52,267.18V19.77L20.75,1.5Z"/><path class="cls-1" d="M293.52,1.5v284L295,284H20.75l1.06.44L2.58,266.12,3,267.18V19.77l-.44,1.06L21.81,2.56,20.75,3H295a1.5,1.5,0,0,0,0-3H21.69a3.18,3.18,0,0,0-1.85.32,20.9,20.9,0,0,0-2.66,2.5Q11.86,7.89,6.52,13L1.09,18.12A2.77,2.77,0,0,0,0,20.65V263.37c0,1.17,0,2.35,0,3.51s.85,1.75,1.7,2.55l5.43,5.16,10.66,10.13a9.83,9.83,0,0,0,2.37,2.1A5,5,0,0,0,22,287H295a1.52,1.52,0,0,0,1.5-1.5V1.5A1.5,1.5,0,0,0,293.52,1.5Z"/></g></g></svg>