<svg xmlns="http://www.w3.org/2000/svg" viewBox="0 0 296.52 286.97"><defs><style>.cls-1{fill:#9cd9d9;}</style></defs><g id="Layer_2" data-name="Layer 2"><g id="Layer_4" data-name="Layer 4"><path class="cls-1" d="M1.5,1.52v284H275.77L295,267.2V19.79L275.77,1.52Z"/><path class="cls-1" d="M0,1.52v284A1.52,1.52,0,0,0,1.5,287H274.84a3.15,3.15,0,0,0,1.84-.33,20.21,20.21,0,0,0,2.66-2.5L290,274l5.43-5.17a2.76,2.76,0,0,0,1.07-2.53V23.6c0-1.17.05-2.35,0-3.52s-.85-1.74-1.69-2.54l-5.44-5.16L278.71,2.25a9.56,9.56,0,0,0-2.36-2.1A5.09,5.09,0,0,0,274.48,0H1.5a1.5,1.5,0,0,0,0,3H275.77l-1.06-.44,19.23,18.27-.44-1.06V267.2l.44-1.06L274.71,284.4l1.06-.43H1.5l1.5,1.5V1.52A1.5,1.5,0,0,0,0,1.52Z"/></g></g></svg>