<svg xmlns="http://www.w3.org/2000/svg" viewBox="0 0 296.06 286.06"><defs><style>.cls-1{fill:#9cd9d9;}</style></defs><g id="Layer_2" data-name="Layer 2"><g id="Layer_4" data-name="Layer 4"><rect class="cls-1" x="1.53" y="1.53" width="293" height="283"/><path class="cls-1" d="M294.53,0H13.43C9.63,0,5.83,0,2,0c-.17,0-.33,0-.5,0A1.52,1.52,0,0,0,0,1.53V273c0,3.68-.07,7.36,0,11,0,.16,0,.31,0,.47a1.52,1.52,0,0,0,1.5,1.5H282.64c3.79,0,7.6.07,11.39,0h.5a1.52,1.52,0,0,0,1.5-1.5V13c0-3.67.07-7.36,0-11V1.53a1.5,1.5,0,0,0-3,0V273c0,3.65-.25,7.4,0,11,0,.15,0,.32,0,.47l1.5-1.5H13.43c-3.77,0-7.64-.26-11.4,0-.16,0-.33,0-.5,0l1.5,1.5V13C3,9.4,3.28,5.65,3,2c0-.16,0-.32,0-.48L1.53,3H282.64c3.79,0,7.6.07,11.39,0h.5A1.5,1.5,0,0,0,294.53,0Z"/></g></g></svg>