<svg xmlns="http://www.w3.org/2000/svg" viewBox="0 0 437.05 115.55"><defs><style>.cls-1{fill:#757575;}.cls-2{fill:none;stroke:#505050;stroke-miterlimit:10;stroke-width:5px;}</style></defs><title>Dial_Box</title><g id="Layer_2" data-name="Layer 2"><g id="Game_Information" data-name="Game Information"><path class="cls-1" d="M255.08,12.05h141.7l16.74,17.22V88.05l20,20-5,5H29.57l-17-16.66Q12.55,84.2,12.48,72q-.13-21.45-.26-42.92l16.8-17Z"/><path class="cls-1" d="M255.08,12.05H29l-16.8,17q.12,21.47.26,42.92-4.71-5.19-9.4-10.39Q2.8,43.33,2.52,25.05L25.07,2.5H245.53Z"/><path class="cls-2" d="M12.48,72q.06,12.19.14,24.39l17,16.66h399l5-5-20-20V29.27L396.78,12.05H29l-16.8,17Q12.34,50.55,12.48,72Z"/><path class="cls-2" d="M12.52,72.05l0,0q-4.71-5.19-9.4-10.39Q2.8,43.33,2.52,25.05L25.07,2.5H245.53l9.55,9.55.22.22"/></g></g></svg>