<svg xmlns="http://www.w3.org/2000/svg" viewBox="0 0 38.92 428.01"><defs><style>.cls-1{fill:#9cd9d9;}</style></defs><g id="Layer_2" data-name="Layer 2"><g id="Layer_6" data-name="Layer 6"><path class="cls-1" d="M3.29,427.56l33.94-33.93c1.27-1.27,1.63-1.73,1.63-3.53v-174a7.42,7.42,0,0,0-.13-2.7c-.32-.76-1.25-1.37-1.84-1.93l-5.19-4.93.44,1.06v-25l-.44,1.06,3.67-3.37a18.17,18.17,0,0,0,3.05-2.81,4.5,4.5,0,0,0,.44-2.75V1.48A1.52,1.52,0,0,0,36.3.42L5.91,30.81,2.34,34.39C1.28,35.45.22,36.13.11,37.66c-.25,3.5,0,7.11,0,10.62L.16,70,.3,156.65l.14,86.27.14,86.27.13,86.69,0,10.62a1.5,1.5,0,0,0,3,0L3.49,274.37,3.24,122.65,3.11,37.23,2.67,38.3,38.42,2.54,35.86,1.48V176.4l.44-1.06-4.58,4.21c-1.41,1.29-2.54,1.9-2.58,3.86-.08,3.89,0,7.78,0,11.67s-.1,7.78,0,11.66c.05,1.84,1,2.4,2.27,3.64L36.3,215,35.86,214V391.37l.44-1.06L1.17,425.44A1.5,1.5,0,0,0,3.29,427.56Z"/></g></g></svg>