<svg xmlns="http://www.w3.org/2000/svg" viewBox="0 0 132.26 131.74"><defs><style>.cls-1{fill:#d1bcb7;}.cls-2{fill:#8d574c;}.cls-3{fill:#6c3c44;}.cls-4{fill:#804f47;}.cls-5{fill:#905b4d;}.cls-6{fill:#5c2c34;}.cls-7{fill:#7b4a49;}.cls-8{fill:#705763;}.cls-9{fill:#8c625c;}.cls-10{fill:#8c584c;}.cls-11{fill:#020101;}.cls-12{fill:#8d6b74;}.cls-13{fill:#7f4f47;}.cls-14{fill:#63474e;}.cls-15{fill:#90655c;}.cls-16{fill:#7d5359;}.cls-17{fill:#9e3962;}.cls-18{fill:#16100f;}.cls-19{fill:#110d0d;}.cls-20{fill:#bfabcf;}.cls-21{fill:#281c1e;}.cls-22{fill:#0c0807;}.cls-23{fill:#1d1413;}.cls-24{fill:#241918;}.cls-25{fill:#0b0807;}.cls-26{fill:#693a43;}.cls-27{fill:#231917;}.cls-28{fill:#9c3861;}.cls-29{fill:#060303;}.cls-30{fill:#4e3c41;}.cls-31{fill:#78464b;}.cls-32{fill:#9a6453;}.cls-33{fill:#030202;}.cls-34{fill:#8f594c;}.cls-35{fill:#8a554a;}.cls-36{fill:#463737;}.cls-37{fill:#1f191a;}.cls-38{fill:#9c6452;}.cls-39{fill:#a27f88;}.cls-40{fill:#aa8791;}.cls-41{fill:#6c453e;}.cls-42{fill:#7b6365;}.cls-43{fill:#312120;}.cls-44{fill:#97757e;}.cls-45{fill:#0e0a09;}.cls-46{fill:#9d3962;}.cls-47{fill:#8e584c;}.cls-48{fill:#c4a26c;}.cls-49{fill:#060304;}.cls-50{fill:#3e212d;}.cls-51{fill:#3d212c;}.cls-52{fill:#382120;}.cls-53{fill:#3f232e;}.cls-54{fill:#452b29;}.cls-55{fill:#381e1f;}.cls-56{fill:#050203;}.cls-57{fill:#30181b;}.cls-58{fill:#bf9e6a;}.cls-59{fill:#1b0f14;}.cls-60{fill:#b59564;}.cls-61{fill:#3e1d25;}.cls-62{fill:#31181f;}.cls-63{fill:#562930;}.cls-64{fill:#0a0506;}.cls-65{fill:#7e6867;}.cls-66{fill:#7c484d;}.cls-67{fill:#92839e;}.cls-68{fill:#5b2b33;}.cls-69{fill:#c0accf;}.cls-70{fill:#3d212b;}.cls-71{fill:#45252d;}.cls-72{fill:#251316;}.cls-73{fill:#2f1e21;}.cls-74{fill:#301b20;}.cls-75{fill:#a4885f;}.cls-76{fill:#261215;}.cls-77{fill:#b89867;}.cls-78{fill:#51282d;}.cls-79{fill:#af9061;}.cls-80{fill:#a08459;}.cls-81{fill:#876f50;}.cls-82{fill:#6a574c;}.cls-83{fill:#2f1c21;}.cls-84{fill:#040202;}.cls-85{fill:#1b1516;}.cls-86{fill:#bc9b68;}.cls-87{fill:#372a25;}.cls-88{fill:#8f594d;}.cls-89{fill:#382829;}.cls-90{fill:#9f877b;}.cls-91{fill:#84504d;}.cls-92{fill:#a06a55;}.cls-93{fill:#8d4f59;}.cls-94{fill:#e79a90;}.cls-95{fill:#070505;}.cls-96{fill:#171010;}.cls-97{fill:#553233;}.cls-98{fill:#502f31;}.cls-99{fill:#1e1517;}.cls-100{fill:#1b1412;}.cls-101{fill:#b5919b;}.cls-102{fill:#9d6252;}.cls-103{fill:#622c2e;}.cls-104{fill:#894537;}.cls-105{fill:#51232d;}.cls-106{fill:#7d3e37;}.cls-107{fill:#4c212b;}.cls-108{fill:#9c6653;}.cls-109{fill:#a36e81;}.cls-110{fill:#a36f80;}.cls-111{fill:#75698b;}.cls-112{fill:#6a322b;}.cls-113{fill:#6a3136;}.cls-114{fill:#ac7778;}.cls-115{fill:#564454;}.cls-116{fill:#6d3234;}.cls-117{fill:#854737;}.cls-118{fill:#6c3234;}.cls-119{fill:#1d110f;}.cls-120{fill:#271c12;}.cls-121{fill:#26171a;}.cls-122{fill:#ba96a0;}.cls-123{fill:#6f3634;}.cls-124{fill:#7b6d86;}.cls-125{fill:#311b18;}.cls-126{fill:#1c1414;}.cls-127{fill:#2b1a21;}.cls-128{fill:#985f50;}.cls-129{fill:#aa8c5e;}.cls-130{fill:#8d5378;}.cls-131{fill:#9e3963;}.cls-132{fill:#decdec;}.cls-133{fill:#f38899;}.cls-134{fill:#f0e7f8;}.cls-135{fill:#6e342b;}.cls-136{fill:#612e2b;}.cls-137{fill:#5b2a2b;}.cls-138{fill:#a26e80;}.cls-139{fill:#604b55;}.cls-140{fill:#b27199;}.cls-141{fill:#5e4472;}.cls-142{fill:#5b4353;}.cls-143{fill:#b17098;}.cls-144{fill:#c2a16b;}.cls-145{fill:#211e22;}.cls-146{fill:#1d1116;}.cls-147{fill:#2c1219;}.cls-148{fill:#533c2f;}.cls-149{fill:#3d2837;}.cls-150{fill:#e2978d;}.cls-151{fill:#655b67;}.cls-152{fill:#504955;}.cls-153{fill:#3d2825;}.cls-154{fill:#967b53;}.cls-155{fill:#c2a16c;}.cls-156{fill:#060404;}.cls-157{fill:#5b3e35;}.cls-158{fill:#402427;}.cls-159{fill:#763a30;}.cls-160{fill:#fed17c;}.cls-161{fill:#674e54;}.cls-162{fill:#69352e;}.cls-163{fill:#2f271b;}.cls-164{fill:#201213;}.cls-165{fill:#543f3e;}.cls-166{fill:#7f605c;}.cls-167{fill:#765a57;}.cls-168{fill:#a4717a;}.cls-169{fill:#866665;}.cls-170{fill:#765554;}.cls-171{fill:#aa796d;}.cls-172{fill:#836361;}.cls-173{fill:#3d2a3f;}.cls-174{fill:#ae6954;}.cls-175{fill:#c9b0de;}.cls-176{fill:#261e1c;}.cls-177{fill:#45312d;}.cls-178{fill:#403633;}.cls-179{fill:#44382b;}.cls-180{fill:#de8c63;}.cls-181{fill:#291717;}.cls-182{fill:#4d222c;}.cls-183{fill:#120e12;}.cls-184{fill:#030102;}.cls-185{fill:#281c23;}.cls-186{fill:#3d1c2c;}.cls-187{fill:#c2785c;}.cls-188{fill:#908599;}.cls-189{fill:#844237;}.cls-190{fill:#816d4a;}.cls-191{fill:#4b2d34;}.cls-192{fill:#020102;}.cls-193{fill:#653b55;}.cls-194{fill:#45232f;}.cls-195{fill:#6a474f;}.cls-196{fill:#614543;}.cls-197{fill:#87535c;}.cls-198{fill:#49444e;}.cls-199{fill:#8d5377;}.cls-200{fill:#d95369;}.cls-201{fill:#d85368;}.cls-202{fill:#040203;}.cls-203{fill:#040303;}.cls-204{fill:#130c0e;}.cls-205{fill:#ac5462;}.cls-206{fill:#3b2328;}.cls-207{fill:#0e0809;}.cls-208{fill:#aa4e5d;}.cls-209{fill:#2c1e28;}.cls-210{fill:#974d59;}.cls-211{fill:#a64d5c;}.cls-212{fill:#9a4654;}.cls-213{fill:#916656;}.cls-214{fill:#1f1613;}.cls-215{fill:#1f1513;}.cls-216{fill:#6f6283;}.cls-217{fill:#966771;}.cls-218{fill:#b97157;}.cls-219{fill:#c87a5e;}.cls-220{fill:#471f2a;}.cls-221{fill:#e4dbec;}.cls-222{fill:#e3daeb;}.cls-223{fill:#ece3f4;}.cls-224{fill:#5e4473;}.cls-225{fill:#43262b;}.cls-226{fill:#563733;}.cls-227{fill:#e5cc9f;}.cls-228{fill:#bfa57f;}.cls-229{fill:#211918;}.cls-230{fill:#7f574f;}.cls-231{fill:#9e6488;}.cls-232{fill:#6b676f;}.cls-233{fill:#373023;}.cls-234{fill:#140b0d;}.cls-235{fill:#050304;}.cls-236{fill:#41222b;}.cls-237{fill:#f2cfa8;}.cls-238{fill:#4b2a2d;}.cls-239{fill:#443430;}.cls-240{fill:#615d64;}.cls-241{fill:#826c48;}.cls-242{fill:#db7c44;}.cls-243{fill:#58262e;}.cls-244{fill:#806a48;}.cls-245{fill:#937a52;}.cls-246{fill:#9d3862;}</style></defs><g id="Layer_2" data-name="Layer 2"><g id="Layer_1-2" data-name="Layer 1"><path class="cls-1" d="M29.09.26l0-.26h74.8a1.5,1.5,0,0,1,0,.2,1.52,1.52,0,0,1-1.31.4c-1.67,0-3.33.05-5,0h-.67c-1.51,0-3,0-4.55,0-.35,0-.71,0-1.07,0h-.65l-.45,0q-15.3,0-30.61,0c-3.11,0-6.22,0-9.33,0Q40.64.65,31,.62A2.67,2.67,0,0,1,29.09.26Z"/><path class="cls-2" d="M97.45.24l6.43,0,12.9,12.86q7.38,7.36,14.75,14.73a2,2,0,0,1,.73,1.52q0,27.75,0,55.5a4,4,0,0,1-.05.47,69.64,69.64,0,0,1-5.32,8.85,7.44,7.44,0,0,0-1.29,2.67,17.33,17.33,0,0,1-4.56,7.82c-2.73,2.81-5.24,5.85-8.43,8.17-2.37,1.73-4.81,3.36-7.28,4.94-.39.25-.86.52-1.32.16s-.36-.89-.18-1.41c.72-2,.4-4.16.46-6.24a3.67,3.67,0,0,0-.31-2.09,8.26,8.26,0,0,1,3.28-6.33,1.82,1.82,0,0,0,.61-.37c3.58-3.66,7.68-6.76,11.2-10.47a8.27,8.27,0,0,0,1.68-2.43c.26-.63,0-1-.65-1a34.49,34.49,0,0,0-6.18.16,9.64,9.64,0,0,1-2.34,0,1,1,0,0,1-.36-.16c-.59-1,.36-.85.77-.87,1.59-.09,3.18,0,4.77,0,2.65,0,1.9.21,2.81-2a3.94,3.94,0,0,0-.37-4.28,2.67,2.67,0,0,1-.14-2.73c.86-2.29,1.49-4.7,3.32-6.5a2,2,0,0,0,.46-1.56,4.44,4.44,0,0,1,.75-2.71c1.19-1.75,1.82-3.8,3.1-5.49a3.16,3.16,0,0,0,.45-1.45,24.3,24.3,0,0,0,0-6.76,5.24,5.24,0,0,0-.91-2.56,4.68,4.68,0,0,1-1-3.23,6.91,6.91,0,0,0-1.57-5,3,3,0,0,1-.45-2.87,6.6,6.6,0,0,0-1.61-6.07,26.37,26.37,0,0,1-4.07-5.67,4.85,4.85,0,0,1-.65-2.37,2.85,2.85,0,0,0-.33-1.85c-1.57-2.06-1.92-4.79-3.8-6.67s-3.83-4.24-6.33-5.7a13.51,13.51,0,0,1-2.12-1.54c-1.41-1.26-3.21-1.88-4.74-3-.77-.55-1.44-.13-1.52.89a13.78,13.78,0,0,0,0,3.21,30.85,30.85,0,0,1,.18,4.4q0,8.1,0,16.19c0,.52.31,1.27-.59,1.47a2.11,2.11,0,0,1-.31-1.47c0-3.64,0-7.28,0-10.92.08-6.16-.4-12.32-.23-18.49C97.11,1.36,97,.74,97.45.24Z"/><path class="cls-3" d="M13.82,116.7.38,103.34a1.2,1.2,0,0,1-.38-1c0-1.5,0-3,.05-4.5.18-1.68,0-3.37.08-5V73.24c0-1.94,0-2,1.9-2.51a4.7,4.7,0,0,1,1.16-.24c1.06.33,1.53,1,1,2-.77,1.55-.14,3.14-.49,4.68a1.29,1.29,0,0,0,.18.8c1.58,3.55,2.66,7.3,4.35,10.8a35.17,35.17,0,0,0,2.74,4,12.47,12.47,0,0,1,.88,1.27c.12.25.32.61.12.78-1,.81-.16,1.36.23,2,1.15,1.75,2.07,3.66,3.78,5a2.51,2.51,0,0,1,.67,1.75,3.34,3.34,0,0,0,.95,1.86c1.17,1.26,1.1,2.23-.2,3.42-.21.19-.49.4-.44.67a5.2,5.2,0,0,1-.63,2.66,40.12,40.12,0,0,0,5.14.15c.52,0,1.13-.16,1.44.49-.35.51-.9.4-1.39.41a51.49,51.49,0,0,1-5.34-.14c.64.12,1.17-.14,1.49.38a3,3,0,0,1-3.38-.06A7,7,0,0,1,13.82,116.7Z"/><path class="cls-4" d="M104.11,108.14c.44.21.48.59.46,1-.08,2.21.21,4.43-.23,6.63a2.06,2.06,0,0,1-.1.57c-.26.45-.67,1-.12,1.36s1-.15,1.37-.42c2.92-2.07,6.1-3.81,8.77-6.2,2.52-2.24,4.73-4.83,7.06-7.28a17.43,17.43,0,0,0,4.08-7.49c.51-1.79,1.82-3.13,2.81-4.64,1.18-1.79,2.09-3.72,3.19-5.54a2,2,0,0,1,.79-.86c0,5.78,0,11.57.06,17.35a1.36,1.36,0,0,1-.48,1l-23,22.94a1,1,0,0,1-.2.12c-.38.08-.58-.21-.78-.43a5.14,5.14,0,0,0-2-1.33,4.43,4.43,0,0,1-2.81-4.18c-.06-1.14,0-2.3,0-3.45.81-2.15.52-4.37.44-6.58A5.14,5.14,0,0,1,104.11,108.14Z"/><path class="cls-5" d="M3.58,70.74H3.34c-3.09.68-3.08.68-3.09,3.86q0,9.14,0,18.28c-.06.11-.12.11-.19,0,0-8.28,0-16.56,0-24.84q0-16.63.13-33.29c0-.31,0-.63.05-.94a1.78,1.78,0,0,1,1.34-.35c1.14,0,2.29,0,3.43,0s1.69.3,1.85,1.37a3.23,3.23,0,0,0,2.33.41,2.23,2.23,0,0,1,1.48.17,3,3,0,0,0-.23,2.22,3.85,3.85,0,0,1-.58,2.85A9.31,9.31,0,0,0,8.7,44.64c-.28,2.36,0,4.83-1.27,7.07a3.21,3.21,0,0,0,.13,3,19.08,19.08,0,0,1,1.2,3.73c.26.94-.09,1.45-1.06,1.81a3.08,3.08,0,0,0-1.38,4.17,1.37,1.37,0,0,0,1.52.67,8,8,0,0,1,.81-.21c.28,0,.58-.05.7.28s-.17.48-.39.64a5,5,0,0,0-2.2,3.72A5.46,5.46,0,0,1,3.58,70.74Z"/><path class="cls-6" d="M77.92,131.68H68.59c-6-.53-11.58-2.75-17.07-5.09C50.23,126,50,124.32,50.9,123a3.42,3.42,0,0,1,3.34,0,1.44,1.44,0,0,1,.86,1.26c0,.9-.18,1.85.52,2.61.25.35.6.28.94.21,1.3.33,2-.46,2.58-1.4a4.4,4.4,0,0,0,.64-.72,2.29,2.29,0,0,1,2.36.67c.88.68,1.56.75,2,.12a1.76,1.76,0,0,0-.58-2.48,18.66,18.66,0,0,0-2.89-1.38,1.3,1.3,0,0,1-1.08-1,4.89,4.89,0,0,1-.14-.64,1.36,1.36,0,0,0-.36-.68c-.43-.58-.23-1.35-.52-2-.55-.06-.48.67-1,.6a.91.91,0,0,0-.95-.23c-.83.17-1.05-.55-1.26-1.11s.28-.87.8-1c1.22.42,2.77,0,3.61,1.44,0,.2.08.39.29.48,1.23.51,2.42,1.09,3.61,1.68a1.05,1.05,0,0,0,.9,0c.35-.07.69-.1.9.28,0,.66.68.48,1,.64a10.45,10.45,0,0,0,4.49.85,1.27,1.27,0,0,0,1.05-.45c1.22-.56,2.54-.17,3.79-.37.3,0,.41.44.86.25a21.58,21.58,0,0,0,2.07-.8c1-.55,1.07-1.42.12-2.11-.34-.24-.83-.28-1-.71-.22-.75-.77-1.42-.48-2.28a2.81,2.81,0,0,1,3.93.92c.57,1.89,1.39,3.7,2.08,5.56a7.48,7.48,0,0,1-1.08,7.08c-.13.2-.29.38-.41.59A6.43,6.43,0,0,1,77.92,131.68Z"/><path class="cls-7" d="M42,131.68l-5.5,0A2.48,2.48,0,0,1,36,130c-.08-2.75-.11-5.5-.36-8.25a2.12,2.12,0,0,1,.25-1.37c.46-.27.42.09.45.35.22,1.77.28,3.54.36,4.8a40,40,0,0,0-.55-5.81c-.33-3.69-1.92-5.66-5.69-6.83a15.06,15.06,0,0,0-3.87-.4,7.87,7.87,0,0,1-1.53-.1,9.5,9.5,0,0,0-2-.17c-.31,0-.65-.08-.74-.46a.64.64,0,0,1,.34-.7,45.92,45.92,0,0,0,4.06-3c.48-.39,1.21-.29,1.82-.43a1.88,1.88,0,0,1,1.12.25c1.61,1.06,3.52,1.23,5.27,1.88.28.07.56.18.85.26a2.07,2.07,0,0,1,.33.1,2.15,2.15,0,0,1,1.07.73,2.23,2.23,0,0,0,2.12,1,1.78,1.78,0,0,1,1.63,2.81,4.19,4.19,0,0,0-.93,2.51,1.92,1.92,0,0,0,.67,2.53,6.13,6.13,0,0,1,.92,1,3.48,3.48,0,0,1,1.63,3.77c-.05.43,0,.87,0,1.3-.21,1.49-.43,3-.69,4.47A2.13,2.13,0,0,1,42,131.68Z"/><path class="cls-8" d="M7.1,22.35a2.54,2.54,0,0,1,1-.92,1.3,1.3,0,0,1,.55-.22c3.06-.12,4.12-2.4,5.09-4.74.23-.55.42-1,1.09-1a65.36,65.36,0,0,1,8.16.12c.46.39.07.53-.22.63a6.09,6.09,0,0,1-1.65.1c-1.14,0-1.24.13-.81,1.15A2.1,2.1,0,0,1,20,19.66a29.27,29.27,0,0,0-2.72,4.73c-.77,1.44-1.68,2.78-2.56,4.13-1.21,1.85-1.2,2.64.2,4.44.14.18.39.29.35.58A10.59,10.59,0,0,1,9.9,35.09a4.65,4.65,0,0,1-2.8-.25,1.27,1.27,0,0,1-.18-1.25c1.23-3.2.77-6.46.3-9.71A7.23,7.23,0,0,1,7.1,22.35Z"/><path class="cls-9" d="M36,120.3l.48,11.4h-2.4a1.4,1.4,0,0,1-.32-1.11c.14-2.53-.36-5-.26-7.35-.17,2.16.39,4.51.23,6.88,0,.54.08,1.11-.33,1.58H32.13a5.71,5.71,0,0,1-.54-2.87c-.05-1.7,0-3.39,0-5.09,0,2.12,0,4.25,0,6.37a2.2,2.2,0,0,1-.32,1.58h-1a2.17,2.17,0,0,1-.31-1.59c0-2.28,0-4.57,0-6.85,0,2.49,0,5,0,7.48a1.39,1.39,0,0,1-.33,1,1.25,1.25,0,0,1-1.44-.67c-.05-2.68-.54-5.34-.24-7.67-.35,1.63.09,3.6.11,5.58,0,.54.1,1.12-.34,1.57l-3.1-3c-.19-2.06-.28-4.13-.55-6.18-.06-.49-.08-1,.49-1.33,1.67,0,3.33,0,5,0,.51,0,1,0,1.52,0,1.6.11,3.22-.2,4.81.19C35.86,120.19,35.92,120.24,36,120.3Z"/><path class="cls-10" d="M29.09.26l21.16,0c0,.79-.72.8-1.21.86a39.54,39.54,0,0,0-6.12,1.47,25.54,25.54,0,0,0-7.68,3.68,5.9,5.9,0,0,1-2.06,1.15A2.33,2.33,0,0,0,32,8.26c-.66.73-1.32.75-1.85-.08a1.52,1.52,0,0,0-2.07-.77c-.72.26-1.09-.52-1.82-.7,0,2.22,0,4.39,0,6.57a4.47,4.47,0,0,1-.12,1.41c-.08.23-.19.46-.51.25a2.26,2.26,0,0,1-.28-1.48c0-2.67,0-5.34,0-8a3.48,3.48,0,0,1,.35-1.71Z"/><path class="cls-11" d="M35.74,110.29l-.72-.24c-.25-.3-.46-.6-.23-1a15.32,15.32,0,0,1,2.14-.09c.57.18.45.77.7,1.14a1.66,1.66,0,0,0,1.08.86c.26-.7-.16-1.49.31-2.13a.57.57,0,0,1,.49-.09,7.51,7.51,0,0,1,1.55,2.35c-.05.32-.05.58.38.31.45,0,.85-.31,1.31-.25.5.23.1.84.56,1.19a1.42,1.42,0,0,1,.59-1.22,1.26,1.26,0,0,1,.44-.24c.38-.08.61.2.87.39.42.25,1,.18,1.35.53a18.65,18.65,0,0,1,2.22,2.31c.67.75,1.1,1.75,2.17,2.11.23.08.27.38.32.61.06.44.18.87.25,1.31,0,1.42-.26,2.83-.23,4.26a.91.91,0,0,1-.36.72c-.65,2-.31,2.71,1.52,3.53a77,77,0,0,0,11.23,3.93c1.62.45,3.27.75,4.91,1.12H58.36c-1.93-.47-3.47-1.71-5.11-2.73-1.14-.72-2.1-1.68-3.27-2.38a1,1,0,0,1-.56-.85,3.73,3.73,0,0,0,.29-1.51,9.75,9.75,0,0,1,.06-1.79c.07-.32.16-.64.25-1a2.5,2.5,0,0,0-.39,1.2,2,2,0,0,1-.45,1.18c-.74.67-1.1.27-1.3-.48a5.54,5.54,0,0,1-.07-1.41c0-.75.44-1.52-.18-2.26-.24-.29-.13-.53.36-.58a1.74,1.74,0,0,0,1-2.58c-.48-.68-1-1.28-1.53-2-.26-.34-.56-.65-.83-1-1.08-1.08-1.41-1.09-1.76-.08,0,.07,0,.15.07.21.44.35,1.14-1,1.45.21a1.63,1.63,0,0,1-.24.81,1.8,1.8,0,0,0,.16,2.1,8.75,8.75,0,0,1,1.23,3c0,.5-.25.64-.69.39-1-1-1.12-2.43-2.17-3.33-.22-.18-.33-.75-.75-.16a.47.47,0,0,1-.63,0c-.12-.23,0-.42.09-.62.2-.38.56-.74.32-1.19a1.76,1.76,0,0,0-1.11-1c-.51-.08-.45.54-.56.87-.18.6-.82.7-1.11,1.16s-.09,1.07-.67,1.33a.5.5,0,0,1-.49-.14.83.83,0,0,1,0-1.08,7.28,7.28,0,0,0,.83-1.56c.19-.47,1-.9.43-1.42s-1-1.32-2.08-1a1.53,1.53,0,0,1-1.81-.83,2.38,2.38,0,0,0-1.23-1c0-.07,0-.16-.05-.17S35.76,110.22,35.74,110.29Z"/><path class="cls-12" d="M103.37,117.43c0,1.15-.06,2.3,0,3.44a3.84,3.84,0,0,0,2.48,3.72,6,6,0,0,1,2.75,2.13c-1.52,1.54-3.05,3.08-4.55,4.64-.57.59-1.26.3-1.9.35a13.3,13.3,0,0,1-1.41,0,1.55,1.55,0,0,1-.43-.7c-.69-2.54-2.18-4.68-3.5-6.9-.23-.39-.62-.75-.32-1.28,1.74-.82,3.56-1.45,5.3-2.28a1.56,1.56,0,0,0,1-1.62C102.84,118.39,102.59,117.7,103.37,117.43Z"/><path class="cls-13" d="M90.79,131.67l-6.94,0a1.84,1.84,0,0,1-.91-1.54,5,5,0,0,0-.6-1.61A12.77,12.77,0,0,0,84,122.49c.71-.13.54.46.64.81s.13.85.6.67c1.58-.61,3.37-.45,4.88-1.3a.64.64,0,0,1,.33-.1c.9.34,1.15,1.25,1.68,1.92s.63,1.53,1.66,1.47a1.2,1.2,0,0,1,.38,1.28,1.5,1.5,0,0,1-.92.7,2.68,2.68,0,0,0-2.15,2.74A1.47,1.47,0,0,1,90.79,131.67Z"/><path class="cls-14" d="M24.08,126.93l-10-10v-.11c0-3.31,0-2.85,2.95-2.84a7.19,7.19,0,0,1,6.67,5.46c.38,2,.47,4.08.71,6.11A1.54,1.54,0,0,1,24.08,126.93Z"/><path class="cls-15" d="M15,14.47q4.88-5.11,10-10a1,1,0,0,1,.36.84c0,2.93.12,5.85,0,8.78a1.14,1.14,0,0,1-1.28,1.23c-2.7,0-5.39,0-8.08,0C15.51,15.33,14.8,15.37,15,14.47Z"/><path class="cls-16" d="M.26,33.12c0-1.15,0-2.3,0-3.45a1.19,1.19,0,0,1,.41-.93c2-2,4-3.94,6-5.92.83.85.65,2,.78,3a15.65,15.65,0,0,1,0,6.32c-.16.61-.33,1.2-1,1.24a38.18,38.18,0,0,1-5.66,0A.79.79,0,0,1,.26,33.12Z"/><path d="M43.4,116.72c.46.19,1-1.28,1.4,0,.28.9-.36,1.52-.71,2.22a2.12,2.12,0,0,0-.22.78c-.18,1.19-.12,1.27,1.13,1.47.46,0,.65.39.83.76s.34.83.92.74c.23-.54,0-1.11.16-1.64.2-.75.51-.72.89-.11a1.61,1.61,0,0,1,.08.54c.09,1.09-.29,2.26.64,3.21.35.35-.25.57-.35.87a4.61,4.61,0,0,0-.24,1.52c-.08.45-.23.92-.77.87s-.45-.55-.47-.94a3.61,3.61,0,0,1,0-.5c-.31,1.61-.28,3.49-1.27,5.14H42l.94-5.9c.09-1.65.49-3.28-.71-4.82C41.3,119.84,42,117.7,43.4,116.72Z"/><path class="cls-17" d="M45.45,131.68l1.16-5.7.29,0c0,.38,0,.76,0,1.13s-.08.65.29.67.35-.42.41-.71c.11-.6-.18-1.26.27-1.82a1.34,1.34,0,0,1,1.67.48,48.8,48.8,0,0,0,5,3.69c1.23.79,2.52,1.49,3.78,2.23Z"/><path class="cls-18" d="M15,14.47c.05.59.49.51.88.51,2.72,0,5.45,0,8.17.09.65,0,1-.1,1-.89C25,11,25,7.72,25,4.5l.73-.77c0,3.31,0,6.61,0,9.92,0,.45-.17.95.27,1.32a1,1,0,0,1,.73,1c.09,3.05.47,6.13-1.08,9a8.63,8.63,0,0,1-1.52,2.26c-.39.05-.46-.23-.54-.5a3.19,3.19,0,0,1,.59-1.89c1.38-2.49,1.3-5.19,1.21-7.89,0-.6-.36-.82-.92-.84s-1,.05-1.34-.33H14.8c-.47,0-.66.11-.77.63a8.17,8.17,0,0,1-2.64,4.26,3.86,3.86,0,0,1-3.34.81,1.83,1.83,0,0,1,.73-.73c2.66-.53,3.72-2.65,4.77-4.78Z"/><path class="cls-13" d="M96.47,122.91c1.37,2.45,3.15,4.67,4,7.42a3.59,3.59,0,0,1,.34,1.36H99.09c-.33-.32-.29-.78-.43-1.17a1.64,1.64,0,0,0-1.34-1.28c-.61-.22-1.2-.48-1.83-.66-.07,0-.17-.08-.18-.14,0-.71-.47-.34-.79-.27a1.2,1.2,0,0,1-.31-.78c.25-1.13-.59-2.09-.47-3.19.51-.41.19-.84,0-1.27s-.7-1-.49-1.66c.71-.51,1.13.54,1.78.32A2.08,2.08,0,0,1,96.47,122.91Z"/><path class="cls-19" d="M24.08,126.93a48,48,0,0,0-.7-7.07,6.79,6.79,0,0,0-6.49-5.55h-.6c-1.88,0-1.88,0-2,1.92,0,.27,0,.56-.26.73l-.23-.26c.08-1.23.14-2.47.22-3.71,0-.23,0-.53.32-.52s.21.32.19.52c-.07.56.27.64.72.63.78,0,1.57,0,2.35,0,1.69-.22,2.91.77,4.08,1.7a5.85,5.85,0,0,1,2.47,3.49c.11.63.61.49,1,.56a1,1,0,0,1,.31.16c.15.43-.2.49-.45.61a.5.5,0,0,1-.5-.06c-.57.54-.19,1.17-.15,1.75.11,1.56.28,3.12.39,4.69,0,.33.16.72-.24,1Z"/><path class="cls-20" d="M95.52,128.39a3.18,3.18,0,0,1,1.89.7,1.56,1.56,0,0,1,.76.52,1.53,1.53,0,0,1,.44,1.5c-.12.68-.75.38-1.13.57H92.84a2.07,2.07,0,0,1,.44-2.73A8.64,8.64,0,0,0,95.52,128.39Z"/><path class="cls-21" d="M.26,33.12c1.83,0,3.65-.08,5.47,0,1,.06,1.27-.42,1.43-1.26a21.82,21.82,0,0,0-.1-6.25c-.09-.94-.28-1.87-.42-2.81l.46-.47a6.65,6.65,0,0,1,.63,2.84c.42,2.83.61,5.64-.51,8.38a3.27,3.27,0,0,0,0,1.17c-.46.1-.47-.1-.31-.43-.29.24.13.69-.22.93-.07-1.45-1-1.49-2.15-1.43-1.42.08-2.85,0-4.27,0Z"/><path class="cls-22" d="M93.35,129.06a3.36,3.36,0,0,0-.51,2.61h-2c0-1.52-.1-3.16,1.76-3.81a9.17,9.17,0,0,0,1.53-.69.47.47,0,0,1,.24.22.69.69,0,0,1,.2.73C94.75,129.21,93.84,128.87,93.35,129.06Z"/><path class="cls-23" d="M31.24,131.67c0-2.84-.1-5.68.1-8.52a1.38,1.38,0,0,1,.51-1.12c.1,3.37.19,6.51.28,9.65Z"/><path class="cls-24" d="M29.55,131.7v-9.64a1.51,1.51,0,0,1,.66,1.54q0,4,0,8.07Z"/><path class="cls-25" d="M33.37,131.69v-9.41c.53.56.88,4.56.68,9.41Z"/><path class="cls-26" d="M13.55,15.92c-.3,2.55-2.62,4.87-4.77,4.78A67.22,67.22,0,0,1,13.55,15.92Z"/><path class="cls-27" d="M27.64,130.51c0-2.86-.43-5.73.1-8.59a.32.32,0,0,1,.32.32q.17,4.08.31,8.18c0,.24,0,.48-.26.61Z"/><path class="cls-28" d="M82.47,128.63a.68.68,0,0,1,.66.78,4.86,4.86,0,0,0,.72,2.29H81c-.3-1,.52-1.57.76-2.36C81.94,129.05,82.06,128.69,82.47,128.63Z"/><path class="cls-29" d="M82,129.37l-1,2.32H77.92c1.34-.83,2.85-1.45,3.77-2.85C82.1,128.84,82.09,129.08,82,129.37Z"/><path class="cls-30" d="M97.48,131.68c1.11-.46,1.24-1,.47-2-.17-.21-.36-.41-.54-.62,1-.24,1.12.57,1.45,1.11a2.46,2.46,0,0,1,.23,1.49Z"/><path class="cls-31" d="M.05,92.89a1.2,1.2,0,0,0,.19,0c-.1,1.67.23,3.35-.19,5Z"/><path class="cls-32" d="M24.07,27.16c.29-1.21,1.21-2.09,1.67-3.24,1.07-2.69.68-5.46.61-8.22,0-.24-.24-.48-.37-.73V6.21a.57.57,0,0,1,.71.15,1.54,1.54,0,0,0,2.22.51c.78-.4,1,.3,1.32.8.65,1.17.95,1.2,1.75.1.14-.19.3-.46.49-.5,2.35-.41,3.78-2.52,6-3.22,2-.66,3.85-1.92,6.08-2.19,1.74-.22,3.4-1,5.18-1.16a.72.72,0,0,0,.54-.42h9.3c.27.75.85.85,1.54.75a14.91,14.91,0,0,1,6.33.56,2.36,2.36,0,0,0,.82.17c2.05-.18,4,.72,6,.81a2.85,2.85,0,0,1,2,1,2,2,0,0,0,1.71.66,10.22,10.22,0,0,1,4.31.64,2.22,2.22,0,0,0,2.6-.51,2.3,2.3,0,0,1,2.94-.48A1.89,1.89,0,0,0,89.15,4a1.86,1.86,0,0,1,1.39,0c.56.84.17,1.8.34,2.68l0,.2a.93.93,0,0,1-.06.37,5.06,5.06,0,0,0-1,2,.92.92,0,0,1-1.22.78A33,33,0,0,0,84,8.28c-1-.39-2,.32-3,.52A6.14,6.14,0,0,1,78.83,9c-1-.14-3.28,1.46-3.57,2.39a1.06,1.06,0,0,0,0,.8c.08.18.24.33.31.5A13.62,13.62,0,0,0,77.69,17c.54.62.1,1.13-1.12,1.61a12.63,12.63,0,0,1-3.87-.4,1.28,1.28,0,0,1-1.07-1.37c0-1.11,0-2.22,0-3.32a3,3,0,0,0-2.35-2.84,15.06,15.06,0,0,0-5.18.32,2,2,0,0,0-1.07.7,5.83,5.83,0,0,0-.85,1.39,6,6,0,0,0,0,2.69,1,1,0,0,1-.15.73.81.81,0,0,1-.67.19c-3.24-.76-6.12.44-9,1.57-.66.26-1.3.59-2,.83a3.6,3.6,0,0,0-1.39.64A29.81,29.81,0,0,0,42.17,25c-.21.22-.44.49-.81.24a1.12,1.12,0,0,1-.17-.44c-.35-2-1.59-2.91-3.6-2.47a11,11,0,0,0-4.67,2.44c-.23.47-.82.44-1.12.79,0,.1.07.16.16.17,2,.17,1.92,1.06.9,2.58-.24.37-.52.7-.75,1.07A2.41,2.41,0,0,0,32.87,33,10,10,0,0,0,36,34.37c1.17.3,1.29.54.66,1.55a46.19,46.19,0,0,0-5.31,12.31,1.76,1.76,0,0,1-2.13,1.4H27.83c-1.86,0-2.81.84-3.2,2.71a7.37,7.37,0,0,0,.91,5.43,2,2,0,0,0,2.14.63c1.76-.33,2,0,2.23,1.73.13,1.14.06,2.05-1.18,2.49C25,63.91,21.12,65,17.4,66.43c-3.06.91-6.11,1.85-9.13,2.88-.51.17-1,.48-1.59.24a1.38,1.38,0,0,1,.22-1.84c.78-.79.77-2.32,2.58-2.26-.69-.58-1-.21-1.32-.09a1.78,1.78,0,0,1-2.39-1.28,5.4,5.4,0,0,1,.7-3.76c.17-.32.45-.26.71-.3,1.43-.22,1.45-.57,1.17-2C8,56.17,6.79,54.6,6.86,52.61c0-1.21,1-2,1.06-3.09.12-1.87.47-3.72.45-5.61A5.07,5.07,0,0,1,9.21,41a4.32,4.32,0,0,0,.54-4.68c-.48-1,.89-.26,1-.83.29-.61.9-.58,1.42-.7a26.52,26.52,0,0,0,6.64-2.35,18,18,0,0,0,4.49-4.26C23.55,27.84,23.7,27.42,24.07,27.16Z"/><path class="cls-33" d="M97.45.24c0,.2,0,.4,0,.6q.11,15.35.21,30.7c0,.46-.15,1,.21,1.37a6.23,6.23,0,0,1,1.9,2.24,33.13,33.13,0,0,1,5,11.49c.22,1.07.71,1.52,1.77,1.4a9.53,9.53,0,0,1,1.07,0c2.65,0,3.64.85,4.15,3.42a8.55,8.55,0,0,1-.4,5.24,3,3,0,0,1-2.93,2c-2.84.05-2.87.07-3.52,2.87a34,34,0,0,1-2.89,7.9A37.33,37.33,0,0,1,89.42,83.09a40.43,40.43,0,0,1-8.63,4.3c-.49,0-.89-.06-.94-.64a1,1,0,0,1,.78-1.06c1.59-.62,3.1-1.41,4.63-2.16,1-.47,1.85-1.07,2.77-1.6s.74-.86.21-1.49A34.83,34.83,0,0,1,85,76.79c-.94-1.36-2-2.62-3-3.93-1.87-2.4-3.69-4.84-5.4-7.36-.16-.24-.27-.68-.67-.5s-.16.5-.12.77A6,6,0,0,1,76,68c-.07.35-.17.81-.56.81S75,68.31,75,68c-.09-.7.15-1.43-.23-2.1a1.82,1.82,0,0,1-.24-.86,1.68,1.68,0,0,1,.5-1.14,22.06,22.06,0,0,0,3.87-4.31,10.88,10.88,0,0,0,1.1-10,12.37,12.37,0,0,0-5.36-6.15,1.36,1.36,0,0,0-1.44,0,1,1,0,0,1-.42-.76,1.06,1.06,0,0,1,.34-.82,1,1,0,0,1,.69-.13,3.64,3.64,0,0,1,1.09.47,4.11,4.11,0,0,1,1.28.7,11.7,11.7,0,0,1,2.12,2,3.6,3.6,0,0,0,.59.58,11,11,0,0,1,2.92,5.31c.23.63.75.61,1.28.62,1.19,0,2.38,0,3.57,0,.46,0,1-.07,1.26.45-.31.51-.82.42-1.28.43-1,0-2,0-3,0-.43,0-.89-.09-1.18.36-.37,1.79-.18,2,1.62,2h18.16c1.73,0,1.86-.18,1.59-2-.38-.5-1.07-1-.15-1.6a15.28,15.28,0,0,0-1-5.71,46.1,46.1,0,0,0-2.44-6c-.64-1.13-1.3-2.26-2-3.35a39.29,39.29,0,0,0,.25,9.69,9.88,9.88,0,0,1,.07,2.24c0,.56-.14,1.12-.78,1.31a1.15,1.15,0,0,1-1.38-.62,10.4,10.4,0,0,1-.09-3.69,3.32,3.32,0,0,0,.22-1.85c-.29-2.16.16-4.32.22-6.48a6,6,0,0,0-2-5c-.92-.72-1-1.19-.3-2.39.6,0,.83.54,1.23.82s.41.75.93.52a6.25,6.25,0,0,0,0-1.43c0-8.95,0-17.9,0-26.85,0-.69-.16-1.44.41-2Z"/><path class="cls-34" d="M90.52,4.05c-.58.13-1.16.23-1.73.39a1.12,1.12,0,0,1-1-.15,2,2,0,0,0-2.91.38,1.64,1.64,0,0,1-2,.66,13.28,13.28,0,0,0-5.58-.81A1.07,1.07,0,0,1,76.17,4a3.26,3.26,0,0,0-2.35-1.14c-2.42-.46-4.88-.63-7.3-1.14a11.22,11.22,0,0,0-5.25-.32,3.76,3.76,0,0,1-1.06,0c-.84,0-1.08-.4-.66-1.14h31A4.86,4.86,0,0,1,90.52,4.05Z"/><path class="cls-35" d="M97,.28q0,15.23-.08,30.44c0,.11.51,1.11-.45.5a8.38,8.38,0,0,1-.12-1.66q0-11.29,0-22.6c0-1.68,0-1.69-1.67-1.82a4,4,0,0,1-2.59-1A5.22,5.22,0,0,1,92.17.28Z"/><path class="cls-36" d="M92.17.28l0,3.77a4.36,4.36,0,0,1,.2,3.12c-.2.3-.42.39-.53,0a4.11,4.11,0,0,1,0-.91c-.13.35.24,1-.48,1.25a.67.67,0,0,1-.63-.36,1.23,1.23,0,0,1,0-.19,34.33,34.33,0,0,0,.16-5.07c0-.54-.1-1.12.33-1.58Z"/><path class="cls-37" d="M91.23.27c0,1.88,0,3.76,0,5.64,0,.39.18.91-.48,1h0a39.91,39.91,0,0,1,0-6.65Z"/><path class="cls-36" d="M90.77.27c0,2.22,0,4.43,0,6.65C90.3,6,90.65,5,90.52,4.05c0-1.26,0-2.52,0-3.78A.3.3,0,0,1,90.77.27Z"/><path class="cls-38" d="M101.7,69.53a43.43,43.43,0,0,0,3-8.6c.5-2.53.54-2.53,3.16-2.53,2.25,0,2.93-.54,3.5-2.71a9.32,9.32,0,0,0-.36-5.6,2.46,2.46,0,0,0-2.45-1.73c-1,0-2,0-3,0-.51,0-.83-.15-.93-.68A34.75,34.75,0,0,0,98,33.13a.57.57,0,0,1-.07-.22c0-6.87.07-13.74,0-20.6,0-1.57-.15-3.16-.2-4.74a1.53,1.53,0,0,1,.78-1.49c.58-.33,1,.11,1.52.37,2.54,1.36,4.75,3.22,7.2,4.73a7.8,7.8,0,0,1,1.68,1.3c1.66,1.79,3.67,3.26,5.06,5.3.12.17.3.29.38.46a38.74,38.74,0,0,0,2.79,5.58.42.42,0,0,1,.08.22c-.36,2.09.82,3.7,1.66,5.42a8.65,8.65,0,0,0,2.27,2.84c1.91,1.59,2.23,3.84,2.76,6a2.27,2.27,0,0,1-.41,1.58,1.6,1.6,0,0,0,.25,2,7.32,7.32,0,0,1,1.87,5.46,4,4,0,0,0,1,3.19,4.27,4.27,0,0,1,.86,2.31,27.07,27.07,0,0,1,0,7.68,2,2,0,0,1-.33.87c-1.51,1.87-2.23,4.18-3.52,6.17a1.67,1.67,0,0,0-.39,1c.34,1.93-.73,3.26-1.9,4.5-1,1.06-.91,2.49-1.5,3.68a4.32,4.32,0,0,0-.69,2.6,1.33,1.33,0,0,0,.27.88c1.62,1.59.88,3.33.32,5.07,0,.1-.19.19-.19.29,0,1.76-1.24,1.4-2.27,1.41-1.79,0-3.58,0-5.36,0-.24,0-.86-.32-.62.43-.92.53-1.15-.37-1.61-.78-.92-1.15-1.49-2.39-.71-3.82,1.77-3.24.44-5.88-1.67-8.3A52.49,52.49,0,0,0,101.7,69.53Z"/><path class="cls-39" d="M104.11,108.14l-.27,2.62c-.2.34-.06.7-.1,1-.09.73.32,1.62-.36,2.15-1.18.93-2.13,2.28-3.81,2.45-.54-.17-.71-.71-1-1.09-1-1.19-1.89-1.31-3.21-.43a5.11,5.11,0,0,1-1.47.75,2.16,2.16,0,0,1-2.92-2.13,2.3,2.3,0,0,1,0-.83,5.62,5.62,0,0,0-.28-4.24,1.27,1.27,0,0,1,.78-.5,1.16,1.16,0,0,0,.89-1.13,2.42,2.42,0,0,1,1.47-2.13,45.61,45.61,0,0,1,7.08-3,4.91,4.91,0,0,0,2.7-1.82,2.07,2.07,0,0,1,1.12-.85c3.94-1.19,7.1-3.81,10.56-5.86a8.15,8.15,0,0,0,2-2.18A34.22,34.22,0,0,1,120,87.61c.91-.18,1.09.28.79,1A7.73,7.73,0,0,1,119.21,91c-1.9,2-4,3.78-6.12,5.61a45.59,45.59,0,0,0-4.74,4.48,2.32,2.32,0,0,1-1,.85A9.87,9.87,0,0,0,104.11,108.14Z"/><path class="cls-40" d="M120.05,87.69c-1.06,1.4-2.07,2.85-3.19,4.21-1.84,2.25-4.52,3.39-6.88,4.91a15,15,0,0,1-5.13,2.4.93.93,0,0,0-.6.36c-1.2,2.09-3.49,2.27-5.4,3.14a36.36,36.36,0,0,0-5.26,2.44c-.51.34-1,.72-.9,1.29.14,1.49-.73,1.86-1.94,1.94-1.09-.16-1.33-1.23-2-1.88a3.7,3.7,0,0,1-.43-2.62c.18-1.15,1-1.46,2-.75l.18.15c1.78,1.47,2.86,1.1,3.35-1.15a4.58,4.58,0,0,1,.37-1.36c1.51-.51,2.87-1.42,4.54-1.56a3.12,3.12,0,0,0,3.18-2.85,1.44,1.44,0,0,1,.37-.86c1.1-.86,1.73-2.14,3.1-2.82a14.46,14.46,0,0,0,4.6-4.35c-.28-.49-.74-.37-1.07-.55s-.65-.23-.63-.62.38-.45.68-.56a1.6,1.6,0,0,1,.81-.11c.54.2.64,1.13,1.45.9a.56.56,0,0,0,.22,0c2,.34,4-.16,6,0C118.3,87.53,119.22,87.17,120.05,87.69Z"/><path class="cls-41" d="M120.05,87.69l-2.61-.07c-1.1-.27-2.24.11-3.34-.2,1.22-.53,2.49-.14,3.73-.23a16.89,16.89,0,0,1,2.25,0c1,0,1.33.54.93,1.48A7.7,7.7,0,0,1,119.44,91c-3.64,3.85-7.89,7-11.57,10.85-.13.14-.28.3-.48.06,2.54-3.35,6-5.75,9.06-8.52a17.37,17.37,0,0,0,4-4.54C120.68,88.38,121.06,87.81,120.05,87.69Z"/><path class="cls-38" d="M114.1,87.42c1.11.1,2.25-.21,3.34.2-2-.05-4,.29-6-.2Z"/><path class="cls-31" d="M6.68,69.55q4.94-1.64,9.89-3.25a4.29,4.29,0,0,1,.82-.09c.67.16.77.33.35.8a6.17,6.17,0,0,1-2,1.44,3.17,3.17,0,0,0-1.91,2.78,5.85,5.85,0,0,1-.43,1.48c-.25.67-.59,1.46-.23,2.06.77,1.27,1.32,2.74,2.62,3.61.76.51,1.3,1,1,2a.83.83,0,0,0,.32,1c1.64,1,2.5,2.71,3.72,4.09A12.36,12.36,0,0,0,24,88.26a15.24,15.24,0,0,1,1.84,1.66c-.22,1.79-1.11,3.37-1.58,5.08a27.92,27.92,0,0,0-1.1,4.39,1.56,1.56,0,0,1-.94,1.27,4.59,4.59,0,0,0-1.74,1.41c-.7,1.07-.34,2.25-.35,3.39a3,3,0,0,1,.08.32,1.66,1.66,0,0,0,.72,1.35c1.87,1.71,3.65,1.81,5.6.32.82-.64,1.4-.51,2.1.43-1.65,0-2.62,1.24-3.8,2.05a15.1,15.1,0,0,1-1.95,1.31c-.21.1-.46.22-.35.52s.32.17.51.19c.65.09,1.34-.19,2,.19a1.34,1.34,0,0,1-1.3.4c-2.32-.21-4.65-.07-7-.11a1.52,1.52,0,0,1-1-.23c.55-.85,1.26-1.62.85-2.8-.11-.31.34-.64.71-.86a1.6,1.6,0,0,0,.33-2.64,3.49,3.49,0,0,1-1.31-2.51,2.59,2.59,0,0,0-1.24-2A10.22,10.22,0,0,1,12.63,98c-.35-.61-.81-1.16-1.22-1.74-.55-.75-.53-.83.28-1.41.37-.27,0-.51-.1-.68A22.11,22.11,0,0,0,9.33,91C7.87,89.4,7.4,87.35,6.48,85.49c-1.19-2.4-1.65-5.09-3-7.46a1.63,1.63,0,0,1-.15-1.27,3.29,3.29,0,0,0,0-2.08A2.42,2.42,0,0,1,3.76,73c.35-.76.65-1.55-.18-2.24A16.14,16.14,0,0,1,6.68,69.55Z"/><path class="cls-42" d="M25.23,119.55c-.84.19-1.2-.06-1.47-1-.67-2.34-2.56-3.58-4.68-4.5a13.82,13.82,0,0,0-1.46-.47c-.83-.55-1.84.06-2.69-.37v-.35h8c.06,0,.11-.14.18-.15,3.52-.18,7.09-.83,10.27,1.51A6.64,6.64,0,0,1,36,118.39c.2,1-.13,1.27-1,1.26C31.77,119.63,28.5,119.78,25.23,119.55Z"/><path class="cls-43" d="M25.23,119.55c.39-.29.84-.17,1.26-.17,2.78,0,5.56,0,8.33,0,.86,0,1.22-.09,1-1.12a7.24,7.24,0,0,0-6.17-5.33c-2.23-.19-4.49,0-6.73-.06-2-.46-4-.08-6-.22-.41,0-1,.28-1.15-.46l9.29-.06c1.61.09,3.24.07,4.82.3,2.47.37,5.68,2.24,6.35,5.62.1.5.18,1,.26,1.51a1.46,1.46,0,0,1-1.1.33c-3,0-5.92,0-8.88,0a1.4,1.4,0,0,1-1-.28Z"/><path class="cls-44" d="M99.56,116.25c1.56-.47,2.6-1.7,3.8-2.67.39-.31.23-.88.27-1.35s-.19-1,.21-1.47c.11,2.25.41,4.5-.47,6.67a.62.62,0,0,0-.22.64c.38,1.73-.4,2.62-2,3.14s-3,1.46-4.66,1.7l-1.42-1.21a1.28,1.28,0,0,1-.87-.57c-.4-.54-.9-1.1-.62-1.83a1.94,1.94,0,0,1,1.68-1.17,4.8,4.8,0,0,1,3.34.51c.67.45.88.2.93-.53S99.21,116.85,99.56,116.25Z"/><path class="cls-45" d="M19,32.6c-2.56,1.53-5.45,2.15-8.3,2.88-1.35,0-2.73.39-4-.24v-1l.53.5a16.07,16.07,0,0,0,8.09-1.37,8.4,8.4,0,0,1,3-1.23C18.64,32.19,19,32.11,19,32.6Z"/><path class="cls-46" d="M76.25,120.55a11.2,11.2,0,0,1-2.83.23c-.42,0-.88-.14-1.24.21a8.5,8.5,0,0,1-6.64-1.2c-.27-.3-.64-.18-1-.23a18.59,18.59,0,0,1-4.77-2.14c-1-1.08-2.41-.94-3.64-1.38A14.08,14.08,0,0,1,50,112.91c-.55-.51-1.07-1-1.59-1.58a1.66,1.66,0,0,1-.34-.46,1.11,1.11,0,0,1,.3-1.46c.46-.29.66.35,1,.55,2.45,2.59,5.64,3.53,9,4a53.68,53.68,0,0,0,9.22.56,3.39,3.39,0,0,0,1.05-.12,8,8,0,0,0,3.64-1.27,2.75,2.75,0,0,0,1.36-1.71c.26-.48-.08-1.37.76-1.42s1.25.61,1.53,1.3c.81,2,1.25,4.17,2.13,6.18C78.37,119.21,77.79,120.2,76.25,120.55Z"/><path class="cls-47" d="M90.29,122.66c-.22,1.16-1.29.81-1.92.89a15.61,15.61,0,0,0-2.83.7c-.93.32-1.25.11-1.22-.83,0-.34.1-.71-.21-1-.77-.76-.86-1.82-1.24-2.76-.53-1.31-1-2.64-1.64-3.9-1-1.35-2.35-1.41-3.81-1a6.74,6.74,0,0,1-1.34-3.68c.47-.47.8-.07,1.08.22.43.45.72.27,1.07-.1a16,16,0,0,0,1.6-2.46,10.77,10.77,0,0,0,3.51,2.09c.36.09.49.49.55.86.48,3,2.25,5.28,4.19,7.46a32.41,32.41,0,0,1,2.09,2.59C90.35,122.06,90.55,122.34,90.29,122.66Z"/><path class="cls-48" d="M77.18,130.06c-.42.26-.1.75-.39,1.13-.78-.42-1.56-1.07-2.54-.47a1.77,1.77,0,0,1-2.62-.85c-.11-.23-.3-.22-.48-.26s-.51,0-.54-.19c-.27-1.55-1.38-.66-2.13-.7-.36,0-.83.31-1-.16s.23-.71.57-.92a1.22,1.22,0,0,0,.64-.94l-.18-.15c-.3-.21-.87-.28-.61-.8s.62-.16,1,0l3.13,1a2.41,2.41,0,0,1,1.69.37c1.06.51,2.05,0,3.07,0,.33,0,.46-.4.62-.67.48-.78.9-1.6,1.44-2.33.34-.46.9-1,1.26,0,.16.47.43.35.74.3s.65-.24.82.19a.69.69,0,0,1-.18.77c-1.08.93-1.27,2.29-1.82,3.49A2.56,2.56,0,0,1,77.18,130.06Z"/><path class="cls-49" d="M48.59,111.24c2,2.36,4.86,3.51,7.57,4.8-.8.28-.55.73-.21,1.22s.41.78,1,.28c.94-.75.52.34.7.62.11.6-.37,1.18,0,1.78a12.4,12.4,0,0,0,1.05,2.49c.17.38.52.86.08,1.18s-.84-.17-1.15-.51c-.16-.17-.19-.43-.51-.68.07,1.43-.62,2.63-.62,4,0,.58-.15,1.18-1,.79-1-.76-.73-1.83-.72-2.84.09-.09.07-.24.13-.31a2.65,2.65,0,0,0,.27-3.38,4.59,4.59,0,0,1,.22-1,2.77,2.77,0,0,0-1.63-3.29,20.93,20.93,0,0,1-6.57-5c-.15-.28-.32-.6,0-.82s.51,0,.72.22S48.37,111.09,48.59,111.24Z"/><path class="cls-50" d="M55.49,120.76c-.12.76,1.13,1,.71,1.9-.33.69-1.16.93-1.41,1.68a2.08,2.08,0,0,0-2.49-1.47,2.5,2.5,0,0,1-1.37.24l.3-5.21c.38-.12.62.18.92.31s.55.12.62.29C53.26,119.77,54.57,120,55.49,120.76Z"/><path class="cls-51" d="M59.81,120.76a1.38,1.38,0,0,0,1,.81c1.14.18,2,1.06,3.08,1.43.77.25,1.07,1.66.76,2.51a1.5,1.5,0,0,1-1.81,1,.89.89,0,0,1-.74-.44,2.41,2.41,0,0,0-2.33-1A5.86,5.86,0,0,1,59.81,120.76Z"/><path class="cls-52" d="M77.18,130.06a12.29,12.29,0,0,0,1.15-.57c.49-.3,1.41-.32.9-1.34-.11-.24.24-.36.41-.52s.92-.41.1-.84c-.25-.13.12-.37.28-.52a6.76,6.76,0,0,0,1.54-1.65c-.7-.35-1.14.32-1.76.26v-1.22c-.92.22-1.11,1-1.48,1.62-1.6,2.54-2.3,2.81-5.18,1.89-.41-.13-.8-.31-1.2-.47-.17-.4,0-.51.36-.39.64.21,1.27.46,1.92.62a2.72,2.72,0,0,0,3.18-1.26c.36-.57.68-1.17,1.07-1.72.64-.89,1.13-.9,1.87-.07.25.28.49.15.76.06s.73-.13,1,.23a.77.77,0,0,1-.19,1.07c-1.09.93-1.38,2.28-1.85,3.54-.29.76-1.08,1-1.71,1.37a2,2,0,0,0-1.12,1.09Z"/><path class="cls-53" d="M55.51,127.18c.41,0,.71,0,.69-.54,0-1.7.73-3.26.75-5.06.86.49.61,1.83,1.79,1.94-.19-1.36-1.4-2.32-1.32-3.72.52-.72,1.16-.64,1.84-.26.32,0,.53.17.52.52a6.52,6.52,0,0,0-.21,2.91c0,2.4,0,2.41-2.37,2.33-.74.41-.19,1.32-.69,1.82C56.2,127.53,55.87,127.57,55.51,127.18Z"/><path class="cls-54" d="M68.65,126.7c.68.38.29.68-.1.93s-.83.28-1,.88a10.06,10.06,0,0,0,2.41-.28c.34,0,.74-.24,1,.08s-.45.47-.32.89c.47.29,1.07-.13,1.56.2.14.44-.45.52-.43,1a6,6,0,0,0,2.47.33l1.11.11a4.5,4.5,0,0,1-3.64.11c-.73-.21-1.26-1-1.75-1.52a1.31,1.31,0,0,0-1.62-.42,1,1,0,0,1-1.3-.47c-.27-.59.18-.93.64-1S68.09,126.65,68.65,126.7Z"/><path class="cls-55" d="M81.23,115.77a2.88,2.88,0,0,1,1,1.66c.64,1.65,1.22,3.33,1.83,5a9.94,9.94,0,0,1-1.64,6.2l-.49.74c0-.21-.06-.43-.29-.54a18.91,18.91,0,0,0,1.66-3.23c.69-2.18-.1-4.11-.84-6-.41-1.07-.88-2.12-1.33-3.17C81.08,116.16,81,116,81.23,115.77Z"/><path class="cls-56" d="M76.25,120.55a2.78,2.78,0,0,0,1.62-3.09c-.09-.24-.19-.49.24-.47.23.3.61.11.87.27a2,2,0,0,1,1,1.53c.06.61-.42.93-.85,1.19a10,10,0,0,1-2.66,1C76.09,121,76.14,120.8,76.25,120.55Z"/><path class="cls-57" d="M78.11,117l-.24.47c-.89-1.39-1.08-3-1.67-4.54a11.38,11.38,0,0,1-.43-1.24c-.19-.74-.58-1.46-1.32-1.51s-.06,1-.61,1.28c-.29-.26-.37-.66-.61-1a3.37,3.37,0,0,1-.22-1.37c.1-.3.22-.56.59-.58a7.63,7.63,0,0,0,1.46,1A1.61,1.61,0,0,1,76.19,111l1.23,3.81A9,9,0,0,1,78.11,117Z"/><path class="cls-58" d="M56.51,127.12c.07-.69-.49-1.5.4-2a5.7,5.7,0,0,0,2,.25.33.33,0,0,1,.38.43C58.53,127.31,57.92,127.61,56.51,127.12Z"/><path class="cls-59" d="M59.31,125.77c-.74-.47-1.84.37-2.4-.68.23-.35.52-.19.84-.13,1.31.26,1.56.05,1.56-1.25,0-.95,0-1.9,0-2.85,0-.35-.06-.75.46-.8l0,.7c0,1.43,0,2.86,0,4.3C59.79,125.4,59.79,125.75,59.31,125.77Z"/><path class="cls-60" d="M59.26,119.54c-.61.13-1.27-.12-1.84.26-.56-.65.09-1.11.27-1.64.38-.33,0-1.31.83-1.16.62.12.51.86.58,1.39C59.14,118.77,59.21,119.15,59.26,119.54Z"/><path class="cls-61" d="M65.54,119.79a15.57,15.57,0,0,0,6.64,1.2c-.22.84-.92.47-1.39.47a10.25,10.25,0,0,1-5.32-1.31C65.11,119.93,65.21,119.86,65.54,119.79Z"/><path class="cls-62" d="M59.8,117.42a24.32,24.32,0,0,1,4.77,2.14c0,.48-.29.46-.65.29q-2.09-1-4.19-1.92C59.16,117.67,59.38,117.53,59.8,117.42Z"/><path d="M68.87,114.6a17.65,17.65,0,0,1-5.8.15,40.55,40.55,0,0,1-8.44-1.23,10.64,10.64,0,0,1-5.58-3.45c-.18-.65-.89-1-1-1.72.09-1.43.42-2.82.6-4.23s.06-2.49-1.27-3.38c-2-1.29-2.88-3.42-4-5.37-1.37-2.54-2.59-5.16-3.91-7.72A27.88,27.88,0,0,1,37,80a9.12,9.12,0,0,1-.12-1.16c-.19-.33-.48-.19-.74-.16a4.46,4.46,0,0,1-1.29.18c-3.07-.63-4.06,1.52-4.93,3.74-.6,1.5-1.12,3-1.67,4.56a1.86,1.86,0,0,0,.13,1.8c.21.39.87.35.88.93a1.33,1.33,0,0,1-.1.34,1.88,1.88,0,0,1-2.09,1c-.59.1-.71.61-.86,1-.78,2.41-1.41,4.87-2.11,7.31a2,2,0,0,0,.87,2.26c.2,1.16-.67.7-1.18.78s-.95-.73-1.37-.16-.09,1.14.13,1.69a1.42,1.42,0,0,0,1.14.93c.59.1.81-.33,1.05-.75s.6-1.14,1.38-1.12a.75.75,0,0,1,.42.78c-.06,1.17.66,1.71,1.61,2,1.88.67,3.59,1.79,5.56,2.26.44.1,1,.2,1.12.75a1.45,1.45,0,0,1,.24.93c-1.74-.54-3.59-.74-5.17-1.75a2.18,2.18,0,0,0-1.21-.42c-.74-.51-1.34-.8-2.2,0-1.29,1.26-4.53,1.37-5.73-.73a3.87,3.87,0,0,1-.68-1.45h0a6.66,6.66,0,0,1,.22-3.8,3.82,3.82,0,0,1,1.87-1.57c.35-.15.65-.25.71-.68.44-3.41,1.74-6.57,2.86-9.78,0,0,0-.08,0-.12a1.09,1.09,0,0,1,.06-1.42,4.64,4.64,0,0,0,.79-1.72,48.78,48.78,0,0,1,2.69-7.61,1.2,1.2,0,0,0-.35-1.57A10.57,10.57,0,0,1,26.61,65c.47-1,.84-2.08,2-2.55.39-.32,1.06-.44,1.09-1A5.87,5.87,0,0,0,29.47,59c-.27-.65-1.13-.33-1.72-.25a2.24,2.24,0,0,1-2.5-.83c-.05-.41.26-.39.52-.43a8.34,8.34,0,0,0,1.86.33c1.45,0,1.64-.1,1.75-1.58a26,26,0,0,1,.76-5.49c.09-.84-.56-.55-1-.61-.61-.09-1.33.19-1.83-.49.64-.43,1.36,0,1.95-.31a1.45,1.45,0,0,0,1.8-1.19,45.09,45.09,0,0,1,5.55-12.7c.1-.16.17-.34.31-.62a9.18,9.18,0,0,1-4.46-1.65,2.56,2.56,0,0,1-.8-3.73c.46-.78,1-1.52,1.48-2.29.34-.53.27-.83-.46-.94-.58-.09-1.58,0-1.66-.51-.11-.79,1-.49,1.45-.86.12-.1.26-.17.39-.26A6,6,0,0,1,37,23.78,1.15,1.15,0,0,1,38.16,25a4,4,0,0,1-.53,2.05c-.28.52-.6,1-.85,1.56-.55,1.16-.5,1.29.76,1.54a1.62,1.62,0,0,1,1.19.89c.41.82,1,.79,1.66.33a9.12,9.12,0,0,1,1.54-.9,1.17,1.17,0,0,1,1.59.31,1,1,0,0,0,.9.58.8.8,0,0,1,.82.66c.11.84-.9,1.09-1,1.84a2.12,2.12,0,0,1-.76.89c-2.11,1.55-3,3.83-3.76,6.19-.33,1,0,1.41,1.13,1.31A9.61,9.61,0,0,0,42.06,42a.9.9,0,0,0,.77-1.13c-.07-.51-.19-1-.24-1.53a2.25,2.25,0,0,1,.84-2.21,7.6,7.6,0,0,0,1.65-2.58,3.69,3.69,0,0,1,3.14-2A7.38,7.38,0,0,0,52,30.92c3.29-2.28,6.46-4.74,9.87-6.85.84-.52,1.75-.94,2.64-1.38A3.17,3.17,0,0,1,66,22.34c1.14,0,1.58.48,1.48,1.63a9.94,9.94,0,0,1-.85,2.71c-.32.81-.78,1.58-.33,2.49.08.17-.09.38-.22.53-.77.61-1.67.36-2.53.39a12.79,12.79,0,0,0-7.45,2.39A5.34,5.34,0,0,0,53.68,37c0,2.41-.14,4.81,1,7.09A12,12,0,0,0,57,47.36c.32.3.72.5.91.92s-.17.45-.43.52a1.67,1.67,0,0,1-1.45-.67,4.14,4.14,0,0,0-1.71-1.53c-3.46-3.21-4.27-8.51-1.91-13.29-.51.31-.89.55-1.29.76-2.2,1.15-2.21,1.19-1.52,3.58.12.38.29.74.38,1.12s.14.95-.42,1.08-.77-.32-1-.69a20.83,20.83,0,0,1-.8-2c-.21-.49-.45-.54-.88-.2a3.7,3.7,0,0,0-.33,5.82,17.75,17.75,0,0,0,4.72,5.41c.15.13.33.23.47.37a10.2,10.2,0,0,0,6.73,3.07,12.87,12.87,0,0,1,3.72,1.17A7,7,0,0,1,65.45,56c.1.5.55.86.57,1.4-.37.69-.79,1.11-1.45.27a8.68,8.68,0,0,1-1-1.48c-.84-1.81-2.48-2.48-4.22-3-.6-.17-1.23-.27-1.85-.43a1.55,1.55,0,0,0-2,.65c-.39.68-.64.37-.81-.17-.23-1-1.05-1.33-1.9-1.55s-1,.19-.65.88a4.22,4.22,0,0,1,.49,2.53c-.37,1.82-.21,3.4,1.81,4.19.13.06.29.14.28.34s-.17.25-.31.3a2.88,2.88,0,0,1-1.05.11A2.6,2.6,0,0,1,51.55,59a2.68,2.68,0,0,0-3.76-.52c-.68.42-1.27,1.09-2.2.92-.52-.66.08-1,.44-1.37a21.73,21.73,0,0,1,3-2.12c-4.06.34-8.12.13-12.17.19-1.51,0-3,.07-4.52-.07-.71-.06-1,.23-1.1.91a9.43,9.43,0,0,0,0,3.78,2.16,2.16,0,0,1,0,.76,10.88,10.88,0,0,0-3.08,4.71A3.71,3.71,0,0,0,28,68c1.36,6.63,6.52,9.11,12.48,6.84.41-.15.83-.77,1.31-.07a3.67,3.67,0,0,1-1.39,2,1.47,1.47,0,0,0-.52,1.67c1.24,4.59,2.36,9.24,4.66,13.44a66.66,66.66,0,0,0,5.87,9.35,3.46,3.46,0,0,0,1.16,1,24,24,0,0,0,13.34,2.67,10.94,10.94,0,0,0,5.27-2.31c.34-.25.64-.61,1.14-.53.83.81.39,1.56-.1,2.31a11,11,0,0,1-3.94,3,26.8,26.8,0,0,1-6.42,2.09,12.35,12.35,0,0,1-5.41-.3c-.31-.09-.61-.18-.92-.24s-.67-.11-.82.26.15.59.42.74a24.18,24.18,0,0,0,6.54,2.78,22.6,22.6,0,0,0,6.23.83,2.23,2.23,0,0,1,1.26.28C68.44,114.05,68.93,114.08,68.87,114.6Z"/><path class="cls-19" d="M25.47,119.62l11-.05c.07,2.64.57,5.27.4,8.27a1.7,1.7,0,0,1-.36-1.27c-.09-1.85-.17-3.69-.26-5.54,0-.27,0-.57-.26-.73h0a24.16,24.16,0,0,0-5,0H29.58c-1.51-.28-3,.11-4.56-.21Z"/><path class="cls-63" d="M43.4,116.72a16.92,16.92,0,0,0-1,1.88,2.49,2.49,0,0,0,.23,2.56c1,1.42.52,3,.26,4.62a2.5,2.5,0,0,1,0-.47c.21-1.79.09-3.47-1.64-4.57a.5.5,0,0,0,0-.65,1.56,1.56,0,0,1,.13-2.37,9.73,9.73,0,0,1,1.22-2c.22-.24.49-.42.82-.25s.47.42.25.77Z"/><path class="cls-64" d="M41.44,117.91c-.5.72-.73,1.41.07,2.13.28.26.29.65-.28.7-.42-.46-.81-1-1.27-1.38-.75-.69-.92-1.39-.16-2.17l.51,0a5.12,5.12,0,0,0,.44.34C41,117.66,41.27,117.68,41.44,117.91Z"/><path d="M35.74,110.29c-.05-.23-.39-.5,0-.67a.42.42,0,0,1,.55.29c.1.34-.2.34-.41.4h-.1Z"/><path class="cls-65" d="M18.32,32.37a20.16,20.16,0,0,1-3,1c-.59,0-1-.18-1-.87a.89.89,0,0,0-.21-.54c-1.09-1.2-.64-2.28.22-3.34,2.25-2.77,3.37-6.22,5.48-9.08a1.87,1.87,0,0,0,.14-2.2c-.67-1.21-.53-1.34.9-1.39.77,0,1.58.24,2.31-.22,3.15,0,2.47-.42,2.65,2.44a12.63,12.63,0,0,1-1.56,7.28,2,2,0,0,0-.39,1.21,3.47,3.47,0,0,1-1.29,2.51c-.89.83-1.69,1.75-2.64,2.51A3,3,0,0,1,18.32,32.37Z"/><path class="cls-7" d="M25,120.05c1.51.18,3.05-.18,4.56.21-1.68-.06-3.38.31-5-.2Z"/><path class="cls-7" d="M30.93,120.26a13.72,13.72,0,0,1,5,0Z"/><path class="cls-66" d="M43.61,95.25c.59,1,1.23,1.94,1.77,2.94a5.67,5.67,0,0,0,2.19,2.28c1.65.89,1.65,2.2,1.42,3.7s-.43,2.8-.64,4.2c-.13.48-.39.75-.92.58a5.56,5.56,0,0,0-1.62-.22c-.66-.28-.84-1.19-1.65-1.27a3,3,0,0,0-4.1,1,.85.85,0,0,1-.55.39l-.41,0a1.54,1.54,0,0,0-.5-1.28c.2-.19.44-.06.61-.08A23,23,0,0,1,32.44,105c-1-.52-2-1-3.07-1.56a1.66,1.66,0,0,0-1.24-.29,1.19,1.19,0,0,1-.67-.07c-.53-.26-.27-1.21-1.08-1.21-.31,0-.69.11-.8-.36.69-2.82,1.69-5.55,2.48-8.34a.78.78,0,0,1,.4-.55,4.22,4.22,0,0,1,2.7,2.31A8.46,8.46,0,0,0,37.38,99a19,19,0,0,1,3.91,1.4,1.77,1.77,0,0,0,1.7-.06c1-.62,1.17-1.24.49-2.24C42.69,96.9,42.72,96.22,43.61,95.25Z"/><path class="cls-67" d="M27.39,102.88l.7,0a3.78,3.78,0,0,1,1.74.69,49.36,49.36,0,0,0,6.84,3.18c1.61.58,1.65,1.17.24,2.3-.7.57-1.42.12-2.13,0-2.34-.73-4.54-1.8-6.8-2.71-1.26-.51-2-1.17-1.78-2.63a1.52,1.52,0,0,0-.13-.57c.18-.39.59-.33.9-.46A.5.5,0,0,1,27.39,102.88Z"/><path class="cls-68" d="M55.49,120.76c-1.06-.39-2.36-.4-2.7-1.89,0-.21-.56-.32-.86-.47.69-.79.12-1.46-.13-2.16-.41,0-.39.57-.79.49-1.89-1.24-2.94-3.29-4.58-4.77-.1-.91,0-1,1-.72a23.56,23.56,0,0,0,7.08,5.11,3,3,0,0,1,1.19,3.37A3.45,3.45,0,0,0,55.49,120.76Z"/><path class="cls-69" d="M39.51,108.87c1.49-2.29,2.46-2.63,4.75-1.66,1.3,1,1.52,1.63.91,2.78a2.43,2.43,0,0,1-.25.2c-.32.17-.34.59-.63.79l-.26.26c-.46.32-.91-.12-1.36,0s-.69.72-1.22.28c-.26.09-.39,0-.48-.26A10.16,10.16,0,0,1,39.51,108.87Z"/><path class="cls-70" d="M47.65,121.48l0-.47c-.27-.36,0-.83-.21-1.2-.56-1.18-1.09-2.37-1.68-3.53a1.44,1.44,0,0,1,.25-1.7c.57-.26.67.42,1.06.53.4-.11.28-.64.63-.79a9.11,9.11,0,0,0,1,1.16c1.22,1.07,1.11,2.2.39,3.51-.38.7-.68.92-1.36.2a2.28,2.28,0,0,1,.42,2.51C47.84,121.87,47.78,121.6,47.65,121.48Z"/><path class="cls-71" d="M46.93,123.38c-1.1-.19-1.18-1.4-1.93-1.93a1.38,1.38,0,0,0-.55-1.76,1.65,1.65,0,0,1-.61-.82,8.8,8.8,0,0,0,1-2.12c.89.35,1,1.27,1.45,2,.26.43.46.89.69,1.33A10.4,10.4,0,0,1,46.93,123.38Z"/><path class="cls-72" d="M47.4,111.24c-.53,0-1,0-1,.72-.4-.39-1,0-1.42-.45.12-.3.17-.58-.2-.77s-.37-.45,0-.7h0c.4-.1.67-.28.62-.77,0-.26-.15-.64.32-.7a1.89,1.89,0,0,1,1.56,0c.43.21.8.21,1.07-.24.07.64.76,1,.7,1.7l-.61-.56a1.27,1.27,0,0,0,.15,1.73,2.07,2.07,0,0,1-1-.44c-.1-.07-.26-.26-.31,0C47.23,111,47.35,111.1,47.4,111.24Z"/><path class="cls-73" d="M36.91,109.08l.9-1.61a47.9,47.9,0,0,1-9.72-4.56c.48-.48.88,0,1.27.15a77.86,77.86,0,0,0,7.8,3.65,5.79,5.79,0,0,1,2.19.8c-.22.28-.52.11-.76.21-.74.7-.73,1.75-1.2,2.57C37,110,37.38,109.36,36.91,109.08Z"/><path class="cls-74" d="M41.44,117.91c-.32,0-.69.12-.94-.23.79-.55,1-1.18.24-1.92a2.47,2.47,0,0,0,1.36-2,.43.43,0,0,1,.64-.32,1.67,1.67,0,0,1,.86,2.78c-.17-.72-.47-1-1-.22S41.84,117.28,41.44,117.91Z"/><path class="cls-75" d="M37.39,110.29c0-1-.17-2.17,1.2-2.57.77.12.89.54.51,1.17a6,6,0,0,0-.09,1.64c0,.28.4.63,0,.84s-.69-.09-1-.3A5.74,5.74,0,0,1,37.39,110.29Z"/><path class="cls-76" d="M47.65,121.48l.46.22c0,.54,0,1.09,0,1.62s.41.77.9.3c.32.22.62.46,1,.68.07.56.1,1.1-.45,1.47-.57-.1-1-.55-1.67-.48,0-.28.7-.22.41-.45C47.07,123.87,47.88,122.59,47.65,121.48Z"/><path class="cls-77" d="M51,116.73c.21-.17.17-.43.2-.66s.16-.46.43-.48.38.21.46.45c.16.48.37.95.49,1.45s.08,1-.66.91l-.7-.5A1.3,1.3,0,0,1,51,116.73Z"/><path class="cls-78" d="M46.27,113.89c-.2-.77-.46-.15-.69,0s-.65.58-.9.27a1,1,0,0,1,.17-1.4c.27-.28.53-.77,1-.3l1,.94C46.74,113.6,46.63,113.91,46.27,113.89Z"/><path class="cls-79" d="M46.27,113.89c.22-.16.26-.56.65-.51l.76.94a3.17,3.17,0,0,1-.08.69c-.08.24-.11.58-.44.62a.54.54,0,0,1-.58-.46c0-.4-.33-.46-.59-.59Z"/><path class="cls-80" d="M40.74,115.76c.57,0,1,.33.91.83a1.08,1.08,0,0,1-1.15,1.09.41.41,0,0,1-.19-.47C40.75,116.81,40.4,116.18,40.74,115.76Z"/><path class="cls-81" d="M42.67,111.22c.46-.38.91,0,1.36,0-.15.29-.61.4-.43.87.11.29.49.71-.12.83s-.58-.44-.8-.75S43.06,111.54,42.67,111.22Z"/><path class="cls-80" d="M50,124.3c-.6.17-1,0-1-.68a2.16,2.16,0,0,0,.28-1.17c.15-.23.29-.52.64-.23Z"/><path class="cls-76" d="M46.93,123.38c0-1.11,0-2.22,0-3.34.28.17.47.16.48-.23.37.35.17.8.21,1.2-.22-.17-.45-.55-.48.15S47.41,122.69,46.93,123.38Z"/><path class="cls-82" d="M44.77,110c0,.2-.17.35.21.47.79.24.77.65,0,1-.22-.2-.33-.55-.72-.53C44.23,110.55,44.16,110.12,44.77,110Z"/><path class="cls-83" d="M50,122.22a.76.76,0,0,0-.64.23c.2-.58.41-1.16.61-1.75C50.25,121.24,50.45,121.74,50,122.22Z"/><path d="M41,111.24l.48.26c-.1.52-.41.57-.73.25S40.65,111.29,41,111.24Z"/><path class="cls-67" d="M94.32,127.39l-.24-.22-.4-1.16c-.78-.3-.9-1.12-1.35-1.68s-.8-1.24-1.3-1.79a104.42,104.42,0,0,1-5.7-9.11,26.19,26.19,0,0,1-1.22-3.19,1.61,1.61,0,0,1,.4-1.64c.87-.1,1.43.76,2.27.77A3.14,3.14,0,0,1,88.1,111q3,5.85,5.65,11.88c.17.38.42.79.17,1.24.17.68.3,1.38.52,2A1.28,1.28,0,0,1,94.32,127.39Z"/><path class="cls-84" d="M84.62,108.64c-.72,1.35.08,2.52.55,3.66a42.41,42.41,0,0,0,4.37,7.47c.59.87,1.17,1.76,1.76,2.64-.18.36-.43.49-.79.27l-.22,0c-.77-1.68-2.19-2.87-3.32-4.27A13.78,13.78,0,0,1,83.65,112a1.08,1.08,0,0,0-.93-1,4.64,4.64,0,0,1-2.91-2.06,3.42,3.42,0,0,1,.64-4.67c.52,0,.73.24.82.69a4.92,4.92,0,0,0,1.56,4.21C83.32,108.66,83.83,108,84.62,108.64Z"/><path class="cls-85" d="M90.51,122.68l.79-.27a28.74,28.74,0,0,1,2.38,3.6c-.35.84-.66.24-.88-.06C92,124.88,91.27,123.77,90.51,122.68Z"/><path class="cls-86" d="M43.84,118.87a10.8,10.8,0,0,1,1.6,1.32c.46.53-.19.87-.44,1.26-1.47.11-1.67-.09-1.42-1.51C43.65,119.59,43.43,119.15,43.84,118.87Z"/><path class="cls-87" d="M18.32,32.37c2.26-1.49,4.39-3.1,5.49-5.71l.26.5A13.24,13.24,0,0,1,19,32.6C18.85,32.33,18.56,32.43,18.32,32.37Z"/><path class="cls-88" d="M99.56,116.25a5.93,5.93,0,0,1,.24,2.44c0,.73-.27,1.14-1,.49-1.09-1-2.42-.9-3.7-.75s-1.69,1.21-.91,2.28c.26.35.56.66.84,1-.79.72-1-.61-1.65-.46-.4-.09-.55-.42-.7-.75-1.71-3.74-3.47-7.47-5.55-11a1.31,1.31,0,0,1-.12-.33.83.83,0,0,1,.43-.87c.46-.21.37-.63.38-1s-.2-.78.12-1.12c.48-.24.78.12,1.11.35.61.59,1,1.42,1.68,1.9a3.84,3.84,0,0,1,.62,3.86c-.57,1.81,0,2.85,1.37,3.19a2.54,2.54,0,0,0,2-.5c2.32-1.46,3.2-1.25,4.65,1.15A.91.91,0,0,0,99.56,116.25Z"/><path class="cls-89" d="M87.17,109.07c2.38,3.9,4.25,8.06,6.23,12.17a17.78,17.78,0,0,0,.82,2c.07.26.62.88-.3.85a152.1,152.1,0,0,0-6.55-13.77c-.16-.3-.26-.68-.68-.75C86.53,109.12,86.67,108.93,87.17,109.07Z"/><path class="cls-90" d="M93.35,129.06c.39-.31,1.16-.15,1.17-.94.54-.17,0-1.12.61-1,.84.1,0,1,.39,1.31C95,129.32,94.18,129.18,93.35,129.06Z"/><path class="cls-91" d="M28.6,62.42a10.65,10.65,0,0,0-2.76,8,9,9,0,0,0,3.53,7.07c.37.27.78.47.47,1.13A42.35,42.35,0,0,0,26.79,87c-.24,1-1.24,1.67-1.09,2.78a.49.49,0,0,1-.64-.06,40.05,40.05,0,0,1-6.15-6.13c-.59-.83-1.06-1.82-2.24-2.14-.4-.11-.32-.82-.17-1.2a1,1,0,0,0-.58-1.44c-1.68-.85-2.12-2.67-3.15-4-.34-.45,0-.93.12-1.37.22-1.11.58-2.19.86-3.3.46-1.81,2.38-1.93,3.46-3,.23-.23,1.08-.44.18-.92a15.52,15.52,0,0,1,4.83-1.77C24.36,63.82,26.38,62.78,28.6,62.42Z"/><path class="cls-92" d="M76.7,18.36c1.16-.7,1.15-1.72-.12-2.43-.71-.4-1-.83-.72-1.61s-.15-1.15-.58-1.56a1.22,1.22,0,0,1-.14-1.89A9.21,9.21,0,0,1,77.7,8.79a1.33,1.33,0,0,1,.91-.2c1.45.51,2.69-.27,4-.58a1.77,1.77,0,0,1,.8-.13,16.9,16.9,0,0,1,5.24,1.9.56.56,0,0,1,0,.38,12,12,0,0,0-.39,5A4.79,4.79,0,0,1,87,19.9a3.3,3.3,0,0,0-.89,1.9c-.14.6-.5.83-1,.53a72.55,72.55,0,0,0-8.21-3.66C76.71,18.63,76.7,18.49,76.7,18.36Z"/><path class="cls-93" d="M48.83,19.51c.23-.52.82-.43,1.21-.69.41.31.75,0,1.09-.14a30,30,0,0,1,6.63-2.12,8.08,8.08,0,0,1,4.06.31,6,6,0,0,1,1.65,1.3,3.21,3.21,0,0,1,.34.41c.32.72,1.2,1.24.83,2.22a24.84,24.84,0,0,1-3.25,1.32A44.32,44.32,0,0,0,53.92,26C52.61,26.63,51.3,27.28,50,28c-.95.58-1.5.39-2.07-.55a2.66,2.66,0,0,0-3.3-1.26c-.92.25-1.84.56-2.73-.08-.4-.6.07-.94.41-1.31A26.71,26.71,0,0,1,48,20.26C48.31,20.06,48.74,20,48.83,19.51Z"/><path class="cls-94" d="M43.36,31A.9.9,0,0,0,42,30.76c-.47.28-.94.58-1.4.88-1.1.74-1.53.66-2.13-.48a1.38,1.38,0,0,0-1.37-.72c-1.18,0-1.39-.39-.87-1.45.43-.89,1-1.73,1.37-2.63C38.39,24.65,38,24,36.12,24a16.65,16.65,0,0,0-3.22.53s-.07-.08-.07-.09c.94-1.31,4.92-2.84,6.4-2.45,1.91.5,2.13.82,2.26,3.25.43.5,0,1.26.52,1.74a1.9,1.9,0,0,0,1.38-.24,12.62,12.62,0,0,1,1.21-.47c2.23-.61,3.19.25,3.12,2.56a3.32,3.32,0,0,1-2,3.18,3.59,3.59,0,0,0-1.9-.51C43.48,31.59,43.53,31.15,43.36,31Z"/><path class="cls-95" d="M63.57,18.61l-.21-.27c0-.56.51-.51.87-.54a6.28,6.28,0,0,0,1.5-.17,28.42,28.42,0,0,1,4-.34c.79,0,1.18-.28,1.15-1.11s0-1.74,0-2.61a2.16,2.16,0,0,0-2.33-2.27c-.83,0-1.66,0-2.49,0a6.35,6.35,0,0,0-3.12,1c-.35-.07-.48-.25-.28-.58a2.29,2.29,0,0,1,1.82-1.16,23,23,0,0,1,4.62-.2,3.09,3.09,0,0,1,2.84,3c0,1.15,0,2.3,0,3.45,0,.65.13,1,.88,1.1a31.57,31.57,0,0,0,3.88.45,63.89,63.89,0,0,1,9,3.94,5.42,5.42,0,0,1,1.58-3.24A4.42,4.42,0,0,0,88,15a6.47,6.47,0,0,1,.08-3.42c.08-.52-.26-1.26.56-1.53a.82.82,0,0,1,.23.26,1.42,1.42,0,0,0,1.15.87c.83.16,1.67.31,2.49.54,1.09.52,1.12.59.45,1.09-1.23-.09-2.46-.23-3.7-.39.55.65,1.62.17,2.05,1-.5.69-1.24.35-1.88.43-.21.06-.47-.22-.64.08,0,0,.15.13.25.18,1,.21,2.1-.18,3.1.27-.2.67-.2.67-1.52,1a3.35,3.35,0,0,1-.55.11c-.73,0-.86.49-1,1.08a6,6,0,0,1-2.16,4.17c-.64.71-.27,1.59-.39,2.38-.08.54-.06,1.23-1,.72a27.44,27.44,0,0,0-9.19-4.17c-1.12-.22-2.3.12-3.37-.4a5,5,0,0,0-2-.18c-.78-.07-1.21.24-1.2,1.06a.83.83,0,0,1-.36.61.78.78,0,0,1-.34,0c-.38-.17-.4-.51-.39-.86s.08-.63-.3-.77a6.66,6.66,0,0,0-2.09,0c-.65.41,0,1.09-.32,1.56a1.19,1.19,0,0,1-1,.29c-.11,0-.28-.15-.26-.22C65.29,19.59,64.3,19.18,63.57,18.61Z"/><path class="cls-96" d="M25.71,57.65a.5.5,0,0,0-.46.24,7.16,7.16,0,0,1-.58-6.67c.54-1.3,1.44-2.26,3.1-1.95a9.71,9.71,0,0,0,1.53,0c-.46.48-1.12.08-1.63.47.79,0,1.58,0,2.37,0s.93.33.43.94a5.64,5.64,0,0,0-3.6-.29c-.9.11-1.16,1-1.42,1.75a7.32,7.32,0,0,0,.1,4.44C25.64,57,25.9,57.28,25.71,57.65Z"/><path class="cls-97" d="M61.92,17.16c-3.37-1.22-6.4.13-9.46,1.27-.62.23-1.25.46-1.87.71-.35.14-.53.07-.55-.32,1.06-.42,2.13-.8,3.18-1.26a13.79,13.79,0,0,1,8.69-1.15A.49.49,0,0,1,61.92,17.16Z"/><path class="cls-98" d="M41.68,27.4c-.55-.67-.11-1.42-.19-2.13a27,27,0,0,1,7.34-5.76c.77.24.14.39,0,.52C47.41,21,46,21.9,44.67,23a8.1,8.1,0,0,0-2.74,3C42,26.47,42.11,27,41.68,27.4Z"/><path class="cls-99" d="M61.92,17.16c0-.25,0-.5,0-.75v-.67a9,9,0,0,1,0-2.89l.73-1.18c0,.19,0,.37.23.47A18.45,18.45,0,0,0,63,15.78c0,1.38.28,1.62,1.66,1.76.39,0,.81,0,1.1.33-.71.59-1.68-.11-2.39.47Z"/><path class="cls-100" d="M88.61,10.22a.29.29,0,0,1,0-.16l0-.28c.52,0,.84-.16.86-.73a2.52,2.52,0,0,1,1.2-1.94l.52.25a.44.44,0,0,1,.1.47.53.53,0,0,1-.06.1c-1.12,1.23-1.11,1.32.3,2,.4.56,0,.76-.44.94A6.15,6.15,0,0,1,88.61,10.22Z"/><path class="cls-97" d="M61.92,12.85c0,1,0,1.93,0,2.89A4.11,4.11,0,0,1,61.92,12.85Z"/><path class="cls-101" d="M109.8,86.49c-.31.44-.9.38-1.31.59.1.42.4.37.6.44,1.52.51,1.64.66.52,1.83a22.56,22.56,0,0,1-4.92,4.17c-1,.59-2.53,1.64-2.5,3.41,0,1.56-1.24,2.06-2.33,2.29a31.77,31.77,0,0,0-4.8,1.49,2.37,2.37,0,0,1-.71,0c-.52-.17-.54-.64-.57-1.07a4.92,4.92,0,0,0-1.32-3.09,3.9,3.9,0,0,1-.77-3.34,9.52,9.52,0,0,1,.82-3A1.7,1.7,0,0,0,91.93,88a8.83,8.83,0,0,1-1.67-1.5,4,4,0,0,1-.94-3.61,58.79,58.79,0,0,0,6.38-5.3,42.22,42.22,0,0,0,6-8.06c.93,0,1.36.76,1.93,1.25,2.25,1.9,4.6,3.7,5.86,6.55a5.2,5.2,0,0,1,.13,4.56C108.79,83.56,108.62,85,109.8,86.49Z"/><path class="cls-102" d="M89.32,82.89A6,6,0,0,0,92,87.66c1.39,1,1.4,1.3.73,2.92A10.87,10.87,0,0,0,92,93.8a3.28,3.28,0,0,0,1,2.91,4.05,4.05,0,0,1,1.14,2.9,2.35,2.35,0,0,0,.25,1.14,6.62,6.62,0,0,1-.43,2.43c-.59,1.54-2,1.81-3.23.74-.44-.38-.71-1.24-1.5-.91s-.52,1.21-.59,1.9a3.23,3.23,0,0,0,.47,1.57l-1.17-.24c-.45.11-.62-.24-.85-.5a5.29,5.29,0,0,0-2.94-1.83,1.21,1.21,0,0,1-1-1.12,6.7,6.7,0,0,0-.44-1.59c-.61-2.33-.9-4.72-1.46-7.06a14,14,0,0,0-.76-2.35,1.22,1.22,0,0,1-.08-.57,6.16,6.16,0,0,0-.39-2.75c-.13-.74,0-1.2.8-1.31A59.63,59.63,0,0,0,89.32,82.89Z"/><path class="cls-103" d="M100.5,55.72c1-.44,2.1-.12,3.15-.19.42,0,.6.22.57.69A31.48,31.48,0,0,1,102,65.76a33.22,33.22,0,0,1-8.2,12.07c-.48.46-.84.68-1.32,0-1-1.34-2-2.66-3-4-.32-.52-.07-.92.31-1.25A5.72,5.72,0,0,0,92,68.9a3.48,3.48,0,0,1,1.23-2.11c.32-.3.65-.66.34-1.14a1.15,1.15,0,0,0-1.15-.45,4.77,4.77,0,0,1-4.63-2.47,50.06,50.06,0,0,1-2.44-5.8.9.9,0,0,1,.2-1.18h4.76a6.6,6.6,0,0,1-.71,2.2c-.2.35-.27.67.1.94,1.16.86,1.45,2.21,1.93,3.45.21.55,1.31,1.16,1.68.78A2.08,2.08,0,0,1,95,62.65a1.43,1.43,0,0,0,1.51-.93c.53-1.61,1.83-2.66,2.78-4A6.3,6.3,0,0,0,100.5,55.72Z"/><path class="cls-104" d="M94.79,31.26l.89.95A4.59,4.59,0,0,1,97,35.49c0,2.8-.43,5.59-.06,8.39a.8.8,0,0,1-.4.91c-.26.21-.16.52-.14.77.08,1,0,1.78-1.27,1.66-.19,0-.36.16-.52.27-1.32.88-2,.76-3.29-.18-1.72-1.25-3.08-2.85-4.66-4.23a10.8,10.8,0,0,0-2.3-1.85,1,1,0,0,1-.66-.91c.47-1.55,1.9-2.37,2.76-3.63.19-.28.53-.48.71-.77a1.42,1.42,0,0,1,2.29-.44,1.48,1.48,0,0,0,2-.48c.92-1.23,2.53-1.89,2.93-3.55A.28.28,0,0,1,94.79,31.26Z"/><path class="cls-105" d="M85.52,55.75c0,.3-.18.58,0,.92.92,2,1.5,4.07,2.53,6a4.58,4.58,0,0,0,4.38,2.17,1.49,1.49,0,0,1,1.53.7c.38.55,0,1-.38,1.33a4.34,4.34,0,0,0-1.48,3.06,4.54,4.54,0,0,1-1.89,2.76,1.4,1.4,0,0,0-.64,1.19c-2-2.16-3.71-4.62-5.55-6.94a38.59,38.59,0,0,1-3.6-5.15c-.09-.17-.21-.48-.51-.32-.08,0,0,.29-.07.44-.56.09-.63-.33-.74-.71a14.9,14.9,0,0,0,2.32-4.71c.16-.65.46-.79,1.06-.77C83.48,55.75,84.5,55.74,85.52,55.75Z"/><path class="cls-48" d="M73.21,41.94l-.31.7a3.88,3.88,0,0,1-3.09,2.26,40.14,40.14,0,0,1-7.1.16C60.39,45,58,42.41,57.82,40a5.24,5.24,0,0,1,.78-3.85.87.87,0,0,0,.17-.89A3.5,3.5,0,0,1,62,33.94a14.86,14.86,0,0,0,3.77,0c1.11-.1,2.22-.09,3.32-.17a4.14,4.14,0,0,1,3.58,1.5A9.52,9.52,0,0,1,73.77,38a1.7,1.7,0,0,1,.1.37,19.41,19.41,0,0,1,0,2.29A1.48,1.48,0,0,1,73.21,41.94Z"/><path class="cls-106" d="M83.83,40.21c.07.18.1.48.21.52,1.6.58,2.62,1.91,3.75,3s2.53,2.33,3.83,3.46a1.82,1.82,0,0,0,2.79,0c.14-.13.33-.4.43-.37,1.81.45,1.3-.92,1.45-1.79,0-.1.14-.18.21-.26,0,1.26,0,2.53,0,3.79-.37.78-1,1.42-1.36,2.18a1.44,1.44,0,0,1-1.65.61,3.79,3.79,0,0,0-2.41.3,4.93,4.93,0,0,1-2.06,0,1.57,1.57,0,0,1-.77-.54c-1.47-2-3.77-2.9-5.63-4.38-.94-.74-2.16-1.32-2.54-2.64C81.14,42.63,82.11,41.06,83.83,40.21Z"/><path class="cls-107" d="M75,65.77c.66.87,0,1.9.41,2.92a2.77,2.77,0,0,0,.24-2.09,4.59,4.59,0,0,0-.23-1.16.71.71,0,0,1,.37-1c.46-.24.65.18.82.46,2.11,3.39,4.66,6.45,7,9.64.54.71,1.39,1.2,1.62,2.14a41.3,41.3,0,0,1-5.12,2.75c-.91.44-1.41.9-1.07,2a7.53,7.53,0,0,1,.2,1.65c0,.39,0,.84-.56.84a.82.82,0,0,1-.43-.66,45.42,45.42,0,0,1-1.06-5.39,1.38,1.38,0,0,0,.23-1c-.44-1.8-1-3.54-1.5-5.33,0-.22-.14-.45-.44-.45a4.33,4.33,0,0,0-.86,1.59c-.14.29-.12.72-.62.68a1.46,1.46,0,0,1-.52-.92,11,11,0,0,0,1.19-5.71A1.2,1.2,0,0,1,75,65.77Z"/><path class="cls-108" d="M92.18,7.38V4.05a7.18,7.18,0,0,0,3.87.75c.79-.1.65.51.65,1,0,2.73,0,5.46,0,8.19q0,8,0,15.92c0,.45.18,1-.24,1.35l-1.9-1.92c-.49-.6-.25-1.27-.21-1.93.09-2,.63-3.91.16-5.89A12.06,12.06,0,0,0,94,19.92a12.9,12.9,0,0,1-.79-4.17,2.22,2.22,0,0,1,.6-1.13c.32-.31.15-.63.06-1a4.81,4.81,0,0,1-.42-2.35c.12-.52-.54-.72-.69-1.16A21.67,21.67,0,0,0,92.18,7.38Z"/><path class="cls-109" d="M79.08,61.19l.74.71c2,3.74,4.81,6.95,7.34,10.34.94,1.27,1.93,2.49,2.9,3.73-.78,1.09-.62,2.51-1.25,3.65A156.17,156.17,0,0,1,77,64.41a.75.75,0,0,1,.11-1.12C77.82,62.62,78.44,61.89,79.08,61.19Z"/><path class="cls-110" d="M104.09,52.19a4.52,4.52,0,0,1,.2,2.33c0,.69-.57.53-1,.53C99.86,55,96.41,55,93,55c-3.25,0-6.51,0-9.76.06-1.06,0-1.45-.28-1.33-1.31.06-.51,0-1,.08-1.54a.76.76,0,0,1,.45-.12c6.5-.13,13-.34,19.5-.24A9.57,9.57,0,0,1,104.09,52.19Z"/><path class="cls-111" d="M73.16,43.43c.27-.42.33-1.06,1.16-.58,4.6,2.67,7.69,7.38,6.45,13a13.52,13.52,0,0,1-4.48,7.25L75.22,64c-.83.52-1-.32-1.34-.69-.24-.52-.88-.8-.87-1.47.78-.94,1.8-1.64,2.52-2.63,1.1-1.51,2.27-3,2.33-5a8,8,0,0,0,.19-1.19c0-3.36-1.83-5.59-4.32-7.47-.5-.37-1.14-.64-1-1.45A1.06,1.06,0,0,1,73.16,43.43Z"/><path class="cls-112" d="M78.8,83.88A4.43,4.43,0,0,0,78.67,81c-.17-.79,0-1.1.67-1.43,1.6-.77,3.15-1.63,4.72-2.46a2.11,2.11,0,0,1,1.22-.37c1.1,1.22,2.19,2.46,3.31,3.67.65.71.76,1.14-.25,1.75a56.14,56.14,0,0,1-7.59,3.82c-.4.16-.75.28-.71.8s.39.41.7.42c-.47.27-.56.61-.51,1.19.07,1,.93,1.89.26,2.93-.44-.06-.56-.42-.64-.75-.48-2-.89-3.9-1.23-5.87A.89.89,0,0,1,78.8,83.88Z"/><path class="cls-17" d="M75,65.77c.16,2.42.1,4.8-1.37,6.9A1.21,1.21,0,0,1,72.86,74c-.85.08-1-.63-1.28-1.17a30.62,30.62,0,0,0-4.43-6.56,4.72,4.72,0,0,1-1-2.46c0-.47,0-1,.43-1.27a7.21,7.21,0,0,1,1.1-.31,12.73,12.73,0,0,0,3.63-.61c.79-.28,1.25.2,1.7.71a11.13,11.13,0,0,1,.87,1,5.08,5.08,0,0,1,.88,1.81C74.84,65.29,74.76,65.59,75,65.77Z"/><path class="cls-113" d="M100.5,55.72c.28,0,.42.11.22.44a23.54,23.54,0,0,1-1.44,2.14c-.94,1.19-2.18,2.19-2.55,3.79-.12.52-.64.68-1.1.79-.83.21-1.94-.43-2.41.86-.06.17-.49.08-.61-.13-.36-.66-.9-.47-1.46-.29a5,5,0,0,0-1.67-4.17c-.3-.19-.8-.39-.48-.76.68-.78.46-2,1.28-2.64,2.91.06,5.82-.28,8.72.18C99.5,56,100,55.59,100.5,55.72Z"/><path class="cls-114" d="M78.13,45a9.48,9.48,0,0,0-2.19-1.9c-.21-.63.17-1,.53-1.48,2.07-2.55,4.31-5,6.59-7.31a24.43,24.43,0,0,0,1.68-1.84c.46-.58,1-.65,1.48,0a3.4,3.4,0,0,0,.52.48c1.64,1.28,1.65,1.57.26,3-2.58,2.74-4.94,5.67-7.61,8.31C79,44.62,78.77,45.15,78.13,45Z"/><path class="cls-115" d="M105.33,53.76a22.59,22.59,0,0,0-.26-3.76c-.16-.73.14-1,.88-1a19,19,0,0,0,2.5,0,1.54,1.54,0,0,1,1.62,1,8.41,8.41,0,0,1,.05,7,1.1,1.1,0,0,1-1.13.69c-1.15,0-2.57.35-3.37-.18s-.12-2.13-.29-3.24A3.93,3.93,0,0,1,105.33,53.76Z"/><path class="cls-116" d="M91.24,51.46c.62-.81,1.51-.51,2.22-.38a1.32,1.32,0,0,0,1.73-.93,2.92,2.92,0,0,1,1.32-1.57c.36.31.75.6,1.26.39s.32-.8.33-1.23c0-.74,0-1.48,0-2.22,1-.71,1.59.31,2.33.67.43-1.42.43-1.43,1.81-1a1.16,1.16,0,0,0,.69,0,17,17,0,0,1,1.16,6.18,8.9,8.9,0,0,1-3.12.39c-2.76,0-5.52,0-8.28,0A1.82,1.82,0,0,1,91.24,51.46Z"/><path class="cls-11" d="M73.16,43.43l-.23.65c-.23.21-.37.49-.61.68a3.15,3.15,0,0,1-.82.54,4,4,0,0,1-.67.29,17.77,17.77,0,0,1-10.13.69,4.79,4.79,0,0,1-3.11-2.18,7.18,7.18,0,0,1,0-8c.31-.43.59-1,1.29-.84.32.1.88,0,.37.66a5.51,5.51,0,0,0,2.46,8.65,2.47,2.47,0,0,0,.81.15c2.1,0,4.2-.07,6.29,0,1.81.08,2.9-1,4.07-2.07C73.19,42.84,73.11,43.15,73.16,43.43Z"/><path class="cls-117" d="M102.92,45.24c-.18.75-.54.42-.94.19-.9-.52-1.17-.36-1.12.69,0,.24.12.44-.16.59s-.41-.08-.56-.26a2.11,2.11,0,0,0-2-.93c-.13-.36-.28-.72-.39-1.09a1.92,1.92,0,0,1,0-.48V34.87A30.3,30.3,0,0,1,102.92,45.24Z"/><path class="cls-118" d="M80.28,44.06c0,.56.49.74.84,1a29.76,29.76,0,0,0,5.14,3.65c1.12.62,1.74,1.78,2.59,2.69-.49.49-1,.09-1.57.1-1.49,0-3,0-4.47,0-.88,0-1.3-.23-1.35-1.09a12.28,12.28,0,0,0-2.84-5A1.85,1.85,0,0,1,80.28,44.06Z"/><path class="cls-119" d="M80.28,44.06l-1.66,1.43a.81.81,0,0,1-.49-.47c2-1.45,3.35-3.47,5-5.21,1.39-1.46,2.73-3,4.11-4.45.71-.77.67-1.28-.22-1.87-.23-.16-.56-.25-.68-.46-.67-1.18-1.13-.62-1.78.07C81.86,36,79,38.87,76.55,42c-.27.34-.61.64-.61,1.12-.2-.53-.83-.36-1.15-.7a4.16,4.16,0,0,0,1.45-1.58,8.29,8.29,0,0,1,1.06-1.23c2.1-2.5,4.38-4.83,6.62-7.2.54-.27.75-1,1.43-1.08.12,0,.26-.08.26-.19,0-2.06.28-4.09.28-6.15,0-.25-.17-.43-.26-.65a.74.74,0,0,1,.07-.73c.17-.1.46.58.51-.06s0-1.23,0-1.85a1.18,1.18,0,0,1,.54-1.19c.32.49.07,1,0,1.5a80.88,80.88,0,0,1-.25,8.38,2.63,2.63,0,0,0,1.17,2.53,4.46,4.46,0,0,1,2,2.43c0,.21-.06.42-.36.37-.8-.57-1.37-.49-2,.38-1.07,1.44-2.32,2.75-3.49,4.11Z"/><path class="cls-120" d="M89.34,35.72l.25-.28a13.68,13.68,0,0,0,3.33-3c.78-.77.73-2.08.79-3.16.1-1.85.13-3.71.28-5.56a6.88,6.88,0,0,0-.74-4,6.79,6.79,0,0,1-.68-3.35c0-.58-.15-1-.88-.91a2.37,2.37,0,0,1-.92,0,.53.53,0,0,1-.27-.24c.51-.33,1.2-.2,1.68-.65a.58.58,0,0,1,.68-.16c.48.23.51.67.55,1.11a18.51,18.51,0,0,0,1.24,5.25,7.46,7.46,0,0,1,.3,4c-.15,1.53-.26,3.06-.39,4.59-.22.69-.73,1.41.23,2-.53,1.81-2.15,2.75-3.26,4.09A1.55,1.55,0,0,1,89.34,35.72Z"/><path class="cls-121" d="M81.46,50.5c.24.78.75,1,1.57,1,1.94-.06,3.88,0,5.82,0h2.39l12.84,0c-.11.34-.47.21-.71.36.18.26.62,0,.72.41L82,52.17c.79-.53,1.67-.18,2.51-.23a22.55,22.55,0,0,0,3.17-.24c-1.67,0-3.34-.06-5,0C81.66,51.76,81.33,51.41,81.46,50.5Z"/><path class="cls-122" d="M88.81,79.62A7.16,7.16,0,0,1,89.22,77c.16-.41.24-1,.84-1,.67.83,1.33,1.67,2,2.48.34.4.3.69-.1,1s-.55.45-.83.66C89.8,81.13,89.8,81.13,88.81,79.62Z"/><path class="cls-123" d="M76.46,41c-.35.72-.67,1.47-1.67,1.45l-.92-.52a35,35,0,0,1,0-3.55c.32-.58.61-.19.75.09A13,13,0,0,0,76.46,41Z"/><path class="cls-124" d="M97.16,45.51c.71.74.51,1.66.72,2.5.05.19-.16.35-.38.34s-.33-.19-.34-.4C97.15,47.13,97.16,46.32,97.16,45.51Z"/><path class="cls-125" d="M74.09,38.11a14.15,14.15,0,0,1-.22,3.79l-.66,0c.09-.42.46-.75.42-1.22a6.5,6.5,0,0,0,0-2.6h0c-.13-.26-.26-.62.09-.67S74.17,37.76,74.09,38.11Z"/><path class="cls-107" d="M74.77,65.05l-1-1.63c-.09-.25,0-.31.25-.29.38.31.45,1,1.16.9C75,64.35,74.71,64.62,74.77,65.05Z"/><path class="cls-126" d="M92.18,7.38c.92.77.64,1.86.77,2.84-.47.51-.57.45-.93-.55a3.77,3.77,0,0,0-.79-1.86V7.36c.81-.32.26-1.14.59-1.66C92.13,6.24,91.66,6.91,92.18,7.38Z"/><path class="cls-3" d="M20.25,102a11.57,11.57,0,0,0-.22,3.8A4.31,4.31,0,0,1,20.25,102Z"/><path class="cls-3" d="M20,105.74a3.29,3.29,0,0,1,.68,1.45C20,107,20,106.34,20,105.74Z"/><path class="cls-127" d="M68.87,114.6l-.73-.51a.93.93,0,0,1,.62-.29c2.1-.32,3.88-1.09,4.67-3.28.58.12.37.58.41.93-.22,1.37-1.33,1.85-2.37,2.4A6.14,6.14,0,0,1,68.87,114.6Z"/><path class="cls-128" d="M80.51,104.33c-1.43,1.32-1,2.92-.7,4.51,0,1.29-.93,2-1.63,2.91a.64.64,0,0,1-1.16-.13,1.42,1.42,0,0,0-.83-.61c-.58-.61-.91-1.49-2-1.47-.49,0-.33-.66-.64-.91-.88-1.81-2.21-3.44-2-5.66a2.85,2.85,0,0,1,.6-1.62,19.73,19.73,0,0,0,2.15-3.13,3.42,3.42,0,0,0,.44-1.59,18.4,18.4,0,0,1,.81-2.81c.14-.39.25-.86.85-.79a2.65,2.65,0,0,1,1,1.52q1.56,4.28,3.16,8.52C80.77,103.48,81.1,104,80.51,104.33Z"/><path class="cls-129" d="M62.91,125.18a.5.5,0,0,1-.51-.51.35.35,0,0,1,.32-.42c.29,0,.57.09.61.43S63.21,125.12,62.91,125.18Z"/><path class="cls-67" d="M73.43,110.52c.26,2-1.44,2.39-2.67,3.09a4.52,4.52,0,0,1-2.62.48,66.1,66.1,0,0,1-7.27-1A31,31,0,0,1,53.46,110c-.47-.25-.33-.55-.16-.89s.32-.85.93-.62c4.74,1.8,9.12.44,13.4-1.57A10.73,10.73,0,0,0,71,104.28c.14-.07.36-.13.43,0,.71,1.54,1.85,2.94,1.82,4.77Z"/><path class="cls-127" d="M73.23,109.07c-.28-1.71-1.35-3.08-1.93-4.67,0-.07-.21-.08-.32-.12.42-.67.79-1.35.21-2.13A1.45,1.45,0,0,1,71.7,101a22.5,22.5,0,0,0,2.73-4.1c.17-.17.34-.33.61-.2a3.2,3.2,0,0,1-.77,2.18c-.56.9-1.17,1.78-1.81,2.62a3,3,0,0,0-.24,3.74,13.7,13.7,0,0,1,1.34,3.38Z"/><path class="cls-130" d="M74.6,97c-.72,2-2.16,3.55-3.41,5.2-3.26,3.21-7.26,3.54-11.5,3A33.33,33.33,0,0,1,52.43,103,7.31,7.31,0,0,1,49,99.91a59.93,59.93,0,0,1-9.59-22c-.08-.37-.2-.71.19-.94a9.46,9.46,0,0,0,2.1-2.23,8.39,8.39,0,0,1,.93-2.58c.4-.44.24-1.46.93-1.42s.91.94,1.17,1.57a14.6,14.6,0,0,0,2.68,4.87c1.4,1.82,2.92,3.56,4.45,5.26a38.41,38.41,0,0,0,6.89,5.83,16.06,16.06,0,0,0,4.65,2.07,2.46,2.46,0,0,1,1.46.73A53.91,53.91,0,0,1,66,103.33c0,.16.3,0,.15,0s0,0,0,0a5.3,5.3,0,0,1-.17-2,48.7,48.7,0,0,0-.85-8.94c-.07-.48-.22-.94.26-1.3,1.5-.44,3-.18,4.58-.33a28,28,0,0,0,5.15-1.22c1.24-.17,1.65.23,1.28,1.41C75.79,92.94,75.34,95,74.6,97Z"/><path class="cls-131" d="M42.87,72.39c-.59.7-.45,1.76-1.17,2.4-1.28.27-2.41,1-3.74,1.14-5.82.68-9.45-2.66-10.19-8-.36-2.63,1.1-4.93,3.43-6.47,1.25-.94,2.66-.66,4-.33,1.87.48,3.76,1,5,2.69.14.18.36.12.56.13.76.11.91.8,1.25,1.31A9.22,9.22,0,0,1,42.87,72.39Z"/><path class="cls-91" d="M43.61,95.25c-.49,1.08-.67,2.07.4,3a1.12,1.12,0,0,1-.07,1.71c-.62.58-1.27,1.34-2.37.89a20.06,20.06,0,0,0-4.23-1.55A8.46,8.46,0,0,1,32.4,97a3.6,3.6,0,0,1-.78-.87,10.78,10.78,0,0,0-3-3.44c-.44-1,.06-1.78.51-2.59h0c2.06-.62,2.42-2.66,3.42-4.14,1.21-1.77,2.26-3.64,3.53-5.36.27-.37.51-.87,1.13-.57.46,1.76,1,3.5,1.58,5.21,1,2.89,2.77,5.42,4,8.22C43,94.05,43.32,94.65,43.61,95.25Z"/><path class="cls-132" d="M65.31,56.17c-1.8-3.22-5-4-8.22-4.44a8.2,8.2,0,0,1-4.24-1.86,30.57,30.57,0,0,1-5.57-5.33,4.1,4.1,0,0,1-.84-1.68c-.33-.49-.06-.85.33-1.07,1-.56,1.7-1.49,2.78-1.9.55-.21.44-.62.2-1-.07-.19-.15-.37-.22-.56-1.08-3.11-1.07-3.11,1.82-4.69.55-.3,1.07-.65,1.91-1.16-3.18,5.21-2.41,9.76,1.32,14A16.42,16.42,0,0,1,56.17,48a1.53,1.53,0,0,0,1.21.64c.44.17.91.2,1.35.4a10.32,10.32,0,0,0,12.63-3.18c.12-.16.24-.32.37-.47s.52-.61,1-.39a1.48,1.48,0,0,1,.42.7A15.8,15.8,0,0,1,72.91,51c-.27.76-1,1.19-1.35,1.92a6.87,6.87,0,0,0-.68,3.31c-.16.44-.51.35-.78.21a3.24,3.24,0,0,0-3.38.26C66,57.14,65.56,57,65.31,56.17Z"/><path class="cls-133" d="M45.78,59.36c1.24-.63,2.22-1.74,3.75-1.79a2.31,2.31,0,0,1,2,.89c.48.57.86,1.35,1.79,1.34,1.62.24,2.16,0,2.74-1.48a4.54,4.54,0,0,1,.78-1.7c.46-.26.81,0,1.16.26,1.29,1.18,2.69,2.27,3.13,4.11a3,3,0,0,1,.1.52,3.65,3.65,0,0,1-.34,1.84,1.77,1.77,0,0,0,.48,2.33,2.3,2.3,0,0,1,.49,2.16,6.14,6.14,0,0,1-.83,1.42c-.21.29-.45.58-.86.26-.05-.06-.13-.13-.12-.19.35-2.12-.76-4.14-.43-6.26a3,3,0,0,0-1.12-2.94c-.77-.49-1.14-.32-1.08.63,0,.51,0,1,0,1.52a7.71,7.71,0,0,1-.05,1.27,1.86,1.86,0,0,0,0,1.58,7,7,0,0,1,1.1,4.8,3.05,3.05,0,0,0,.07.58,1.52,1.52,0,0,0,.55,1.26c.21.15.38.53.66.35.45-.29-.08-.61-.07-.92,0-.59-.25-1.21.32-1.68A8.21,8.21,0,0,1,62.4,72c.86,2.18.19,3.34-2.12,3.35-1.16,0-1.86.79-2.79,1.16a2.69,2.69,0,0,1-1.91.22c-1.65-.31-3.21-.75-4.2-2.31a3.56,3.56,0,0,1-.71-2.19,6.21,6.21,0,0,1,.17-1,1.08,1.08,0,0,0-.78-1.37,4.28,4.28,0,0,1-3-4.25,1.87,1.87,0,0,0-1-1.84A2.2,2.2,0,0,1,45,62.35C44.93,61.26,44.85,60.18,45.78,59.36Z"/><path class="cls-134" d="M58.9,35.22c-3.55,2.67-2.39,8.11.21,10A7.57,7.57,0,0,0,64,46.46a17.93,17.93,0,0,0,7-1.17c.55.63,0,1-.34,1.39a10,10,0,0,1-9.38,3,5.47,5.47,0,0,1-3.33-1.35A10.82,10.82,0,0,1,53.32,39c0-.67,0-1.34,0-2a6.26,6.26,0,0,1,3.91-5.65,13.49,13.49,0,0,1,7.68-1.56A1.09,1.09,0,0,0,66,29.49c.91-.47,1.48.3,2.18.58a10.7,10.7,0,0,1,2.37,2.08c.33.38.69.76.52,1.35-.27.4-.69.33-1.08.32-2-.06-4,.16-6,.1-.67,0-1.29.41-2,.17A6.58,6.58,0,0,0,58.9,35.22Z"/><path class="cls-6" d="M68.11,30.26c-.75-.14-1.27-.92-2.12-.77-.75-1.45.27-2.58.7-3.82l.3-.9c.22-.64.51-1.41,0-1.9a1.94,1.94,0,0,0-2.13,0,40.44,40.44,0,0,0-6.9,4.19c-2.49,1.75-5,3.49-7.46,5.27a3.17,3.17,0,0,1-1.92.45c-2,0-2.89,1.27-3.66,2.76-.44.84-.75,1.76-1.69,2.22-.29.14-.31.45-.3.73,0,.52.12,1,.1,1.54,0,.68.66,1.54,0,2a4.22,4.22,0,0,1-3.21.56c-.68-.13-.6-.81-.45-1.29.8-2.58,1.73-5.11,4.07-6.78a4.68,4.68,0,0,0,.65-.68A31,31,0,0,1,49.2,29.3a26.64,26.64,0,0,1,4.23-3.06c.22-.12.4-.25.4-.53a37,37,0,0,1,7.42-3.84,14.8,14.8,0,0,1,3.29-1.16,3.58,3.58,0,0,0,.55.19l.86-.2a3.44,3.44,0,0,1,3.14,0l.22,0A2.16,2.16,0,0,1,71,23a4.27,4.27,0,0,1-.83,2.44A6.86,6.86,0,0,0,69,27.72a1.06,1.06,0,0,1-.37.44c-.81.5-1,1.07-.23,1.77A.39.39,0,0,1,68.11,30.26Z"/><path class="cls-135" d="M31.69,51a35.3,35.3,0,0,1,2.16-7.49,36.75,36.75,0,0,1,4.86-8.91c.53,1.78,1,3.28,0,5-.78,1.36-1.7,3-.63,4.68a1.33,1.33,0,0,1,.69,1.49c-.23,1.44-.48,2.88-.84,4.29a1.65,1.65,0,0,1-1.63,1.43c-1.42.1-2.84,0-4.26.05C31.71,51.56,31.45,51.42,31.69,51Z"/><path class="cls-136" d="M31.69,51c0,.25.16.46.44.45a22.94,22.94,0,0,0,4.38-.16,1.3,1.3,0,0,0,1.1-1.06c.33-1.58.62-3.16,1-4.74.11-.51-.27-.79-.45-1.17,2,.53,3.66-.37,5.36-1.58a20.13,20.13,0,0,0,5,8.76c-.18.3-.4.21-.57.22-5.12,0-10.23,0-15.34,0C32.16,51.7,31.19,52.11,31.69,51Z"/><path class="cls-137" d="M45.78,59.36a7,7,0,0,0-.52,3,2.32,2.32,0,0,0-.94.53.78.78,0,0,1-.62-.18,3.12,3.12,0,0,0-2.55.57c-.62.33-1.08.4-1.56-.17a4.06,4.06,0,0,0-1.47-1c-.4-.19-.81-.35-.9-.86-.3-1.85,0-3.73-.29-5.59,4.4-.07,8.8.06,13.22-.11a39.5,39.5,0,0,0-3.76,2.49C46.06,58.4,45.26,58.6,45.78,59.36Z"/><path class="cls-48" d="M28.13,89.3a2.25,2.25,0,0,1-.22-2.23,35.07,35.07,0,0,1,3.27-7.58,1.59,1.59,0,0,1,1.74-.87,12.74,12.74,0,0,0,4-.34c.4-.06.4,0,.27.33-.55,1.59-1.74,2.79-2.6,4.19-1,1.72-2.15,3.4-3.18,5.12S30.31,89.76,28.13,89.3Z"/><path class="cls-138" d="M41,54.86c-3,0-6,0-8.93,0-.37,0-1.16.3-1-.55.16-.67-.43-1.84,1-1.84H49a3.48,3.48,0,0,1,2.25,1.2c.43.38-.14,1.23-.88,1.26s-1.59-.05-2.38-.05H41Z"/><path class="cls-139" d="M25.71,57.65A6.88,6.88,0,0,1,26,50.48a1,1,0,0,1,.87-.49c1,0,2,0,3,0,.52,0,.73.2.68.7a35.85,35.85,0,0,0-.87,6.52c-.07.69-.31.91-.94.84C27.67,58,26.6,58.41,25.71,57.65Z"/><path class="cls-112" d="M36.93,55.74a2.19,2.19,0,0,1,.48,1.53c0,1.4,0,2.79,0,4.19-.32.29-.65.17-1,0a7.34,7.34,0,0,0-5-.39A.55.55,0,0,1,31,61a15.35,15.35,0,0,1,0-4.59c0-.64.41-.89.91-.81C33.53,55.85,35.23,55.62,36.93,55.74Z"/><path class="cls-140" d="M55,53.13a1.31,1.31,0,0,0,.09.34c.1.2.11,0,.13,0,.3-1,1-1.09,1.89-.94a15.13,15.13,0,0,1,4.72,1.41c1.53.83,2.07,2.43,3,3.73.42.7-.48,1.27-.19,2a.61.61,0,0,1-.7.59.85.85,0,0,1-.3-.15,17,17,0,0,1-1.32-2.11,4.15,4.15,0,0,0-4.08-2.11,8.24,8.24,0,0,1-3.51-1.06C54.65,54.17,54.15,53.53,55,53.13Z"/><path class="cls-141" d="M24.77,102a1.55,1.55,0,0,1-1.07-2.07,80,80,0,0,1,2.42-8.18c.12-.32.08-1,.8-.7,1.61.25,1.62.25,1.2,1.89-.74,2.83-1.71,5.59-2.55,8.39C25.46,101.63,25.49,102.26,24.77,102Z"/><path class="cls-142" d="M57,56.77c-.21.59-.41,1.18-.63,1.77-.58,1.58-1.37,1.91-3,1.26h1.17A2.9,2.9,0,0,1,52.44,58a3.72,3.72,0,0,1,0-2.89c.12-.32.19-.82.66-.63,1.31.55,2.82.62,4,1.58A.88.88,0,0,1,57,56.77Z"/><path class="cls-143" d="M49.75,38.87c.48.52.49.85-.23,1.26-1,.54-1.78,1.3-2.69,1.93a.87.87,0,0,0-.39.8A2.3,2.3,0,0,1,45,40.33a5.34,5.34,0,0,1,2.2-4c.43-.37.58-.17.72.27.3.85.61,1.7,1,2.54.14.31.37.71.77.58S49.64,39.14,49.75,38.87Z"/><path class="cls-49" d="M53.83,25.71c.23.4.24.42-.2.71a60.27,60.27,0,0,0-5.33,4c-1.42,1.13-2.82,2.29-4.23,3.43-.25-.89,1-.91,1-1.69.17-.2.54.07.65-.27.1-.11.18-.29.31-.34,1.66-.74,1.34-2.28,1.43-3.61C47.49,27,47,26.44,46,26.49a5.88,5.88,0,0,0-2.29.52,2.3,2.3,0,0,1-2,.39c.09-.48-.16-1,.25-1.44A2.47,2.47,0,0,0,44.1,26a5.23,5.23,0,0,1,2.33-.19,1.88,1.88,0,0,1,1.78,1.45c.25.79.76,1.11,1.54.57A26.08,26.08,0,0,1,53.83,25.71Z"/><path class="cls-144" d="M26.92,102.93c-.21.31-.59.12-.85.28a2.42,2.42,0,0,0-1.14,1.32c-.15.5-.16,1-.89,1a1.84,1.84,0,0,1-1.63-.8,4.38,4.38,0,0,1-.51-1.2,1.68,1.68,0,0,1,.32-1.68c.48-.4.83.49,1.35.56,1,.48,1.55-.18,2.14-.78a.56.56,0,0,1,.71.06C27,101.94,27.27,102.31,26.92,102.93Z"/><path class="cls-145" d="M57.88,48.37A13.37,13.37,0,0,0,64,49.54,9.83,9.83,0,0,0,70.81,46a.64.64,0,0,0,.12-.67l.51-.28c.17.18.65,0,.54.5-3.13,4.19-7.41,5.67-12.29,4.26a8,8,0,0,1-2.31-1.16Z"/><path class="cls-146" d="M56.94,56a26,26,0,0,1-3.66-1.27c-.47-.26-.62.08-.84.33.24-.88-.36-1.59-.52-2.38.07-.06.17-.11.2-.07.7.91,1.81,1.26,2.65,2a18.67,18.67,0,0,0,3.6.93c.44.29,1-.11,1.44.26-.76,1.25-.75,1.24.35,2.42.66.71,1.39,1.4,1.19,2.53a.57.57,0,0,1-.41.31c-.45-1.75-1.85-2.76-3.07-3.92C57.76,56.58,57.31,56.33,56.94,56Z"/><path class="cls-147" d="M31,61a6.84,6.84,0,0,1,5.63.3,4.12,4.12,0,0,0,.79.18c.91.6,2,.92,2.69,1.83.25.32.48.14.69-.08.68-.69,1.68-.58,2.49-1,.31-.15.53,0,.56.38a8.46,8.46,0,0,1-3,1.47c-.34.18-.68.64-.89-.17a1.85,1.85,0,0,0-1-1C36.5,61.56,34,60.72,31.2,61.44Z"/><path class="cls-148" d="M28.13,89.3a2.61,2.61,0,0,0,3.14-1.56,79.85,79.85,0,0,1,5.9-9.13l0,1.39c-1,.33-1.35,1.29-1.83,2-1.45,2.3-3,4.52-4.24,7a1.82,1.82,0,0,1-2,1.07C29.14,89.36,28.29,89.77,28.13,89.3Z"/><path class="cls-149" d="M25.71,101.67c-.46,1-1.08,1.48-2.14.78.36-.27,1.14.49,1.2-.5.42,0,.48-.33.57-.64.84-2.8,1.67-5.6,2.54-8.39.31-1,.52-1.86-1-1.92a2.14,2.14,0,0,0,2.17-.93l-.51,2.59q-1.17,3.74-2.35,7.47C26.07,100.64,25.89,101.16,25.71,101.67Z"/><path class="cls-150" d="M54.77,54.59a4.16,4.16,0,0,1-2.85-1.91c-.24-.37-.55-.72-.22-1.18s.8-.2,1.17,0c.84.38,2,.4,2.14,1.66C54.46,53.54,55.09,54.14,54.77,54.59Z"/><path class="cls-151" d="M64.53,59.55c-.54,0-.41-.35-.24-.65a2.44,2.44,0,0,0,.54-1.28c.63.89.72-.2,1.07-.3a.38.38,0,0,1,.24.22,24.37,24.37,0,0,0,.59,3.27c.11.47.22.94.74,1.13a.83.83,0,0,1,.26.23.25.25,0,0,1-.09.3c-.27.25-.6.15-.92.16s-.92.18-1.4.06-1-.35-.92-1c.42-.67.79.29,1.27,0a6.89,6.89,0,0,0-.33-2C65.21,59,64.8,59.62,64.53,59.55Z"/><path class="cls-152" d="M65.31,56.17c.37.52.7.72,1.33.23,1.28-1,2.69-.68,4.08-.18.54.25.53.37-.08,1a.63.63,0,0,1-.52,0L69.83,57c-1-.83-1.86-.44-2.76.1-.33.2-.59.56-1,.34a.53.53,0,0,0-.12-.14A1.24,1.24,0,0,1,65.31,56.17Z"/><path class="cls-6" d="M45.69,31.85c-.09.4-.38.3-.65.27-.08-.64-.56-.42-.92-.41-.53,0-.84-.15-.76-.74.25.22.38.69.82.5C44.81,31.19,45.2,31.68,45.69,31.85Z"/><path class="cls-145" d="M56.17,48a5.65,5.65,0,0,1-1.59-1.53A2.57,2.57,0,0,1,56.17,48Z"/><path class="cls-82" d="M45.72,108.56c-.54.34.36,1.61-.94,1.47.76-.45.63-1.08.3-1.7a9.72,9.72,0,0,0-.82-1.12C45.11,107.26,45.37,108,45.72,108.56Z"/><path class="cls-153" d="M26.92,102.93c.08-.51-.26-.83-.5-1.2,0-.24.11-.52.42-.21a1.59,1.59,0,0,1,.55,1.36Z"/><path class="cls-154" d="M46.83,110.39a.44.44,0,0,1-.44.33c-.37,0-.45-.27-.46-.56s.11-.38.36-.32A.69.69,0,0,1,46.83,110.39Z"/><path class="cls-155" d="M87.17,109.07a.57.57,0,0,0-.48.52c-.89.11-1.41-.57-2.07-1-.94-.33-1.4.11-1.52,1.12A5,5,0,0,1,81,105.11c.11-.2.06-.46.23-.64a7.84,7.84,0,0,0,1.74-.8,5.52,5.52,0,0,1,4.56,2.72,1.59,1.59,0,0,1,.07,2A.85.85,0,0,0,87.17,109.07Z"/><path class="cls-156" d="M81.31,104.57c-.1.18-.2.36-.29.54,0-.34,0-.75-.51-.78.26-.41,0-.75-.16-1.1-1-2.8-2.06-5.6-3.11-8.4-.22-.57-.53-1.12-.8-1.68a2,2,0,0,1-.2-1.79,3.9,3.9,0,0,0-.44-3.23c-.25-.31-.61-.51-.85-.81a4.19,4.19,0,0,0-.46-.48,1.22,1.22,0,0,1-.42-1.73,1.19,1.19,0,0,0,.05-1,3.4,3.4,0,0,1-.07-.34c0-.48-.21-1.21.43-1.28s.54.69.66,1.12A22.38,22.38,0,0,0,76,85.88c-.79-1.43-.93-3.06-1.48-4.57-.77-2.16-1.6-4.3-2.36-6.46,0-.53.35-.77.69-1l.77-1.14c.5,0,.38.41.46.7.57,2.17.85,4.4,1.49,6.56.94,3.19,2,6.34,2.8,9.56a11.37,11.37,0,0,1,.39,2,.6.6,0,0,1-.49.65c-.45.13-.21.37-.1.6,1.49,3.54,2.18,7.36,3.68,10.9C82.14,104.25,81.85,104.46,81.31,104.57Z"/><path class="cls-157" d="M87.62,108.36a4.61,4.61,0,0,0-4.71-4.46,6.45,6.45,0,0,1-.37-2.13.78.78,0,0,1,.37-.56c.29,1.45.85,2.56,2.54,2.9,1.09.22,1.7,1.33,2.45,2.13a3.37,3.37,0,0,1,.23,1.91C88.12,108.51,87.94,108.65,87.62,108.36Z"/><path class="cls-158" d="M65.09,20.9a.44.44,0,0,1-.55-.19c.09-.89-.78-1.34-1-2.1.2.11.41.36.59.33,1.7-.22,1.17.69.81,1.54C64.93,20.59,65.05,20.76,65.09,20.9Z"/><path class="cls-159" d="M74.09,38.11l-.38-.52-.1.52-1-2.57c-.11-.7-.91-1.13-.75-1.94-.33-.5-.84-.92-.78-1.61a21.93,21.93,0,0,0,1.57-5.43,1.28,1.28,0,0,1,.29-.77,7.69,7.69,0,0,0,1.45-3.31,1.3,1.3,0,0,0-.46-1.65,10.4,10.4,0,0,0-1.44-1c-.28-.14-.64-.32-.51-.69s.48-.14.73-.18a.6.6,0,0,1,.45.11c1,.51,2.18.11,3.26.34a27.17,27.17,0,0,1,9.29,4.22l.06.69a.92.92,0,0,1,.18.8c-.25,2-.13,3.94-.23,5.91a.6.6,0,0,1-.42.45c-.44.33-.64.92-1.21,1.12-.61-1.78-2.29-1.82-3.71-2.24a3.39,3.39,0,0,1-1.43-.49.74.74,0,0,0-1.31.34,1.64,1.64,0,0,1-1.77,1.09c-1.37,0-1.27,1.35-1.82,2.08-.42.57.28.87.59,1.25a6.7,6.7,0,0,1,1.46,3.46c.12,1,.41,1.5,1.33,1.71l-1,1.19C75,40.53,74.88,39.07,74.09,38.11Z"/><path class="cls-160" d="M91.45,15.23c.88-.36,1.47-.42,1.44.87a9.39,9.39,0,0,0,1.19,4.75c.59,1.07.32,2.35.2,3.51-.26,2.51-.06,5.07-.63,7.55-.06.23,0,.61-.14.67-1.24.64-1.93,1.85-2.9,2.75-.29.28-.67.14-1,.11A6.34,6.34,0,0,0,87.28,33a2,2,0,0,1-1-1.94c.12-3,.15-6,.24-9a8.85,8.85,0,0,1,.3-1.5,5.45,5.45,0,0,0,2-4.24c0-.9.42-1.08,1.16-1,.39.26.38.66.35,1.06-.26,4.25-.49,8.5-.38,12.76,0,.48-.29,1.4.84,1,.42-.36.34-.86.34-1.33,0-4,.1-7.95,0-11.93A2.17,2.17,0,0,1,91.45,15.23Z"/><path class="cls-161" d="M65.75,17.87l-.35,0c-2.67,0-2.67,0-2.76-2.65,0-1-.59-2.1.24-3.06A2.64,2.64,0,0,1,65.12,11c1.42-.09,2.85-.08,4.28-.06.73,0,1.81,1.34,1.83,2.2,0,1.23,0,2.45,0,3.68,0,.64-.27.79-.86.81C68.83,17.69,67.29,17.79,65.75,17.87Z"/><path class="cls-162" d="M73.15,19.05l-1.06.07c.19.54.71.39,1,.63.55.45,1.14.85,1.65,1.34.74.7-.19,1.29-.24,1.95a3.63,3.63,0,0,1-1.22,2.72,1.38,1.38,0,0,0-.39,1,14.41,14.41,0,0,1-1.68,5.46,2,2,0,0,1-1.68-2.1c0-.72,0-1.43-.06-2.14a4,4,0,0,1,.79-2.77c1.15-1.55,1-2.77-.25-4.25a5.13,5.13,0,0,1-.44-.7c-.25-1.27.35-1.63,1.5-1.45C71.76,18.89,72.5,18.63,73.15,19.05Z"/><path class="cls-163" d="M91,30.47c-1,.35-1.37.13-1.4-.93,0-1.59-.07-3.17,0-4.76.1-3.16.26-6.33.4-9.49l.53-.09,0,.07c.43.5.27,1.12.31,1.7,0,1.25,0,2.5,0,3.75a63.68,63.68,0,0,0-.24,8.05C90.31,29.43,91.27,29.82,91,30.47Z"/><path class="cls-164" d="M69.57,20.23c2.13,1.76,2.33,3.17.7,5.35a2.09,2.09,0,0,0-.49,1.4c0,1.1,0,2.2,0,3.3s.85,1.35,1.43,1.91l1,1.39c-.59.59-.71.56-1.3-.44a14.15,14.15,0,0,0-2.8-2.88l.26-.28c.3-.66-.05-1.46.44-2.08a2.59,2.59,0,0,1,.59-1.85,9.68,9.68,0,0,0,.91-1.38c.87-1.67.58-2.76-1-3.93A.56.56,0,0,0,69.57,20.23Z"/><path class="cls-165" d="M92.21,9.5c.39.87.39.87.74.72.61.35,1,.69.67,1.57-.23.58.3,1.21.48,1.82.11.39.48.76,0,1.13-.34-.3-.81.14-1.15-.18h-.74c-1.19-.2-2.42.27-3.57-.25.71-.59,1.55-.26,2.34-.33.5,0,1,0,1.5,0,.18-.22.68.08.67-.44-.16-.27-.54-.49-.21-.88.43,0,.47-.2.08-.41-.19-.1-.4-.17-.6-.26.25-.4.43-.78-.27-.9-.33-.06-.71,0-.92-.37.16-.19.59-.27.27-.66A1.42,1.42,0,0,1,92.21,9.5Z"/><path class="cls-166" d="M91.2,10.67l1.16,0c.39,0,.69.16.76.58.1.6-.34.6-.73.65-1-.16-2-.29-3-.49-.63-.13-.83-.63-.83-1.23A8.15,8.15,0,0,1,91.2,10.67Z"/><path class="cls-167" d="M92.91,12.61l.45.92a.58.58,0,0,1-.51.21c-.55-.15-1.18,0-1.66-.38l-1.85-.29c-.43-.06-.79-.22-.71-.72s.53-.44.83-.32C90.57,12.48,91.81,12.13,92.91,12.61Z"/><path class="cls-168" d="M66.05,18.85a12.91,12.91,0,0,1,2.78,0c.16.5.36,1.1-.23,1.35a2.94,2.94,0,0,1-2.41,0C65.69,20,65.76,19.34,66.05,18.85Z"/><path class="cls-158" d="M66.05,18.85c.13.45-.51,1.25.63,1.24,2.12,0,2.12,0,2.15-1.27.64.56-.08,1.3.26,1.9L66,20.7C66,20.08,65.36,19.43,66.05,18.85Z"/><path class="cls-169" d="M92.89,14.07c-1.41.45-2.86.11-4.28.23-.29-.18-.59-.44-.39-.75s.57,0,.87,0c1,.32,2.07,0,3.1.16A.9.9,0,0,1,92.89,14.07Z"/><path class="cls-165" d="M92.19,14.05c-1-.34-2.11,0-3.1-.47.69-.17,1.44.26,2.1-.22.58,0,1.18-.17,1.74.17C92.87,14,92.18,13.52,92.19,14.05Z"/><path class="cls-170" d="M92.21,9.5c0,.48-.37.52-.74.51s-1.29,0-1.35-.62a1.44,1.44,0,0,1,1.11-1.58C92.21,8,92.22,8.75,92.21,9.5Z"/><path class="cls-171" d="M101.47,79.78c0-1.15.81-1,1.5-.86a2.71,2.71,0,0,1,1.75,1.52,13.77,13.77,0,0,1,1.22,3.32c.36,1.79-.22,2.51-2,2.47-.34,0-.72.09-1-.22-1.76-1.51-2-3.41-1.44-5.52A2.41,2.41,0,0,0,101.47,79.78Z"/><path class="cls-172" d="M101.47,79.78c.34.28.27.64.2,1-.42,1.83-.34,3.52,1.22,4.85.13.11.18.26,0,.39-1.72-1-2.35-2.75-1.81-5.13C101.18,80.51,101.14,80.07,101.47,79.78Z"/><path class="cls-48" d="M78.64,91.69c-.68-2.19-1.2-4.42-1.86-6.62a85.34,85.34,0,0,1-2.61-9.84,5.56,5.56,0,0,1-.07-1.86c.44-.87.53-1.93,1.37-2.58.08,0,.18.06.2.12a21.77,21.77,0,0,1,1.68,6.78q.72,3.09,1.45,6.19a57,57,0,0,0,1.69,7.4v.38C79.89,92.61,79.26,92,78.64,91.69Z"/><path class="cls-173" d="M78.64,91.69c.61-.16,1.24.58,1.85,0,.82.54.76,1.49.94,2.28.56,2.41,1,4.85,1.48,7.27l-.24.5c-.43-.31-.46-.8-.6-1.25a57.17,57.17,0,0,1-1.48-6.34c-.32-1.63-.47-1.74-2.12-1.54a5.81,5.81,0,0,0-.58.09,1.09,1.09,0,0,1-.4-.77C77.86,91.62,78.36,92.26,78.64,91.69Z"/><path class="cls-174" d="M99.39,61.39A.39.39,0,0,1,99,61a.36.36,0,0,1,.34-.39.39.39,0,0,1,.45.4C99.75,61.22,99.59,61.33,99.39,61.39Z"/><path class="cls-175" d="M66.79,37.38c.35,0,.73.13,1-.14.79-.53,1,.18,1.35.62.82,1.82.72,2.74-.42,3.89a3.28,3.28,0,0,1-3.78.81,3.52,3.52,0,0,1-1.53-4.87A1.4,1.4,0,0,1,65.34,37C65.81,37.21,66.34,37.12,66.79,37.38Z"/><path class="cls-176" d="M63.61,37.89c-.94,1.25-.32,2.42.34,3.47a2.63,2.63,0,0,0,2.93,1.12,2.83,2.83,0,0,0,2.47-2.26A4.42,4.42,0,0,0,69,38c-.08-.26,0-.34.29-.31l.51.89a4.06,4.06,0,0,1,0,2,3.58,3.58,0,0,1-3.69,2.54,3.25,3.25,0,0,1-3.23-2.46c-.16-.56-.53-.8-1-1.19,1.31-.23.74-1.54,1.46-2.08C63.75,37.35,63.77,37.57,63.61,37.89Z"/><path class="cls-177" d="M70.91,33.14c.47,0,.57,1.18,1.3.44,0,.53-.06,1,.49,1.4.25.16.14.41-.1.56-1.69-2.06-4-1.36-6.16-1.37-1.33,0-2.66.19-4,.3a.37.37,0,0,1-.47-.38,3.75,3.75,0,0,1,1.92-.42c2.05.09,4.1-.3,6.16-.06C70.38,33.65,70.92,33.82,70.91,33.14Z"/><path class="cls-178" d="M63.61,37.89c0-.22-.06-.43-.29-.53,1-1.12,1.93-1.12,3.47,0a2,2,0,0,1-1.39,0C64.56,36.87,64.07,37.26,63.61,37.89Z"/><path class="cls-179" d="M69.32,37.64,69,38c-.41-.22-.5-1-1.19-.71-.15,0-.35,0-.44-.12s0-.29.14-.35C68.43,36.42,69.07,36.64,69.32,37.64Z"/><path class="cls-179" d="M69.83,40.55v-2c.15.3,1.56.14.33,1C69.87,39.68,70.14,40.25,69.83,40.55Z"/><path class="cls-159" d="M73.61,38.12a3.18,3.18,0,0,1,0,2.6C73.62,39.85,73.62,39,73.61,38.12Z"/><path class="cls-180" d="M86,47.59c0,.33-.09.48-.3.52s-.48-.07-.48-.35.16-.33.37-.36A.38.38,0,0,1,86,47.59Z"/><path class="cls-181" d="M77.35,77.69c-.63-2.3-1.25-4.6-1.88-6.9.41-.47.56,0,.64.23.6,2.07,1.18,4.15,1.76,6.23C78,77.71,77.73,77.79,77.35,77.69Z"/><path class="cls-95" d="M92.92,14.56a4.37,4.37,0,0,0,.75-.23c.67-.36.32.23.4.41l-.66.76Z"/><path class="cls-182" d="M72.63,51.2a23.57,23.57,0,0,0,.24-5.69,8.45,8.45,0,0,1,4,3.49c.89,1.23,1,2.72,1.46,4.11.13.42-.12.79-.19,1.18a19.82,19.82,0,0,1-2.42,4.54,9.48,9.48,0,0,1-2.27,2.37c-.24.16-.59.31-.35.73l1,1.2-.25.29c-.81-.53-1.15-1.7-2.34-1.71a26.47,26.47,0,0,1,.65-5.09c.08-.5.18-1,.27-1.51.06-.3-.14-.27-.29-.34-.4-.66.14-1.34,0-2,0-.3.11-.6.41-.65C73.38,52,73.1,51.6,72.63,51.2Z"/><path class="cls-183" d="M78.33,53.11c-.44-.19-.48-.63-.55-1a9.31,9.31,0,0,0-4.18-6c-.26-.18-.49-.39-.73-.59L72.62,45a3.8,3.8,0,0,0-.43-.47c.15-.31.46-.37.74-.49-.19.8.51,1,1,1.3a10.34,10.34,0,0,1,3.94,4.73A5.85,5.85,0,0,1,78.33,53.11Z"/><path class="cls-183" d="M73.1,61.93c-.46-.07-.89-.26-.27-.67a12.52,12.52,0,0,0,4.83-6.85c.1-.29.31-.14.48-.12a4.09,4.09,0,0,1-.61,2.37A13.24,13.24,0,0,1,73.1,61.93Z"/><path class="cls-184" d="M64.55,61.47c0,.68.32.92,1,.94.39,0,.85-.17,1.18.22-.65,1.37.09,2.46.73,3.56.07.22-.06.32-.24.38-.92-.11-1.35-.91-1.93-1.45-1.07-1-2.56-1.38-3.5-2.53A8,8,0,0,0,61,61.45L60.94,61l.29-.31a.41.41,0,0,1,.45.06c.74.61,1.29.43,1.68-.41.09-.17.17-.37.43-.32l.06,0,0-.06C64.2,60.46,64.62,60.85,64.55,61.47Z"/><path class="cls-185" d="M72.63,51.2l.62-.31c.27,1-.37,1.39-1.06,1.77a34.53,34.53,0,0,0-.53,4.56c.3-.66-.34-1.76.57-2.43l.3-.49a35,35,0,0,1-1.06,7.41c-.64.81-1.62.4-2.41.65a6.06,6.06,0,0,1-1.42.11l0-.26a.63.63,0,0,1,.4-.3c.28-.08.55-.17.82-.23,2.34-.42,2.91-1.65,1.77-3.83-.11-.21-.25-.4-.16-.66s.75-.51.22-1A5,5,0,0,1,72.63,51.2Z"/><path class="cls-186" d="M67.16,66.47l.29-.28A27.83,27.83,0,0,1,72,72.88c.2.39.25,1,.9.93l-.45,1c-.39.08-.46-.24-.57-.47a35,35,0,0,0-4.28-6.79A1.14,1.14,0,0,1,67.16,66.47Z"/><path class="cls-187" d="M93.62,61.73a.34.34,0,0,1-.32.38.32.32,0,0,1-.38-.33.35.35,0,0,1,.31-.41C93.45,61.35,93.57,61.5,93.62,61.73Z"/><path class="cls-188" d="M72.19,44.57c.25.06.53.09.43.47-.36,0-.38.37-.64.47l-.54-.5Z"/><path class="cls-189" d="M77.42,39.78h-1c-.68,0-1.17,0-.57-.87.2-.27,0-.6-.07-.9-.55-1.32-.64-2.89-2.06-3.73a.78.78,0,0,1-.28-.51C73.33,33.1,75,31,75.77,31s1.48.13,1.54-1.07c0-.72,1.27-.87,1.82-.27.21.22.41.41.7.37,1.36-.2,2.38.75,3.6,1,.88.2.63.95.65,1.56Z"/><path class="cls-95" d="M85.29,31.46l.22-.26a31.61,31.61,0,0,0,.13-4.46,6,6,0,0,1,.1-1.75l0-.69c.8.25.47.94.43,1.4C86,27.54,86,29.39,86,31.24c0,.26,0,.59-.36.62S85.33,31.65,85.29,31.46Z"/><path class="cls-190" d="M90.56,16.93c0-.56,0-1.11,0-1.66l.91,0c0,4.38,0,8.76.06,13.15,0,.72.15,1.52-.53,2.09-.09-.54-1.09-.65-.67-1.43.11-.12.3.13.28,0a3.05,3.05,0,0,1,.15-1.38,2.15,2.15,0,0,1,.11-.36,29.24,29.24,0,0,0-.08-5.21,53.6,53.6,0,0,1,.11-5.81C90.84,16.55,91,16.88,90.56,16.93Z"/><path class="cls-191" d="M76,87.69a4.11,4.11,0,0,1,.57,3,11.35,11.35,0,0,0-.1,2.48c-.78.39-.66,1.23-.94,1.87A11.68,11.68,0,0,0,75,96.71L74.6,97A33.76,33.76,0,0,1,76.09,91c.36-1.06.19-1.34-.86-1.25-.32-.05-.72.15-1-.25C74.83,88.89,75.83,88.69,76,87.69Z"/><path class="cls-192" d="M74.31,89.54c.31.09.67-.08.92.22a16.61,16.61,0,0,1-6.87,1.44c-1,0-1.89,0-2.84,0-.32-.11-.68,0-1-.18-6-1.48-10.36-5.42-14.27-10a37.9,37.9,0,0,1-4.54-5.78,7,7,0,0,1-1.19-2.9c-.19-.28-.13-.46.2-.54a37.85,37.85,0,0,1,3.46,4.32A37.45,37.45,0,0,0,60.4,87.27C63.33,88.84,66.5,90.14,70,90a22.59,22.59,0,0,0,3-.42C73.47,89.49,73.89,89.25,74.31,89.54Z"/><path class="cls-193" d="M64.55,91c.33,0,.69-.11,1,.18-.39.33-.16.7-.1,1.09a53.39,53.39,0,0,1,.74,11.83,8.16,8.16,0,0,1-.41-2.43,54.11,54.11,0,0,0-1-10.24A1.49,1.49,0,0,0,64.55,91Z"/><path class="cls-194" d="M44.77,72l-.22.46c-.42-.45-.48-1.15-1.11-1.56a4.31,4.31,0,0,1-.57,1.54c-.31-.24-.2-.56-.14-.87a8.57,8.57,0,0,0-1.08-6.27c.56-.19.61-.19,1,.21a4.2,4.2,0,0,1,1,2.37A5.46,5.46,0,0,0,44.66,71,.7.7,0,0,1,44.77,72Z"/><path class="cls-195" d="M67.43,96.72a1.66,1.66,0,0,1,.22,1.17c0,.27,0,.59-.31.67a.55.55,0,0,1-.42-.14.54.54,0,0,1-.07-.75C67,97.38,67.2,97.1,67.43,96.72Z"/><path class="cls-196" d="M67.66,100.81c.38,0,.46.19.47.44s.06.59-.32.64-.38-.19-.4-.44S67.39,100.91,67.66,100.81Z"/><path class="cls-197" d="M44.77,72a1.6,1.6,0,0,0-.56-1.13,3.75,3.75,0,0,1-.88-2.48,4.59,4.59,0,0,0-1.11-2.9c-.14-.16-.28-.42-.57-.19-.29-.39-.33-1-.88-1.16a8.46,8.46,0,0,1,3-1.47l.48.27c.89.33,1.17,1.19,1.48,1.91,1,2.43,2.71,4.49,4,6.74a5.89,5.89,0,0,1,.68,1.26A3.55,3.55,0,0,0,51.71,75a14.42,14.42,0,0,1,1.81,2,27,27,0,0,0,4.41,4.46c1.52,1.5,3.53,2.07,5.44,2.85.94.59.83-.49,1.22-.78a.45.45,0,0,1,.41.36c.21.8.83,1,1.52,1s.78-.62,1.06-1c.84,0,.57.69.54,1.12,0,.81-.69.69-1,.7.39-.1.68.24.88.75s.37.95.6,1.41.58.8.91.6c1-.63,2.37,0,3.26-1,.76-.1,1.6.47,2.28-.29l.93.5c.43,1.49-.81,1.49-1.66,1.85-3.94,1.33-7.69.6-11.47-.81a29.91,29.91,0,0,1-9.08-6,44,44,0,0,1-7-8A24.76,24.76,0,0,1,44.77,72Z"/><path class="cls-198" d="M67.28,54.23a.73.73,0,0,1-.06-.76c.2-.42.15-1.2.85-1a1.54,1.54,0,0,1,1.08,1.43c.06.65-.61.36-.74.22C67.93,53.58,67.6,53.84,67.28,54.23Z"/><path class="cls-199" d="M67.67,83.82c0,.69,0,1.49-.93,1.41-.79-.07-1.94.19-2-1.23,0-.13-.13-.26-.21-.39-.45-.16-.51-.57-.55-1a3.16,3.16,0,0,0-1-2.07A15.39,15.39,0,0,0,62.61,77a5.9,5.9,0,0,1-.12-1.39c1.28-1.54.34-2.86-.4-4.2-.73-1.13-.43-2.38-.41-3.59a3,3,0,0,0-.48-2,4,4,0,0,1-.13-2.75c.12-.34.18-.91.83-.59a31.51,31.51,0,0,1,5.26,4,42.46,42.46,0,0,1,5.26,8.32,61.67,61.67,0,0,1,2.35,6.47.36.36,0,0,1,0,.59,1.73,1.73,0,0,0-.41,2c0,.07,0,.15,0,.23.09.33.27.82-.11.92s-.59-.4-.71-.77a7.44,7.44,0,0,0-.85-2c-.35.26-.15.61-.26.88a1.67,1.67,0,0,1-.08.32c-.14.3-.09.79-.5.84s-.5-.41-.68-.69-.25-.57-.52-.75c-.59.59-.16,1.25-.16,1.88s0,1.12-.82.67c-.43-.75-.46-1.65-.83-2.42-.1-.21-.15-.5-.44-.46s-.22.37-.31.57A1.41,1.41,0,0,1,67.67,83.82Z"/><path class="cls-200" d="M51,61.21a5.15,5.15,0,0,0,1.63.71c0,.59,0,1.18,0,1.76a1.78,1.78,0,0,0,1,1.74,3.33,3.33,0,0,1,1.45,1.5c0,1.44,1,2.53,1.37,3.83a4.1,4.1,0,0,0,0,1c0,1.2-.43,1.64-1.69,1.8l-.46-.45A3.45,3.45,0,0,1,54,70.53a2.25,2.25,0,0,0-1.63-3,2.23,2.23,0,0,1-1.87-2.66,3,3,0,0,0-1.25-2.68c-.25-.19-.58-.37-.37-.75s.53-.33.84-.26A5.14,5.14,0,0,0,51,61.21Z"/><path class="cls-201" d="M59.07,71.93a1.06,1.06,0,0,1-.67-1.18,6.15,6.15,0,0,0-.57-4.84,3.6,3.6,0,0,1-.64-2.31V62.17a2.23,2.23,0,0,0,.32-1.34c0-.84.36-1.12,1.12-1.06A3.29,3.29,0,0,1,60,63.43a2.49,2.49,0,0,0,0,1.62c.7,1.48.28,3,.29,4.53h0c-.54.56-.19,1.23-.24,1.85S59.55,72.05,59.07,71.93Z"/><path class="cls-202" d="M50.28,72.88c-2.1-3.26-4.11-6.59-6-10,0-.86.43-.74,1-.48a3.41,3.41,0,0,0,1.5,1.28,1.18,1.18,0,0,1,.72,1.36c-.13,2.37.84,4,3.19,4.59.56.15.64.55.58,1s-.18,1-.27,1.51c-.19.2-.1.45-.13.67s.08.53-.29.5C50.35,73.33,50.41,73,50.28,72.88Z"/><path class="cls-203" d="M57.68,81.67a21.94,21.94,0,0,1-4.31-4.51c-.16-.26-.42-.5-.17-.84a.63.63,0,0,1,.85-.14c.48.27,1,0,1.49.26a3,3,0,0,0,1.87-.22c.37-.17.78-.31,1.05.1s.46.85-.07,1.23c-.5.2-1.21-.36-1.52.18s.43.9.66,1.36A6.8,6.8,0,0,1,58,80a7.19,7.19,0,0,1,.44,1.17C58.47,81.83,58.21,82,57.68,81.67Z"/><path class="cls-204" d="M58.13,77.41c.49-.76.3-1.07-.72-1.19a5.81,5.81,0,0,1,3-1.25c2.15,0,2.49-.81,1.64-3,.07-.2.12-.41.34-.51.31.63.65,1.24.93,1.88a1.55,1.55,0,0,1-.71,2.21,4.42,4.42,0,0,0-1.89,1.7A1.48,1.48,0,0,1,58.13,77.41Z"/><path class="cls-205" d="M51,61.21c-.42.42-.87.23-1.32.08a.5.5,0,0,0-.64.15c-.18.3.13.39.31.51a3.25,3.25,0,0,1,1.37,3.2,1.68,1.68,0,0,0,1.56,2,2.25,2.25,0,0,1,2,2.63,13.65,13.65,0,0,0,0,3.32c-1-.64-.8-1.63-.61-2.55.33-1.57.06-2.32-1.44-2.87a2.66,2.66,0,0,1-2-3,2.61,2.61,0,0,0-1.5-2.64c-.25-.12-.52-.32-.49-.61s.44-.47.72-.48C49.63,61,50.35,60.73,51,61.21Z"/><path class="cls-206" d="M55.54,76.44a2.65,2.65,0,0,1-1.4-.07c-.89-.34-1,.1-.77.79-.89-.94-1.82-1.85-2.67-2.83a2.08,2.08,0,0,1-.42-1.45c.13-.13.33.7.42,0,0-.27,0-.53.28-.69a4.35,4.35,0,0,0,3.54,4C54.86,76.28,55.25,76.16,55.54,76.44Z"/><path class="cls-207" d="M62.41,71.47a.51.51,0,0,1-.34.51c-.41-.54-.64-1.22-1.37-1.51a.75.75,0,0,1-.39-.9h0c.78-.33.79-1.27,1.39-1.75.51.47.29,1.09.3,1.64A4.06,4.06,0,0,0,62.41,71.47Z"/><path class="cls-208" d="M57.19,63.6a10.25,10.25,0,0,0,1.18,2.75c.8,1.38.46,3,.43,4.55,0,.26-.25-.12-.4-.15a6.14,6.14,0,0,1-.06-2,5.77,5.77,0,0,0-1-3.22A1.67,1.67,0,0,1,57.19,63.6Z"/><path class="cls-209" d="M61.9,62.46c-1,.58-.56,1.55-.64,2.38,0,.32.35.66-.06,1-.81-.59-1.23-1.31-.66-2.29A4.59,4.59,0,0,0,61,61.45C61.39,61.7,62,61.77,61.9,62.46Z"/><path class="cls-210" d="M55.09,66.92c-.6-.62-1.37-1-2-1.63a3,3,0,0,1-.48-3.37c.51.49.25,1.12.28,1.68a1.69,1.69,0,0,0,1,1.69A1.8,1.8,0,0,1,55.09,66.92Z"/><path class="cls-211" d="M54.77,73.6a1.93,1.93,0,0,0,1.46-2.22.6.6,0,0,1,.23-.63,3.45,3.45,0,0,1,.2,2.28C56.49,74.18,55.71,74.38,54.77,73.6Z"/><path class="cls-212" d="M58.63,59.77c-.53.23-.9.48-.83,1.21a1.17,1.17,0,0,1-.61,1.19c0-.5,0-1,0-1.52C57.14,59.41,57.33,59.29,58.63,59.77Z"/><path class="cls-213" d="M55,62.69c.56.14,1.25.19,1.35.9.07.52-.34.84-.86.93C54.68,64.08,54.43,63.49,55,62.69Z"/><path class="cls-214" d="M55,62.69a2.17,2.17,0,0,0,.49,1.83c-.81.23-1.19-.12-1.22-.92C54.24,63.08,54.15,62.51,55,62.69Z"/><path class="cls-215" d="M57.33,67.87c-.07.49-.46.47-.8.52a.47.47,0,0,1-.6-.52.58.58,0,0,1,.68-.62A.72.72,0,0,1,57.33,67.87Z"/><path class="cls-208" d="M59.07,71.93c.29-.26.79-.1,1-.51.41.28.51.6.09,1C59.53,72.89,59.37,72.24,59.07,71.93Z"/><path class="cls-216" d="M56.94,56c.91-.12.84.57.94,1.12-.27-.19-.47-.55-.89-.35C57,56.51,57,56.25,56.94,56Z"/><path class="cls-217" d="M68.81,27.9c-.2.68.49,1.55-.44,2.08a1.9,1.9,0,0,0-.47-.33c-.78-.28-.65-.64-.12-1C68.12,28.35,68.28,27.85,68.81,27.9Z"/><path class="cls-218" d="M40.48,46.9a.44.44,0,0,1-.36.42c-.23,0-.35-.14-.34-.37a.42.42,0,0,1,.36-.41C40.38,46.5,40.48,46.67,40.48,46.9Z"/><path class="cls-219" d="M42.21,59.22c0,.27-.06.48-.31.48a.41.41,0,0,1-.45-.43.38.38,0,0,1,.34-.4C42.11,58.82,42.15,59.06,42.21,59.22Z"/><path class="cls-220" d="M63.79,60.06c-.56,1.72-1.14,1.88-2.56.67a3.16,3.16,0,0,0-.94-2c-.3-.32-.62-.61-.92-.93-1-1.05-1-1.29.29-1.9-.4-.34-1,0-1.29-.39a4.1,4.1,0,0,1,4.14,2.17A8.91,8.91,0,0,1,63.79,60.06Z"/><path class="cls-221" d="M64.55,61.47A2.15,2.15,0,0,1,63.89,60a.66.66,0,0,0,.64-.47c.26-.27.33-.71.86-.92.2.87.44,1.71.58,2.57,0,.27.47.71-.08.88a.82.82,0,0,1-1-.27A1.87,1.87,0,0,0,64.55,61.47Z"/><path class="cls-222" d="M68.13,62.17l-.46,0-.26-.09c.07-1.75-.43-3.45-.46-5.19,1.42-.93,2-.94,3.07,0-.55,1.12,0,2.3-.12,3.44.09-1.15-.38-2.32.11-3.45l.49.28c.45.72,1.21,1.25,1,2.32-.54,2.49-.15,2-2.62,2.41-.36-.12-.44-.4-.51-.73a23.25,23.25,0,0,1-.47-2.88,17.63,17.63,0,0,0,.39,2.63C68.34,61.37,68.49,61.79,68.13,62.17Z"/><path class="cls-223" d="M67,56.93c.77,1.37.43,3,.87,4.41.06.2-.26.51-.41.78-.26,0-.66.16-.71-.18-.21-1.5-1-2.91-.68-4.48Z"/><path class="cls-224" d="M77.89,92.67c.63-1,1.56-.42,2.34-.4s.44.7.54,1.14c.62,2.77,1.26,5.53,1.9,8.3a3.44,3.44,0,0,1,.24,2.19c-.33.69-1,.66-1.6.67,0-.3.57-.18.31-.78C80.07,100.19,79.31,96.31,77.89,92.67Z"/><path class="cls-207" d="M75,87.19c-.46,1.49-1.39.55-2.16.41s-.22-1.26-.81-1.66c-.56-.21-.71-.64-.36-1.08s.29-1,.44-1.51h0a.53.53,0,0,1,.53,0c.58.47.41,1.21.66,1.8a8.66,8.66,0,0,1,.38,1.08c.16.55.49.76,1,.54A.49.49,0,0,1,75,87.19Z"/><path class="cls-225" d="M72.65,83.37l-.5,0c.17-.58-.29-1.6.31-1.69s.74,1,1,1.55A11,11,0,0,1,74.06,85c.39-.29.2-.63.29-.88a.75.75,0,0,1,.09,1c-.67.73-.26,1.16.33,1.58-.57.82-1,.66-1.26-.2-.14-.4-.26-.81-.39-1.22C73.2,84.59,73.34,83.88,72.65,83.37Z"/><path class="cls-226" d="M74.31,83.85a2.05,2.05,0,0,1,.46-2.59c.59.71.47,1.63.71,2.45s.68,1.33.93,2c.1.3.27.77-.21.91s-.55-.35-.65-.66a17.74,17.74,0,0,0-1.24-3.33Z"/><path class="cls-119" d="M85.74,25c0,1.78,0,3.56,0,5.34,0,.31.07.65-.25.87,0-1.65,0-3.31,0-5C85.54,25.82,85.42,25.36,85.74,25Z"/><path class="cls-227" d="M91,27.88a4.27,4.27,0,0,0-.17,1.71c-.46,0-.23-.45-.47-.55a57.78,57.78,0,0,1,.21-8.32c.45,0,.33.34.35.58A57.76,57.76,0,0,1,91,27.88Z"/><path class="cls-228" d="M91,27.88c-.44-1.93-.08-3.89-.2-5.83,0-.45.18-.94-.23-1.33,0-1.26,0-2.53,0-3.79.33-.34,0-.86.47-1.4V22.2a38.64,38.64,0,0,1,0,5.38Z"/><path class="cls-229" d="M92.19,14.05c-.63-.59,0-.47.29-.49l.45,0h.43c.21.49-.32.35-.47.54Z"/><path class="cls-230" d="M67.63,39.6a1.08,1.08,0,0,1-1.13.86c-.61,0-.8-.41-.79-.94s.13-.93.71-.88A1.29,1.29,0,0,1,67.63,39.6Z"/><path class="cls-231" d="M72.23,54.79c-.34.92-.12,2-.66,3.1a9.35,9.35,0,0,1,.62-5.23C72.84,53.36,72,54.09,72.23,54.79Z"/><path class="cls-232" d="M68.13,62.17c.07-1.56-.58-3-.57-4.57,0-.18,0-.37,0-.73.68.44.54,1,.64,1.49.24,1.19,0,2.46.69,3.56C68.64,62.08,68.44,62.28,68.13,62.17Z"/><path class="cls-233" d="M91,27.58a46,46,0,0,1,0-5.38A14.11,14.11,0,0,1,91,27.58Z"/><path class="cls-234" d="M72.39,85.53c.6.58,0,1.46.49,2.07-.61.43-1,1.48-2,.62-.19-.16-.4.16-.58.29-.83.61-1.43.47-1.9-.42a1.82,1.82,0,0,1-.19-.43c-.3-1-.54-2-2-2,1.92-.27,1.94-.3,1.47-1.85,0-.24,0-.51.2-.7s.27-.39.55-.23c.53.68.23,1.66.85,2.29.17,0,.36,0,.51.11.5-.14.53-.15.4-.63a3.56,3.56,0,0,1-.06-1.86c0-.22.06-.87.64-.39.21.41,0,.88.21,1.3a9,9,0,0,0,.25,1.64c.28.48.42,1,.71,1.62C72.26,86.49,72,85.89,72.39,85.53Z"/><path class="cls-235" d="M63.18,80.49c.91.24,1,1,1.1,1.75.09.46.19.91.28,1.37,0,1.53,0,1.53-1.23,1-.29-.41-.68-.74-1-1.15a6,6,0,0,0-1.87-3.15,1.33,1.33,0,0,1-.41-1.48.65.65,0,0,1,1-.28C61.87,79.08,62.78,79.53,63.18,80.49Z"/><path class="cls-236" d="M62.6,83.43a1.44,1.44,0,0,1,.73,1.16,15.32,15.32,0,0,1-5.65-2.92c.5.1.57-.09.47-.55s-.59-.65-.46-1.14c.58,0,.73.55,1.14.79.52-.18.44-1,1-1,.61.29.42.79.25,1.21a1.16,1.16,0,0,0,.81,1.74C61.5,82.88,61.94,83.39,62.6,83.43Z"/><path class="cls-237" d="M59.82,79.78c-.41.48-.29,1.5-.94,1.54s-.61-1-1.19-1.34c-.34-.92-1.25-1.5-1.47-2.51a1.94,1.94,0,0,1,1.91-.06,1.55,1.55,0,0,0,2.58-.62c.42-.79.93-1.37,1.92-1.23.29,1.52.56,3,.86,4.56.06.29-.13.31-.31.37A13.14,13.14,0,0,1,61.39,79c-.28-.32-.67-.77-1.11-.11C60,79.14,60.13,79.57,59.82,79.78Z"/><path class="cls-238" d="M72.39,85.53c0,.46,0,.93,0,1.39,0,.29-.08.57-.4.63s-.44-.29-.49-.52A5.13,5.13,0,0,0,71,85.51a2.23,2.23,0,0,0-.21-1.9c-.53-.39,0-.8,0-1.2.34.56.67,1.13,1,1.7.28-.18,0-.61.37-.76a3.19,3.19,0,0,1-.28,1.8C71.41,85.88,72.19,85.41,72.39,85.53Z"/><path class="cls-239" d="M68.37,82.89l-.5.23c.17-.38-.29-1.08.42-1.14.53,0,.71.51.84,1,.22.78.44,1.56.65,2.34l-.43.24C68.73,84.76,68.89,83.7,68.37,82.89Z"/><path class="cls-58" d="M59.63,77.36c-.62-.11-1.12-.29-1.07-1a.88.88,0,0,1,1.06-.84c.51,0,.92.33.84.91S60.15,77.38,59.63,77.36Z"/><path class="cls-240" d="M70,56.91a14.49,14.49,0,0,1-.1,3.89c0-1.29-.83-2.6.11-3.88Z"/><path class="cls-241" d="M72.65,83.37c.83.12,1.08,1.15.47,1.92C72.68,84.72,72.93,84,72.65,83.37Z"/><path class="cls-242" d="M67.08,39.51a.45.45,0,0,1-.43.46.34.34,0,0,1-.4-.33c0-.26,0-.5.32-.54S67,39.25,67.08,39.51Z"/><path class="cls-243" d="M70.43,87.27c.14.58-.22.68-.52.68-1,0-.51-.88-.78-1.32a.4.4,0,0,1,.43-.62C70.39,86.09,70.13,86.94,70.43,87.27Z"/><path class="cls-244" d="M68.37,82.89a4.2,4.2,0,0,1,1,2.64c-.35.28-.49.07-.55-.25C68.65,84.49,68.52,83.69,68.37,82.89Z"/><path class="cls-245" d="M70.78,83.61c.63.57,1.24,1.15.21,1.9C70.49,84.92,70.89,84.24,70.78,83.61Z"/><path class="cls-246" d="M59.82,79.78a1,1,0,0,1,.46-.88c.06.46,0,1,.46,1.28a4.53,4.53,0,0,1,1.86,3.25s0,.11,0,.11a6,6,0,0,1-2.73-1.14c-.54-.51-.25-1,0-1.51S60.16,80.15,59.82,79.78Z"/></g></g></svg>