<svg xmlns="http://www.w3.org/2000/svg" viewBox="0 0 131.44 130.54"><defs><style>.cls-1{fill:#af81a1;}.cls-2{fill:#77576d;}.cls-3{fill:#8f3c51;}.cls-4{fill:#95aeab;}.cls-5{fill:#010101;}.cls-6{fill:#8f3b50;}.cls-7{fill:#090709;}.cls-8{fill:#895f74;}.cls-9{fill:#715468;}.cls-10{fill:#ddd5db;}.cls-11{fill:#29082c;}.cls-12{fill:#edae5d;}.cls-13{fill:#2e0b2c;}.cls-14{fill:#23052c;}.cls-15{fill:#af897f;}.cls-16{fill:#77566d;}.cls-17{fill:#020101;}.cls-18{fill:#876ba0;}.cls-19{fill:#9280a1;}.cls-20{fill:#695854;}.cls-21{fill:#54515c;}.cls-22{fill:#83635b;}.cls-23{fill:#8e3b50;}.cls-24{fill:#73475d;}.cls-25{fill:#866a9e;}.cls-26{fill:#090509;}.cls-27{fill:#473c4d;}.cls-28{fill:#8d3b4f;}.cls-29{fill:#89394d;}.cls-30{fill:#8c3a4f;}.cls-31{fill:#522a3d;}.cls-32{fill:#655551;}.cls-33{fill:#594962;}.cls-34{fill:#060504;}.cls-35{fill:#777385;}.cls-36{fill:#41242f;}.cls-37{fill:#856a9d;}.cls-38{fill:#261e1c;}.cls-39{fill:#6f656f;}.cls-40{fill:#88394d;}.cls-41{fill:#7c3445;}.cls-42{fill:#c8a956;}.cls-43{fill:#2f2636;}.cls-44{fill:#f8ebc4;}.cls-45{fill:#e4a859;}.cls-46{fill:#4d4b55;}.cls-47{fill:#cba683;}.cls-48{fill:#6d6979;}.cls-49{fill:#716778;}.cls-50{fill:#6f6575;}.cls-51{fill:#5b4b65;}.cls-52{fill:#af903a;}.cls-53{fill:#a08336;}.cls-54{fill:#8c3b4f;}.cls-55{fill:#6d6373;}.cls-56{fill:#6a6170;}.cls-57{fill:#48362a;}.cls-58{fill:#bc8a49;}.cls-59{fill:#5f5664;}.cls-60{fill:#645b6a;}.cls-61{fill:#b27e4e;}.cls-62{fill:#996d43;}.cls-63{fill:#43212b;}.cls-64{fill:#bd8b4a;}.cls-65{fill:#652a39;}.cls-66{fill:#dda256;}.cls-67{fill:#9e7048;}.cls-68{fill:#926840;}.cls-69{fill:#d8b18b;}.cls-70{fill:#cc9159;}.cls-71{fill:#745333;}.cls-72{fill:#3c2b37;}.cls-73{fill:#a77e48;}.cls-74{fill:#876076;}.cls-75{fill:#5d252c;}.cls-76{fill:#521f2c;}.cls-77{fill:#78576e;}.cls-78{fill:#44182c;}.cls-79{fill:#36102d;}.cls-80{fill:#714c53;}.cls-81{fill:#6d3631;}.cls-82{fill:#e8b676;}.cls-83{fill:#7f5652;}.cls-84{fill:#090505;}.cls-85{fill:#17120d;}.cls-86{fill:#100910;}.cls-87{fill:#483339;}.cls-88{fill:#0e0a0d;}.cls-89{fill:#1a1318;}.cls-90{fill:#1b1419;}.cls-91{fill:#e7b576;}.cls-92{fill:#080608;}.cls-93{fill:#7c5453;}.cls-94{fill:#6f5448;}.cls-95{fill:#e1bf64;}.cls-96{fill:#171215;}.cls-97{fill:#1a1418;}.cls-98{fill:#3b1630;}.cls-99{fill:#775531;}.cls-100{fill:#cc7774;}.cls-101{fill:#b76c6e;}.cls-102{fill:#bf7073;}.cls-103{fill:#e28682;}.cls-104{fill:#cd797a;}.cls-105{fill:#c17173;}.cls-106{fill:#ac636a;}.cls-107{fill:#302312;}.cls-108{fill:#44321b;}.cls-109{fill:#21180d;}.cls-110{fill:#3e2e18;}.cls-111{fill:#4c381e;}.cls-112{fill:#261c0f;}.cls-113{fill:#300c2c;}.cls-114{fill:#24062c;}.cls-115{fill:#0c0808;}.cls-116{fill:#0e080c;}.cls-117{fill:#0d080a;}.cls-118{fill:#170713;}.cls-119{fill:#d6b45a;}.cls-120{fill:#caaa55;}.cls-121{fill:#9e697a;}.cls-122{fill:#90626c;}.cls-123{fill:#a75f67;}.cls-124{fill:#9f5963;}.cls-125{fill:#525541;}.cls-126{fill:#060206;}.cls-127{fill:#070604;}.cls-128{fill:#d37e7d;}.cls-129{fill:#030101;}.cls-130{fill:#391821;}.cls-131{fill:#562431;}.cls-132{fill:#52353f;}.cls-133{fill:#dcb48e;}.cls-134{fill:#d9b28c;}.cls-135{fill:#d5ae89;}.cls-136{fill:#f7e9c2;}.cls-137{fill:#cdaa49;}.cls-138{fill:#857493;}.cls-139{fill:#cdaa4c;}.cls-140{fill:#360e2c;}.cls-141{fill:#41142c;}.cls-142{fill:#461c30;}.cls-143{fill:#623033;}.cls-144{fill:#0a0606;}.cls-145{fill:#1b1113;}.cls-146{fill:#1b0e14;}.cls-147{fill:#d0a36a;}.cls-148{fill:#49182c;}.cls-149{fill:#e2817b;}.cls-150{fill:#b46365;}.cls-151{fill:#b66666;}.cls-152{fill:#bf7c8c;}.cls-153{fill:#955b5f;}.cls-154{fill:#a65c5e;}.cls-155{fill:#935e6f;}.cls-156{fill:#080507;}.cls-157{fill:#dc8a6e;}.cls-158{fill:#1a1a15;}.cls-159{fill:#1f0725;}.cls-160{fill:#f6ca92;}.cls-161{fill:#5c2f36;}.cls-162{fill:#7c5352;}.cls-163{fill:#db817c;}.cls-164{fill:#a35c60;}.cls-165{fill:#090705;}.cls-166{fill:#572e38;}.cls-167{fill:#5a2730;}.cls-168{fill:#6c6081;}.cls-169{fill:#763e31;}.cls-170{fill:#db7d77;}.cls-171{fill:#060405;}.cls-172{fill:#d1a46a;}.cls-173{fill:#ad90a4;}.cls-174{fill:#b395aa;}.cls-175{fill:#cf9750;}.cls-176{fill:#3e2534;}.cls-177{fill:#562631;}.cls-178{fill:#6c484c;}.cls-179{fill:#b86b68;}.cls-180{fill:#453623;}.cls-181{fill:#a76164;}.cls-182{fill:#c26f72;}.cls-183{fill:#c67374;}.cls-184{fill:#785d65;}.cls-185{fill:#bc8799;}.cls-186{fill:#a56d7f;}.cls-187{fill:#513844;}.cls-188{fill:#463825;}.cls-189{fill:#31261f;}.cls-190{fill:#d2b058;}.cls-191{fill:#cfaf57;}.cls-192{fill:#ccac55;}.cls-193{fill:#31251b;}.cls-194{fill:#695157;}.cls-195{fill:#765c61;}.cls-196{fill:#c0a250;}.cls-197{fill:#9c6778;}.cls-198{fill:#99624e;}.cls-199{fill:#0c0906;}.cls-200{fill:#d87b78;}.cls-201{fill:#e0b072;}.cls-202{fill:#dd8577;}.cls-203{fill:#a35d57;}.cls-204{fill:#d07776;}.cls-205{fill:#8d4a57;}.cls-206{fill:#db7c77;}.cls-207{fill:#bd6a6b;}.cls-208{fill:#c67171;}.cls-209{fill:#b76669;}.cls-210{fill:#030202;}.cls-211{fill:#553f4d;}.cls-212{fill:#dab85c;}.cls-213{fill:#7e5859;}.cls-214{fill:#bb6a6d;}.cls-215{fill:#766871;}.cls-216{fill:#484a48;}.cls-217{fill:#6aae7e;}.cls-218{fill:#65a779;}.cls-219{fill:#c0939d;}.cls-220{fill:#89dda2;}.cls-221{fill:#748873;}</style></defs><g id="Layer_2" data-name="Layer 2"><g id="Layer_1-2" data-name="Layer 1"><path d="M71.62,130.54h-7.8a1.58,1.58,0,0,1-.34-1,21.94,21.94,0,0,0-.94-4.54c-.46-1.2-.47-1.2-1.73-.79-.29.1-.6.15-1,.25a3.71,3.71,0,0,0,1.89.31c.31,0,.71.07.74.45s-.3.53-.59.68a2.19,2.19,0,0,1-.77.29c-1.45.13-1.36.44-1.4,1.91,0,.8.49,1.63-.09,2.4h-7.8a17.14,17.14,0,0,1-.74-4.26A12,12,0,0,0,49.11,121q-3.2-4.83-6.31-9.7a4.73,4.73,0,0,0-3.92-2.2c-1.72-.14-2-.33-2.35-2-.12-.55-.25-1-1-.92s-1-.39-1.46-.68c-.7-.43-1.06-.27-.91.46.31,1.53-.49,2.28-1.72,2.82-.7.3-1.23.75-1.14,1.6a3.59,3.59,0,0,1-1.45,3.19,6,6,0,0,0-.66.67c-.56.7-.49.91.38,1.23l.11,0a7.69,7.69,0,0,0,4.07.16c.81-.23,1.22.09,1.28.88a6.21,6.21,0,0,1-.13,2.23c-.33,1.15.37,1.88,1.56,1.64a7.33,7.33,0,0,0,1.2-.48,5.49,5.49,0,0,1,5.91,1.3,10.13,10.13,0,0,0,2.32,1.61,3.08,3.08,0,0,1,.77,5c-.87.82-.59,1.76-.79,2.66H41.13c-.34-.34-.27-.79-.3-1.22a32.68,32.68,0,0,0-1.08-5.54,2.35,2.35,0,0,0-1.13-1.44,1.26,1.26,0,0,0-1.78.22c-1.19,1.31-2.21,2.76-3.39,4.07a3.53,3.53,0,0,1-1.76,1.31c-1.42.11-2-.85-2.58-1.91a1.94,1.94,0,0,0-2-1.06c-.85.13-1.5.49-1.45,1.51,0,.36.07.73-.4.87A1.76,1.76,0,0,1,23.92,126a2.5,2.5,0,0,1,1.48-2.21c1.48-.45,1.55-1.71,1.71-2.92.08-.53-.22-.8-.69-.93a4,4,0,0,1-1.29-.57,2,2,0,0,1-.9-2.24,41.63,41.63,0,0,1,1.87-6.68c.1-.25.27-.53,0-.77s-.52-.1-.77,0a12.83,12.83,0,0,1-4.56,1.07c-.71,0-1,.41-.9,1.08a3.53,3.53,0,0,1-.58,2.36,3,3,0,0,1-3.59,1.51,9,9,0,0,1-3.4-1.26,32.27,32.27,0,0,1-5.23-5c-.77-.84-1.63-1.56-2.44-2.34a3.15,3.15,0,0,1-1.07-1.37,1.19,1.19,0,0,1,.22-.8c.52-.74-.14-1.29-.3-1.93-.5-1.82.12-3,2.09-4.08,1.07.12,1.51.85,1.75,1.78A7.58,7.58,0,0,0,8.9,104c-.15-.55-.55-1-.73-1.52s-.21-1.24.67-1.25c.5,0,.37-.24.34-.5A8.74,8.74,0,0,0,8.34,98,2.7,2.7,0,0,1,8.42,95a.83.83,0,0,1,.35,0c.47.16.47.63.64,1A9.83,9.83,0,0,0,12,99.51a11.8,11.8,0,0,1,1.74,1.84c-.79-.92-.86-2.32-1.49-3.48a5.73,5.73,0,0,0-1.14-1.62A2.26,2.26,0,0,1,10.21,94a3.15,3.15,0,0,1,.49-1.25.92.92,0,0,1,.3-.18,1.76,1.76,0,0,1,1.47.43,14.79,14.79,0,0,1,2.46,3A16.78,16.78,0,0,1,14,92.76c-.06-.46-.25-1,.28-1.27s.89.14,1.25.44a22.47,22.47,0,0,1,1.64,1.86c1.24,1.32,2.7,2.4,4,3.7a25.68,25.68,0,0,1,2.31,2.68c.24.31.45.87,1,.57s.23-.7.14-1.08c-1-4.16-2.74-8-6.08-10.82-.35-.3-1.07-.56-.65-1.17s1.05-.43,1.62-.15a12.5,12.5,0,0,1,1.2.74,2.08,2.08,0,0,0,1.69.3c1-.26,1.22-.93.67-1.78-.25-.39-.93-.74-.46-1.29s1-.06,1.49.16a2.31,2.31,0,0,0,3.09-.49,5.3,5.3,0,0,1,1.26-.86c.59-.37.61-.81,0-1.21l-2-1.47a41.5,41.5,0,0,0-5-2.82c-.76-.3-1.5-.68-2.28-1-1.91-.67-2.71-4.16-1-5.55a29.66,29.66,0,0,1,3.54-2.9,1.62,1.62,0,0,1,2.53.58,1.26,1.26,0,0,1-1.14,1,2.25,2.25,0,0,0-1.32.72c-.46.5-.65.91.22,1.17s1,.93,1.37,1.55a2.27,2.27,0,0,0,1.67,1.35,1.45,1.45,0,0,1,1.27,1.08,1.21,1.21,0,0,0,1.1.91,8.46,8.46,0,0,0,3.06.54c.69-.11,1.18.48,1.18,1.2a1.28,1.28,0,0,0,1,1.41c.76.25.7.85.4,1.45a2.83,2.83,0,0,0-.48,2.34.72.72,0,0,1-.26.75,4.21,4.21,0,0,0-1.42,2.11c0,.14.06.07-.06.09-2,.34-1.72,1.92-1.91,3.3a1,1,0,0,0,.76,1.27,4.38,4.38,0,0,1,3.1,3.35c.07.27.19.61.47.62,1,0,1.3.72,1.6,1.48a1.34,1.34,0,0,0,.69.61,4.29,4.29,0,0,1,2.12,2.14.88.88,0,0,0,.36.46c1.49.7,2.13,2.28,3.37,3.25.15.11.26.31.43.39,2.16,1,2.94,3.07,4,4.9a13.09,13.09,0,0,0,1.39,1.74.86.86,0,0,0,1.19.13,1.57,1.57,0,0,1,1.57-.06c.41.18,1,.13,1,.78a1.42,1.42,0,0,1-1,1.35,2.63,2.63,0,0,1-2.08-.12,5.93,5.93,0,0,0,1.49,2c.62.52,1.67.45,2.51.73a.18.18,0,0,0,.2-.09c.31-1.45,1.4-.73,2.19-.77.42,0,.94,0,1.1.48s-.26.84-.71,1.07c.5-.1.88.3,1.4.33a7.29,7.29,0,0,0-.27-2.35c-.07-.46-.42-.61-.87-.62a9.21,9.21,0,0,1-2.09-.34.9.9,0,0,1-.73-.83c0-.41.34-.48.63-.59.67-.23.7-.56.17-1-.21-.18-.42-.4-.29-.71s.49-.34.81-.33.47.08.7.07c.59,0,.85-.23.7-.89-1.18-5.14-2.77-10.16-4.44-15.16-1-3-2.19-6-3.36-9a4.93,4.93,0,0,0-2.14-2.71,2.1,2.1,0,0,1-1.22-1.77,10,10,0,0,1,1.23-3.52,6,6,0,0,0,.88-3.92c-.21-2.2-.1-2.21-2.11-2.89-1.55-.52-2.2-1.86-2.69-3.22a5.36,5.36,0,0,1,2.31-6.56,3.51,3.51,0,0,1,1-.43c1-.26,1.17-.13,1.37.94-.52,1.72.18,3.18,1.09,4.52a4.17,4.17,0,0,0,6,.58,1.33,1.33,0,0,0,.38-.83,1.2,1.2,0,0,1,.72-1.12c.85-.28,1.53-1,2.58-.78.42.09.81-.35.75-1a22.64,22.64,0,0,1,0-3.19c0-.3,0-.72.41-.74s.35.38.42.63a16,16,0,0,1,.5,2.89,1.3,1.3,0,0,0,1,1.35c.44.17.92.32.93.93-.49,1.55-.49,1.55.93,2.74a.71.71,0,0,1-.07.69,1.45,1.45,0,0,1-1.35.24,2.92,2.92,0,0,0-3.66,1.51,4.15,4.15,0,0,0,2,.5c1.9.14,3.83-.35,5.73.19.76.22,1.37-.54,2.14-.51.63.29.31.74.19,1.15A4.1,4.1,0,0,1,65,72.16a2.82,2.82,0,0,0-1.34,2.58c.05,2.21,0,4.41,0,6.61,0,1.15-.24,2.27-.32,3.41a1,1,0,0,1-.7,1c-.55.14-.89-.23-1.16-.64a6.31,6.31,0,0,1-.62-1.65c-.88-2.85-1.55-5.77-2.58-8.58a2.75,2.75,0,0,0-2.09-2c-.71-.15-1.34-.59-2-.71-.15.14-.2.22-.17.29a132,132,0,0,0,4.56,13c.56,1.26,1.17,2.5,1.83,3.7a3.27,3.27,0,0,0,5.07,1.27c.52-.26.87-.19.9.48a1.57,1.57,0,0,1,0,.37,21.2,21.2,0,0,0-.07,2.76,9.53,9.53,0,0,0,.15,3,1.4,1.4,0,0,1-.25,1.33,1.32,1.32,0,0,0,.34,2.23.9.9,0,0,1,.31.49c.06.72-.9,1.07-.68,1.85-.94,1.54-2.32.8-3.63.73a31.57,31.57,0,0,0,1.59,7c.21.71.88,1.07,1.4,1.54a1.29,1.29,0,0,0,2-.45,1.17,1.17,0,0,1,.3-.19c1.06.45.46,1.34.55,2-.07.48-.53.66-.78,1a.81.81,0,0,0,.89.46c.47-.05,1-.22,1.09.48s-.45.94-1.12,1A1.71,1.71,0,0,0,70,116.3c.31-.19.63-.37.94,0a.78.78,0,0,1,0,1c-.28.43-.65.79-.9,1.24-.14.24-.28.5-.06.76a.78.78,0,0,0,.87.23c.37-.1.24-.41.24-.68,0-1.1.4-1.3,1.38-.8s1.19.35,1.61-.6.3-1.43-.62-1.76a3.76,3.76,0,0,1-1.1-.41.76.76,0,0,1,0-1.38c.06,0,.21,0,.22-.06.5-1.39,1.19-1,2.13-.38.63.4.94-.34,1.11-.86.41-1.31.59-2.68,1-4A112.92,112.92,0,0,1,80.9,97.9c.71-1.62,1.29-3.3,2-4.91a2.92,2.92,0,0,0,0-1.78c-.19-1-.87-2.25.22-3.28.35-.34.2-.84,0-1.24-.32-.71-.53-1.47-.82-2.23-.14.3,0,.58-.12.84s-.24.61-.6.65-.52-.29-.6-.6a2.61,2.61,0,0,0-1-1.3c-.3-.26-.63-.55-.3-1,.53-.74,0-1-.53-1.38a4.42,4.42,0,0,0-1-.36c-1.08-.39-1.16-.89-.29-1.67,1.7-1.53,3.56-2.84,5.37-4.22.61-.46,1.2-.93,1-1.85a2.45,2.45,0,0,0-1.76-1.75,8.17,8.17,0,0,0-4.08.07c-.16,0-.31,0-.51.09.45.07,1,0,1.08.55s-.39.7-.72,1c-.81.65-1.52,1.44-2.78,1.13-.44-.11-1,.31-1.22.8-.32.67-.56,1.35-1.38,1.65-.48.17-.18.53,0,.84.53.76-.2,1.14-.56,1.59s-.69.52-1.19.06-1,0-1.15.88a2.54,2.54,0,0,1-1.43,2.15c-1.18,0-1.38-.14-1.39-1.27a20.19,20.19,0,0,1,.22-2.8,6.64,6.64,0,0,0,0-2c-.21-1.29-.23-1.29,1.16-1.38a1.62,1.62,0,0,1,.38,0c1.8.53,2.68-.09,2.78-2a12,12,0,0,0-.18-3.48c.16-1.14-.69-1-1.36-1l-.31-.07c-.5-.24-.91.06-1.35.21a1.38,1.38,0,0,1-1.4-.89,4,4,0,0,0-.9-1.06c-.29-.33-.58-.71-.38-1.16s.64-.39,1-.38a34.34,34.34,0,0,0,4.56,1.52c.69.22,1,0,1.17-.67.46-1.43.43-2.93.75-4.38.18-.2.37-.37.66-.2,1,1.35.71,2.92.72,4.42,0,.83.16,1.48,1.07,1.7a3.22,3.22,0,0,0,2.15,1,16.67,16.67,0,0,1,6.49,2.68,2,2,0,0,1,1,1.26,2.31,2.31,0,0,0,1.3,1.8c-.08.85-.83,1.08-1.38,1.48-1.08.8-2.25,1.5-2.49,3-.07.39-.22.79.13,1.11s.75.16,1.11,0a4.35,4.35,0,0,1,1.69-.5c.35,0,.77,0,.93.36s-.22.62-.5.82a3.07,3.07,0,0,0-.93.9.77.77,0,0,0,0,1c.26.27.59.16.89,0a2,2,0,0,0,.58-.39c.75-.67,1.39-.65,1.93.25.41.66,1,.6,1.69.5a5.69,5.69,0,0,0,.68-.18c.45-.12,1-.36,1.3.13s-.23.84-.51,1.2a1.16,1.16,0,0,0-.41.69,2,2,0,0,0,1.64-.17c.71-.33,1.41-.69,2.11-1.06.51-.27,1.07-.75,1.58-.13s0,1.11-.43,1.52a32.88,32.88,0,0,0-4.07,4.9,10.29,10.29,0,0,1-3.63,3.52,4.29,4.29,0,0,0-2,2.4,7.19,7.19,0,0,1-1.39,1.88,1.8,1.8,0,0,0,1.09-.36c.54-.28,1.18-.84,1.66-.14s-.21,1.12-.57,1.45a38.5,38.5,0,0,0,6.89-4.06,1.4,1.4,0,0,1,.74-.34A4.93,4.93,0,0,0,98,92.48a16.48,16.48,0,0,1,3-2.64,2.85,2.85,0,0,0,1-1.32,3.68,3.68,0,0,1,.76-1.18c.4-.26.78-.39,1.12.07a12.07,12.07,0,0,1-3.46,7.28C99,96.17,97.5,97.64,96,99a8.18,8.18,0,0,0-2.79,4.79,2.46,2.46,0,0,1-1.69,2.07c-.81-.07-.69-.69-.74-1.22,0-.35.26-.83-.37-.94-1.29.17-2.15,1.22-3.35,1.63a5.23,5.23,0,0,1-2.75.34,7,7,0,0,0-2.8-.14c-1,.24-.92,1.51-1.29,2.31a32.28,32.28,0,0,0-2.42,6c-.37.54-1,1-.88,1.72a3.5,3.5,0,0,0,.07,2.66c.92,1.86.24,3.39-1,4.71a7.23,7.23,0,0,0-1.28,2.17A20.57,20.57,0,0,1,71.62,130.54Z"/><path class="cls-1" d="M108.51,125.14a13.72,13.72,0,0,1-2.14,2.1,2.92,2.92,0,0,1-1.47.34h-.85a2.2,2.2,0,0,1,1.58.3c-.57,1.07-1.71,1.63-2.33,2.64H88.17a1.3,1.3,0,0,1-.27-1c.3-4.4,0-8.8.14-13.2.22-.64-.33-1.54.65-1.93a2.11,2.11,0,0,1,.77.25c.5.21,1,.3,1.38-.2a1.18,1.18,0,0,0-.13-1.52,1,1,0,0,0-1.37-.22,2.46,2.46,0,0,1-.62.33c-.86-.21-.36-.71-.17-1a1.47,1.47,0,0,1,1.4-.7,12.65,12.65,0,0,1,2.22.07,2.6,2.6,0,0,1,.9.55,2.3,2.3,0,0,0,3.19.26c.35-.19.67-.41,1-.63.57-.37,1.09-.43,1.52.21.13.2.3.47.51.47,1.7,0,3.15,1.14,4.85,1.07a3.49,3.49,0,0,1,1.4.13,5.81,5.81,0,0,0,6.2-1.43,3.49,3.49,0,0,1,2.56-1c2.16,0,4.32,0,6.49,0,.49,0,1-.1,1.43.34-1.35,1.16-2.36,2.67-3.78,3.76a3.59,3.59,0,0,1-2.41.31,79.79,79.79,0,0,0-10.14,0c-3.94.19-7.88,0-11.53.06.52,0,1.32,0,2.13,0,5.31-.14,10.62.24,15.94.22a24.48,24.48,0,0,0,3.53-.16,1.84,1.84,0,0,1,1.78.34,17.7,17.7,0,0,1-2.41,2.33,3.19,3.19,0,0,1-1.94.37H95.22a4.82,4.82,0,0,0-1.51.11,7.06,7.06,0,0,0,1.45.08h17.35c.65,0,1.35-.15,1.91.38l-2.32,2.37a10.35,10.35,0,0,1-1.76.12c-5.47,0-10.94,0-16.42.08a4.45,4.45,0,0,0,1.36.12c4.76,0,9.53,0,14.29,0,.61,0,1.28-.14,1.78.39l-2.09,2.1a2.72,2.72,0,0,1-1.35.35h-1.06C107.43,124.76,108.05,124.63,108.51,125.14Z"/><path class="cls-2" d="M77.52,114c-.1-1.19.62-2.14,1-3.19.63-1.84,1.86-3.44,2.12-5.42,0-.42.32-.35.6-.27a22.73,22.73,0,0,0,4,.33c1.32.13,2.44-.65,3.54-1.32.55-.33,1-.94,1.76-.73.86.77.49,1.78.28,2.59a10.12,10.12,0,0,0-.54,3.93.87.87,0,0,1-1,1.06c-1.24,0-1.4.74-1.42,1.66,0,2,0,3.94,0,5.91,0,3.3,0,6.61,0,9.91a2.64,2.64,0,0,1-.59,2.09H74.7a.36.36,0,0,1-.07-.36c1.16-2.69,2.64-5.27,3.46-8.11.46-1.62.7-3.24-.48-4.8A3.4,3.4,0,0,1,77.52,114Z"/><path class="cls-3" d="M44.91,130.54c-.65-1.25-.19-2.14.78-3.06a2.83,2.83,0,0,0-.74-4.31c-1.18-.65-2.49-1.18-3.16-2.52-.31-.61-1-.44-1.6-.58a5.19,5.19,0,0,0-4,.42,2.33,2.33,0,0,1-1.93.11c-.92-.25-1.16-.84-.77-1.59s.17-1.78.23-2.66c.05-.6-.36-.69-.76-.44-1.43.88-2.8,1.22-4.19-.07a1.07,1.07,0,0,0-.68-.17c-.91,0-.8-.59-.55-1.13a2.8,2.8,0,0,1,.79-.86A3.54,3.54,0,0,0,30,110a1.08,1.08,0,0,1,.64-1.16,4.76,4.76,0,0,1,.84-.43,2,2,0,0,0,1.42-2.65c-.08-.31-.36-.7.06-1s.76,0,1.08.22c.67.42,1.17,1.27,2.17.63.28-.17.37.17.43.39a4.31,4.31,0,0,1,.19,1c0,1.24.63,1.72,1.75,1.71a5.23,5.23,0,0,1,4.91,2.93c1.86,3.09,3.94,6.07,5.91,9.1a10.86,10.86,0,0,1,1.93,5.25c.08,1.49.66,2.93.46,4.44Z"/><path class="cls-4" d="M31.75,127.73a14.89,14.89,0,0,0,3-3.08c.57-.64,1.06-1.35,1.64-2,1.25-1.4,3.08-.93,3.62,1a24.72,24.72,0,0,1,1.11,6.93H40a4.19,4.19,0,0,1-.76-2.3,5.78,5.78,0,0,0-.85-2.28c-.81-1.24-1.86-1.33-2.9-.26a9.56,9.56,0,0,0-1.1,1.51,5.87,5.87,0,0,1-1.58,1.71,2.63,2.63,0,0,1-3.54,0c-.37-.35-.82-.61-1.17-1s-.75-.69-.38-1.21.85-.27,1.26,0,1,.59,1.51.93A1.12,1.12,0,0,0,31.75,127.73Z"/><path class="cls-5" d="M32.62,128.67a7.57,7.57,0,0,0,2.06-2.54,2.49,2.49,0,0,1,2.2-1.52c1.13,0,1.63.85,2,1.72a21.75,21.75,0,0,1,1,4.21H35.46c-.77-.36-1.56-.68-2.33-1.06C32.82,129.33,32.31,129.23,32.62,128.67Z"/><path class="cls-6" d="M74.69,130.34a1.34,1.34,0,0,0,0,.2H71.62a39.88,39.88,0,0,1,2.15-4.16,3.47,3.47,0,0,0,.73-2,1.55,1.55,0,0,1,.63-1.2c2-1.72,2.31-2.84,1.35-5.23a3.61,3.61,0,0,1,.13-2.53c.52,0,.47.44.55.75a1.93,1.93,0,0,0,.48,1c1.4,1.23,1.09,2.75.68,4.23a45.19,45.19,0,0,1-3,7.22A12.8,12.8,0,0,1,74.69,130.34Z"/><path class="cls-7" d="M87.23,130.54a87.11,87.11,0,0,0,.26-10.84c0-2.63-.13-5.27.09-7.9.08-.94.5-1.22,1.34-1.15s1.12-.1,1-1.05a5.71,5.71,0,0,1,.66-3.76,2.31,2.31,0,0,0-.06-2.45c.64,0,.73.28.62.88s-.46,1.16.38,1.45c-.06.55.32,1,.49,1.43-1.17.56-1.83,1.31-1.42,2.76.31,1.09-.51,1.26-1.41,1.11a8.76,8.76,0,0,0,2-.17c.68,0,.79.07,1,.65-.87,0-1.73,0-2.59,0-.7,0-1.26.38-1.13,1,.22,1.21-.33,2.4,0,3.58,0,4.8.29,9.61-.22,14.4Z"/><path class="cls-8" d="M62.54,124.89a7.9,7.9,0,0,1,1.22,4.49l.06,1.16H59.57c-.09-1.16-.32-2.31-.3-3.49,0-.72.18-1.07,1-1a2.53,2.53,0,0,0,2-.72c-.18-.35-.51-.17-.73-.29C61.8,124.42,62.16,124.61,62.54,124.89Z"/><path class="cls-9" d="M32.62,128.67c0,.51.41.46.71.59.76.34,1.64.49,2.13,1.28H28.37l-.25-.46a3,3,0,0,0,1.24-1.44A2.36,2.36,0,0,0,32.62,128.67Z"/><path class="cls-10" d="M.21,102.19H0v-7.8a.34.34,0,0,1,.2,0,1.25,1.25,0,0,1,.4,1c0,1.9,0,3.8,0,5.71A1.29,1.29,0,0,1,.21,102.19Z"/><path class="cls-11" d="M24.11,70A1.51,1.51,0,0,0,22,69.6,16.46,16.46,0,0,0,18,73c-1.05,1.26-.33,3.73,1.32,4.48a50.42,50.42,0,0,1,5.5,2.63c.66.39,1.12,1.09,1.93,1.23-.52.45-1.1.27-1.68.19A4.27,4.27,0,0,0,21,83.78a.58.58,0,0,0-.08.22c0,.67.32,1.37-.42,1.93a8,8,0,0,1-3.22,1.59,3,3,0,0,1-1.74-.08c-.23.06.13-.7-.42-.28a16.87,16.87,0,0,0-2.49,1.74c-.62.65-1.14.23-1.57-.29-1-1.17-1.86-2.42-2.83-3.6-1.67-2-3.61-3.81-5-6.08a1.2,1.2,0,0,0-1.42-.64,3,3,0,0,1-.19-3.06C2.25,75,2,74.44,2,74c0-4-.33-8-.21-12C2,55.89,1.72,49.8,1.74,43.71c0-1.65-.23-3.29-.2-5a3.43,3.43,0,0,1,.16-1.39c.23-.36.54-.26.58.05.39,2.84,2.68,2.44,4.57,2.72.3,0,.62,0,.93,0s.88.17,1,.69-.47.52-.75.73c-.07.07-.19.17-.12.27.16.25.39.11.61.06a9,9,0,0,1,3.88.5,17,17,0,0,0,4.79,1.06,1.72,1.72,0,0,0,1.73-.9c.66-.28.93.25,1.24.63A28.23,28.23,0,0,0,25.52,48a1.78,1.78,0,0,0,.67.23,4.38,4.38,0,0,1,1.65,1.46,4.72,4.72,0,0,0,2.65,1.61,14.12,14.12,0,0,0,3.26.86c.16,0,.27.14.36.28,0,.31-.23.67.17.94.44-.27-.45-.8.2-1,1.4-.15,2.8-.09,4.19-.14a13.9,13.9,0,0,0,3.16-.14,2.28,2.28,0,0,1,2.24.72,14.35,14.35,0,0,0,1.74,1.57,3.38,3.38,0,0,0,1.83.72c1.37.11,1.48.29,1.41,1.69a6.17,6.17,0,0,0,0,1.87.69.69,0,0,1-.47.73,16.78,16.78,0,0,0-3.11,2c.06-.83-.33-1-1.05-.75-1.44.51-3.37,2.14-3.24,4a8,8,0,0,0,.22,2.79c.75,1.71,1.74,3.06,3.83,3.17.72,0,1.29.23,1,1.32a4.6,4.6,0,0,0,.08,2.67,1.36,1.36,0,0,1-.14,1.13c-.1.21-.2.42-.31.63A15.83,15.83,0,0,0,44,80.9c-.21,0-.32-.08-.41-.23-.44-2.51-2.06-4.54-2.88-6.9a5.16,5.16,0,0,0-1.75-2c-.87-2.12-2.35-3-4.73-3a52.84,52.84,0,0,0-7.85.28C25.48,69.21,25,70,24.11,70Z"/><path class="cls-12" d="M43.73,80.68l.22.22c0,.39.14.84.5,1,2.37,1,2.87,3.31,3.74,5.35,2.13,5,3.53,10.25,5.32,15.37.8,2.32,1.08,4.81,1.78,7.19.26.88-.68.82-1.25.88-.41,0-.8-.34-1.25-.14-.06.38.22.48.48.58s.66.24.55.73a.77.77,0,0,1-.81.69c-.27,0-.74-.2-.73.3a.71.71,0,0,0,.74.64c.82,0,1.58.56,2.43.23.48-.19.54.21.59.49.17.93.31,1.86.44,2.79,0,.22.13.5-.14.64s-.42-.09-.62-.21-.52-.9-1.1-.24c-.19.23-.53-.07-.63-.33-.2-.49.25-.35.47-.41.38-.1.9-.13.86-.62s-.61-.31-1-.34a4.29,4.29,0,0,1-1.28-.17c-.33-.14-.74-.09-.66.35.26,1.35-.69.63-1,.56-.56-.1-1-.83-1.68-.16,0,0-.34-.08-.38-.18-.46-1.15-1.6-1.87-2-3,.45-.28.63.08.89.21a1.77,1.77,0,0,0,2.09-.12c.29-.25.66-.55.55-1s-.66-.15-.89-.3a1.31,1.31,0,0,0-1.76.15.81.81,0,0,1-1.08-.18c-.3-.63-1.09-.87-1.26-1.48-.41-1.45-1.67-2.38-2.18-3.75a1.68,1.68,0,0,0-1-1,10.34,10.34,0,0,1-3.24-2.83c-1.05-1.13-2.41-2-3.09-3.45-.15-.32-.61-.32-.93-.45-1.18-.49-1.18-2.38-2.81-2.39-.08,0-.19-.42-.22-.64a3.5,3.5,0,0,0-2.53-2.93c-1.42-.53-1.64-.9-.93-2.24a.38.38,0,0,0-.11-.58c-.73-.58-.69-1.12.18-1.49.49-.21.63-1.21,1.46-.68.15-1.29,1.31-1.91,1.94-2.89-.93-1.1.12-1.85.49-2.71.23-.54.21-.86-.5-1s-1.28-.4-1-1.43c.22-.82-.73-1.43-1.71-1.12-1.26.4-2.12-.66-3.22-.75-.21-1.56-1.59-1.65-2.66-2.17-.63-.3-.62-1.12-1-1.66s-.54-.77-1.15-.83c-.79-.08-1-.54-.5-1.23s.95-1.3,1.87-1.23c.59,0,.81-.38,1.08-.75a3,3,0,0,1,2.07-1.19,53.55,53.55,0,0,1,8.3-.32c2.67,0,3.81,1.22,4.72,3.27a6.86,6.86,0,0,1,1.44,2.12C41.65,76.13,42.85,78.33,43.73,80.68Z"/><path class="cls-12" d="M68.81,82.33a2.35,2.35,0,0,0,.9-2c-.11-.81.57-1.22,1.31-1.42.18-.06.39-.13.49.13s-.17.86.29.66A2.76,2.76,0,0,0,73,78.41c.22-.42-.27-.39-.57-.48s-.1-.39-.08-.58c.05-.35.07-.78.56-.76.73,0,.86-.42,1-1,.3-1.13,1.13-1.48,2.34-1.09.4.13.59-.14.81-.35a4.71,4.71,0,0,1,1.27-1c.26-.1.72-.17.53-.6s-.53-.3-.85-.2-.56.21-.86.32a.53.53,0,0,1,.38-.67,6.77,6.77,0,0,1,5.91,0,2,2,0,0,1,.37,3.47c-1.79,1.53-3.86,2.71-5.53,4.4-.26.27-.78.4-.68.87s.59.35.9.42a2.52,2.52,0,0,1,1.5.86c.47.55,1.35,1.14-.43,1.4,1,.63,1.8,1.08,1.72,2.17a.31.31,0,0,0,.42.29c.21-.07.28-.26.33-.46.13-.54-.16-1-.21-1.56.41-.13.69.06.74.31.23,1.15,1,2.13,1.11,3.31,0,.15,0,.42,0,.45-1.36.64-.23,1.91-.69,2.77-.08.14-.08.51,0,.55,1.44.65.36,1.59.13,2.23-.86,2.32-2,4.54-2.85,6.86-1.42,3.87-3.3,7.59-3.88,11.73a5.08,5.08,0,0,1-.52,1.44c-.37.77-.94.74-1.55.28-.3-.24-.35-.93-.94-.64s-.08.83-.09,1.21c-.51.32-.69-.42-1.17-.19a1,1,0,0,0,1,1.2c.74,0,1.53.39,1.55.92a3.13,3.13,0,0,1-.91,2.34,1.08,1.08,0,0,1-1.49-.22c-.21-.22-.38-.57-.76-.33a.61.61,0,0,0-.16.85c.17.36.43.73-.1,1a1.6,1.6,0,0,1-1.66-.28c-.49-.33-.12-.7,0-1a4,4,0,0,1,1-1.29c.22-.21.47-.52.2-.82s-.57,0-.8.17c-.78.65-1.52.82-2.18-.11a3.83,3.83,0,0,0,1-.18c.36-.17.68-.51.45-1s-.49,0-.75.08c-.9.47-1-.62-1.7-.72.4-.47,1-.45,1.22-.91a1,1,0,0,0,.15-.79c-.45-3-.09-6-.56-8.91a26.49,26.49,0,0,0-1-2.88c-.29-.67-1.37-.62-1.39-1.58,0-.36-.14-.67.27-.9A1.26,1.26,0,0,0,66.1,97,6.94,6.94,0,0,1,66,94.14c.36-1-.12-2.07.26-3.06h0a15.37,15.37,0,0,1,.1-4,2.1,2.1,0,0,1,.49-1.29c1.32-.54,2.1-1.38,1.69-2.93C68.43,82.67,68.62,82.48,68.81,82.33Z"/><path class="cls-13" d="M86.74,74.49c-.9-.21-1.49-.57-1.46-1.69,0-.74-.72-1.24-1.33-1.54-2.27-1.12-4.47-2.53-7.15-2.4-.8,0-.56-.73-1-1a.71.71,0,0,1,0-.57,6.52,6.52,0,0,0-.4-6.37c0-.81.38-.87,1-.49a2.62,2.62,0,0,1,1.11,1.47,2.79,2.79,0,0,0,2,1.93A4.88,4.88,0,0,1,82.21,66a13.82,13.82,0,0,0,4.19,3.71c.52.34,1.08.62,1.58,1a3.65,3.65,0,0,0,.67.5c2.57,0,4.89,1,7.22,1.93A17.54,17.54,0,0,0,103,74.7a3.39,3.39,0,0,0,3.33-2,1.67,1.67,0,0,1,.91-.88,2.25,2.25,0,0,0,1.44-2.12,1.74,1.74,0,0,1,1.16-1.62,12.08,12.08,0,0,1,3.53-1.29.92.92,0,0,0,.87-.52A31,31,0,0,1,116,63.38a3.65,3.65,0,0,1,4.12-2.21,6.29,6.29,0,0,0,3.56-.47,30.27,30.27,0,0,0-2.86-1.17c-.38-.2-.82-.35-.83-.89a.81.81,0,0,1,1.3-.58c.31.19.52.71,1,.39s.18-.71.14-1.1a1.3,1.3,0,0,1,.78-1.34c.53-.26.91.06,1.17.49s.76.44,1.25.34c1.33-.26,1.72.09,1.62,1.45a.54.54,0,0,0,.26.6.52.52,0,0,0,.63-.16c.29-.33.35-1.07,1-.82.79.32,1.79.34,2.23,1.3v8.08c-.27,1-.89.37-1.27.19-.88-.42-1.62-1.1-2.48-1.59-.41-.24-.81-.47-1.24-.67a.4.4,0,0,1-.17-.28c0-.26.45-.34.3-.65s-.33-.1-.5-.07-.61,0-.91,0c-.48-.08-.72.36-1.09.5a1.5,1.5,0,0,1-.63-.15,2.82,2.82,0,0,1-.74-.36c-1.4-1.09-1.45-1.09-2.82,0a8.29,8.29,0,0,0-.72.61c-.32.26-.36.78-.83.91a.86.86,0,0,1-.32,0,.78.78,0,0,0-1.12.28c-.78,1-1.36,2.15-2.06,3.22-.14.23-.5.74.22.86.26.18.57.28.73.59a6.86,6.86,0,0,0-.27,1.62c-1.45,2.77-2.69,5.65-6.36,6.3a16.61,16.61,0,0,0-7.09,3.05c-.71.53-1.75.56-2.19,1.47-.46,0-.47-.34-.58-.61-.62-1.49-1.54-2.55-3.34-2.39a.87.87,0,0,1-.84-.34c-.09-.09.31-.31-.09-.33s-.94,0-1.41,0a2.4,2.4,0,0,1-2.14-1.76,11.68,11.68,0,0,0-1-2.5,1.67,1.67,0,0,0-2.76-.34C87.19,75,86.92,74.92,86.74,74.49Z"/><path class="cls-2" d="M1.66,75.24c.14,1-.4,2.14.47,3.05.68.18.93.81,1.31,1.28,2.72,3.39,5.61,6.65,8.2,10.15,1.38,1.86,1.34,2-.77,3l0,0c-.46.51-1.06.91-1.26,1.64a1.13,1.13,0,0,1-.83.75l-.28,0c-.59.22-.3.73-.3,1.09,0,2.1-.36,2.5-2.47,2.94-1.47,1-2.53,2.11-1.92,4.06.07.64.63,1.21.28,1.91-.1.23-.19.45-.28.68L.21,102.19V94.37q.06-10.8.13-21.6.11-18,.24-36c0-2.63.11-5.26.17-7.89.89.15.76.88.76,1.48,0,2.55-.07,5.12.05,7.67.27,5.43.07,10.87.27,16.29.13,3.54.06,7.08.05,10.61,0,2.92.19,5.82.13,8.74C2,74.22,2.11,74.79,1.66,75.24Z"/><path class="cls-14" d="M99.74,83c0-.71.12-1.17,1-1.23s1.28-.84,2-1.2A21.27,21.27,0,0,1,109.85,78a3.65,3.65,0,0,0,2.51-1.6c1-1.39,2.28-2.57,2.76-4.27.51-.07.68.35.86.67.94,1.59,1.65,3.31,2.7,4.84a1.43,1.43,0,0,1,.07,1.15,3.39,3.39,0,0,0,0,2,1.45,1.45,0,0,1-.37,1.42,9.21,9.21,0,0,0-1.54,8.7c.25.75-.17,1.47-.17,2.21-1.33,2.53-2.82,5-4.16,7.49-.16.29-.26.81-.83.58a1.47,1.47,0,0,1-.21-.89,1.84,1.84,0,0,1,.16-.73,20.9,20.9,0,0,0,2-3.45c.45-.87.41-.91-.64-1a16.09,16.09,0,0,1-3.4-.15c-.47-.63.14-.62.44-.66a24.33,24.33,0,0,1,2.7,0c.51,0,1,0,1.52,0-1.21-.07-2.42,0-3.63,0A3.35,3.35,0,0,1,107.32,91a3.7,3.7,0,0,0-2.74-3.55c-.25.09-.48.24-.77.14-.31-.46-.65-.16-1,0a2.39,2.39,0,0,0-2-1.74,1,1,0,0,1-.75-.51c-.19-.67-.22-1.37-.36-2C99.73,83.16,99.73,83.1,99.74,83Z"/><path class="cls-3" d="M100.22,85.17a2,2,0,0,0,1.18.45c1.06.2,1.61.77,1.42,1.89-1.21,3-3.76,5-6.31,6.39-3.17,1.74-6.1,3.94-9.51,5.25a2.86,2.86,0,0,1-.42.08c.22-.63.85-.76,1.11-1.22.15-.26.52-.51.3-.82s-.65-.15-1,0a4.87,4.87,0,0,1-2.25.9c0-.1-.1-.2-.08-.23,1.9-2,2.82-5,5.85-6A.84.84,0,0,0,91,91.5a28.42,28.42,0,0,1,5.41-6.93c.3-.29.73-.64.34-1.09s-.71,0-1,.14c-.84.44-1.69.86-2.52,1.3a3,3,0,0,1-1.6.3c-.25,0-.5-.06-.6-.3s.12-.42.28-.58.5-.5.74-.76.53-.38.3-.67-.51-.13-.77,0a4.34,4.34,0,0,1-1.71.41c-.61,0-1.07-.15-1.29-.78s-.69-.85-1.31-.28-1.34,1.33-2.2.43c-.57-.59-.13-1.47,1-2.17.25-.16.59-.22.7-.64a2.56,2.56,0,0,0-2.15.26c-.59.3-1.27.54-1.77.09s-.16-1.16,0-1.78a4.33,4.33,0,0,1,2-2.49l2-1.45c.24.14.47.34.75.06a1.88,1.88,0,0,1,3,.67,10.8,10.8,0,0,1,.85,2.19,2.24,2.24,0,0,0,2.49,1.85c.41,0,.87-.14,1.22.24a1.21,1.21,0,0,0,.88.2,3.43,3.43,0,0,1,3.66,2.94,1.87,1.87,0,0,0,.2.4h0C100.1,83.7,99.81,84.52,100.22,85.17Z"/><path class="cls-3" d="M103.81,87.55l.65-.23a4.18,4.18,0,0,1,1.91,1.45c.78.93.66,2-.24,3.3s-2.38,2.28-2.76,4a7.75,7.75,0,0,1,2.37-3.4,1.35,1.35,0,0,1,1.63-.28c.87,1,1.54,2.15,2.32,3.22a1,1,0,0,1,.16.89,5.44,5.44,0,0,1-3.06,2.79,11.2,11.2,0,0,0-5.39,4.22,4.46,4.46,0,0,0-.89,2.28c-.27,3.33-2.43,5.24-5.15,6.66-.86.45-1.59,0-2.15-.89s-.17-1.34.47-1.82a9.36,9.36,0,0,0,1.7-1.69,3.8,3.8,0,0,0-1.6,1.09,2.84,2.84,0,0,1-2.11.88c-1-.1-1.43-.89-.83-1.74a2.87,2.87,0,0,1,1-.87c.22-.12.4-.26.15-.53-.3,0-.68.18-.87-.13s.28-.67.39-1A3.37,3.37,0,0,0,93,103.25a7.78,7.78,0,0,1,2.84-4.57,39.45,39.45,0,0,0,5.83-5.94,9.71,9.71,0,0,0,1.56-3.52C103.41,88.66,103.62,88.11,103.81,87.55Z"/><path class="cls-15" d="M65.7,90.58c-2,2-4.38.89-5.53-1.22A60.38,60.38,0,0,1,55.09,76.7c-.39-1.39-.93-2.75-1.38-4.13-.08-.24-.33-.51-.13-.77s.53-.08.76,0A28.07,28.07,0,0,0,57.67,73c.36.07.37.45.5.73,1.38,3.11,2,6.44,3,9.66.14.45.25.91.41,1.35s.37.89.86.84.57-.63.63-1.1a65.24,65.24,0,0,0,.22-9.06c0-1.8.37-3.16,2.1-3.93a5.63,5.63,0,0,0,.77-.54c.79-.4,1.12-.27,1.22.59a16.73,16.73,0,0,1,.06,2.83c-.15,3.92-.59,7.81-1,11.7A17.41,17.41,0,0,0,66.19,89,2.62,2.62,0,0,1,65.7,90.58Z"/><path class="cls-3" d="M15.36,87.25a6.23,6.23,0,0,0,4.91-1.57c.23-.21.64-.43.45-.74-1-1.56.67-1.9,1.25-2.7a2.77,2.77,0,0,1,2.85-1,14.88,14.88,0,0,0,1.88.15l2,1.45c.8.6.77,1.2-.1,1.7a5.79,5.79,0,0,0-1.53,1.1,2.22,2.22,0,0,1-3,.37c-.28-.14-.55-.31-.83-.44s-.48-.15-.62.12.09.36.22.49c.58.59,1.29,1.18.64,2.09a2.34,2.34,0,0,1-3,.24C19.69,88,19,87,17.79,87.88A26.3,26.3,0,0,1,21,91.09c2.3,2.65,3.12,6,4.08,9.19.17.58-.33.73-.65,1s-.55-.15-.7-.35a47.26,47.26,0,0,0-6.26-6.39c-.74-.69-1.34-1.54-2-2.29-.28-.3-.63-.78-1.07-.52s-.15.72,0,1.09c.31,1.17.63,2.34,1,3.64-1.37-.86-1.81-2.38-2.94-3.26s0-1.23.38-1.75.2-.87-.26-1.19A.79.79,0,0,1,12.4,89,4.39,4.39,0,0,1,15.36,87.25Z"/><path class="cls-16" d="M20.81,122.74l-.45-.45c.26-1.25-.16-1.84-1.41-1.93a1.22,1.22,0,0,1-.76-.23c-2-2-3.91-3.95-5.86-5.92a11.28,11.28,0,0,0,3.38,1.25A3.28,3.28,0,0,0,19.66,112c0-1.54,0-1.54,1.62-1.58a11.34,11.34,0,0,0,4.07-1.09c.36-.16.8-.55,1.17-.11s.11.81-.07,1.22a42.35,42.35,0,0,0-2,7,1.87,1.87,0,0,0,1.78,2.11c1.13.19,1.46.59,1.17,1.72s-.34,2.49-1.88,2.83C24,123.46,22.55,122.65,20.81,122.74Z"/><path class="cls-17" d="M66.18,86.11c0-3.07.74-6.09.83-9.16.06-1.8.07-3.6.11-5.4,0-.72-.29-.91-.93-.6-.12-.31.26-.62,0-.93.14-.66.61-1.25.29-2-.2-.46-.32-.79-.91-.43-.91.56-1.82,1.1-2.91.29-.42-.32-.92.52-1.42.05v-.71a1.88,1.88,0,0,1,.07-.58c.27-1,.1-1.74-1-2-.18-.87-1.06-.67-1.59-1a1,1,0,0,1-.53-1.05A11.12,11.12,0,0,0,57.45,59c0,1.19,0,2.38,0,3.57,0,.85-.6,1.77-1.3,1.52a1.16,1.16,0,0,0-1.54.45c-.12.15-.52.06-.79.09,0-.4.43-.53.52-.86a1.73,1.73,0,0,1-3.1-.78A13.7,13.7,0,0,1,51,59c.31-.21.8-.16.88-.72,0-.23.21-.53.55-.21a6.41,6.41,0,0,1,.12,2.65c0,.28-.1.54-.11.81,0,.57-.24,1.43.44,1.5s.41-.81.51-1.28a4.37,4.37,0,0,1,.35-1.22,1.29,1.29,0,0,0,.28-1c-.12-.63-.2-1.34.64-1.47s1.22.5,1.36,1.26a2,2,0,0,1,0,.55,6.18,6.18,0,0,0,.1,3c.51.24.7-.05.78-.49a6.17,6.17,0,0,0,0-1.14,6.44,6.44,0,0,0,0-1.39c-.31-1.46.79-2.06,1.67-2.72a.87.87,0,0,1,1.5.61c-1.32.68-1.53,1-1.24,2.5.17.85,0,1.83.76,2.5.58-.06.39-.51.4-.82,0-1,0-2.11,0-3.16,0-.63,0-1.41.87-1.38s.94.75.92,1.41a24,24,0,0,1,.11,2.68.45.45,0,0,0,.35.53,1.85,1.85,0,0,0,1,0c.51-.45.29-1,.21-1.53a12.66,12.66,0,0,1-.15-1.63c0-1,.32-1.6,1.38-1.63.67,0,1-.34,1-1s-.13-1.18-.92-1.26c-.34,0-.72,0-.91-.41.92-.7,1.75-.77,2.39-.06.38.41.45.13.68-.09.57-.54,1.19-.94,2-.29,0,.72-1,.73-1,1.49-.13.9-.72,1.84.32,2.61.17.13.09.44-.14.61a1.17,1.17,0,0,0-.76,1.3c0,.27,0,.54,0,.82,0,2-.07,2.06-1.82,2.75-1,.33-2-.18-3.06-.29-.33,0-.63-.31-1.11,0,1,.56,1.53,1.66,2.81,1.59.2.41-.19.75-.15,1.14,0,.19,0,.42.27.45s.35-.15.43-.33a1.25,1.25,0,0,0-.35-1.4c.2-.75.89-.81,1.45-1.06.78.32,1,1.05,1.23,1.74-.3.15-1.35-.16-.72.59s1.1,2.24,2.48,2.5a.28.28,0,0,1,.23.22,3.34,3.34,0,0,1-.23,1,40.1,40.1,0,0,0,.07,5.59c-.42,0-.86-.12-1.31.17,1,1.81.17,3.69.1,5.52,0,1.19.27,1.39,1.26,1.17-.4.59.41,1,.17,1.64-.36.9-.64,1.82-1.82,1.93C66.83,85.94,66.54,86.21,66.18,86.11Z"/><path class="cls-18" d="M51,58.92c.34,1.25.14,2.57.5,3.84.22.77.44,1.28,1.28,1.42S54,63.76,54.17,63c0-.06.1-.11.15-.16.73.75.73.75-.48,1.75-.23.09-.45.28-.41.51.28,1.71-1.09,1.76-2.12,2.2a3.44,3.44,0,0,1-4.37-.85c-1.16-1.44-2.32-3-1.52-5.12.36-1.3,1.7-1.33,2.55-2,.29-.23.81-.14.91-.64C49.68,57.53,50.4,57.61,51,58.92Z"/><path class="cls-19" d="M66.93,65.53c-.61-.39-.69-1.18-1.23-1.62a.47.47,0,0,1-.4-.29c0-.11,0-.32,0-.32,1.64,0,1.6-1.09,1.51-2.24,0-.35,0-.71,0-1.05-.14-1,.19-1.47,1.23-1.35a1.11,1.11,0,0,1,1.11-.12c1,.33,2,.54,3,.88a1.81,1.81,0,0,1,1.33,2.34,18.75,18.75,0,0,1-.77,5.1c-.12.43-.2.61-.7.41C70.41,66.59,68.49,66.58,66.93,65.53Z"/><path class="cls-20" d="M65.47,112.6c-1.59-.75-1.8-2.31-2.26-3.76a55,55,0,0,1-1.23-5.9c2,1,3.21,1,4-.06.32-.27-.15-1,.52-1s.7.57.86,1a9.07,9.07,0,0,1,.59,3.33c0,1.89.35,3.82-.27,5.69h0A1.73,1.73,0,0,1,65.47,112.6Z"/><path class="cls-21" d="M55.08,82.5c0,1-.37,1.53-1.29,1.49a5.85,5.85,0,0,1-5.55-5.89c.06-.64.17-.83.85-.56a5.58,5.58,0,0,0,3.67.34c.34-.09.74-.19.9.28C54.16,79.65,54.64,81.14,55.08,82.5Z"/><path class="cls-22" d="M61.22,67.93a2.46,2.46,0,0,1,2.5.06c.45.24,1.41-.23,1.93-.83.22-.26.41-.49.75-.15a2.44,2.44,0,0,1-.23,3,4.44,4.44,0,0,1-3.63.39,9.92,9.92,0,0,0-3.81.13,7.28,7.28,0,0,1-3.46-.83c.83-.56,1.71-.82,2-1.84.15-.51.9-.28,1.38-.19A7.59,7.59,0,0,0,61.22,67.93Z"/><path class="cls-23" d="M4.71,101.87a.65.65,0,0,1,.44-.74c.46-.17.64.1.83.43a33.7,33.7,0,0,1,1.7,3c1.2,2.81,4,3.94,6,5.79.29.26,1.08.32.7,1a1.19,1.19,0,0,1-1.57.43,11.3,11.3,0,0,1-3.66-2.33,24.33,24.33,0,0,1-3.9-5.58A5.11,5.11,0,0,1,4.71,101.87Z"/><path class="cls-24" d="M60.75,114.9c.58-.31.46.18.45.43a25.85,25.85,0,0,0,.27,4.12,4.52,4.52,0,0,0,.17,1c.31.82.6,1.64-.56,2A2,2,0,0,1,58.44,121c-.1-.58-.15-1.17-.21-1.75-.08-.88-.26-1.74,1.15-1.76.45,0,1.32-.2,1.16-1.13A10.41,10.41,0,0,0,60.75,114.9Z"/><path class="cls-25" d="M75.62,60.86a6.12,6.12,0,0,1,.23,7c-1,0-1.56-.32-1.41-1.5A11.34,11.34,0,0,0,74,61.51a.93.93,0,0,1-.27-.65c0-1,.71-1,1.4-.89C75.55,60.12,75.47,60.55,75.62,60.86Z"/><path class="cls-26" d="M15.36,87.25a7.28,7.28,0,0,0-2.3,1.31c-.39.41-1.2.87-.29,1.57.23.43.58.84.22,1.36-.54.44-1.26.81-.63,1.69-.47-.22-.91-.59-1.49-.46a.86.86,0,0,1,.13-.2c1.5-1.21,1.54-1.24.31-2.78-3-3.84-6.12-7.64-9.18-11.45,0-.18,0-.46.13-.54.32-.22.5.11.64.31a53.22,53.22,0,0,0,3.92,5,50.48,50.48,0,0,1,4.41,5.45c.49.69.93.67,1.43,0s1.65-1,2.44-1.58c.11-.08.44-.25.5.12C15.61,87.07,15.45,87.17,15.36,87.25Z"/><path class="cls-18" d="M71.84,69.58c.37,2.07.87,4.13-.75,6-.4.46-.64.73-1.19.26a3.42,3.42,0,0,0-.85-.37.72.72,0,0,1,0-.88c.86-1.63.67-3.35.49-5.08,0-.43-.23-1,.46-1.12h0C70.67,68.67,71.7,68.43,71.84,69.58Z"/><path class="cls-27" d="M54.71,87.37a2.3,2.3,0,0,1,.85,1.11c.18.31.39.71.76.66,1.26-.18,1.18.62,1.16,1.44a4.28,4.28,0,0,0,.14.92,1.47,1.47,0,0,1-.93,1.9,1.77,1.77,0,0,1-2.21-1.07C54.23,90.7,53.75,89,54.71,87.37Z"/><path class="cls-28" d="M22.57,105.92c-2.31-2.78-5-5.18-5.47-9C19.56,98.29,23,103.77,22.57,105.92Z"/><path class="cls-29" d="M5.7,99.07a2,2,0,0,1,.47-.32,2.39,2.39,0,0,0,1.88-3c-.07-.48,0-.49.42-.73a3.33,3.33,0,0,0,.25,3.12c.75,1.08.67,2.38.94,3.59-.51.07-.84-.78-1.29-.21s.09.87.32,1.26l.9,1.56a.74.74,0,0,1-1.18-.31,9,9,0,0,1-1.25-3A2.6,2.6,0,0,0,5.7,99.07Z"/><path class="cls-30" d="M10.43,93.92a1.73,1.73,0,0,0,.73,2A5.52,5.52,0,0,1,13,98.72c.46,1.14.86,2.33,1.35,3.48C12.64,100.1,10,98.82,9.22,96c-.43-1,.4-1.62.87-2.32C10.19,93.56,10.46,93.61,10.43,93.92Z"/><path class="cls-31" d="M60.73,112.45c-.06.42.36,1.22-.58,1.61a1.39,1.39,0,0,1-1.54-.25,5.36,5.36,0,0,1-.72-4,.64.64,0,0,1,.85-.39c.63.2,1.48-.09,1.78.81A6.08,6.08,0,0,1,60.73,112.45Z"/><path class="cls-32" d="M62.45,76.63v1.53c0,.21-.09.41-.31.45s-.37-.13-.44-.32a46,46,0,0,1-1.87-5.44,1,1,0,0,1,1-1.26,1,1,0,0,1,1.21.83A22.8,22.8,0,0,1,62.45,76.63Z"/><path class="cls-33" d="M61.46,108.77c-1.49-.46-2.6-1-2.57-2.62a8.28,8.28,0,0,0-.28-1.25c-.06-.48-.66-1.13.08-1.41a1.37,1.37,0,0,1,2,1.09C61,105.91,61.19,107.25,61.46,108.77Z"/><path class="cls-34" d="M29.36,128.64c.24,1-.4,1.32-1.24,1.44l-1.74-1.72c0-.24-.08-.47-.09-.7,0-2,.63-2.47,2.47-1.91a1.15,1.15,0,0,0,.58.06c.48,1,1.07,2,2.41,1.92-.27.56-.71.4-1.09.21-.6-.29-1.16-.64-1.74-1-.35-.2-.75-.67-1.09-.14s.2.74.52,1S29,128.38,29.36,128.64Z"/><path class="cls-35" d="M49.69,84.7a15.1,15.1,0,0,0,3.73.66c.35,0,.43.28.4.58a3.69,3.69,0,0,1-.12.81c-.16.54.11,1.35-.77,1.48a2,2,0,0,1-2.36-1.35C50.34,86.19,50,85.52,49.69,84.7Z"/><path class="cls-36" d="M74.69,130.34a4.72,4.72,0,0,1,.81-2.78,48,48,0,0,0,2.72-6.5c.44-1.39.52-2.72-.8-3.73-.63-.48-.44-1.3-.81-1.88a1.7,1.7,0,0,1,.91-1.46c0,1.47-.11,2.87,1,4.18.62.72.37,2.09.11,3.09a46.52,46.52,0,0,1-3.77,9C74.85,130.27,74.75,130.29,74.69,130.34Z"/><path class="cls-37" d="M52.69,68.77c0,1.27-.36,2.46-.06,3.68.14.59-.5.45-.85.48-.78.07-1.45-.15-1.6-1a2.12,2.12,0,0,1,1.12-2.47A3.29,3.29,0,0,1,52.69,68.77Z"/><path class="cls-38" d="M67.64,111.89c0-2,0-4-.07-6a8,8,0,0,0-1-3.86c-.58.13-.24.71-.62.86-.52-.9.48-1.13.74-1.68a3.92,3.92,0,0,1,1.22,2.48c.64,3.06.3,6.19.53,9.28a.81.81,0,0,1-.34.82c0-.54,0-1.09,0-1.63C68.08,111.79,67.91,111.77,67.64,111.89Z"/><path class="cls-39" d="M20.81,122.74a1.23,1.23,0,0,1,1.58-.18c.69.36,1.48.5,2.2.8.37.15.86.22.94.77a2.39,2.39,0,0,0-1.4,1.9Z"/><path class="cls-40" d="M89.38,89.75c-2.29,1.61-3.72,3.83-5.52,5.9A5.88,5.88,0,0,1,89.38,89.75Z"/><path class="cls-13" d="M74,60.8l0,.71-.43.25a2.17,2.17,0,0,0-2.12-2.19c-1.15-.12-2.18-.83-3.36-.91,0-.11,0-.3-.07-.32-1.72-.69-.53-1.79-.41-2.74.29,1.81,1.59,2.15,3.15,2.45a4.93,4.93,0,0,1,3.37,1.6C74.05,60,73.67,60.37,74,60.8Z"/><path class="cls-41" d="M16.14,107.72c-2.06-1.39-4.7-2.18-5.18-5.12,0-.27-.21-.6.06-.76s.53.13.64.37C12.67,104.44,14.43,106.05,16.14,107.72Z"/><path class="cls-42" d="M29.34,125.81c0,.25,0,.56-.45.39-2.12-.72-2.18-.68-2.26,1.54a1.15,1.15,0,0,1-.25.62,3.55,3.55,0,0,1-1-1c.06-.11.16-.22.15-.31-.13-1-.24-1.87,1.05-2.24A2.24,2.24,0,0,1,29.34,125.81Z"/><path class="cls-43" d="M70,68.37a.57.57,0,0,0-.23.62,9.67,9.67,0,0,1-.69,6.46l-.29,0a2,2,0,0,1-.47-1.63c.17-1.43-.26-2.89.24-4.29.7,1.29.18,2.66.33,3.84a15.61,15.61,0,0,0,0-4.77h-.12C69,68,69.44,67.92,70,68.37Z"/><path class="cls-44" d="M54.45,66.94c.39-.49-.52-1.43.64-1.77.59-.17.79,0,.85.52.09.74.09,1.48.17,2.22s-.75.82-1.27.91-.35-.47-.38-.77S54.45,67.35,54.45,66.94Z"/><path class="cls-45" d="M67.29,119.57c.77.07,1.58-.24,2.07.77.18.37.82.5,1.36.8-.62.4-1,1.11-1.84.82C67.83,121.61,67.39,120.93,67.29,119.57Z"/><path class="cls-46" d="M51.64,89.91c.6-.08.84.16.86.78A23.13,23.13,0,0,0,52.78,93c0,.19.18.4,0,.54s-.45,0-.65-.11a11.81,11.81,0,0,1-1.27-3.24C51,89.78,51.36,90,51.64,89.91Z"/><path class="cls-47" d="M60.28,64.6c.47.17,1.25-.27,1.42.39a2.13,2.13,0,0,1-.48,2.23C59.63,66.77,59.23,65.68,60.28,64.6Z"/><path class="cls-48" d="M56.22,84.35c.33,0,.38.28.46.47.23.57.44,1.16.62,1.75.09.3.41.7-.11.88a.83.83,0,0,1-1.11-.39c-.25-.52-.48-1.06-.69-1.61C55.09,84.66,55.77,84.58,56.22,84.35Z"/><path class="cls-49" d="M56.3,101.57c0,.83-.52,1.37-1,1.27-.87-.16-1-1.18-1.08-1.88s.94-.61,1.38-.63C56.37,100.28,56.14,101.15,56.3,101.57Z"/><path class="cls-50" d="M54.29,99.38a1.07,1.07,0,0,1-1-1.21c.12-.84,1.16-.73,1.79-.86s.63.63.66,1.09C55.79,99.18,55.25,99.37,54.29,99.38Z"/><path class="cls-51" d="M56.13,108.58c-.27-1.08-.52-2.1-.78-3.12-.09-.34-.27-.7.18-.91.27-.13.55-.45.84-.26s.13.57.16.87c.07.66.11,1.32.19,2A1.33,1.33,0,0,1,56.13,108.58Z"/><path class="cls-52" d="M62.54,124.89a1.61,1.61,0,0,0-1,.13,4,4,0,0,1-2.06-.16.45.45,0,0,1-.34-.42c0-.27.21-.31.4-.3a3.77,3.77,0,0,0,2.76-1.09C62.36,123.8,62.75,124.29,62.54,124.89Z"/><path class="cls-53" d="M60.75,114.9c.3.54.56,1.08-.21,1.47-.65.06-1.29.44-1.95.16-.37-.16-.73-.42-.66-.87.09-.64.57-.21.83-.19A3.55,3.55,0,0,0,60.75,114.9Z"/><path class="cls-54" d="M13.89,108a17.54,17.54,0,0,0,2.73,1.31.64.64,0,0,1,.53.79c-.06.26-.13.62-.31.73-.39.23-.59-.26-.89-.37C14.79,110.07,15,108.51,13.89,108Z"/><path class="cls-55" d="M58.6,100.22c.53.6,1.32-1.3,1.67,0,.2.73-.86,1.24-1.52,1.43s-1.09-.32-1.06-1.08S58.16,100.16,58.6,100.22Z"/><path class="cls-56" d="M52.3,94.64a8.9,8.9,0,0,0,2.12.26c.58,0,.92.32.83.89s-.66.61-1,.44C53.51,95.89,52.51,95.83,52.3,94.64Z"/><path class="cls-57" d="M66.18,86.11a1.54,1.54,0,0,1,1-.21,1.46,1.46,0,0,0-.55,1.17,29.93,29.93,0,0,1-.4,4c-.13-.21.05-.73-.51-.5C66.07,89.12,65.75,87.57,66.18,86.11Z"/><path class="cls-58" d="M51.73,118.55c1.07,0,2.54,1,3.34,2.26C54.19,121.05,54.19,121.05,51.73,118.55Z"/><path class="cls-59" d="M57.88,98.75c0-1.11.77-1.3,1.41-1.63.45-.23.63,0,.81.38s0,.59-.33.7C59.19,98.39,58.59,98.54,57.88,98.75Z"/><path class="cls-60" d="M59.59,94.41A2.19,2.19,0,0,1,58.13,96a.75.75,0,0,1-1.08-.42c-.19-.68.44-.47.76-.51A3.44,3.44,0,0,0,59.59,94.41Z"/><path class="cls-61" d="M62.65,96.8c.93.07,1.64.59,2.43.14.24-.15.37.18.39.42s-.2.47-.49.52A2.31,2.31,0,0,1,62.65,96.8Z"/><path class="cls-62" d="M62.45,94.66a8.26,8.26,0,0,0,2.22.42c.38,0,.62.14.55.55s-.38.45-.71.35A3.65,3.65,0,0,1,62.45,94.66Z"/><path class="cls-63" d="M10.43,93.92A2.34,2.34,0,0,0,9.22,96c-.39-.2-.1-.74-.47-1,.71-.78.79-2.12,2.09-2.39C10.57,93.05,10.77,93.58,10.43,93.92Z"/><path class="cls-64" d="M72.39,121.87c-.31.28-.48.42-.64.58-.34.33-.68.67-1.21.43-.2-.09-.3-.28-.1-.44.4-.29.5-1.17,1.32-.7A2.92,2.92,0,0,0,72.39,121.87Z"/><path class="cls-65" d="M19,104.62a8.82,8.82,0,0,1,1.75,1.89C19.26,106.29,18.92,105.93,19,104.62Z"/><path class="cls-66" d="M68.06,122.51c.34.37,1.14.14,1.26.79.06.29-.42.39-.71.4-.59,0-.78-.41-.9-.87C67.65,122.63,67.76,122.46,68.06,122.51Z"/><path class="cls-67" d="M63.87,102c.39.24,1.12,0,1.29.69.06.28-.26.37-.49.33-.5-.09-1.05-.14-1.24-.73C63.35,102.05,63.6,102,63.87,102Z"/><path class="cls-68" d="M64.41,99.6c0,.29-.28.28-.45.24a1.42,1.42,0,0,1-1.19-1c-.06-.25.25-.31.42-.23C63.68,98.84,64.24,99,64.41,99.6Z"/><path class="cls-69" d="M58.21,65.84c0,.32.13.83-.37.85s-.36-.51-.35-.81-.29-.92.34-.91C58.28,65,58.18,65.49,58.21,65.84Z"/><path class="cls-70" d="M63.61,93.8c.32-.41.83-.27,1.18-.51.19-.13.46-.14.5.21s0,.53-.28.54C64.55,94.07,64,94.25,63.61,93.8Z"/><path class="cls-43" d="M71.84,69.58c-.33-.85-1.29-.74-1.87-1.21a7.3,7.3,0,0,0,.81,0C71.76,68.23,72,68.71,71.84,69.58Z"/><path class="cls-71" d="M63.15,100.79c.07-.11.08-.16.1-.16a1.58,1.58,0,0,1,1.46.47s0,.27-.09.28A1.63,1.63,0,0,1,63.15,100.79Z"/><path class="cls-57" d="M66.21,91.08c-.16,1,.21,2.07-.26,3.06C66.07,93.12,65.61,92.06,66.21,91.08Z"/><path class="cls-38" d="M65.47,112.6a2.47,2.47,0,0,0,2.16-.7C67.21,113.07,66.4,113,65.47,112.6Z"/><path class="cls-72" d="M4.06,105c-.1-.64-.19-1.28-.28-1.91C3.92,103.76,4.94,104.26,4.06,105Z"/><path class="cls-73" d="M56.74,119.64c-.06.23-.2.41-.48.37s-.41-.07-.39-.32.25-.36.49-.39A.31.31,0,0,1,56.74,119.64Z"/><path class="cls-74" d="M25.94,48.33c-.45.31-.6-.19-.84-.35a32.32,32.32,0,0,1-6-5.36,1.69,1.69,0,0,1-.83-.63c-.25-.38-.77-.74-.53-1.22s.81-.31,1.27-.25a20.41,20.41,0,0,0,4.42,0,31.16,31.16,0,0,0,11.3-4.45A45.6,45.6,0,0,0,42,31c2.1-1.62,4.1-3.38,6.13-5.1a3.39,3.39,0,0,1,.42-.33,95.91,95.91,0,0,1,10.11-7.36,31.19,31.19,0,0,1,12.18-4.6c3.36-.44,6.68-.33,9.76,1.4,1,.59,1.08.77.1,1.51a1.46,1.46,0,0,0-1,.85,1.75,1.75,0,0,0-.32,1,3.58,3.58,0,0,0,2.24,2.06A1.76,1.76,0,0,1,83,22.13c0,.81.47,1.26,1.27,1.17a1.41,1.41,0,0,0,.84-1.82c-.46-.77-.32-1.24.42-1.61a1.27,1.27,0,0,1,1.82.53c.35.59.75,1,1.5.81a1.55,1.55,0,0,1,1,.72,1.16,1.16,0,0,1,.34.73c0,.8.35,1.16,1.14,1.13h1.18q16.42,0,32.83,0a5.54,5.54,0,0,1,2.32.32l.22.24c-.37.48-.91.41-1.41.41q-17.78,0-35.56,0a1.88,1.88,0,0,1-1.5-.45,4.53,4.53,0,0,0,1.27.82c.64.35,1.32.68,1.23,1.55a1.87,1.87,0,0,1-1.43,1.69,1.16,1.16,0,0,1-.83-.35c-.75-.55-1.32-.3-1.43.62a1.59,1.59,0,0,0,.55,1.47,3.31,3.31,0,0,1,.5.49c.11.17.25.35.22.53-.29,1.45-.41,3-1.38,4.19-.56-.13-.47-.6-.52-1A3.79,3.79,0,0,0,87.48,33a2.33,2.33,0,0,1-.21-.49,2.28,2.28,0,0,1-.09-.51,3.81,3.81,0,0,0-.44-1.81,14.7,14.7,0,0,0-5.12-6.14,1.21,1.21,0,0,0-1.3-.2c-.67,0-1-.49-1.52-.8-.6-.53-1.49-.63-1.94-1.45-.23-.41-1-.32-1.44-.08a6.77,6.77,0,0,1-3.44.56,28.11,28.11,0,0,0-11.8,3c-2.14,1-4.27,2-6.31,3.21a70.46,70.46,0,0,0-7.4,5.05A86,86,0,0,1,39,37.85c-1.78,1.09-3.64,2-5.46,3-2.1,1.2-4.52,1.29-6.82,1.77-.92.19-1.87.15-2.78.41-.42,1.63.46,2.85,1.25,4.09C25.46,47.55,26,47.78,25.94,48.33Z"/><path class="cls-75" d="M100.94.1a4.53,4.53,0,0,1,4.51,1.65c3.45,3.69,7.08,7.21,10.64,10.79.38.89-.2,1.21-.88,1.44a3.39,3.39,0,0,1-1.73-.08,3,3,0,0,1-.6,0,73.06,73.06,0,0,0-7.46-1.67,7.46,7.46,0,0,0-2.58,0,6.79,6.79,0,0,1-3.38,0,1.65,1.65,0,0,0-1.16,0,11.82,11.82,0,0,1-4.3.55,7.2,7.2,0,0,0-3.72,1.16,8.63,8.63,0,0,1-5.37.84,8.9,8.9,0,0,0-3.74.12,1.05,1.05,0,0,1-.8,0,26.62,26.62,0,0,0-5.23-1.62,11.83,11.83,0,0,0-2-2c-.33-.24-.78-.54-.49-1s.73-.38,1.22-.21A9.89,9.89,0,0,0,72,9.07a3.54,3.54,0,0,1-1.74-4.41.9.9,0,0,1,1-.58A14.39,14.39,0,0,1,76.11,5a40,40,0,0,0,4.8,1.66,1.78,1.78,0,0,0,2.5-1,1.14,1.14,0,0,1,1.39-.58c.86.15,1.67.46,2.51.67s1.33.19,1.59-.7a.84.84,0,0,1,1-.63c.38.06.38.69.9.62.16-.53-.63-.43-.54-.86.62-.55,1.6-.71,1.87-1.67a.41.41,0,0,1,.38-.24c1.92-.18,3.77-1,5.77-.37,1.48.46,1.91.12,2.41-1.38A1.08,1.08,0,0,1,100.94.1Z"/><path class="cls-76" d="M100.94.1c0,2-.71,2.56-2.7,2.12-1.48-.33-3-.63-4.39.31a.67.67,0,0,1-.67,0c-.59-.24-.89-.16-1,.59-.17.95-1.27.69-1.85,1.16a.28.28,0,0,1-.26.24c-.48,0-.9.11-.91.68,0,1.2-.81,1.06-1.56.89-1-.22-1.88-.54-2.83-.78-.4-.09-.83-.27-1,.36-.48,1.36-1.61,1.76-3,1.25-2.17-.78-4.37-1.49-6.55-2.23-1-.34-2,0-3-.38-.33-.11-.56.09-.65.49-.49,2.23.22,3.49,2.42,4.26.57.2,1.23.3,1.42,1-.5.38-1.26-.56-1.48.14s.72.79,1.13,1.15A3.42,3.42,0,0,1,75.17,13a1.32,1.32,0,0,1-1.19.35,23.18,23.18,0,0,0-9.75,1.93,1.81,1.81,0,0,1-1,.19.65.65,0,0,1-.33-.62c.23-.92.21-1.71-1-1.93-1.4-1.44-2.31-3.23-3.57-4.77-1.28-.35-2.55.05-3.82.06a13.78,13.78,0,0,1-4.19-.53c-1.26-.39-1.61-1.35-.76-2.32a6.89,6.89,0,0,0,1.61-3.21,2,2,0,0,1,2-1.5,38.55,38.55,0,0,1,14.27.9,1.84,1.84,0,0,0,2.13-.52c.65-.74,1.74-.42,2.48-1q10.77,0,21.54,0C96.07.05,98.5.08,100.94.1Z"/><path class="cls-77" d="M131.39,81.14c0,6.69,0,13.38,0,20.07a2.4,2.4,0,0,1-.82,2c-2.56,2.49-5.09,5-7.63,7.53a2,2,0,0,1-1.35.28,29.18,29.18,0,0,0-6.8,0c-1.51.17-1.82-.31-1.27-1.71a5.7,5.7,0,0,0,.57-3.4c-.19-1.15.75-2,1-3.25-.12.47,0,.81-.41.81a1.67,1.67,0,0,1-.42-1,33.27,33.27,0,0,1,2.1-4.68,10.86,10.86,0,0,1,1.59-3.24,1.53,1.53,0,0,1,.69-.17,4,4,0,0,0,1.49-.16c.89-1.23,2.48-1.72,3.22-3.12.3-.57.48-1,.08-1.6a8.39,8.39,0,0,1,.68-3.8c.75.07.48.66.5,1.06,0,.61-.27,1.2-.26,2,2.36-2.62,4.56-5.11,6.75-7.6A.27.27,0,0,1,131.39,81.14Z"/><path class="cls-78" d="M72.1.1C70.82.78,69.6,1.89,68.27,2c-1.52.15-3.11-.61-4.68-.89A27.5,27.5,0,0,0,55.29,1c-.7.09-1.42,0-2.12.05-1.19.06-1.54.64-1.73,1.84a3.55,3.55,0,0,1-1.27,2.36,1.55,1.55,0,0,0-.74,1.49c.08.68.71.59,1.18.74a15,15,0,0,0,6.83.22c.74-.1.93,0,1.12.47a1.67,1.67,0,0,1-1.08.37,40.8,40.8,0,0,0-4.82.84,4.38,4.38,0,0,0-2.85.8c-1.2.81-2.62,1.19-3.87,1.91a6.81,6.81,0,0,0-2.41,1.81,1.77,1.77,0,0,1-1.51.52c-2-.12-3.9.32-5.87.23-.46,0-1.2-.29-1.28.59a1.65,1.65,0,0,0,1.24,1.74,20.48,20.48,0,0,0,2.35,0c1.1,0,2.2,0,3.3,0a1.58,1.58,0,0,1,1.31.37c-.27.69-.9.53-1.41.54-1.88,0-3.75,0-5.63,0,2,0,4-.05,6,0,.56,0,1.52-.05.94,1.08a54.7,54.7,0,0,0-6.65-.17c-1,0-.92.9-1.31,1.41-.34.32-.53.15-.62-.21a5.89,5.89,0,0,0-.19-1.1,11.66,11.66,0,0,0-1.85-6.69,1.26,1.26,0,0,0,0-.58c-.47-1,0-1.28.9-1.29a.94.94,0,0,0,1.06-.88,3.13,3.13,0,0,1,.41-1c.86-1.61.86-1.62,2.64-1.13a1.55,1.55,0,0,0,1,0,2,2,0,0,1,2,.06c.26.16.65.32.81-.07s-.23-.56-.51-.68c-.68-.3-1.4-.5-2.11-.74-1.07-.38-1.19-.63-.61-1.58.33-.54.09-.79-.31-1C35.08,1.77,36.16,1.27,38,.29A2.9,2.9,0,0,0,38.29.1q6.36,0,12.72,0Q61.56.06,72.1.1Z"/><path class="cls-79" d="M38.29.1c-.27.68-.94.87-1.51,1.2s-.66.64-.07,1c.3.19.55.45.85.62.85.49,1.65.93.37,1.87-.49.36-.07.6.27.73.66.24,1.34.42,2,.65a2.94,2.94,0,0,1,.95.43c.29.24.9.49.48,1s-.83.69-1.33.2a1.27,1.27,0,0,0-1.79-.14,1.42,1.42,0,0,1-1.46,0c-.86-.42-1.6-.63-1.92.7-.14.56-.68,1-.66,1.7,0,.46-.48.55-.88.62s-.85-.1-1.16.07c-.4.5.81,1-.1,1.38a1.58,1.58,0,0,1-1-.18,13.69,13.69,0,0,0-6.63-.54c-1.19.17-2.45-.08-3.58.52-1.5,0-2.11,1.07-2.72,2.16-1,.05-2-.51-3,.3a5.65,5.65,0,0,1-1.4,1c-.35,0-.78.43-1-.22Q20.36,7.82,27.7.43a1.2,1.2,0,0,1,.94-.38Z"/><path class="cls-17" d="M48.25,26.07a133,133,0,0,1-10.84,8.69A8.67,8.67,0,0,1,35,36.25c-.65.33-1.18-.15-1.76-.25A5.1,5.1,0,0,1,31,34.07c-.36-.49-.62-.49-1.15-.26a14,14,0,0,1-4.71,1.35,5.66,5.66,0,0,1-6-3.35c-.85-2.31-.85-2.32-3.34-2.31-4.41,0-8.82-.06-13.23.05a.76.76,0,0,0-.35.17C1.79,31.47,2.09,33.24,2,35c0,.52.11,1.11-.58,1.55-.3-2.76.16-5.46-.29-8.11a2,2,0,0,1,1.56-.37c4.91-.1,9.82-.37,14.73-.24a3,3,0,0,0,2.27-.76,5.78,5.78,0,0,1,3.14-1.16,3.6,3.6,0,0,0-1.64-.19c-5.31,0-10.62,0-15.92,0-.73,0-1.63.21-2-.82L4,24.22a2.26,2.26,0,0,1,1.67-.39h7.63A5.41,5.41,0,0,0,9.17,22.6c-1,0-2.14.28-3-.54l1-.94c.57-.46,1.25-.3,1.9-.36s1.18.21,1.43-.48a1.4,1.4,0,0,0-.37-1.6.43.43,0,0,1-.16-.41l1-.95c.59-.38,1,0,1.29.42a3.86,3.86,0,0,1,.19,1.51,2,2,0,0,0,2.08,2.21,2.32,2.32,0,0,1,2.16,1.13,3,3,0,0,0,2.52.54c.25-.13.16-.29.13-.49-.11-.91.21-1.28.95-.9a12.38,12.38,0,0,0,4.44,1.05c1.11.12,1.13.53.92,1.6s-1,2.25-.44,3.5a.46.46,0,0,1-.19.62.84.84,0,0,1-1-.2,2,2,0,0,0-2.06-.55c-.89.28-1.59.72-1.66,1.74A2.94,2.94,0,0,0,22,32.09a4.86,4.86,0,0,0,2.33.25,1.73,1.73,0,0,1,1.35.22c1.28,1,2.47.32,3.63-.25.53-.26.53-.73.3-1.22A3.07,3.07,0,0,1,29.13,30c0-.61.28-1,.84-.76a6.18,6.18,0,0,0,3.76.62c.62-.1.83.36.49.93a2.17,2.17,0,0,1-.69.62c-.89.61-.9,1.27.11,1.7A4.79,4.79,0,0,0,38.27,33c1.42-.91,2.89-1.81,3.36-3.63a.48.48,0,0,1,.35-.29c.49.36.87.28,1.3-.19a27,27,0,0,1,2.45-2.21C46.42,26.1,47.21,25.42,48.25,26.07Z"/><path class="cls-80" d="M131.39,81.14h-.15c-.37-.25-.34-.67-.41-1,0-3.66,0-7.32,0-11a2,2,0,0,1,.34-1.45V58.92c-.59-1-.26-2.08-.31-3.13,0-4.14-.06-8.29,0-12.43,0-2.65-.06-5.3,0-8,0-.51,0-1,0-1.54,0-.87,0-1.73,0-2.6,0-.72,0-1.44,0-2.16-.1-.47-.49-.46-.83-.5a13,13,0,0,0-1.53,0H93.76a3.45,3.45,0,0,1-2.07-.31c-.25-.34-.11-.67,0-1a1.79,1.79,0,0,0,.21-.91C91.83,25,91.85,25,93.21,25h34.08a3.27,3.27,0,0,1,1.59.38c.7.68,1.39,1.37,2.12,2a1.54,1.54,0,0,1,.43,1.29q0,26.07,0,52.12A2.2,2.2,0,0,1,131.39,81.14Z"/><path d="M114.17,105.73c.47,0,.46.35.41.67a10.14,10.14,0,0,1-.78,3.06c-.58,1.16-.52,1.25.81,1.16a54,54,0,0,1,8.34.07l-.73.73c-2.87,0-5.75,0-8.62,0a1.87,1.87,0,0,0-1.43.63c-2,1.88-4.21,2.72-6.9,1.67a1.31,1.31,0,0,0-1,0,1.9,1.9,0,0,1-2.26-.48c-.35-.39-.84-.32-1.33-.3-.92,0-1.84,0-2.26-1-.17-.42-.44-.38-.75-.17l-.49.33c-2.43,1.59-2.9,1.55-5-.39-.1,0-.14-.07-.11-.13s0-.08.08-.08c-1.13-.56-2.37,0-3.54-.32.22-.26.52-.17.76-.14.76.06,1-.31.88-1-.21-2.16-.2-2.16,1.66-3.09.2-.17.43-.27.62-.05s0,.37-.16.48-.59.39-.87.61c-.5.4-1.11.9-.62,1.55a1.31,1.31,0,0,0,1.82.1,10.36,10.36,0,0,0,1.34-1.14,2.33,2.33,0,0,1,2-.69c-.73.74-1.44,1.46-2.16,2.16-.38.38-1.13.56-.61,1.37s1,1.35,1.89.95c2-.87,5.36-3.8,5-6.67a1.89,1.89,0,0,1,.36-1.22c1.26-2.09,2.77-4,5.13-4.84a9.94,9.94,0,0,0,4-3c.28-.21-.11-1,.68-.76a.62.62,0,0,1,.26.61,1.57,1.57,0,0,0,.89,1.79.91.91,0,0,1,.31,1.4l0,.73c-.42.73-1.14.51-1.77.53s-1.18,0-1.34.77c-1.4,1.24-3.34,1.72-4.12,1a11,11,0,0,0-1,3.17,5,5,0,0,0,3.45,5.9,5.4,5.4,0,0,0,6.43-3.62c.22-.75.1-1.59.62-2.25Z"/><path class="cls-81" d="M113.46,13.54c1.78.46,2.35.25,2.63-1a35,35,0,0,1,4.51,4.76,2.83,2.83,0,0,1-2.5.21,4.7,4.7,0,0,0-2.43-1.28c-2.41-.71-4.89-1.19-7.33-1.72-1.9-.41-4-.83-6,.28a3.81,3.81,0,0,1-2.43.07c-.93-.12-1.79-.16-2.14,1.06-.2.7-.94.73-1.64.78.43.12.85,0,1.22.22s.43.35.06.59a9.66,9.66,0,0,1-3.15.29c-4.36-.23-8.72,0-13.07-.11a2.37,2.37,0,0,1-1.79-.39,1,1,0,0,1,.92-.93c.67.17,1-.36,1.52-.63-.11-.49-.94-.36-.79-1,.06-.48.41-.52.78-.49a22.59,22.59,0,0,1,3.28.16c1.6.33,3.16-.42,4.76-.47,1.69-2.15,4.1-1.43,6.29-1.6a3.46,3.46,0,0,0,1.25-.28,3.3,3.3,0,0,1,2.84-.11,2.75,2.75,0,0,0,1.84-.09c2.27-.53,4.39.38,6.59.57,1.51.13,2.77,1.08,4.29,1.11.1.1.07.33.23.33S113.37,13.65,113.46,13.54Z"/><path class="cls-80" d="M122,18.49a11,11,0,0,1,2.3,2.38,1.91,1.91,0,0,1-1.46.32H90.12c-1.12,0-2.24.09-3-1.1-.44-.67-1.34-.49-2.17.25-1.19,1.06-1.29,1.08-2.74.31a9.74,9.74,0,0,0-1-.33c-.74-.3-1.39-.87-1.24-1.66s1-.48,1.53-.48q18.66,0,37.33,0h1.89A2.23,2.23,0,0,1,122,18.49Z"/><path class="cls-82" d="M127.7,24.11q-18.42,0-36.85,0c-1.16,0-1.22-.14-.83-1.86.42-.42,1-.33,1.45-.33h32.67a3.27,3.27,0,0,1,1.6.3A14.38,14.38,0,0,1,127.7,24.11Z"/><path class="cls-83" d="M3.29,24.88c.41.61,1.06.42,1.61.42,5.31,0,10.62,0,15.93,0,.71,0,1.42,0,2.13,0,.38,0,.7.19.65.66s-.34.4-.69.39a4,4,0,0,0-3.39,1.3,1.46,1.46,0,0,1-1.25.53c-1.18,0-2.36,0-3.54,0l-13.56.16c-.27.18-.33-.08-.46-.21a1,1,0,0,1,.34-1.14C1.81,26.35,2.55,25.61,3.29,24.88Z"/><path class="cls-84" d="M122,18.49H120.8a2.62,2.62,0,0,0-1.27-.11q-19.23,0-38.45,0c-.61,0-1.25.28-1.84-.1-.4-.41-.12-.69.18-1l18.21,0a2,2,0,0,1,1.55-.38q8.61,0,17.22,0a2.12,2.12,0,0,1,1.56.39l2.64,0C121.31,17.41,121.61,18,122,18.49Z"/><path class="cls-85" d="M128.88,25.35H91.79c.83,1,0,1.89,0,2.82-.56.53-1.12,1-1.7,0,1,.05,1.36-.71,1.59-1.45s-.21-.95-.85-1.14a1.7,1.7,0,0,1-1.32-2.43c-.12,1.29.67,1.2,1.49,1.2h37Z"/><path class="cls-5" d="M89.6,22c-.18-.29-.35-.59-.71-.68a1.15,1.15,0,0,1-1-.07c.35-.43.72-.3,1-.3h34.79a1.34,1.34,0,0,1,.69.09c.49,0,.7.35.94.69-.12.71-.69.37-1,.37-3.66,0-7.32,0-11,0H90.87A2.4,2.4,0,0,1,89.6,22Z"/><path class="cls-86" d="M.72,28.2l.46.21c.48,1.78.15,3.59.24,5.38a9.88,9.88,0,0,0,.23,2.42c0-2,0-3.9,0-5.85,0-.41-.15-.87.23-1.23a1.26,1.26,0,0,1,.32.86c0,2.07.12,4.15,0,6.22a1.31,1.31,0,0,1-.34,1c.29,6.52.06,13,.3,19.55.08,2.13-.1,4.21-.12,6.32,0,3.92.37,7.84.27,11.76,0,.41.15.88-.29,1.23l-.41-.79c0-1.66-.06-3.31,0-5,.08-9.46-.11-18.91-.28-28.36-.07-3.93-.09-7.87-.16-11.81,0-.45.15-1-.44-1.22Z"/><path class="cls-87" d="M124.37,21.08c-3.84,0-7.69,0-11.54,0H88.18c.17.36.5.1.71.24-.76.52-1.23.19-1.56-.54-.42-.9-1-1.13-1.9-.57-.32.22-.64.41-.13.89s.29,1.23-.09,1.8-.77.93-1.48.67a1.27,1.27,0,0,1-1-1.42,1.3,1.3,0,0,0-1.31-1.51c-1.35-.12-1.65-1.46-2.59-2.06-.25-.16.16-.31.38-.36q19.92,0,39.85,0c.57,0,1.18-.19,1.71.2l-38.4,0H80.15a4.27,4.27,0,0,0,3.73,2.37c.38-.06.5-.33.71-.55,1.18-1.18,2.12-1.2,3.16.05a1.56,1.56,0,0,0,1.46.49h35.1A.83.83,0,0,1,124.37,21.08Z"/><path class="cls-88" d="M117.74,115.93c-7.87.35-15.73-.15-23.59,0a3.82,3.82,0,0,1-.59,0c-.28,0-.59-.06-.56-.44s.33-.29.56-.31h.59c6,0,12.11-.12,18.16-.14,2,0,4.09.12,6.13.19Z"/><path class="cls-89" d="M114.42,119.21c-6.81,0-13.61,0-20.42-.06-.49,0-1.37.28-1.39-.39s.87-.45,1.36-.45q10.68,0,21.36,0A2.31,2.31,0,0,1,114.42,119.21Z"/><path class="cls-90" d="M111.35,122.3l-17.21-.07a7.49,7.49,0,0,1-.82,0c-.23,0-.51-.09-.52-.38s.27-.35.5-.39a5.54,5.54,0,0,1,.71,0l17.09,0c.34,0,.72-.1,1,.2Z"/><path class="cls-91" d="M6.14,22.06a20.46,20.46,0,0,0,4,.11,3.77,3.77,0,0,1,2.61.83,20.23,20.23,0,0,1,1.77,1.22H4A12,12,0,0,1,6.14,22.06Z"/><path class="cls-92" d="M108.51,125.14l-14.6-.07c-.31,0-.63,0-.94,0s-.44-.09-.45-.3.27-.32.5-.34h.59l14.13-.09c.51,0,1,.06,1.52.09Z"/><path class="cls-5" d="M105.63,127.9H93v-.63c4.46,0,8.92,0,13.39,0C106.27,127.62,105.85,127.65,105.63,127.9Z"/><path class="cls-85" d="M89.6,22q17.13,0,34.26,0c.48,0,1,.21,1.45-.25.24.07.33.28.43.48l-35.37,0c-.11,0-.23,0-.35.05S89.66,22.26,89.6,22Z"/><path class="cls-93" d="M9.92,18.27a2.12,2.12,0,0,1,.95,2.53c-.17.39-.51.31-.81.31-1,0-2,0-2.94,0Z"/><path class="cls-94" d="M12.06,17.78c-.36-.23-.67-.58-1.17-.46A12.88,12.88,0,0,1,13,15.2c.32.43.62-.1.93,0A5.63,5.63,0,0,1,12.06,17.78Z"/><path class="cls-95" d="M18.19,120.13a2,2,0,0,1,2.52,1c.31.54.28,1-.35,1.19Z"/><path class="cls-96" d="M88.87,112.81c.43-.49.86-.85,1.59-.47a1.6,1.6,0,0,1,.91,1.62c-.06,1.23-1,1.51-2.44.71C88.19,114.07,88.35,113.45,88.87,112.81Z"/><path class="cls-97" d="M90.28,127.71c1,0,1.51.28,1.43,1.11s-.45,1.35-1.34,1.31c-.69,0-1.31-.28-1.3-1.07A1.28,1.28,0,0,1,90.28,127.71Z"/><path class="cls-2" d="M88.87,112.81a2.32,2.32,0,0,0,.06,1.86c-.28-.06-.52-.09-.5.34a10.57,10.57,0,0,1,0,1.13,17.89,17.89,0,0,1-.21-4.2c0-.52.33-.55.71-.55h3.3a1.52,1.52,0,0,1,0,.21l-2.48,0a1.24,1.24,0,0,0-1.23,1.06C88.41,113.08,88.73,112.81,88.87,112.81Z"/><path d="M23.67,42.85c1.57-.25,3.15-.55,4.73-.74,3.35-.39,6.16-2,9-3.67,2.19-1.25,4.44-2.4,6.56-3.75,2.41-1.55,4.74-3.23,7-4.93a19.8,19.8,0,0,1,2.56-1.68c3.86-2,7.7-4.17,11.91-5.4a25.73,25.73,0,0,1,8.15-1,1.43,1.43,0,0,0,1.16-.35c.71-.62,1.59-.2,2.39-.28C77,22.38,78.66,22,78.92,23c.13.47.07,1.06.71,1.2.37.07.7,0,.76-.48.42-.75.86-.26,1.25,0a15.91,15.91,0,0,1,5.52,6.71A2.37,2.37,0,0,1,87.43,32c-.91.29-1.18-.46-1.47-1a4.82,4.82,0,0,0-1.82-2.38c-.37-.19-.39-.65-.39-1.06s-.1-.71-.61-.68a1.58,1.58,0,0,0-1.27,2,3.88,3.88,0,0,1-.71,4,14.74,14.74,0,0,0-2.36,2.91,1.09,1.09,0,0,1-1,.5,5.13,5.13,0,0,1-1.87-.2c-1.21-.34-1.5-.83-1.4-2.06a6.56,6.56,0,0,1,1.54-3.75,2.63,2.63,0,0,0,.58-2.32,2.75,2.75,0,0,1,.49-2.46A.87.87,0,0,0,77,24.06c.24,1.28-.77,2.17-.92,3.32-.08.62-.52.85-1.13.69a3,3,0,0,1-2.17-3.46c.14-.72,0-1.29-1-1.08-.11,0-.26.07-.34,0-1-1.11-2-.14-3,.11a3.2,3.2,0,0,1-1.48.3,2.65,2.65,0,0,0-2.11.5c-2.42,1.57-5.15,2.53-7.64,4-.61.34-1.43.44-.9,1.57.32.68-.55,1.41-1.63,1.38a3.17,3.17,0,0,0-2.54,1c.51.24.75-.09,1-.32a3.41,3.41,0,0,1,2.41-.77.74.74,0,0,1,.78.42c.44,1.23,1.38,1,2.25.77A8.83,8.83,0,0,1,61,32.14a1.56,1.56,0,0,1,1.46.82,2,2,0,0,0,1.76,1.19,1.69,1.69,0,0,1,1.48,1.05,2.4,2.4,0,0,0,1.76,1.41,2.21,2.21,0,0,1,1.88,1.87A2.11,2.11,0,0,0,70,39.59a2.44,2.44,0,0,1,.86,2.31c-.11.51.22.81.72.9s.88.08,1,.48c.35,1,1,.83,1.82.74a10.38,10.38,0,0,0,4.06-1.49,30.77,30.77,0,0,0,6.66-5c.44-.43.9-.85.23-1.46-.12-.1-.2-.33-.1-.43.83-.78.73-2,1.31-2.85.19-.3.41-.62.85-.33l.24.27c.34.9,0,1.85.22,2.75,0,2-1.39,3.15-2.76,4.28a11.36,11.36,0,0,0-1.33,1.17,27.64,27.64,0,0,1-8,4.7c-1.26.54-2.63.3-4,.46-1.62-1.25-3.18-2.65-3.59-4.7A4.85,4.85,0,0,0,65,37.26a8.56,8.56,0,0,1-1.84-1c-.41-.25-1-.17-1.05-1,0-.54-.88-.65-1.46-.79a16.16,16.16,0,0,0-9.25.81,9.88,9.88,0,0,0-1.27.61c-1.5.84-1.78,1.55-1.29,3.2.07.69-.43,1.07-.84,1.47a6.15,6.15,0,0,0-2.18,4.28,4.36,4.36,0,0,1-1.68,3.38,1,1,0,0,0-.11,1.6,19.68,19.68,0,0,0,2.28,2.37,4.28,4.28,0,0,0,2.69,1,12.82,12.82,0,0,0,7-1.31,1.58,1.58,0,0,1,1.24-.21c1.17.89,1.2,1.75.1,2.64a8.47,8.47,0,0,1-2.07,1.07c-.69.29-1.1.68-.92,1.51a.82.82,0,0,1-.59,1.1,3,3,0,0,1-1.47,0,.58.58,0,0,0-.26.6c0,1.08-.43.86-1,.34-.65-.67-1.34-1.08-2.16-.25-.18,0-.57,0-.47-.17.5-.72.12-1.56.37-2.29s-.12-.87-.63-.81c-1.76.19-2.89-.88-3.9-2a2.56,2.56,0,0,0-2.9-.91,11.06,11.06,0,0,1-2.58.08A4.1,4.1,0,0,1,41,50.27c1-.39.9-.94.58-1.67a3.18,3.18,0,0,1-.41-1c0-.46,0-1,.51-1.09,1.25-.27,1.2-1.27,1.38-2.17a9.86,9.86,0,0,1,1.9-4.55,20.35,20.35,0,0,0,2.6-3.76,5.7,5.7,0,0,1,1.36-1.46c.31-.26.47-.57.18-.91s-.59-.08-.83.1c-.59.46-1.23.85-1.83,1.28a67.91,67.91,0,0,1-6.9,3.78c-.07,0-.17,0-.21.09C37.56,41,34.68,41,32.7,42.64a1.69,1.69,0,0,1-1,.41,3.21,3.21,0,0,0-2.88,1.21.81.81,0,0,1-1,.19C26.56,43.65,24.83,44,23.67,42.85Z"/><path d="M23.67,42.85c.51,0,1-.07,1.35.48a.67.67,0,0,0,.52.21,2.45,2.45,0,0,1,2.2.58c.4.39,1.06.14,1.33-.48.19-.43.47-.85.93-.77,2,.36,3.27-1.11,4.86-1.77a7.15,7.15,0,0,1,1.72-.67,2.3,2.3,0,0,0,1.89-1.24.91.91,0,0,1,.79-.61,1.52,1.52,0,0,0,.66-.22c2.65-1.63,5.62-2.7,8-4.76.94-.82,1.21-.68,1.62.36.13.36.1.42-.15.63-1.17.94-2.28,1.93-2.43,3.58,0,.47-.45.71-.86.89a2.88,2.88,0,0,0-1.69,2.37,2.83,2.83,0,0,1-.82,1.74c-.67.64-.15,1.67-.51,2.52-.24.55-.23.94-1,1s-1,.79-.5,1.46a2.18,2.18,0,0,1,.45,1.64c0,.24,0,.58-.28.58-1.57,0-1.92,1.6-3,2.2l-4.5,0a.15.15,0,0,1-.23,0,29.24,29.24,0,0,1-4.22-1.15A6.27,6.27,0,0,1,27,49.18c-.3-.33-.57-.76-1.08-.85a6.59,6.59,0,0,1-2.4-4.27C23.47,43.66,23.28,43.22,23.67,42.85Z"/><path class="cls-98" d="M1.91,37.17q0-4,0-8h.23c.57.75.3,1.63.36,2.46,0,.43.25.61.62.72a7.88,7.88,0,0,0,1.15.25c3.32.36,6.52,1.36,9.84,1.73a5.82,5.82,0,0,1,1.35.4c1.59.59,1.64.66,1.68,2.38s.38,2.05,2.1,2.11a3.3,3.3,0,0,1,2.11.58.67.67,0,0,1,.3.71c-.08.37-.38.36-.65.35a8.68,8.68,0,0,1-2.1-.09H17.79l1.35,1.88c-.44,1.16-1.65,1.58-3.56,1.11a26.16,26.16,0,0,1-3.36-1c-1-.41-2.2-.12-3.2-.67-.1-.06-.37.21-.57.33a3.5,3.5,0,0,0-.89-.91c.23-.41.76-.1,1-.38-.11-.66-.59-.58-1-.56a13,13,0,0,1-3.46-.42c-1.44-.32-1.82-.74-2-2.26A.8.8,0,0,0,1.91,37.17Z"/><path class="cls-99" d="M43.73,80.68c-1.51-2.38-2.4-5.08-3.78-7.52-.27-.47-.5-1-.75-1.44a4.58,4.58,0,0,1,2.09,2.73A27.5,27.5,0,0,0,43.05,78,8.21,8.21,0,0,1,43.73,80.68Z"/><path class="cls-100" d="M34,52.52a.37.37,0,0,0,.23,0c.28.2.82.13.76.69a.55.55,0,0,1-.54.51.76.76,0,0,1-.8-.34C33.44,53,33.6,52.69,34,52.52Z"/><path class="cls-101" d="M7.56,41.43c.72-.1,1.13.09.89.91C7.84,42.34,6.93,42.63,7.56,41.43Z"/><path class="cls-102" d="M39,65.38c.31.06.5.2.47.48s-.27.47-.57.45a.36.36,0,0,1-.36-.38A.55.55,0,0,1,39,65.38Z"/><path class="cls-103" d="M20.11,54.84c.27,0,.44.19.4.46a.43.43,0,1,1-.4-.46Z"/><path class="cls-104" d="M12.78,84.54c0,.27-.12.43-.33.46a.4.4,0,0,1-.49-.38.35.35,0,0,1,.33-.4A.38.38,0,0,1,12.78,84.54Z"/><path class="cls-105" d="M6.61,67c0,.27-.1.43-.31.46a.38.38,0,0,1-.49-.36.35.35,0,0,1,.38-.37A.37.37,0,0,1,6.61,67Z"/><path class="cls-106" d="M7.65,55.12a.4.4,0,0,1-.35-.5.37.37,0,0,1,.42-.31.39.39,0,0,1,.35.5A.37.37,0,0,1,7.65,55.12Z"/><path class="cls-107" d="M50.82,107c.41,0,.5.16.49.41a.9.9,0,0,1-.89.92,1.14,1.14,0,0,1-1.2-.56.23.23,0,0,1,.16-.36C49.91,107.34,50.49,107.47,50.82,107Z"/><path class="cls-108" d="M43.81,103.1c-.33-.09-.91-.28-.71-.54a3.29,3.29,0,0,1,1.46-.76c.27-.1.42.19.35.43A1.17,1.17,0,0,1,43.81,103.1Z"/><path class="cls-109" d="M71.68,110.46a1.89,1.89,0,0,1-1.17-.36c-.24-.17-.42-.43-.28-.7s.41-.15.63-.06a1.85,1.85,0,0,0,1,.1c.31,0,.72-.52.89,0s-.32.75-.72.93A1.91,1.91,0,0,1,71.68,110.46Z"/><path class="cls-110" d="M71.14,98.94c-1,.3-1.6.18-2-.46-.15-.26-.12-.68.15-.71C70.09,97.69,70.26,98.54,71.14,98.94Z"/><path class="cls-111" d="M77.59,83.25a1.62,1.62,0,0,1,1.29.82.27.27,0,0,1-.29.38,2.43,2.43,0,0,1-1.45-.91C77,83.35,77.33,83.26,77.59,83.25Z"/><path class="cls-112" d="M75.39,107c.5-.23.93-.44,1.43-.18a.41.41,0,0,1-.07.3A.89.89,0,0,1,75.39,107Z"/><path class="cls-113" d="M131.16,55.85v3.07c-.34-.08-.69-.13-1-.24-.65-.2-1.43-1.33-1.75.37-.07.37-.77.5-1.24.16a.78.78,0,0,1-.28-1.12c.11-.22.69-.4.19-.73-.31-.21-.67-.57-1.06-.38-.9.44-1.63.58-2-.61a.43.43,0,0,0-.7-.17c-.32.3-.74.61-.59,1.16.06.18.22.35.23.53a1.09,1.09,0,0,1-.68,1.13c-.45.21-.64-.14-.86-.41s-.3-.73-.77-.48a.79.79,0,0,0-.41.53c0,.48.46.46.77.58.84.32,1.7.6,2.54.94.3.12.79.19.71.64s-.51.4-.86.47a9.28,9.28,0,0,1-4,.05,3.36,3.36,0,0,0-2.93,1.83c-.51,1.26-1.67,2.1-2,3.44a.7.7,0,0,1-.72.52c-1-.19-1.8.45-2.67.75-1.17.42-2.31.79-2.16,2.44a1.33,1.33,0,0,1-.7,1.29A4.92,4.92,0,0,0,106,73.74,3.14,3.14,0,0,1,103.37,75a16,16,0,0,1-7.86-1.66c-1.72-.79-3.65-1-5.35-1.8-.53-.27-1.2.54-1.75-.11,0-.28-.07-.56-.47-.45-2.55-1.45-5-3-6.53-5.65-.57-1-1.77-1.09-2.71-1.53a1.91,1.91,0,0,1-1.2-1.29,3.74,3.74,0,0,0-1.27-1.93c-.39-.31-.55-.13-.61.28l-.45-.73c-.33-.4-.82,0-1.18-.27a6.77,6.77,0,0,0-3.79-1.6,7.78,7.78,0,0,1-2.1-.63c-.81-.37-.41-1.32-.5-2-.24-1,.68-1,1.19-1.41,1.1-.62,2.35-1,2.82-2.43a3.18,3.18,0,0,0,.27-1.69c.15-.7.15-1.47.89-1.9,1,1.09,2.86,1.37,2.93,3.29,0,.45.45.61.82.76a7,7,0,0,1,3.54,3.17,4,4,0,0,0,1.43,1.54,2.89,2.89,0,0,1,1.67,1.87c.08.39.47.51.84.52a2.12,2.12,0,0,1,1.7,1.1,27.4,27.4,0,0,0,4.45,5.17,14.13,14.13,0,0,0,2.71,1.63,11.3,11.3,0,0,1,2.37,1.28c.68.55,1.52.06,2.31.31a28.33,28.33,0,0,0,4.84,1A6.29,6.29,0,0,0,108,68a2.5,2.5,0,0,0,.66-1.34c.22-1.13.36-1.21,1.51-1a6.25,6.25,0,0,0,1,.19,1.82,1.82,0,0,0,2.1-2.36c-.22-1.39-.2-1.42,1.22-1.62a8.14,8.14,0,0,0,2.86-1.33c.53-.32.51-1,.48-1.51A2.63,2.63,0,0,1,119,56.9c1.53-1.48,3.48-2.07,5.3-2.94a2.1,2.1,0,0,1,1.5-.17A39,39,0,0,1,131.16,55.85Z"/><path class="cls-114" d="M131.16,67.66q0,6.27,0,12.55A40.94,40.94,0,0,1,127,85.35c-.43.51-.93,1-1.36,1.47a.67.67,0,0,1-.72.31c-.38-.13-.36-.47-.37-.78a3.61,3.61,0,0,1,.14-.93c.15-.69.16-.68-.27-.58a7.12,7.12,0,0,1,.54-3.62c.37-.39.78-.76.5-1.39s.15-1.58-.41-2.26a1.6,1.6,0,0,1-.22-2.15c.81-1.53,1.4-3.16,2.22-4.69.37-.68.65-1.27-.37-1.62-.15,0-.14-.26-.12-.42.24-.48.92-.22,1.16-.69.07-.2.13-.39.19-.59.18-.72-.33-1-.85-1.09s-.9-.38-1-1a.35.35,0,0,1,.14-.28c1.21,0,1.93.94,2.84,1.48A11.61,11.61,0,0,0,131.16,67.66Z"/><path class="cls-5" d="M123.65,89.69c.55.07.52.46.33.77-.58,1-1,2.05-2.18,2.48-.72.27-.89,1.06-1.49,1.43s-.63-.16-.61-.58c0-.25.18-.6-.3-.56-.32,0-.64.17-.57.58s.22.6-.16.8l-.71,0c-.34-.16-.71-.23-1-.41s-.66-.54-.39-1c.42-2.28-.84-4.45-.29-6.81a13.55,13.55,0,0,1,2-4.44c.17-.26.55-.51.37-.81-.59-1-.25-1.88-.06-2.83,0-.14.06-.36,0-.44-1.51-1.68-1.94-4-3.41-5.71,0-.59-.19-1.24.48-1.63a.61.61,0,0,1,.23-.22.88.88,0,0,0,.63-.61.6.6,0,0,1,.9-.44c.51.32.45.82.44,1.32s-.16,1.16.35,1.61a4.34,4.34,0,0,1,.69,1.14,23.09,23.09,0,0,1-.44-2.51,2,2,0,0,0-.43-1c-.22-.38-.42-.89.29-1.08.19,0,.35.16.53.18.35-.11.41-.52.69-.7a1.28,1.28,0,0,1,.94-.25,1.15,1.15,0,0,1,.31.11c.13.09.35.26.32.3-.54.63,0,1.52-.5,2.14a3.18,3.18,0,0,0,.25,2.59c.34.27.83.22,1.15.54.69.49,1,.19,1.11-.52a5,5,0,0,0-.08-1.64,2.13,2.13,0,0,1,.23-1.82.77.77,0,0,1,.46-.26c.66,0,.89.44.94,1a12.45,12.45,0,0,1,0,3.05,2.19,2.19,0,0,1-3,1.87c-.52-.21-1.11-.91-1.6-.08-.37.61.47,2.09,1.21,2.24a4.51,4.51,0,0,0,2.1.05c.56-.14,1-.09,1,.7-1,1.55-2,1.82-4.37,1.27.14.9.39,1,2.84,1.46a5.49,5.49,0,0,0,.81.14c.33,0,.79,0,.79.49s-.34.61-.69.72a14.89,14.89,0,0,1-2.17.52c-2.85.41-4.17,3.53-3.56,6.3a1.38,1.38,0,0,0,1,1c1.48.53,2.95.84,4.34-.26A.7.7,0,0,1,123.65,89.69Z"/><path class="cls-115" d="M117.22,69.33c-.28,0-.58.07-.54.45.08.74-.4.72-.89.7-.17-.33.06-.65,0-1-.2.35-.31.82-.88.6-.68.4-.88-.13-.69-.54A15.73,15.73,0,0,1,117,65.27c.3-.32.79-.41,1,.24,0,.95-.73,1.51-1.27,2.17-.14.17-.4.33-.24.58s.49,0,.74,0a.55.55,0,0,1,.55.31A.6.6,0,0,1,117.22,69.33Z"/><path class="cls-116" d="M126.26,65.31a1.38,1.38,0,0,0,1,.77c.5.12,1.41.37.9,1.35-.19,0-.49-.17-.54,0-.13.38.31.48.48.71-.31.66-.92.42-1.43.5-.68,0-.69-.53-.72-1,0-.11,0-.22,0-.33.08-.87-.63-.68-1.09-.81a1.57,1.57,0,0,1-1.18-1.59.37.37,0,0,1,.19-.29.91.91,0,0,1,1.2-.69A1.29,1.29,0,0,0,126.26,65.31Z"/><path class="cls-117" d="M119.6,64.12a1.63,1.63,0,0,1,2.87-.38c.27.34.73.28.93.63a4.05,4.05,0,0,1-1.55,1.85c-1,.71-1.51-.17-2.14-.67a1.62,1.62,0,0,1-.3-.39A.79.79,0,0,1,119.6,64.12Z"/><path class="cls-118" d="M95,79.5c-.43,0-.86,0-1.3,0-1.62,0-2.17-.43-2.67-1.93-.12-.37-.23-.75-.36-1.12-.64-2-1.19-2.29-3.18-1.9-.12-.1-.26-.26-.12-.38a2.3,2.3,0,0,1,3.18.63,11.51,11.51,0,0,1,1,2.38A2.14,2.14,0,0,0,94,79a1.72,1.72,0,0,1,1.23.26C95.4,79.42,95.11,79.45,95,79.5Z"/><path class="cls-119" d="M121.73,66l1.67-1.63a.62.62,0,0,1,.52.23l-.06.26a2.37,2.37,0,0,1-.42.7c-.51.78-1.24,1.39-1.71,2.21a.77.77,0,0,1-1.17.36h0c-.57-.16-.66-.46-.27-.91A15.22,15.22,0,0,1,121.73,66Z"/><path class="cls-120" d="M117.18,68.33c-.23.19-.26.72-.59.61s-.4-.5-.57-.78c-.31-.53.31-.39.45-.59.48-.7,1-1.37,1.49-2.06a.26.26,0,0,0,.19,0c.22.28,0,.54,0,.81C117.87,67.05,117.86,67.85,117.18,68.33Z"/><path class="cls-121" d="M126.26,65.31c-1.39.09-1.58-.16-1.14-1.4l.88.19c.49.09.43.39.27.73v.48Z"/><path class="cls-115" d="M117.93,66.21c.07-.22.15-.44.22-.66.39-.21.25-.84.75-1a1.3,1.3,0,0,1,.29,1.12,1.86,1.86,0,0,1-1.08,1.54C117.66,67,117.85,66.58,117.93,66.21Z"/><path class="cls-122" d="M114.94,70.08c.39-.17.69-.41.52-.88-.1-.29-.19-.56.23-.59s.39.29.41.57a1.55,1.55,0,0,1-.31,1.3.32.32,0,0,0-.19,0C115.31,70.49,114.92,70.57,114.94,70.08Z"/><path class="cls-113" d="M118.92,65.78l0-1.19a.72.72,0,0,1,.7-.47c0,.31-.21.62,0,.93C119.43,65.34,119.47,65.83,118.92,65.78Z"/><path class="cls-114" d="M126.27,64.83c-.06-.26,0-.56-.27-.73,0-.24.11-.49.42-.32a.76.76,0,0,1,.48.72C126.85,64.87,126.53,64.81,126.27,64.83Z"/><path class="cls-123" d="M129.31,63.67c.3.07.25.33.22.55s-.11.51-.38.46-.29-.33-.27-.57S129,63.65,129.31,63.67Z"/><path class="cls-124" d="M87.94,71c0-.31.21-.59.51-.4s.26.58,0,.85Z"/><path class="cls-125" d="M116.52,93.2a1.52,1.52,0,0,0,.51.93c.7.21.64.67.38,1.17-1.07,2-1.87,4.22-2.93,6.26a4.06,4.06,0,0,0-.58,1.89c-.22,1.07-.41,2.15-1.63,2.6-.51-.2-1,.09-1.48.13s-1.22-.12-1-.86a10.31,10.31,0,0,1,2.06-4.08q2-3.57,4-7.13C116,93.77,116.12,93.37,116.52,93.2Z"/><path class="cls-126" d="M110.15,95.8c-.43.07,0,.7-.46.72,0-1.07-1-1.57-1.38-2.46a9.41,9.41,0,0,0-1-1.53c-.24-.3-.58-.12-.87-.16s-.58.08-.55-.37c.39-.7.93-1.31.68-2.27a2.4,2.4,0,0,0-1.1-1.42,7.87,7.87,0,0,1-1-1c-.17-.68.2-.58.53-.31.78.65,1.54,1.33,2.28,2a1.24,1.24,0,0,1,.48,1.26c-.57,1.44.66,2.24,1.11,3.3.18.42.68.31,1.06.32h4.49c.33,0,.83,0,.79.44s-.51.25-.78.25c-1.57,0-3.14,0-4.71.06,0,0-.06,0-.06.08a.3.3,0,0,0,0,.11C110,95.1,110.52,95.23,110.15,95.8Z"/><path class="cls-16" d="M110.15,95.8c0-.41-.37-.61-.46-1,1.4,0,2.81,0,4.22,0,.35,0,.93-.11.54.59q-1.1,2-2.22,4c-.06.1-.26.11-.4.16,0-.57,0-1.17-.67-1.34-1-.26-1.17-.8-.82-1.69A.6.6,0,0,0,110.15,95.8Z"/><path class="cls-127" d="M111.83,101.24c-.56,1.23-1.14,2.46-1.69,3.7-.12.27-.31.6-.07.88s.65.07,1,0,.93-.92,1.26.11a2.09,2.09,0,0,1-2.55,1.17c-.84-.25-1.19-1-.93-2.11a6.11,6.11,0,0,1,.5-1.31c.36-.51.62-1.08,1-1.56.1-.11.09-.24,0-.11s-.14,0-.22,0-.29-.24-.45-.34c-.38-.23-.8.1-1.18-.11,0-.84.41-1.11,1.23-1a3.33,3.33,0,0,0,2-.21Z"/><path class="cls-128" d="M109.93,85.54c0,.41-.23.66-.67.62a.57.57,0,0,1-.56-.63.61.61,0,0,1,.63-.7A.59.59,0,0,1,109.93,85.54Z"/><path class="cls-13" d="M100.22,85.17c-.78-.57-.38-1.41-.48-2.13A2.83,2.83,0,0,1,100.22,85.17Z"/><path class="cls-129" d="M88.27,95.48c-.33,0-.53,0-.64-.18a.4.4,0,0,1,.17-.6c1.53-.83,2.61-2.44,4.57-2.51A2.75,2.75,0,0,0,94.45,91c.87-1.12,1.77-2.21,2.62-3.34A1.62,1.62,0,0,1,98,87c.35-.11.71-.19,1,.16a.73.73,0,0,1-.1.88c-1.61,2.27-3.09,4.63-6.12,5.39a21.13,21.13,0,0,0-3.83,1.8Z"/><path class="cls-130" d="M105.88,92c.34.55,1.1-.06,1.42.53-1-.28-1.55.43-2.14,1.08A24,24,0,0,0,103,96.87C103.17,94.77,104.57,93.41,105.88,92Z"/><path class="cls-131" d="M99.81,100.32a13.71,13.71,0,0,1,2.08-2.42A2.92,2.92,0,0,1,99.81,100.32Z"/><path class="cls-11" d="M13,91.49c-.08-.45-.15-.91-.22-1.36C13.46,90.48,13.69,90.91,13,91.49Z"/><path class="cls-132" d="M53.63,57.78c.71-.18.47-.66.35-1.11-.2-.69-.09-1.15.73-1.4a9.39,9.39,0,0,0,2.18-1.07c1.23-.77,1.27-1.21.32-2.4A9,9,0,0,1,57.08,49c0-2,0-3.91,0-5.87,0-.53-.07-1.11.43-1.51.68.3.48.92.5,1.42.12,2.51-.26,5-.22,7.51a51.45,51.45,0,0,1,.28-5.41,2.66,2.66,0,0,1,.85-2.09c.54-.43-.11-1.23.29-1.78.81-.16.72.54.8.93.43,2,.88,3.91,1.29,5.87a20.3,20.3,0,0,0,1.17,4.06c-.91,1.11-.73,1.62.72,2,.22.06.45.08.6.3a.88.88,0,0,0,.77.21c1.1-.16,1.3.49,1.38,1.38.1,1.09-.08,1.74-1.41,1.52-.66-.11-1,.33-.94,1,.08,1,.18,2,.23,2.92,0,.38.24,1-.51.94-.51-.83-.21-1.75-.29-2.63-.07-.64.14-1.33-.48-2-.59,1.58,0,3.14-.33,4.63-.59,0-.8-.31-.7-.81a25.67,25.67,0,0,0-.06-3c0-.48-.17-.95-.65-1-.64,0-.51.57-.52,1,0,1.37,0,2.75,0,4.12,0,.69-.26,1-.92.45.56-1.1.28-2.28.36-3.43a6.78,6.78,0,0,1,.08-2c.21-.24.21-.44-.16-.45a2.23,2.23,0,0,0-1.46.45c-1.44,1-.7,2.5-1,3.75-.86-.35-.45-1.11-.5-1.69-.06-.8-.25-1-.91-.44a2.49,2.49,0,0,1-.21-.51c-.11-.6-.63-.58-1-.56s-.39.5-.36.84c0,.51.39,1.08-.33,1.41A4.36,4.36,0,0,1,53.63,57.78Z"/><path d="M63.79,54.45c-.9,0-1.8.09-2.2-1.07-.3-.87-.05-1.16.81-1.09.34-.26.66,0,1,0A7.59,7.59,0,0,0,71,50.71c.31-.28.59-.64,1.08-.61.54,1.77-1,3.73-3.29,4.09-.92-.23-1.68-.18-2,1-.11.48-.6.36-.65,0-.22-1.26-1.1-.8-1.82-.77Z"/><path class="cls-133" d="M53.63,57.78c.64.87.23,1.85.25,2.78-.05.74-.08,1.49-.17,2.22-.06.44-.08,1-.78.95s-.86-.48-.85-1c.05-1.57.12-3.13.19-4.7C52.68,57.65,53.17,57.81,53.63,57.78Z"/><path class="cls-134" d="M59.79,57.76c.55,1.67.18,3.39.21,5.09,0,.4-.4.25-.65.3a7.1,7.1,0,0,1-.79-4.78C58.82,57.73,59.29,57.77,59.79,57.76Z"/><path class="cls-135" d="M64.74,60.61a14.43,14.43,0,0,1,.1-1.75.85.85,0,0,1,.89-.79c.47,0,.63.48.64.86,0,1.06,0,2.12,0,3.18,0,.68-.51.66-1,.68s-.61-.33-.6-.77,0-.94,0-1.41Z"/><path class="cls-136" d="M62.21,62.43c-.71-1.6-.25-3.23-.15-4.85,0-.26.24-.39.52-.36a.63.63,0,0,1,.57.52,11.42,11.42,0,0,1,.19,1.75c0,1,0,2,0,2.95A2.05,2.05,0,0,1,62.21,62.43Z"/><path d="M65.3,63.62a.35.35,0,0,1,.4.29l-1.39,1c0,.2-.06.31-.28.2s-.52,0-.69.06c-.58.36-1,.52-1-.43,0-.62-.67-.57-1.07-.74s-.54-.21-.4-.65.29-.46.67-.38C62.81,63.17,64.06,63.39,65.3,63.62Z"/><path class="cls-137" d="M55.77,59.38c0-.48.08-1,.75-.93s.46.61.51,1a6.5,6.5,0,0,0,.15,2.06c0,1.9,0,1.9-1.37,1.86a10.48,10.48,0,0,1,0-3.49Z"/><path class="cls-138" d="M68.81,68.62c.78.62.46,1.54.53,2.31a4.73,4.73,0,0,1-.81,3.59v-5C68.62,69.24,68.71,68.93,68.81,68.62Z"/><path class="cls-139" d="M64,65.06l.28-.2c.29,0,.68-.2.66.31s.4,1.18-.28,1.59a6.94,6.94,0,0,1-1,.4C63.65,66.37,63.28,65.63,64,65.06Z"/><path d="M67.38,70c0,1.12.82,2.22.05,3.54C67.3,72.2,67.49,71.07,67.38,70Z"/><path class="cls-132" d="M55.77,59.88c.11,1.17-.18,2.33,0,3.49A5.1,5.1,0,0,1,55.77,59.88Z"/><path d="M64.3,59c.3.41.32.72.06,1,0,0-.24,0-.31-.06C63.7,59.54,64,59.29,64.3,59Z"/><path class="cls-140" d="M74,59.86c.47-.24.91-.38,1.18.27-.41.21-1.23-.31-1.2.67A.58.58,0,0,1,74,59.86Z"/><path class="cls-141" d="M83.67,40.7a6,6,0,0,1,1.8-1.61,5.09,5.09,0,0,0,2.21-3.36c.28,0,.3-.35.47-.5.36-1.18.69-2.37,1.09-3.53.15-.44-.15-.75-.15-1.13.58-.52.69-.45,1,.6a6.41,6.41,0,0,1-.46,2.41,17.56,17.56,0,0,0-.77,2.93,1.07,1.07,0,0,0,.66,1.42,27.27,27.27,0,0,0,3,1.06c.39.14,1,.19,1,.65s-.67.37-1.07.44c-.15,0-.31,0-.47,0-.54.11-1.07.18-.51.94.41.56,0,.94-.45,1.23-.21.18-.41.36-.32.67,0,.13.13.22.25.18.45-.16.4-.59.49-1s.36-.77.91-.67a13.1,13.1,0,0,0,1.53.1c.47.05.88.21,1,.7.16.75.69,1,1.34,1.16a12.52,12.52,0,0,1,3.26,1.34,35.16,35.16,0,0,0,5.23,1.82c1.39.51,2.91.74,4,1.82a.61.61,0,0,0,.55.19c1.25-.3,2.3.34,3.4.71a5.57,5.57,0,0,0,1.62.28c.84,0,1.54,0,1.15-1.22-.19-.6.27-.67.78-.67,1.17,0,1.37-.2,1.3-1.39,0-.66.09-1.06.83-1.13.53,0,.72-.4.64-.92s.31-1,.88-1a2.39,2.39,0,0,0,1.6-.88,2.32,2.32,0,0,1,2.59-.64,1.6,1.6,0,0,0,1.15.12,2,2,0,0,1,2.23.17c-.19-.62-.74-.72-1.12-1-1-.74-1.06-1.39-.24-2.24a2.73,2.73,0,0,0,.59-1.25A4,4,0,0,1,130.52,35a1,1,0,0,1,.63.29c0,2.68,0,5.35,0,8-.7.66-1.84.81-2.19,1.87-.3.9-.89,1.69-1.17,2.57-.9,2.81-3.2,4-5.65,4.89-1.17.44-2.36.87-3.55,1.28a2.1,2.1,0,0,0-1.53,1.65,2.45,2.45,0,0,1-1.49,1.67c.08.29.3.35.44.48.42.38.68.82.24,1.33s-.85.28-1.25-.05c-.24-.21-.5-.46-.83-.4a12.79,12.79,0,0,1-3.75-.27c-.19,0-.44-.09-.57,0-.87.93-1.84.46-2.73.13a14.4,14.4,0,0,0-3.24-.57c-2.28-.27-4.27-1.4-6.3-2.31s-4-1.27-5.91-2.07c-.36-.16-.74-.28-1.08-.47s-.58-.34-.54-.7.34-.5.66-.58c.11,0,.29,0,.33-.1,1.08-1.84,2.52-.49,3.81-.43.12,0,.23.07.35.07a13,13,0,0,0-5.35-4.11c-2-.87-3.91-1.86-5.84-2.84a2.85,2.85,0,0,1-.51-.3c-.41-.33-1.09-.56-.8-1.26s.91-.5,1.45-.41a3.08,3.08,0,0,0,1.78,0,2.76,2.76,0,0,1-1.39.06C83,42.21,83,42.22,83.67,40.7Z"/><path d="M87.44,32.45c-1,.3-1,1.26-1.12,2s-.22,1-.89,1.17c.1.52.85.37.82.93s-.42.74-.73,1A31.16,31.16,0,0,1,81.61,41c-2.44,1.56-4.81,3.38-7.9,3.52-.55,0-1.15.21-1.16-.7,0-.56-.39-.71-.9-.67-1.05.09-1.31-.52-1.09-1.39a1.19,1.19,0,0,0-.15-1.22,4.48,4.48,0,0,1-1.55-2.66c-.09-.62-.71-.69-1.18-.83-1-.29-2-.53-2.26-1.76a1.12,1.12,0,0,0-1.29-.83c-.9.27-1.15-.44-1.64-.82s-.23-1.09-.92-1.11a5.9,5.9,0,0,0-2.33.12,4.85,4.85,0,0,1-1.85.33c-.62,0-1.16,0-1.18-.87,0-.57-.56-.57-1-.56a2.38,2.38,0,0,0-2.1,1.07c-.26.41-.67.38-1.06.31s-.48-.2-.43-.47.43-.5.73-.69a2.78,2.78,0,0,1,2.51-.57c.4.12,1-.25,1.23-.76.36-.7-.38-.91-.68-1.43,2.5-1.1,4.77-2.61,7.3-3.59a5.09,5.09,0,0,0,1-.53c1.06-.68,1.94-1.57,3.49-1.23.81.17,1.83-.49,2.72-.88.35-.15.75-.35,1-.13.46.44.76.89,1.44.27.19-.18,1.07,1.43.82,1.73a1.17,1.17,0,0,0-.13,1.59,4.13,4.13,0,0,0,2.28,1.72c.19.06.47-.16.44-.31-.27-1.16,1.1-1.85.83-3-.07-.32-.2-.82.28-1,.22-.1.53-.08.58.2.09.51.82,1,.28,1.49A2.79,2.79,0,0,0,77,28.33a2.22,2.22,0,0,1-.6,2,6.17,6.17,0,0,0-1.71,4.11,1.07,1.07,0,0,0,.86,1.24,6.64,6.64,0,0,0,2.08.31c.58,0,.81-.23,1.11-.78A9.57,9.57,0,0,1,80.7,33a3.26,3.26,0,0,0,.48-4.37c-.1-.12-.27-.28-.09-.37.53-.28.5-1,1-1.24s.92-.77,1.49-.53.58.83.39,1.42c-.11.34.22.63.51.7.86.22,1.09.89,1.37,1.61s.58,1.58,1.54,1.79Z"/><path d="M48.25,26.07a2.89,2.89,0,0,0-2.62,1.07c-.76.91-1.83,1.45-2.55,2.42-.45.6-1,.38-1-.46.2-1.4-.6-2.23-1.66-2.91a.45.45,0,0,1-.18-.15c-.79-1.6-2.31-2.09-3.83-2.62a4.58,4.58,0,0,1-2-1.24,3.26,3.26,0,0,0-2.74-1A9.86,9.86,0,0,1,27,19.44a2,2,0,0,1-.71-.77c-.2-.33-.52-.68-.25-1.07s.7-.31,1.08-.18c1.23.41,2.53.61,3.74,1.08a5.53,5.53,0,0,0,3.42.43c.45.08.62.3.4.74-.13.26-.19.52.11.72,2.15.66,4.36.28,6.55.34.56,0,.84-.31.92-.86.06-.37,0-.83.55-.93.11-.64.11-.67-.59-.67-2.12,0-4.24,0-6.35,0-.34,0-.94.24-1-.34s.58-.36.92-.36c2,0,4.08,0,6.11,0,.38,0,.8.14,1.1-.22A5.68,5.68,0,0,1,43.79,14a3.85,3.85,0,0,1,2.05-1.5c1.16-.42,1.61-.18,1.81,1,.38,2.32.69,4.65,1.12,7a21.53,21.53,0,0,1,.48,2.78c0,.94.21,1.93-.76,2.58Z"/><path class="cls-142" d="M18.88,40.74l2,0c.24,0,.51,0,.57-.3s-.2-.38-.39-.52a4.06,4.06,0,0,0-2.4-.36c-1.31,0-1.85-.58-1.88-1.87-.05-2.17-.75-2.79-3-3.12-3.69-.55-7.36-1.25-11-1.87-.57-.1-.67-.47-.65-.94a1.56,1.56,0,0,1,1.46-.19,67.33,67.33,0,0,0,10.7.77c1.15,0,2.28.21,3.42.25A1.83,1.83,0,0,0,19.4,32c.65.47.81,1.31,1.46,1.82,1.84,1.47,3.93,1.27,6,.82a8.09,8.09,0,0,0,3.36-1.31c.46-.37.55-.05.77.26a6,6,0,0,0,2.37,2.23c.76.47.78.69,0,1.14a35,35,0,0,1-5.23,2.43,20.58,20.58,0,0,1-3.26.94c-.39.07-.87.06-1.14.47A10.76,10.76,0,0,1,18.88,40.74Z"/><path class="cls-143" d="M89.84,31.26c-.09-.87-.16-.93-.75-.69-.19,0-.38-.06-.45-.28a.81.81,0,0,1-.08-.86,1.24,1.24,0,0,1,1.07-.38c4.15,0,8.3-.07,12.45,0,.36.06.54.38.83.55-.09-.2-.51-.24-.3-.59a.9.9,0,0,1,.35-.18c1.85-.23,3.7-.06,5.54-.11,5.43-.16,10.84.35,16.27.26,1.61,0,3.21-.34,4.82-.26a2.31,2.31,0,0,1,1.58.35l0,2.16a15.3,15.3,0,0,1-5.2.65,32.39,32.39,0,0,1-6-.41,4.49,4.49,0,0,0-2.1.26,9.47,9.47,0,0,1-3.51.28,74,74,0,0,0-7.87-.37,9.12,9.12,0,0,0-3.77.34,1.44,1.44,0,0,1-1.13-.13,5,5,0,0,0-3.1-.41,5.63,5.63,0,0,1-3.33-.05,9.07,9.07,0,0,0-3.4.08A2.21,2.21,0,0,1,89.84,31.26Z"/><path class="cls-144" d="M131.17,29.11c-4.74.25-9.49.39-14.23.19s-9.56-.06-14.34-.12c-4,.17-8,0-12,.07-.51,0-1,0-1.54,0-.24,0-.48,0-.43.38l0,.65a1.56,1.56,0,0,1-.76-1.48,1.49,1.49,0,0,1,1-1.54c.75-.25.86.48,1.14.91.58.58,1.14,0,1.7,0l38.27,0C130.65,28.19,131.4,28,131.17,29.11Z"/><path class="cls-145" d="M48.49,25.89c.69-.72.42-1.62.46-2.46.61.48,1.07.24,1.61-.2A59.74,59.74,0,0,1,61.8,15.78c.4-.2.79-.55,1.31-.36A25.85,25.85,0,0,1,75.17,13c2.12,0,4,.94,5.9,1.7a.81.81,0,0,0,.75.46c.26,0,.61-.06.63.34s-.3.46-.54.53c-.52.13-.93.84-1.57.3.28-.2.69-.23.84-.65-4-2.42-8.2-2.37-12.53-1.4-5.36,1.2-10,3.94-14.34,7.18C52.36,23,50.43,24.43,48.49,25.89Z"/><path class="cls-146" d="M23.67,40.75c-.68-.26-.53-.42.06-.5a21.25,21.25,0,0,0,5.47-1.67c1.4-.61,2.74-1.34,4.12-2,.65-.3.3-.55,0-.82.66-.15,1.06.59,1.71.48a32.48,32.48,0,0,1-10.66,4.46A4.11,4.11,0,0,1,23.67,40.75Z"/><path class="cls-147" d="M80.39,23.67c.21.13.47.38.21.52a1.43,1.43,0,0,1-1.59,0c-.54-.39-.44-.82-.09-1.27C79.52,23,79.74,23.77,80.39,23.67Z"/><path class="cls-148" d="M88.15,35.23c0,.71,0,.71-.47.5v-3C88.3,33.47,87.53,34.48,88.15,35.23Z"/><path class="cls-149" d="M90,4.55l.26-.24c.41.05,1-.22,1,.51a.71.71,0,0,1-.8.66C89.88,5.47,90,5,90,4.55Z"/><path class="cls-150" d="M94.53,10.46c.26,0,.43.2.41.47a.38.38,0,0,1-.47.38.46.46,0,0,1-.35-.53A.37.37,0,0,1,94.53,10.46Z"/><path class="cls-151" d="M113.46,13.54c.14.27.33.55,0,.8a.39.39,0,0,1-.52,0c-.29-.29,0-.56.08-.83Z"/><path class="cls-152" d="M63.11,15.42a62.65,62.65,0,0,0-12.86,8.42c-.8.66-1.12.52-1.3-.41-.5-3.41-1.36-6.76-1.65-10.21-.06-.66-.34-.81-.92-.58a6.11,6.11,0,0,0-2.45,1.57c-.81.23-.52-.3-.47-.67,1.07-1.38,2.69-1.9,4.17-2.64.66-.33,1.34-.61,2-.92a8.32,8.32,0,0,1,2.87-.92,36.41,36.41,0,0,1,6.05-.93,39.82,39.82,0,0,1,3.38,4.69,6.73,6.73,0,0,1,1.16,1.9Z"/><path class="cls-153" d="M63.1,14.72a2.88,2.88,0,0,1-1.16-1.9C63.33,12.89,63.62,13.38,63.1,14.72Z"/><path class="cls-154" d="M64.54,13.55c.21,0,.4.06.43.3a.34.34,0,0,1-.33.4.35.35,0,0,1-.43-.3C64.17,13.71,64.32,13.6,64.54,13.55Z"/><path class="cls-155" d="M123.65,89.69a4.56,4.56,0,0,1-5.59.32,1.68,1.68,0,0,1-.58-1c-.33-2.52.56-6.07,4.22-6.62,2.15-.33,2.12-.47,2.49-.91-.48-.3-1.11.18-1.54-.31.86-.46,1.85-.52,2.74-.9a.83.83,0,0,1-.09.88,15.57,15.57,0,0,0-.69,3.77c.19.35,0,.57-.28.71A13.66,13.66,0,0,0,123.65,89.69Z"/><path d="M109.89,101.46a.51.51,0,0,1,.27.5c.17.59-.38.9-.53,1.36a6.31,6.31,0,0,0-1,2.59,1.21,1.21,0,0,0,1.09,1.51,2.78,2.78,0,0,0,2.49-.71,7.87,7.87,0,0,0,1.77-2.32c.2-.38.32-.81.75-1l.42-.9c.12,1.35-.63,2.24-.93,3.26v0a7.84,7.84,0,0,1-3.33,3.39,4.92,4.92,0,0,1-2.94.71c-1.07-.08-1.5-.48-1.59-1.52A5.2,5.2,0,0,1,107,105c.61-1,1.27-2,2-3C109.17,101.73,109.42,101.41,109.89,101.46Z"/><path class="cls-156" d="M124.33,85.63c.09-.23.19-.47.28-.71l.37-.54a3.69,3.69,0,0,1-.14,1.85c-.06.23-.16.6.21.69s.35-.24.51-.4c1.78-1.88,3.42-3.87,5.07-5.86a3.39,3.39,0,0,1,.54-.45c0,.31.05.62.07.93-.85,1.57-2.23,2.7-3.33,4.06-.94,1.15-2,2.23-3,3.34-.23.25-.37.72-.79.55s-.11-.59-.09-.9A10,10,0,0,0,124.33,85.63Z"/><path class="cls-157" d="M114.68,103.37a7.13,7.13,0,0,1-2.53,3.72,3,3,0,0,1-1,.56,2.65,2.65,0,0,1-2.65-.45c-.67-.61-.26-1.49,0-2.21a18.36,18.36,0,0,1,1-1.85c.42,0,.33.25.25.49s-.22.59-.36.87c-.37.79-.65,1.67.16,2.25s1.66.15,2.4-.35a3.28,3.28,0,0,0,.4-.43,4.46,4.46,0,0,0,1.38-2.6c0-.52.15-.9.72-1C114.8,102.64,114.55,103.05,114.68,103.37Z"/><path class="cls-158" d="M114.42,102.39a2.43,2.43,0,0,0-.72,1c-.37-.3-.07-.59,0-.83,1.19-2.47,2.14-5.05,3.5-7.43.28-.48,0-.7-.22-1,.38.05.88-.13.93.51C116.86,97.26,115.75,99.88,114.42,102.39Z"/><path class="cls-159" d="M118.67,94.61c-.31-1.44-.21-1.63.92-1.76.61-.07.84.12.49.69-.22.38-.42.71.23.83C119.82,94.84,119.21,94.5,118.67,94.61Z"/><path class="cls-160" d="M34.23,18.93a2.66,2.66,0,0,1-2.66.17c-1.58-.58-3.22-1-4.83-1.5-.22-.06-.48-.23-.65,0s.08.51.24.7a7.62,7.62,0,0,0,5.94,2.57,2.55,2.55,0,0,1,2,.79,8,8,0,0,0,4.34,2.21c.38.07.85,0,.92.51a2.92,2.92,0,0,0,1.65,2,1.8,1.8,0,0,1,.88,2.68c-.49,2.41-2.42,3.67-4.31,4.57a4.81,4.81,0,0,1-4.62-.38c-1-.65-.86-1.6.19-2.08a2.47,2.47,0,0,0,.59-.38c.21-.17.48-.39.3-.68s-.42-.1-.64,0a3.5,3.5,0,0,1-3.42-.59c-.24-.2-.46-.36-.72-.11a.59.59,0,0,0,0,.76c.08.13.22.23.31.36.86,1.14.76,1.69-.55,2.21s-2.63,1.3-3.9-.09c-.26-.29-.59,0-.89,0-2.49.16-3.47-.31-4.21-2a2.32,2.32,0,0,1,.53-2.8,3,3,0,0,1,3.2,0c.29.24.5.63,1.1.48-1-1.62,0-3,.54-4.4.2-.52.05-.67-.34-.74C24.6,23.09,24,23,23.34,23a7.77,7.77,0,0,1-3-.88c-.29-.16-.7-.47-.95-.11s.18.61.4.87l.32.43a6.06,6.06,0,0,1-3.07.1.9.9,0,0,1-.64-.46c-.25-1-1-1.07-1.85-1.09A2.42,2.42,0,0,1,12,19c0-.39,0-.78,0-1.18a12.94,12.94,0,0,1,1.88-2.6c.36-.29.71-.6,1.08-.88a2.81,2.81,0,0,1,3.37-.21c1.2-.16,2.05.84,3.29,1.07-.61-1.1-2.19-1.86-.88-3.29a2.05,2.05,0,0,1,1.57-.7c2.71-.05,5.44-.8,8.14.21a10.76,10.76,0,0,1,1.82.76c1.62,1.66,1.88,3.83,2.23,6A1.07,1.07,0,0,1,34.23,18.93Z"/><path class="cls-161" d="M43.46,13.54c.08.28,0,.69.47.67L43,17.31c-2.31,0-4.62,0-6.93,0a1.12,1.12,0,0,1-1.3-1c-.55-2.1-.57-2.07,1.63-2.1,2,0,4-.17,6-.21A1.3,1.3,0,0,0,43.46,13.54Z"/><path class="cls-162" d="M42.76,18.94c-.06.1-.16.19-.17.29-.29,1.86-.29,1.86-2.24,1.86-1.42,0-2.83,0-4.24,0a1.35,1.35,0,0,1-1.37-.71c.53-1.89.53-1.89,2.53-1.89,1.52,0,3,0,4.57,0C42.19,18.5,42.67,18.34,42.76,18.94Z"/><path class="cls-163" d="M41.5,3.84a.53.53,0,0,1-.58.46c-.33,0-.53-.16-.51-.5A.48.48,0,0,1,41,3.33.5.5,0,0,1,41.5,3.84Z"/><path class="cls-76" d="M52.51,9.06,49.64,10C50.41,9.08,51.47,9.1,52.51,9.06Z"/><path class="cls-164" d="M38.11,12c.2.07.36.17.32.41s-.26.28-.45.26-.39-.12-.31-.38A.43.43,0,0,1,38.11,12Z"/><path class="cls-165" d="M20.8,11.87a1.81,1.81,0,0,0,.75,2.45c.42.27.48.76.7,1.5l-3.86-1.73A2.24,2.24,0,0,1,20.8,11.87Z"/><path class="cls-166" d="M19.4,32c.14.58.24,1-.68,1-4.34-.23-8.68-.36-13-.63-1.19-.08-2.36-.53-3.58-.57,0-.87,0-1.74,0-2.6,5.11,0,10.21,0,15.31,0,.92,0,1.62,0,1.56,1.26A5.2,5.2,0,0,0,19.4,32Z"/><path class="cls-140" d="M83.67,40.7a1.78,1.78,0,0,1-.42,1.42c1.22-.06,2.2.41,3.27.32a3.85,3.85,0,0,1-2.63.22c-.35-.14-.85-.16-1,.29s.31.57.59.74a47.37,47.37,0,0,0,6.2,3.13,15.49,15.49,0,0,1,6.34,5c-1.11-.25-2.22-.49-3.32-.76-.52-.13-1-.48-.85.55.12.6-.45.37-.74.42s-.74-.08-.82.28.42.51.71.62c2.78,1.08,5.69,1.79,8.38,3.11a14.14,14.14,0,0,0,6.41,1.72,11.15,11.15,0,0,1,2.13.63c.53.12,1.23.85,1.58-.34.07-.25.73-.12,1.12-.07,1.18.17,2.34.62,3.57.23a.79.79,0,0,1,1,.47c.15.3.4.52.75.37a.71.71,0,0,0,.36-.42c.08-.42-.22-.65-.54-.83s-.69-.13-1-.65A2.58,2.58,0,0,0,117,54.77c.11-.64.85-1,1.42-1.13,1.25-.36,2.45-.84,3.64-1.31,2.34-.91,4.67-1.89,5.46-4.77a16.31,16.31,0,0,1,1.27-2.73,2.87,2.87,0,0,1,2.37-1.51V55.85c-1.73-.11-3.17-1.12-4.78-1.6a2.94,2.94,0,0,0-2.55.26,15.16,15.16,0,0,1-3,1.31c-.86.28-1,1.3-1.85,1.55-1.07.33-.73,1.26-.73,2A1.69,1.69,0,0,1,117,61.23c-1,.35-1.83,1.22-3,1-.43-.07-.64.21-.44.68,1,2.51-1,3.76-3.14,3.1-.85-.26-1.43-.37-1.41.93s-2.2,2.76-3.8,3.08c-2.94.57-5.63-.58-8.42-1.08-.55-.1-1.11-.36-1.24.52a.29.29,0,0,1-.44.23c-.26-.12-.14-.34,0-.51.29-.54.07-.66-.47-.87a15.64,15.64,0,0,1-7.75-6c-.52-.78-1.14-1.49-1.66-2.28-.33-.5-.79-.46-1.25-.43-.69,0-1.08-.27-1.08-.93a1.19,1.19,0,0,0-.83-1.15,4.76,4.76,0,0,1-2.25-2.16,6.06,6.06,0,0,0-3.39-2.92c-.63-.23-1.29-.5-.92-1.44a.61.61,0,0,0-.31-.81c-1.13-.28-1.59-1.29-2.34-2-.2-.8-.93-1.41-.88-2.31a2,2,0,0,1,1.36-.25,9.28,9.28,0,0,0,5-1.46A25.57,25.57,0,0,0,83.67,40.7Z"/><path class="cls-148" d="M131.15,35.29c-1.62-.35-2.74.47-3.78,1.56a1.4,1.4,0,0,0-.43,1.16,1,1,0,0,1-.5,1c-.9.59-.89,1.14,0,1.78a9.29,9.29,0,0,0,1.24.68c.35.2.57.47.33.86a.51.51,0,0,1-.89.09c-.55-.68-1-.65-1.68-.13-.38.31-.84,0-1.23-.14a2,2,0,0,0-2.75.84,1.48,1.48,0,0,1-1.43.61c-.58,0-1,.07-.63.91s-.35,1.19-1.11,1.1c-.46,0-.54,0-.49.47.2,2-.18,2.34-2.05,1.92,0,.07-.12.15-.1.2.66,1.65.58,1.72-1.19,1.79a8.39,8.39,0,0,1-2.5-.54c-.86-.22-1.66-1-2.66-.34-.1.08-.42,0-.54-.14-1.92-1.92-4.62-2-7-2.89a19.19,19.19,0,0,1-3.32-1.45,9.73,9.73,0,0,0-2.66-.91c-.62-.18-1.38-.31-1.18-1.29a.33.33,0,0,0-.27-.43,22.58,22.58,0,0,0-2.45-.17c-.23,0-.18.4-.22.62a.8.8,0,0,1-.92-.31c.54-.31,1.14-.58.21-1.18-.68-.44-.36-.7.2-1a10.92,10.92,0,0,1,2.32-.28c-1.4-.7-2.85-.9-4.15-1.52-.93-.44-1-.91-.74-1.85a11.18,11.18,0,0,1,.75-2.7,1.8,1.8,0,0,1,2-.46,22.12,22.12,0,0,0,7.17.16c2.26-.26,4.45.38,6.67.65a6.17,6.17,0,0,0,1.87.13,4.78,4.78,0,0,1,2.77.27,2.1,2.1,0,0,0,2.76-.54,1.46,1.46,0,0,1,1.14-.53,30.89,30.89,0,0,1,6.59.12,4.39,4.39,0,0,0,2.1,0A4.12,4.12,0,0,1,124,33.3c2.19.32,4.4.15,6.59.39a.87.87,0,0,1,.54.19Z"/><path class="cls-167" d="M131.15,33.88c-2,.32-4.05-.07-6.07-.1a20.68,20.68,0,0,0-3.24.07,28.07,28.07,0,0,1-4-.26c-1.51-.05-3,0-4.54.06a.74.74,0,0,0-.66.45c-.6,1.39-1.7,1.07-2.68.72a8.65,8.65,0,0,0-3.2-.35,28.44,28.44,0,0,1-5.32-.71,10.43,10.43,0,0,0-3-.09,20,20,0,0,1-7.35-.22,3.5,3.5,0,0,0-1.73.18c0-.82.66-1.51.48-2.37,1.76.06,3.51-.38,5.28-.24.72.05,1.48-.11,1.75,1.06.29-1.21,1.1-1.18,1.82-1,1.12.25,2.38-.09,3.38.74a.58.58,0,0,0,.2.1c.83-1.37,2.25.28,3.18-.62.22-.21.52-.05.79,0,2.67.29,5.37.11,8,.49a12.89,12.89,0,0,0,4.66-.51,4.22,4.22,0,0,1,2.18.12,5.93,5.93,0,0,0,1.39.16,71.35,71.35,0,0,0,8.65-.23Z"/><path class="cls-168" d="M109.89,101.46c-1.48,1.82-3.14,3.55-3.32,6.06-.12,1.72.56,2.31,2.27,2a7.75,7.75,0,0,0,4.47-2.84c.28-.33.58-.63.87-1-.08.46-.19.92-.25,1.38a5.77,5.77,0,0,1-4.63,5,5.13,5.13,0,0,1-5.64-2.74c-1-2-.51-5.54,1.21-7.39-.23.84,0,1.12.73.8a15.59,15.59,0,0,0,2.93-1.21C109,101.49,109.39,100.89,109.89,101.46Z"/><path class="cls-169" d="M118,17.33H97.63c-.59-.48-1.29-.13-1.93-.24-.22,0-.53,0-.54-.28s.24-.39.49-.41.7,0,1,0,.92-.23.93-.85c0-.9.56-1.1,1.34-1a6.88,6.88,0,0,1,1.63.15,2.39,2.39,0,0,0,1.93-.23,5.7,5.7,0,0,1,3.15-.49c3.83.17,7.37,1.57,11.07,2.24C117.38,16.26,118,16.52,118,17.33Z"/><path class="cls-170" d="M100.58,13.4a.39.39,0,0,1-.33-.44c0-.46.42-.5.74-.57a.3.3,0,0,1,.37.34C101.33,13.14,101,13.31,100.58,13.4Z"/><path class="cls-171" d="M84.23,22.05c-.52-.06-1.14.16-1.18-.53s.56-.37.88-.38S85,21,85,21.64,84.43,21.86,84.23,22.05Z"/><path class="cls-172" d="M84.83,22.56c-.17.31-.37.61-.77.61a.52.52,0,0,1-.52-.53c-.05-.53.39-.36.65-.37S84.76,22.15,84.83,22.56Z"/><path class="cls-173" d="M90,113.08a.58.58,0,0,1,.56.63c0,.34-.08.65-.5.65a.6.6,0,0,1-.65-.67C89.43,113.31,89.66,113.13,90,113.08Z"/><path class="cls-174" d="M91.05,128.91c0,.33-.17.62-.56.61s-.65-.15-.65-.52.32-.59.71-.59A.44.44,0,0,1,91.05,128.91Z"/><path class="cls-175" d="M71.84,45.94c.37.74,1.12,1.34.88,2.31-.21.62-.43,1.23-.64,1.85-1.87,2.46-4.51,3-7.39,3-.87,0-1.46-.74-2.29-.82A2,2,0,0,1,61.67,51c-.68-3.1-1.39-6.19-2.1-9.29a3.89,3.89,0,0,0-.21-.53c-.66-.55-.54-1.48-1-2.15-.5.82-.07,1.86-.68,2.62a40.11,40.11,0,0,0-.21,5.48,29.12,29.12,0,0,1-.23,4.67,5.5,5.5,0,0,0-2.26.89c-2.29,1.11-4.7.84-7.07.64-1.55-.13-2.48-1.46-3.43-2.53-1.58-1.78-1.54-1.84.18-3.54a2.51,2.51,0,0,0,.83-1.88,6.53,6.53,0,0,1,2.59-5.28c.3-.27.74-.5.62-1-.19-.38,0-.61.33-.75a44.48,44.48,0,0,1,4.93-2.47,6.7,6.7,0,0,1,3.12-.39c2.09.31,4.22,0,6.3.5a10.32,10.32,0,0,0,2.76,1.51,2.87,2.87,0,0,1,2.09,2.42C68.42,42.52,70.38,44.07,71.84,45.94Z"/><path class="cls-176" d="M63.35,36a55.28,55.28,0,0,1-5.9-.14,7.78,7.78,0,0,0-5.18,1.13c-1.19.73-2.57,1.12-3.6,2.12a1.76,1.76,0,0,1,.09-2.53A4.34,4.34,0,0,1,51,35.09c2.71-.79,5.38-2,8.33-1.06.66.21,1.42,0,2.09.26s1.2.35,1.07,1.27C62.45,35.92,63.17,35.54,63.35,36Z"/><path class="cls-177" d="M79.19,33.16c-.75.68-1.75.58-2.64.82-.53.15-.42-.31-.43-.59,0-1.42,2.11-3.71,3.54-3.79a.9.9,0,0,1,1,1.35c-.26.6-.61,1.17-.92,1.75C79.26,32.56,79.15,32.77,79.19,33.16Z"/><path class="cls-178" d="M80.82,26.12c0,.54-.11,1.09-.65,1.27a3,3,0,0,1-2.07.19.53.53,0,0,1-.28-.6,2.75,2.75,0,0,1,2.53-1.67C80.84,25.42,80.81,25.76,80.82,26.12Z"/><path d="M50.38,56.46c.65-.22,1.34,0,1.95-.41.17-.11.36-.52.65-.11a.57.57,0,0,1-.06.66c-.14.25-.34.49-.64.31A4.81,4.81,0,0,0,50.38,56.46Z"/><path d="M52.7,31c-.17,0-.34,0-.29-.24s.07-.64.51-.65c.21,0,.44,0,.4.29A.81.81,0,0,1,52.7,31Z"/><path class="cls-179" d="M79.19,33.16c-.42-.22-.63-.54-.18-.86s.62,0,.69.4Z"/><path class="cls-180" d="M75.61,24.11c-.38.43-.69.3-1.12.19C74.82,23.82,75.15,23.9,75.61,24.11Z"/><path class="cls-181" d="M14.1,37.45a.46.46,0,0,1-.49.42c-.3,0-.41-.21-.4-.48a.39.39,0,0,1,.46-.4A.43.43,0,0,1,14.1,37.45Z"/><path class="cls-140" d="M83.56,63.28c-.11.39-.22.79-.71.8s-.55-.25-.57-.6a.64.64,0,0,1,.67-.76C83.35,62.7,83.47,63,83.56,63.28Z"/><path class="cls-140" d="M93,71.27c-.63.16-1,.63-1.53.21a.31.31,0,0,1,0-.51C91.92,70.54,92.36,70.78,93,71.27Z"/><path class="cls-182" d="M93.25,69.75a.7.7,0,0,1-.57-.69c0-.37.28-.43.55-.44a.47.47,0,0,1,.55.46C93.8,69.46,93.43,69.54,93.25,69.75Z"/><path class="cls-140" d="M88.88,68c-.22-.6.11-.92-.1-1.26-.1-.18-.09-.4.17-.45a.72.72,0,0,1,.44,0,.29.29,0,0,1,.07.49C89.15,67.08,89.15,67.49,88.88,68Z"/><path class="cls-183" d="M124.89,55.82a.51.51,0,0,1,.55.39.41.41,0,0,1-.43.55.42.42,0,0,1-.47-.42A.47.47,0,0,1,124.89,55.82Z"/><path class="cls-140" d="M73.26,57.19c-.26,0-.42-.21-.36-.47a.36.36,0,0,1,.4-.32.4.4,0,1,1,0,.79Z"/><path class="cls-184" d="M126.17,67.45c.07.43,0,.94.52,1.18.08.12.16.36.24.36,1.68,0,.92.83.59,1.54q-1.22,2.53-2.42,5.07c-.29.61-.58,1.24.22,1.72-.29.47-.49,1.06-1.23,1,.07-.5,0-.82-.61-.54a2.53,2.53,0,0,1-1.59.15c-1.74-.28-2.41-.94-2.45-2.62,0-.71.93-1,1.82-.6,1.9.89,3.06.15,3.08-2,0-.75,0-1.49,0-2.24,0-.47-.12-.86-.68-.94A4.14,4.14,0,0,1,126.17,67.45Z"/><path class="cls-185" d="M124.09,78.3c.56-.14.63-.9,1.23-1,.88.75.37,1.71.39,2.59,0,.23-.14.37-.4.32-.52,1.35-1.75.7-2.66.94a6.21,6.21,0,0,1-2.7-.69,1.12,1.12,0,0,1-.57-1.29c.05-.35.21-.53.54-.28C121.52,80.11,122.84,79.44,124.09,78.3Z"/><path class="cls-186" d="M128.12,68.13l-.23,0c-.56,0-.71-.36-.78-.81,0-.19,0-.44.19-.5.49-.13.63.32.88.59Z"/><path class="cls-187" d="M125.31,80.23l.4-.32c.45.61.26,1-.41,1.24C125.3,80.84,125.31,80.53,125.31,80.23Z"/><path class="cls-188" d="M120.56,68.13c.51.08.77-.2,1-.6a10.72,10.72,0,0,1,1.84-2.25c.71.41.21.82,0,1.18-.44.67-1.12,1.19-1.27,2a1.15,1.15,0,0,1-.11.31,5,5,0,0,0-.35,1.67c-.15.85.66.77,1.11,1a.51.51,0,0,1,.22.24,3.7,3.7,0,0,0-.91,2,.21.21,0,0,1-.3,0c-.3-.44-.92,0-1.21-.46a4.09,4.09,0,0,0-.25-3.09c.06-.25.82-.36.14-.74-.28-.16-.62-.35-.48-.7s.62.07.92-.11C121,68.39,120.57,68.37,120.56,68.13Z"/><path class="cls-189" d="M121.77,73.8H122c.87-.47.84-1.31.88-2.12l-.25,0a4.33,4.33,0,0,1-.12-.72c-.07-.39-.45-.58-.63-.9a4.57,4.57,0,0,1,.06-1.38l0-.09c.94-.86,2.25-1.22,3-2.29.67,0,1.37-.12,1.23.93a25.44,25.44,0,0,0-3,1.92c-.53.29-.09.46.12.64-.56,1.12.21,2.23,0,3.36-.08.51-.2.93-.69,1.12A.66.66,0,0,1,121.77,73.8Z"/><path class="cls-188" d="M121.73,66c-.44.47-.86,1-1.33,1.4s-.09.53.16.73l-1,.23c-.5-.58,0-1,.14-1.4-.49.66-.49,1.64-1.08,2.34-.22-.06-.24-.24-.26-.42s-.28-.19-.3-.38a17.52,17.52,0,0,1,1.72-3.19C120.44,65.59,120.77,66.66,121.73,66Z"/><path class="cls-190" d="M123.37,69.76c-.3,0-.69.39-.89-.16s.22-.51.47-.68c.81-.54,1.61-1.09,2.43-1.62.26-.17.52-.59.87-.1l-.08.25-2.52,2.06Z"/><path class="cls-191" d="M118.65,70.76a12.55,12.55,0,0,1,.4,3.16c-.62-.38-.66-1.1-1.07-1.54a2.42,2.42,0,0,1-.25-1.58c0-.35,0-.8.44-.83S118.43,70.53,118.65,70.76Z"/><path class="cls-192" d="M120.31,70.25c.22,0,.62-.07.62.14,0,1,.55,2.07-.37,3A4,4,0,0,1,120.31,70.25Z"/><path class="cls-193" d="M118.65,70.76c-.21-.16-.08-.64-.42-.61s-.33.46-.34.74c0,.5.06,1,.09,1.49-.84-.45-.5-1.24-.47-1.88a1.45,1.45,0,0,0-.29-1.17l.46-.68.12-.12a.42.42,0,0,1,.33,0,4.12,4.12,0,0,1,.28.31c-.75.2-.39.72-.11.88C118.78,70,118.67,70.38,118.65,70.76Z"/><path class="cls-194" d="M118.67,69.3a5.15,5.15,0,0,1,1.68-3.22c-.07.83-1,1.36-.74,2.28C119.25,68.63,119.39,69.39,118.67,69.3Z"/><path class="cls-193" d="M117.93,66.21c.11.32-.08.72.26,1,.35.61-.09,1-.43,1.38l-.08.08-.5-.32Z"/><path class="cls-195" d="M125,66.27c0,.14.15.38.1.42A8.13,8.13,0,0,1,122,68.56c-.44-1,.58-1.29.89-1.91.23-.45.91-.69.53-1.37l.45-.42C124.13,65.43,124.22,66.15,125,66.27Z"/><path class="cls-196" d="M117.76,68.57c-.11-.54.46-.86.43-1.38l.73-1.41c.29-.19.31-.63.69-.73l.22.26a8.29,8.29,0,0,1-1.7,3.26Z"/><path class="cls-197" d="M122.15,64.27c-.05.31-.15.76-.47.68s-.94-.11-1-.66.36-.68.78-.7S122.1,63.86,122.15,64.27Z"/><path class="cls-198" d="M109.72,103.63l-.25-.49.69-1.18c.3-.09.4-.49.92-.44Z"/><path class="cls-199" d="M57.65,41.65A21.13,21.13,0,0,1,58.11,38a7.79,7.79,0,0,1,1.25,3.18,4.08,4.08,0,0,0,.13,1.39c0,.29.69,1.21-.55.87-.39-.11-.26.38-.32.62-.27,1.22-.32,2.49-.52,3.72s-.12,2.5-.45,3.75Z"/><path class="cls-200" d="M90.77,42.11a1.52,1.52,0,0,1,.92.31A1.06,1.06,0,0,1,91,43.59c-.26.12-.42-.16-.53-.33A.75.75,0,0,1,90.77,42.11Z"/><path class="cls-201" d="M37.1,22.21c1.68,0,3.12,0,4.57,0,.33,0,.82-.08.76.46S42.69,24,42,24.21c-.44.16-1.25.21-1.46,0-.79-1-2-1-3-1.51C37.43,22.62,37.38,22.5,37.1,22.21Z"/><path class="cls-167" d="M88.61,29.64c.16-.46.16-.48.66-.48H94.7l7.9,0v.21H89.7C89.32,29.38,88.9,29.27,88.61,29.64Z"/><path class="cls-202" d="M102.6,29.39a2,2,0,0,1,.24,0c.31,0,.75-.22.86.3,0,.19-.15.36-.36.39-.5.09-.73-.17-.73-.65Z"/><path class="cls-203" d="M116.52,29.88a.35.35,0,0,1-.31.41.46.46,0,0,1-.52-.36.36.36,0,0,1,.37-.47C116.33,29.45,116.47,29.62,116.52,29.88Z"/><path class="cls-127" d="M33.5,24a3.41,3.41,0,0,1,2.46.74c.21.16.43.37.28.69s-.39.25-.61.23a2.34,2.34,0,0,0-1.83.51C33,26.79,30.94,26,30.58,25c-.15-.42,0-.71.42-.77C31.89,24.13,32.78,24.07,33.5,24Z"/><path class="cls-141" d="M103.55,58.22c.38-.41.75-.32,1,.08s0,.59-.15.85a.55.55,0,0,1-.82.12.6.6,0,0,1-.08-1.05l.12.12A1.29,1.29,0,0,1,103.55,58.22Z"/><path class="cls-141" d="M101.61,58.51a.54.54,0,0,1-.56.61.51.51,0,0,1-.55-.5.53.53,0,0,1,.56-.61A.54.54,0,0,1,101.61,58.51Z"/><path class="cls-204" d="M106.06,60.2a.48.48,0,0,1-.58.43c-.26,0-.42-.18-.37-.46s.2-.51.54-.44A.45.45,0,0,1,106.06,60.2Z"/><path class="cls-205" d="M84.5,50.68c.22,0,.35.15.34.38a.35.35,0,0,1-.34.39.35.35,0,0,1-.35-.39C84.15,50.83,84.28,50.72,84.5,50.68Z"/><path class="cls-206" d="M107.76,46c-.14.48-.4.82-.9.79a.69.69,0,0,1-.69-.78.74.74,0,0,1,.84-.76A.84.84,0,0,1,107.76,46Z"/><path class="cls-207" d="M120.72,39.11c-.13.32-.28.61-.64.61s-.48-.26-.44-.56a.57.57,0,0,1,.6-.58C120.57,38.6,120.68,38.84,120.72,39.11Z"/><path class="cls-208" d="M92.16,34.79c.26,0,.47.09.49.36a.5.5,0,0,1-.51.6.39.39,0,0,1-.43-.42A.47.47,0,0,1,92.16,34.79Z"/><path class="cls-209" d="M108.85,44.84a.41.41,0,0,1-.38.35.33.33,0,0,1-.4-.3c0-.28.13-.42.4-.41A.41.41,0,0,1,108.85,44.84Z"/><path class="cls-5" d="M51.41,41.17,52.85,41a3,3,0,0,1,3.41,3.22c0,.2,0,.39,0,.59.06,1.36.31,2.7-1.07,3.74-1,.8-1.8,1.95-3.14,2.4a3.81,3.81,0,0,1-4.58-1.81,10.53,10.53,0,0,1-1.07-3.34,4,4,0,0,1,4-4.67C50.77,41.16,51.16,41.17,51.41,41.17Z"/><path class="cls-210" d="M67.42,42.55a7.45,7.45,0,0,1,1.32,5,4.29,4.29,0,0,1-5.41,3.77c-1.23-.32-1.47-1.55-1.74-2.49a6.13,6.13,0,0,1,.09-3.9c.22-.38.52-.77.69,0s.32,1.37.45,2.06c0,.64-.4,1.4.39,1.81a2,2,0,0,0,2-.39C67,47.15,67.58,45.9,67,44.27,66.43,43,66.5,42.76,67.42,42.55Z"/><path class="cls-211" d="M67.42,42.55c-1.12.54-.34,1.14-.06,1.72A10.32,10.32,0,0,0,63,47a.28.28,0,0,1-.41,0,4.53,4.53,0,0,1-.45-2c0-.72-.33,0-.48-.09C61.74,43.2,62.9,42.09,64,41s1.9-.71,2.72.45C67,41.83,67.35,42.09,67.42,42.55Z"/><path class="cls-5" d="M122.69,71c.33.24.12.45,0,.67-.56,0-1.3-.09-1.27-.67,0-.77-.28-1.73.58-2.33A1.05,1.05,0,0,1,122,70C122,70.45,122.42,70.66,122.69,71Z"/><path class="cls-212" d="M122.9,71.68c.51.74.08,1.45-.15,2.13-.15.45-.49.18-.73,0a5.41,5.41,0,0,0-.07-.58C121.77,72.39,122,71.81,122.9,71.68Z"/><path class="cls-213" d="M122.69,71c-.37-.24-1.34,0-.74-1C122.37,70.18,122.91,70.3,122.69,71Z"/><path class="cls-214" d="M103.55,58.22c.34-.06.72-.16.83.32a.33.33,0,0,1-.34.38c-.49,0-.54-.32-.49-.7Z"/><path class="cls-215" d="M52.66,44c.08-.38.09-.89.64-.8a1.53,1.53,0,0,1,1.3.9A3,3,0,0,1,54.32,47a6.51,6.51,0,0,1-2.54,2.23,1.94,1.94,0,0,1-2.38-.35c-.24-.22-.49-.47-.43-.8s.5-.25.77-.32c.5-.12,1,0,1.37-.64s.7-.35.75.36c.46-.67-.71-1.3.11-1.86a.55.55,0,0,1,.55.09c.36.24.75.42,1-.11s.2-.85-.36-1.07C52.89,44.46,52.56,44.39,52.66,44Z"/><path class="cls-216" d="M52.66,44c.29.46,1.15.11,1.23.87a1.24,1.24,0,0,1-.45,1.35c-.73.46-1-.4-1.47-.58Z"/><path class="cls-217" d="M49.6,45.83c-.34.05-.42-.16-.42-.41s.12-.7.52-.79.6,0,.59.38S49.92,45.64,49.6,45.83Z"/><path class="cls-218" d="M51,44.25c-.3,0-.37-.25-.39-.48s.11-.52.45-.51.47.1.39.4S51.34,44.18,51,44.25Z"/><path class="cls-219" d="M62.61,47.05a12.22,12.22,0,0,1,3.07-2.47,2.09,2.09,0,0,1,1.68-.31c.7,2.1-1.61,5.1-3.82,5C62.46,49.19,62.2,48.56,62.61,47.05Z"/><path class="cls-220" d="M53.11,45c.32,0,.35.24.33.48s-.13.4-.35.37a.42.42,0,0,1-.41-.45C52.68,45.08,52.84,45,53.11,45Z"/><path class="cls-221" d="M65.68,47a1,1,0,0,1-1,.82c-.43,0-.81-.13-.8-.62s.22-.84.78-.81S65.51,46.49,65.68,47Z"/></g></g></svg>