<svg xmlns="http://www.w3.org/2000/svg" viewBox="0 0 132.41 131.69"><defs><style>.cls-1{fill:#77576d;}.cls-2{fill:#59232c;}.cls-3{fill:#3b112c;}.cls-4{fill:#49192c;}.cls-5{fill:#060404;}.cls-6{fill:#845d74;}.cls-7{fill:#2a092c;}.cls-8{fill:#8a3a4e;}.cls-9{fill:#a77c9a;}.cls-10{fill:#714c52;}.cls-11{fill:#eaac5b;}.cls-12{fill:#5c2f36;}.cls-13{fill:#320d2c;}.cls-14{fill:#c7914d;}.cls-15{fill:#f1c690;}</style></defs><g id="Layer_2" data-name="Layer 2"><g id="Layer_4" data-name="Layer 4"><path class="cls-1" d="M28.41,131l41.13-.34,34.51-.24L132.41,103q-.53-25.08-.6-50.81,0-12.82,0-25.5a1,1,0,0,0-.9.35c-2.3,2.42-5.36,2.86-8.46,3.21-.14,6.11-.34,12.23-.41,18.35-.08,6.92,0,13.85-.06,20.77a3.56,3.56,0,0,1-.23,1.74c0,.34,0,.68,0,1s-.23.68-.47,1c-2.9,3.61-5.79,7.24-8.7,10.85a1.49,1.49,0,0,0-.45,1.37l.26.26a1.83,1.83,0,0,1,1.78,1.26h0c.56,0,.44.52.66.78l.31.36c1.38.56.6,1.76.79,2.67l2,1.29c2,1,2.59,2.11,1.92,4.16a2,2,0,0,0,.31,2A14.76,14.76,0,0,1,123,106c0,.41.14.89-.2,1.21s-.34.84-.32,1.37c.14,3.1-1.49,5.68-5.31,4.72a1.66,1.66,0,0,0-1.44.2,20.36,20.36,0,0,1-3.85,1.54.18.18,0,0,1-.29,0c-.24-.1-.36-.38-.12-.44.83-.22,1.38-.93,2.18-1.19a2.66,2.66,0,0,0,2-2.37c.13-1.13-.73-1.6-1.47-2.14a2.72,2.72,0,0,0-2.17.81c-.9.7-1.76,1.45-2.64,2.17l-.18-.26c1.39-1.48,2.67-3.14,5-3.22v-.06c0-.44-.37-.84-.18-1.31.07-.21.15-.41.23-.62a1.22,1.22,0,0,0-1.11-1.11,20.4,20.4,0,0,1-2,1.13c-1.27.56-2.62,1.15-4,.57a3.17,3.17,0,0,1-1.83-3.32c0-.84-.24-1.2-1-1.18a9.67,9.67,0,0,1-4-1c-.38-.15-.8-.49-1.17-.18s-.09.78,0,1.17a41.69,41.69,0,0,1,1.58,5.58c.34,1.92,0,2.41-1.9,3-.27.08-.63,0-.78.31a6.07,6.07,0,0,0,1.17,3.36,13.29,13.29,0,0,1,4.56-1.91,1.58,1.58,0,0,1,1.54-1.64l1.38.05c.35-.77.78-.35,1.19-.08a4.7,4.7,0,0,1,2,4.09l.75-.26c.22,0,.36,0,.3.31-.16.72-.84.28-1.21.54-.61,2.4-2,3.17-4.18,2.29a1.81,1.81,0,0,0-1.57.18,2.58,2.58,0,0,1-1.42.44,3.08,3.08,0,0,0-2.52,1.17,2.49,2.49,0,0,1-3.32.46,1.28,1.28,0,0,0-1.17-.23c-.67.29-1.22-.43-1.88-.21-1.64-.37-2.67.79-3.76,1.64A4.22,4.22,0,0,1,87,122.66v3.87a4.2,4.2,0,0,1-1.66-4c-.51-.38-.92.1-1.37.19-.84.15-1.57.75-2.49.61-2.22,0-4.44.29-6.65.55-1.82-1.39-3.67-1.16-5.64-.25A3.64,3.64,0,0,1,64.9,123c-1.82-1.57-3.33-1.47-5.37-.21-.15.09-.4,0-.6,0a7.47,7.47,0,0,1-4.42-2,28.81,28.81,0,0,1-3.57-8.11c-.3-1.22-.63-2.44.28-3.56h0a.85.85,0,0,1,.51-.52h0c.09-.35.19-.7.28-1a13.5,13.5,0,0,0-1.33-5.37c-.57-1.32-1.25-2.6-1.69-4-.2-.61-.19-.73-.91-.65-2.32.27-4.71.6-6.75-1.09-.39-.33-.87-.92-1.42-.46A1.46,1.46,0,0,0,39.72,98a6.55,6.55,0,0,1,.77,3.67c-.07.72.16,1,.89,1s1.12.14,1.16,1c.09,2,.21,4,.12,6a70.42,70.42,0,0,0,.14,10.77c.09.91.05,1.48-.24,1.81a2.13,2.13,0,0,1-1.74.43c-1.82-.17-9.77-.12-20.93,0L8.6,111.32c0-.39,0-.71,0-.95-.06-5.69.09-4.91,0-5.59a7.67,7.67,0,0,1,0-.89c.08-.9.41-1.37,1.49-1.33,2.53.09,5.07,0,7.61,0,.73,0,1.06-.09.6-.88a7.48,7.48,0,0,1-.8-3.42,7.16,7.16,0,0,0-.42-1.94,2.3,2.3,0,0,1,.08-2.16l-2.8-6.3-.76-.08a.92.92,0,0,1-.74-.1A9.55,9.55,0,0,1,9.47,85c-.35-.47-.9-.95-.54-1.68-.18-.28-.59-.36-.64-.75-2.36-2.7-4.74-5.38-7.06-8.12-.45-.52-1.06-1-1-1.82-.27-.17-.21-.34,0-.5Q.3,87.56.41,103Z"/><path class="cls-2" d="M37,.06H28.53L16.73,12.25a12.23,12.23,0,0,0,5.5-.78c.66-.26,3.27-.24,5-1.25a.79.79,0,0,1,.62,0c1,.52,1.94.1,2.93,0,1.31-.08,2.82-1.09,3.94.58.22.32.67,0,.83-.42s.64-.69.88-.34c.69,1,1.92.81,2.72,1.36,2.9,2,6.14,1.54,9.32,1.56.48,0,.82.09,1,.55a23.73,23.73,0,0,1,4.14-1.06,21.17,21.17,0,0,1,11.59,2.26c.08-.83-.6-1.74.25-2.5-.1-.13-.19-.37-.3-.37-1.44-.08-2.7-1.29-4.32-.51a5,5,0,0,1-2.37,0c-.27,0-.77,0-.78-.47a.9.9,0,0,1,.69-.83A53.33,53.33,0,0,1,63.9,8.41c0-.61,0-1.19.79-1.31.33,0,.72-.44.93.13s-.16.69-.53.82-.79.24-1.19.36c.2.46.37.93.6,1.37s.64.51.76.1c.32-1.09,1-1.3,2-1.25A.57.57,0,0,0,67.92,8c0-.34-.26-.62-.58-.49-1,.42-.87-.57-1.45-.94l2.33-.69C70.05,5.32,72,5.21,73.61,4c.47-.37,1.07-.68.38-1.22A3.79,3.79,0,0,0,70.76,1.6c-3.2.65-6.41,1.31-9.62,1.93a3.45,3.45,0,0,1-2.76-.21A3.28,3.28,0,0,0,54.7,3.1a13.57,13.57,0,0,1-4.87,1.68c-1.59.31-2.31-.35-2-2,.09-.49,0-1-.46-.92-1.34.31-2.67-.47-4,.1-.32.14-.79.21-1-.26C41.85.48,41,.39,39.78.72a9,9,0,0,1-2.15.07C37.12.81,37,.51,37,.06Zm3,5.47c-.39-.18-.89-.23-.9-.75s.4-.43.73-.4.75.2.72.67A.46.46,0,0,1,40,5.53Z"/><path class="cls-3" d="M104.41,0,84.72.08c.12.71.59.92,1.25,1a1.91,1.91,0,0,1,1.61,1.08c.22.62-.73.47-1,.87a1.62,1.62,0,0,0-.37.63c.06.78-.41.78-1,.67.16,1.25-.08,2.06-1.63,2.17a24.36,24.36,0,0,0-3.78.89c-.4.1-.72.29-.62.78s.42.47.78.5a4.4,4.4,0,0,0,2-.29c.4-.15.79-.38,1,.24.17.42.5.13.76.08,1-.19,1.57.23,1.75,1.28.21,1.28.85,1.7,2.13,1.39a1.38,1.38,0,0,1,1.31.11,7,7,0,0,0,3.83,1,4.18,4.18,0,0,1,1.55-1.26,15.85,15.85,0,0,1,10,0c1.41-.08,1.85,1.08,2.51,2,1.57-.57,2.68.3,3.8,1.17a.94.94,0,0,0-.21-.7c-.2-.25-.61-.43-.38-.84s.58-.14.9-.11.94.2,1.28-.27c0-.33-.1-.71.33-.83s.75.21.89.64c.41,0,.89-.16,1.19.2a2.94,2.94,0,0,0,.68.5c.37.35,1.18.59,3.15.08Z"/><path class="cls-4" d="M92.76,12.47a7,7,0,0,1-3.83-1,1.38,1.38,0,0,0-1.31-.11c-1.28.31-1.92-.11-2.13-1.39-.18-1.05-.72-1.47-1.75-1.28-.26.05-.59.34-.76-.08-.24-.62-.63-.39-1-.24a4.4,4.4,0,0,1-2,.29c-.36,0-.7-.1-.78-.5s.22-.68.62-.78a24.36,24.36,0,0,1,3.78-.89c1.55-.11,1.79-.92,1.63-2.17-.08-.27-.26-.56,0-.8s.63,0,.92.13A1.62,1.62,0,0,1,86.57,3c.28-.4,1.23-.25,1-.87A1.91,1.91,0,0,0,86,1.07c-.66-.07-1.13-.28-1.25-1-1.14,0-2.28,0-3.42,0h-43c-.43,0-.85,0-1.27,0,0,.45.12.75.63.73A9,9,0,0,0,39.78.72c1.19-.33,2.07-.24,2.59,1,.19.47.67.4,1,.26,1.31-.57,2.64.21,4-.1.49-.12.55.43.46.92-.28,1.61.44,2.27,2,2A13.57,13.57,0,0,0,54.7,3.1a3.28,3.28,0,0,1,3.68.22,3.45,3.45,0,0,0,2.76.21c3.21-.62,6.42-1.28,9.62-1.93A3.79,3.79,0,0,1,74,2.73c.69.54.09.85-.38,1.22C72,5.21,70.05,5.32,68.22,5.87l-2.33.69c.58.37.44,1.36,1.45.94.32-.13.56.15.58.49a.57.57,0,0,1-.63.64c-1-.05-1.71.16-2,1.25-.12.41-.57.28-.76-.1s-.4-.91-.6-1.37h0a53.33,53.33,0,0,0-5.54,1.64.9.9,0,0,0-.69.83c0,.44.51.44.78.47a5,5,0,0,0,2.37,0c1.62-.78,2.88.43,4.32.51.11,0,.2.24.3.37,1.33,0,1.42-1.32,2.06-2.05L67.38,10l.33-.09.52-.73c0-.25.07-.46.36-.5A2,2,0,0,1,70.68,8,41.66,41.66,0,0,1,78.1,9.72a3.93,3.93,0,0,1,3.34,1.57c.69.6,1.59,1,2,1.91.12.63.6.77,1.13.78,1.55,0,3.11.1,4.65,0,2.61-.18,2.65-.17,1.86,2.38,0,0,0,.08,0,.12l.45.08Z"/><path class="cls-5" d="M121.66,16.26l-.9.26h-8.34c0,.33,0,.67,0,1,0,2.33-.56,2.92-2.94,3.06-.3,0-.54,0-.76.31-1,1.35-1.79,1.56-3.61,1,.08-.44.7-.63.52-1.47a12.34,12.34,0,0,1-5.41,1.44c-.29,0-.53.18-.33.62.63,1.31,1.29,2.64.62,4.18a1.31,1.31,0,0,0,.88-.45,2.61,2.61,0,0,1,3,0,2.2,2.2,0,0,1,.36,2.78c-.74,1.69-2.23,1.58-3.67,1.6-.4,0-.82-.22-1.17.22-.54.67-1.28.54-2,.38a3.4,3.4,0,0,1-2.24-1c-.41-.63.15-1.33.64-1.88a.46.46,0,0,0-.08-.68.48.48,0,0,0-.45,0c-1.15,1.09-2.5,1-4,.55a1.2,1.2,0,0,0,1,1.14c1.24.25.77,1,.43,1.57a1.69,1.69,0,0,1-1.29.71,9.48,9.48,0,0,1-3.64,0c0,.17,0,.35,0,.53a12.23,12.23,0,0,0,3.29,2.06c.27-.16.38-.59.81-.52,1.25-.12,1.79-1.13,2.44-2,.26-.33.44-.67.87-.32a9.32,9.32,0,0,0,2.91,1.13,5.45,5.45,0,0,0,6.69-1.93c.23-.49.69-1,.65-1.48-.12-1.62,1-1.65,2.06-1.76.21,0,.42,0,.63,0,4-.06,8,.05,12,.16.83,0,1.14.38,1.15,1.13a3.14,3.14,0,0,1-.2,1.49c0,.16,0,.32,0,.49.44,1.5.12,3,.19,4.57.17,1-.35,2-.22,3,0,7.68.08,15.35-.06,23,0,2.69-.18,5.38-.2,8.07a2.79,2.79,0,0,0,.51,1.9,3.56,3.56,0,0,0,.23-1.74c0-6.92,0-13.85.06-20.77.07-6.12.27-12.24.41-18.35-.08-1.53-.31-2.93,1.46-4,1.39-.82,1.21-2.15.25-3.5a1.26,1.26,0,0,1,.34-2,.78.78,0,0,0,.4-.33.38.38,0,0,0,0-.21,3.5,3.5,0,0,0-.06-.71Zm-9.35,10.2h-5.58a1.34,1.34,0,0,1-1.17-.36,3.81,3.81,0,0,0-3.27-1.31c-.28,0-.51,0-.58-.3a.51.51,0,0,1,.41-.67,5.9,5.9,0,0,1,1.25-.13c2.37,0,4.74.13,7.1.12,4,0,8-.1,12-.12.51,0,1.21-.3,1.51.29s-.17,1.21-.48,1.75a1.69,1.69,0,0,1-1.48.81C118.81,26.84,115.56,26.24,112.31,26.46Zm8.14-6.58c-2,0-4,0-5.94,0-.91,0-1.14-.28-1.13-1.16a1.46,1.46,0,0,1,.24-1,1.16,1.16,0,0,1,.91-.25c.92.05,3.64,0,7.46-.12l2.27,2.18a.52.52,0,0,1-.1.4.66.66,0,0,1-.54.14C123.12,20,122,20,120.45,19.88Zm-10.53,3,0-.32c1.31-.2,2.09-1.55,3.38-1.61,3-.14,6-.09,9-.17,1,0,.75.63.82,1.17s-.09.94-.8.94C118.17,22.84,114.05,22.85,109.92,22.85Z"/><path class="cls-5" d="M12.07,17.42c5.28,0,9.17-.05,11.73-.06h1.41l9.23,0,15.09.06.74-.45c-.07-.27,0-.59-.32-.75a.42.42,0,0,1-.53.24q-17.6,0-35.2,0H13.09Z"/><path class="cls-5" d="M5.84,23.86q8.72.11,17.57.14,7.55,0,15,0l1.38-.09a1.11,1.11,0,0,0,.79-.52c0-.19,0-.39,0-.58,0-.62-.05-1.23-.07-1.85l.29-.15c.13-.88.73-.63,1.27-.53l.06-.5-.5.07h-32Z"/><path class="cls-6" d="M124.92,19.61a2.74,2.74,0,0,1,0,.64.48.48,0,0,1,0,.21.78.78,0,0,1-.4.33,1.26,1.26,0,0,0-.34,2c1,1.35,1.14,2.68-.25,3.5-1.77,1-1.54,2.43-1.46,4,3.1-.35,6.16-.79,8.46-3.21a1,1,0,0,1,.9-.35Z"/><path class="cls-5" d="M95.08,131c1-1,0-1.77,1-5,.24-.81,1.43-4.55,3.91-6.06.5-.3,1.44-1.27,2.52-1.17a2.58,2.58,0,0,0,1.42-.44,1.81,1.81,0,0,1,1.57-.18c2.18.88,3.57.11,4.18-2.29a.45.45,0,0,1,.16-.59,4.7,4.7,0,0,0-2-4.09c-.41-.27-.84-.69-1.19.08a5.4,5.4,0,0,1,1.87,4.12c0,1.16-.77,1.51-1.71,1.62-1.16.14-.63-.82-.81-1.31-.09-.23-.16-.48-.24-.72h-.52c-.28,1.74-1.46,2.68-4,3.14a2.81,2.81,0,0,0-1.57-3.1.48.48,0,0,1-.48-.25A6.07,6.07,0,0,1,98,111.4c.15-.33.51-.23.78-.31,1.93-.55,2.24-1,1.9-3a41.69,41.69,0,0,0-1.58-5.58c-.13-.39-.43-.84,0-1.17s.79,0,1.17.18a9.67,9.67,0,0,0,4,1c.8,0,1.09.34,1,1.18a3.17,3.17,0,0,0,1.83,3.32c1.36.58,2.71,0,4-.57a20.4,20.4,0,0,0,2-1.13,1,1,0,0,1,.79-.5c1.11-1.9,3-3.13,4.11-5.1l1.56,2.21c.32.48.76.9.3,1.58a1.6,1.6,0,0,1-1.55.79c-1.28,0-2.63-.06-3.59,1.09l-.3,1a3.41,3.41,0,0,1,4.37.09,3.23,3.23,0,0,1,1.23,3,2.59,2.59,0,0,1-1.59,2.25c-.69.36-1.18.31-1.24-.7-.09-1.69-1.21-2.61-3-2.65v.06l0,.5c.74.54,1.6,1,1.47,2.14a2.66,2.66,0,0,1-2,2.37c-.8.26-1.35,1-2.18,1.19-.24.06-.12.34.12.44l.29,0a20.36,20.36,0,0,0,3.85-1.54,1.66,1.66,0,0,1,1.44-.2c3.82,1,5.45-1.62,5.31-4.72,0-.53-.13-1,.32-1.37s.23-.8.2-1.21a14.76,14.76,0,0,0-2.8-7.89,2,2,0,0,1-.31-2c.67-2,.12-3.16-1.92-4.15-1.15,1-1.11,2.57-1.81,3.79-.28.49-.39,1.55-1.14,1.17s.26-.9.41-1.38.7-.77.33-1.24-.75.27-1.22.21c.35-1.38.1-2.89,1.38-3.85-.19-.91.59-2.11-.79-2.67-.06,3-2.36,4.34-4.21,6.07a8.64,8.64,0,0,1,.75-2.75A6.24,6.24,0,0,1,113.28,89c.74-.51.29-1.53.88-2.11a1.83,1.83,0,0,0-1.78-1.26v0c-.48,1.48-1.68,2.41-2.68,3.85-.2-1.31.38-2.11.5-3,.06-.41.34-1,0-1.18s-.88.21-1.13.57c-2.09,2.95-5.42,4.72-7.4,7.78-.22.33-.49.55-1,.27a.67.67,0,0,1-.37-.91c1-3.28,1.9-6.58,4.44-9.12.72-.73,1.48-1.44,2.21-2.16a1.1,1.1,0,0,0-1.56-.07,7.12,7.12,0,0,1-1.06.69c-.9.4-1.88.57-2.55-.29s0-1.45.64-2c.08-.07.1-.21.15-.31a.66.66,0,0,0-.94,0c-1.4,1-2.59.69-3.71-.49a4.15,4.15,0,0,0-1-.69c-.7-.4-.61-1-.13-1.34,1.14-.73,2.1-1.92,3.68-1.72l-.6-.42c.24-.39.68-.48,1.05-.66,1.62-.79,3.27-1.54,4.89-2.34,1.14-.57,2-2.54,1.39-3.53a8.25,8.25,0,0,0-5-4l-1.35,0a1.72,1.72,0,0,0,1.67,1.28c.79,0,1.19.73,1.55,1.36a.51.51,0,0,1-.43.82c-.88,0-1.19.59-1.42,1.19a2.54,2.54,0,0,1-2.12,1.69.74.74,0,0,0-.67.47A3.28,3.28,0,0,1,96.11,73c-1.13-.24-1.74.2-1.58,1.32.1.7-.34.87-.74.94-1.13.2-.86.77-.49,1.43a4.06,4.06,0,0,1,.41,1.9,4,4,0,0,0,1.79,2.75c1.24.72,1.53.75,1.17,2.28a.61.61,0,0,0,.07.34c.56,1.42.42,1.56-1,2.12a3.36,3.36,0,0,0-2.23,2.54c-.11.63-.24,1.29-1.18,1-.38-.1-.55.14-.58.48a1.62,1.62,0,0,1-1.42,1.54,1.77,1.77,0,0,0-1.12,1.13c-.15.34-.23.92-.46,1-1.5.41-1.91,2-3.05,2.74A13.71,13.71,0,0,0,81.15,102c-.36.72-.91,2.24-2.11,1.62-.81-.41-1.33,0-2-.06s-.66.34-.38.8a1.66,1.66,0,0,0,1.64.73c.51,0,.79-.68,1.44-.38-.48,1-1.46,1.65-1.83,2.69,0,.12-.37.27-.41.23-.67-.63-1.13.16-1.69.21-.38,0-1.15.48-.8-.58a.31.31,0,0,0-.4-.36,9.55,9.55,0,0,1-2,.22c-.61.08-.28.45-.11.73.38.11.83,0,1.18.31-.31.73-.71.71-1.19.19-.35.27-.63.91-1.09.68s-.12-.84-.09-1.27a10.89,10.89,0,0,1,.24-1.5c.11-.49.15-.92.94-.76a5.5,5.5,0,0,0,2-.25c.34-.06.7-.26.67-.64s-.47-.23-.73-.24a.67.67,0,0,1-.69-.6.56.56,0,0,1,.42-.67c.23-.1.47-.19.5-.5-.42-.26-.81.12-1.21.06s-1.35,0-1-1c.84-2.56,1.2-5.24,2.06-7.81,1.7-5,3.22-10.11,5.33-15a4.35,4.35,0,0,1,1.94-2.4,2.67,2.67,0,0,0,1.35-2.28c-1-1.69-2.48-3.23-2.21-5.47a7.3,7.3,0,0,0,0-2.14c-.14-.69,0-.82.68-.92A4.09,4.09,0,0,0,85,63.33a6.51,6.51,0,0,0,.51-2.94,3.68,3.68,0,0,0-4.11-4,5.1,5.1,0,0,1-.55,4.44,3.56,3.56,0,0,1-3.33,2.09,9.18,9.18,0,0,1-3-1c-.71-.3-.15-1.1-.46-1.59-.09-.15-.16-.3-.25-.44-.38.07-.59-.22-.84-.42s-.22-.5-.08-.77.17-.3.37-.25.28.35.34.58.14.47.21.71c1.23.12,2-.23,2.12-1.65.08-.78.15-1.58.24-2.36.15-1.39.89-1.77,2.1-1.11.15-.73.54-1.41.19-2.21a.58.58,0,0,1,.62-.84c1.68.09,2.69-1,3.72-2.05.42-.43.8-.91,1.49-.77,2.29.48,4.61.1,6.91.33a2,2,0,0,1,1.32,0c.19-.36.57-.27.87-.38,1.71-.6,3.51-.88,4.78-2.52.65-.83,1.68-1.47,2.46-2.29A7.93,7.93,0,0,0,101.75,41c.09-.76-.09-1.11-1-1.19a24,24,0,0,1-10.89-3.32c-2.51-1.61-5.35-2.76-7.76-4.5A77.66,77.66,0,0,0,69,23.76,41.61,41.61,0,0,0,61.26,21c-2.64-.62-5.38-.1-8-1.07-1.26-.47-1.74,1.26-2.74,1.76.27.39.34.84-.09,1.1a1.45,1.45,0,0,1-1.44,0c-.38-.22.18-.55.16-.86a1.53,1.53,0,0,0-1.06.32c-3.63,2.69-6.08,6-5.76,10.81.34,0,.66.34.53.52-.57.71.15,1.19.21,1.77a1.85,1.85,0,0,1,.78.74c1.81,1.29,3.22,3.1,5.25,4.11,2.28,1.15,4.42,2.72,7.18,2.51.28-.1.57-.39.79.08,1.57-1.73,3.24-3.4,3.49-5.91a2,2,0,0,1,1.27-1.59l3.34-1.74a.45.45,0,0,1,.46-.5c.85-1.13,2.17-1,3.33-1.22l.77,0A1.92,1.92,0,0,1,71,31.53,25.63,25.63,0,0,1,76.68,33a4.38,4.38,0,0,1,2,1.63c.44.6.56,1.23-.18,1.74-.32.67.3.91.62,1.21,1.36,1.29,2.39,2.69,2.28,4.7a2.48,2.48,0,0,0,.86,1.89c1.44,1.44,1.48,1.52.23,3-1,1.15-1.9,2.43-3.6,2.58-2.5.21-5,.19-7.26-1.07a2.24,2.24,0,0,0-1.18-.41.55.55,0,0,1-.47.55c-.26,1.29.83,1.86,1.6,2.07,1.72.47,2.36,1.36,1.94,3.07.63,0,1.52-.6,1.62.63s.09,2.34.13,3.51c0,.57,0,1.16-.77,1.19s-.65-.7-.7-1.09c-.18-1.35-.24-2.72-.35-4.08l-1.67.28c0,1.53.56,3.07,0,4.6,0,.22-.09.38-.34.4S71,59.26,71,59c-.69-1.51-.29-3.07-.18-4.62-.37-.1-.91.18-1.07-.38-.23-.75-.81-.65-1.34-.6a2.81,2.81,0,0,0-2,1c0,1,0,2,0,3,0,.61-.43.77-.93.81s-.66-.17-.63-.59c.08-1.42-.25-2.87.34-4.25-.24-.32-.38,0-.6.06-.68.2-1.55.6-1.94-.32C62.18,52,62.77,51.18,64,51c.5-.09,1-.13,1.5-.25,1.19-.31,1.49-1.11.89-2.3a8.13,8.13,0,0,1-2.39,1c-2.69.22-6-.45-7.48-3.45,0,2.55.89,3.8,3.38,4.57,1.42.44,1,1.61,1.32,2.54.22.68-.16.81-.6,1,0,.16,0,.33,0,.49.34.16.77-.07,1.07.26l.46-.23c.22-.31.44-.71.89-.49a1,1,0,0,1,.57.93c0,1.1,0,2.19,0,3.29,0,.38.12.82-.5.8-.77.3-.88,1.16-1.45,1.67-1.3,1.15-3,1-4.44,1.64-.64.28-.94.15-1.1-.57a28,28,0,0,1-.68-4l-.42,0c-.69,1.13-.39,2.38-.29,3.56s-.26,1.72-1.48,1.51c-.1.51-.2,1-.88,1-2.55,0-4.65,1.24-6.78,2.42a1.49,1.49,0,0,0-.93,1.25,1.62,1.62,0,0,1-1.33,1.68C44.64,70.4,46.42,71,47,72.83c.17.58.45,1.22,0,1.67s-1,.17-1.55,0a2.25,2.25,0,0,0-2.12-.1c.5.33.89.56,1.24.84.52.4.8.9.39,1.53s-1,.43-1.53.11c-.25-.15-.45-.39-.69-.56s-.78-.25-1,.18c-.57,1.35-1.54,1-2.54.68-.35-.12-.69-.34-1.07-.09-.08.37.24.51.41.74s1,.66.66,1.18-1.09.27-1.62,0c-.88-.42-1.73-.88-2.59-1.33-.31-.16-.66-.38-.92-.07s0,.72.29,1c1.68,1.45,2.79,3.39,4.29,5,.52.56.4,1.55,1.23,1.84,2.69.95,3.59,3.62,5.29,5.51,0,0,0,.13-.07.22a3.28,3.28,0,0,1-1.41-.47c-.46-.25-1.05-.84-1.45-.37s.44.88.63,1.36c0,0,.16.14.15.15s-.18,0-.25,0a2.92,2.92,0,0,1-1.18-.41c-2.65-1-5-2.78-7.4-4.17S29.34,84,28.36,81c-.33,0-.65,0-.84.33.94,4.39,3.89,7.37,7.15,10.12a7.57,7.57,0,0,1,2.9,5,2.41,2.41,0,0,0,1,1.45c.33.29.91.59.73,1.08s-.81-.08-1.22.11a2,2,0,0,0-.23.19c.24.59.87.74,1.32,1.08a1,1,0,0,1,.38,1.12c-.13.48-.58.39-.95.43-.79.07-1.2-.54-1.68-1a2.79,2.79,0,0,0-2.46-1c.8.75,1.5,1.4,2.19,2.06.35.33,1.14.47.64,1.23s-.91,1.13-1.77.89c-2.21-.6-4.6-3.77-4.58-6.08v-.51a11.71,11.71,0,0,0-6.16-5.67c-1.27-.51-2.64-1.34-2.66-3.11,0-.3.24-.33.48-.31.64-.44.86-1.19,1.26-1.79a1.33,1.33,0,0,1,1.74-.68l.07-.41c-.73-.91-1.13-1.93-.33-3a9.14,9.14,0,0,1,1.77-1.39c0-.42,0-.87-.61-.42a16.2,16.2,0,0,0-1.37,1.11c-.75.73-1.51,1.36-1.14,2.7.29,1.08-1.47,2.76-2.63,2.76s-2.28,0-3.42,0c-.36,0-.94,0-.37.59.75,0,1.51,0,2.27,0a3.79,3.79,0,0,1,1.73.11c.69.39-.2,1-.08,1.56s.36,1.09-.31,1.32-1,.92-1.42,1.47l-.27.27.29.52A4.14,4.14,0,0,1,21.51,95l-1.17-.6c.06.82.66,1.41.94,2.14.19.51.77,1.1.29,1.58s-1-.14-1.48-.3a5.49,5.49,0,0,0-.61-.12c0,.1,0,.2,0,.3a3.37,3.37,0,0,0,.54.68c.67.48,1.47.89,2.21.35s.47-1.34.15-2.07c-.15-.37-.5-.74-.23-1.29a3.52,3.52,0,0,1,1.08,1.77c.2.66.66,1.45,0,2a2.5,2.5,0,0,1-2.62.36,7.24,7.24,0,0,1-.79-.39l-.47.07a6.28,6.28,0,0,0,3.74,2.14,1.47,1.47,0,0,0,2-1.62,4.92,4.92,0,0,0-.78-2.62c-.69-1.05-1.36-2.11-2-3.17-.05-.06-.14-.16-.12-.18s.19-.08.28,0c1.58.39,2.94,1.5,4.67,1.36.11,0,.25.19.35.32a5.93,5.93,0,0,1-1.25,7.45,4.69,4.69,0,0,1-5,.3c-2.16-1-2.9-2.79-2.93-5l-.63-.21a7.48,7.48,0,0,0,.8,3.42c.46.79.13.89-.6.88-2.54,0-5.08.05-7.61,0-1.08,0-1.41.43-1.49,1.33a7.56,7.56,0,0,0,0,.89c.07.69.06,2.87,0,6.49L20,122.58c11.11-.15,19-.2,20.84,0a2.13,2.13,0,0,0,1.74-.43c.29-.33.33-.9.24-1.81a70.42,70.42,0,0,1-.14-10.77c.09-2,0-4-.12-6,0-.82-.49-1-1.16-1s-1-.26-.89-1A6.55,6.55,0,0,0,39.72,98a1.46,1.46,0,0,1,.18-1.87c.55-.46,1,.13,1.42.46,2,1.69,4.43,1.36,6.75,1.09.72-.08.71,0,.91.65.44,1.35,1.12,2.63,1.69,4A13.5,13.5,0,0,1,52,107.63l.41,0c0-.16,0-.33.05-.49s.21-.15.24.06a3.61,3.61,0,0,1,.11,2.21c-.89,2.09-.59,3.3,1,4.81.25.23.56.36.66.73a35.9,35.9,0,0,0,2,4.65c.67,1.64,1.26,1.43,2.43,3.26,2.5,3.92,1.11,6.92,3.15,8.17.87.54,1.55.24,4,0a41.41,41.41,0,0,1,8,0l1.19-7.7c0-.1.07-.27.11-.48a21.05,21.05,0,0,0,.45-4.14,14.73,14.73,0,0,1,2.1-6.69c1.85-2.92,3.85-5.75,5.65-8.71A4.31,4.31,0,0,1,87.51,101c1.28,0,2.11-.46,2-1.94,0-.35,0-1.07.54-.91.92.26,1.41-.32,2-.71.25-.16.52-.35.82-.18s.23.54.16.8a2,2,0,0,0,1.56,2.7,1.49,1.49,0,0,1,1.1,1.94,2.5,2.5,0,0,0,1.12,2.41,4.44,4.44,0,0,1,.93.85c.45.62.69,1.24-.47,1.38a2,2,0,0,0-1.17.41c-.79.84-1.49.51-2.33.1-1.49-.73-1.51-.68-1.52,1a3.66,3.66,0,0,0,.2,1.49c.34.85,0,1.33-.93,1.53a3.83,3.83,0,0,1-2.3-.48c-1.23-.5-4.08-.28-4.45.48-.53,1.11-1.56,1.51-2.47,2.07-2.1,1.3-2.4,2.91-.68,4.7a1.45,1.45,0,0,1,.33,2c-.27.43-.43.93-.74,1.33s-.22.92.2,1.29L80.08,131a48.81,48.81,0,0,1,6,0C91.36,131.34,93.71,132.37,95.08,131Zm15.53-30.7.06-.06-.07.05-.09,0Zm-6.07-1.51-.15.1.1-.14c.31-.4.6-.81.91-1.2.13-.16.35-.34.52-.16A.68.68,0,0,1,106,98C105.73,98.61,105.13,98.7,104.54,98.79Zm6.35-1a36.22,36.22,0,0,1,2.38-3.49c0,2.08-.91,3.59-2.41,4.09a4,4,0,0,1-2.35,1.51C109.3,99.2,109.72,98.07,110.89,97.8ZM60.31,69.29c0,.3,0,.5-.36.54-.65.34-1.25,1.27-2.05.56a3.26,3.26,0,0,1-1.15-2.7,12.84,12.84,0,0,1,.37-3.38c.18-1.06,1.71-1.39,2.72-.58C60.51,65.54,60.08,67.44,60.31,69.29Zm7.15,38.65c.11.85.78,1,1.43,1.2.27.07.59,0,.76.32.31.64-.42,3.57-1,4a1.8,1.8,0,0,1-1.92.08.81.81,0,0,1-.43-1.07c.58-1.47.38-3.08.77-4.58v-1.29c.78.26,1.46.77,2.3.57.18,0,.43-.19.54.09s-.09.47-.28.64C68.92,108.5,68.18,107.93,67.46,107.94Zm-1.82,8a3.06,3.06,0,0,0,1.37.86c1.79.33,1.8.35,1.68,2.16a8.18,8.18,0,0,1-.52,2.59c-.28.7-.72,1.32-1.58,1.19s-1.82-.65-1.91-1.59c-.18-1.79-.23-3.64,1-5.21-.17-.6.21-1.11.22-1.89a3.19,3.19,0,0,0,2.46,1.08c.21,0,.48,0,.52.23s-.19.43-.45.5A10.55,10.55,0,0,1,65.64,116Zm.28-20.24.14-.1-.1.13a21.64,21.64,0,0,1-1.66,7.45A2.05,2.05,0,0,1,62,104.55c-1.09-.22-1.15-1.16-1.1-2.1.07-1.46.1-2.93.15-4.4L60.59,98a22.81,22.81,0,0,0-.21,5.09,2.07,2.07,0,0,1,0,2c0,.81.84.77,1.22,1.24-.51.32-.72,1.12-1.5.7-.26-.14-.52-.41-.71,0a.6.6,0,0,0,.34.75,5.79,5.79,0,0,0,1,.26c-.66,1-1.32.53-2,0-.2-.16-.43-.34-.66-.1s-.05.49.11.67a4.45,4.45,0,0,1,.93,1.18c.14.33.53.66.12,1a1.4,1.4,0,0,1-1.53.32c-.53-.24-.25-.61-.11-1a.56.56,0,0,0-.12-.7c-.33-.25-.51,0-.73.24-.45.43-1.11.62-1.46.15a3.48,3.48,0,0,1-.77-2.09c0-.53.81-.85,1.49-.87.52,0,1-.36.89-.86-.17-.68-.67.31-1-.09,0-.34.41-.82-.13-1.08s-.57.34-.84.55c-.62.51-1.16.47-1.5-.33a4.87,4.87,0,0,1-.46-1.31c-.46-3.61-2.11-6.83-3.33-10.19-1-2.65-2.14-5.23-3.18-7.85-.1-.26-.52-.64,0-1a5.3,5.3,0,0,0,.34-2.65c-.86-1.08-.24-3.7,1-4.36,0,.49-.1,1-.11,1.47a.36.36,0,0,0,.38.41c.12,0,.33-.22.32-.32-.08-1,.69-1.35,1.49-1.93-1.36-.2-.84-.71-.4-1.22a2.52,2.52,0,0,1,1.48-.9c.28,0,.76,0,.81-.44s-.39-.5-.62-.74c-1.55-1.63-3.56-2.68-5.23-4.17a1.84,1.84,0,0,1,.17-3c1.39-1,4.56-1,6.09.19-.53.23-1.16-.11-1.8.42a5.44,5.44,0,0,1,2,1.42.52.52,0,0,0,.66.15,1.46,1.46,0,0,1,2.1,1c.14.37.07.84.65,1,1,.18,1.19.54.4,1.36-.61.62.44.8.58,1.26.06.19.46.5.52.12.11-.63.41-.68.86-.48a1.38,1.38,0,0,1,.91,1.25c.05,1.26.93,2.31.83,3.66-.08,1.19,1.21,1.24,2,1.72l.48-.34c-.2-2-.41-3.93-.6-5.91a50.7,50.7,0,0,1-.29-7.08c0-.33-.21-1,.56-.81a3.91,3.91,0,0,1,2.91,3.65A77.21,77.21,0,0,0,65.14,78c.08.54-.21,1.39.62,1.45s.79-.75,1-1.31c.07-.24.14-.48.22-.72.93-2.94,1.49-6,2.76-8.81.14-.3.11-.7.54-.78a17.91,17.91,0,0,0,2.85-1c.26-.09.6-.26.83,0s0,.48-.12.71c-.41,1.24-.9,2.45-1.24,3.71a56.68,56.68,0,0,1-4.63,11.62c-1,2-3.4,3.21-5.28,1.14l-.43,0,.08.68c.25.14.37.31.1.54-.17,1.74.55,3.49-.07,5.24a.76.76,0,0,0,.33.87c.92.75.64,1.42-.24,2a1.05,1.05,0,0,0-.59.77l0,.53c.22,0,.47,0,.5.27.15,1.28,1,1.34,2,1.29A5.14,5.14,0,0,0,65.92,95.71Zm-42.4,26c-1,0-2.6,0-4.56,0L9.4,112.15c0-3.81,0-6.59,0-7.56a1.29,1.29,0,0,1,.27-1,1.33,1.33,0,0,1,1-.26c2.54.06,5.07.05,7.61,0a2.19,2.19,0,0,1,1.66.67,5.64,5.64,0,0,0,6.28,1.47,2.55,2.55,0,0,1,1.1,0,7.93,7.93,0,0,0,4.61-1.21c1.14-.83,1.54-.53,2.34,0,1.53,1,2.36.88,3.66-.39a1.53,1.53,0,0,1,.71-.47,4.73,4.73,0,0,1,3,.22c.71.46.3,1.49.28,2.26-.1,4.69-.32,9.38,0,14.06.13,1.72.06,1.87-1.63,1.84C34.67,121.71,29.1,121.84,23.52,121.72ZM78.85,72.79a5.42,5.42,0,0,1-5,5.19c-1,0-1.42-.62-1.13-1.63s.71-2.17,1-3.26c.18-.61.48-.87,1.1-.67a4.55,4.55,0,0,0,3.09-.26C78.82,71.83,78.93,72.13,78.85,72.79Zm-6.42-8a8.48,8.48,0,0,1-4.07.77,8.09,8.09,0,0,0-3.68.14,2.29,2.29,0,0,1-2.8-2.85c.18-.62.37-1,1-.35.44.45,1.28.84,1.57.63,1.1-.8,2.06.16,3.06,0,.84-.1,1.67-.24,2.5-.35.23,0,.64-.18.66.13C70.7,64.12,71.71,64.3,72.43,64.84Zm38.86,38.92c-.48-.15-1-.12-1.14-.6s.37-.62.65-.83c1.15-.86,2.36-1.64,3.47-2.53,1.67-1.34,2.45-3.32,3.46-5.12.25-.45.46-1,1.12-.71s.29.81.16,1.21A16.71,16.71,0,0,1,114.4,102,9,9,0,0,1,111.29,103.76ZM72.9,81.06c.9,1.59.45,3.11.26,4.57a1.5,1.5,0,0,1-1.86,1.14c-.88-.11-1.13-.74-1.06-1.57.05-.54,0-1.09,0-1.64,0-.29,0-.77.32-.72C72,83.07,72.17,81.82,72.9,81.06Zm34.7,9.16a14.62,14.62,0,0,1-5.09,8C102.43,96,105.5,91.17,107.6,90.22ZM49.69,27.72c1.5.06,3.58,2.28,3.53,3.65,0,.3,0,.54-.48.52A4.1,4.1,0,0,1,48.9,29C48.64,28.07,49.1,27.84,49.69,27.72Zm19.47,73.83c.55-.11.94.33,1,.91a5.07,5.07,0,0,1-.67,2.89,1.22,1.22,0,0,1-1.57.43c-.62-.24-.71-.74-.58-1.35a5.8,5.8,0,0,0,.14-1.37C67.38,101.93,68,101.59,69.16,101.55ZM65.71,72c.12-1.41.21-2.79.36-4.17.09-.8.46-1.44,1.39-1.17s.85,1,.62,1.65c-.44,1.31-.92,2.62-1.39,3.92-.12.34-.17.89-.63.81S65.75,72.32,65.71,72Zm1,29c.28-1.44.57-2.75.79-4.07.2-1.15,1.15-.75,1.69-.7s.25.7.19,1.1a6.2,6.2,0,0,0-.3,1.22C69.15,100.08,68,100.48,66.67,100.91ZM77.49,78.74a10,10,0,0,0-.68,1.78c-.21,1.4-1.31,1.55-2.25,1.4s-.66-1.26-.78-2c-.08-.46.14-.72.63-.68A14.71,14.71,0,0,0,77.49,78.74ZM74.87,65.82c0-.4-.06-.85-.08-1.31s.09-.54.52-.42a2.57,2.57,0,0,1,1.82,2.55c-.07,1-.7,1.2-1.55,1.2s-.74-.64-.71-1.21C74.88,66.38,74.87,66.13,74.87,65.82Zm-33.13,18c3,.52,4.06,2,4.17,4.82-1.42-1.36-2.32-3.07-3.78-4.26A4.54,4.54,0,0,1,41.74,83.84Zm26.2-27.39h0v-2c0-.33.08-.6.48-.58s.77-.1.8.39a12.94,12.94,0,0,1-.21,4,.71.71,0,0,1-.75.55c-.42,0-.31-.43-.32-.7C67.92,57.55,67.94,57,67.94,56.45ZM50.56,25.91c-1,0-1.82-.23-1.82-1.44,0-.6.31-.8.87-.78s2,1.23,2,1.68C51.49,26.05,50.93,25.88,50.56,25.91ZM73.18,62.35c-.19.58.28,1.25-.25,1.68-.13.12-.62-.13-.91-.28s-.45-3,0-3.18a.88.88,0,0,1,.48,0C73.7,60.8,72.86,61.8,73.18,62.35Zm25.76,56.5c0-.31,0-.47,0-.63-.16-1-.19-2.17-1.77-1.41a.32.32,0,0,1-.49-.21c-.07-.34.17-.55.41-.72a2.42,2.42,0,0,1,2.68.29C100.29,116.84,100,118,98.94,118.85Zm-40.85-6.54a3.25,3.25,0,0,0,1.67-1.19c.29-.52,1.11-.34,1.43-.08s.19,1-.14,1.36C60.14,113.43,59.32,113.4,58.09,112.31Zm16.74-26.8c0-.46.07-.83.1-1.21.06-.78.61-.85,1.18-.73.81.16.16.65.14,1a3,3,0,0,1-.32.95c-.21.5-.07,1.43-.89,1.29S75.17,85.86,74.83,85.51ZM68.17,61.24c.28.79-.22,1.11-1,1.16-1.07.07-.66-.84-.81-1.35s.12-.9.79-.9S68.33,60.36,68.17,61.24Zm2.22,19.5c.37-.75.2-1.87,1.21-2.31a.7.7,0,0,1,.79.61c.06.61-1,2.24-1.48,2.22C70.63,81.25,70.28,81.28,70.39,80.74Zm1.07,13.53c.13-.4,0-1.19.66-1.17.41,0,1.36-.14,1.31.53s-.15,1.65-1,1.81C71.89,95.54,71.43,95,71.46,94.27ZM72,91.12c0-.27-.05-.92.67-.73.56.15,1.51-.1,1.53.83a1.14,1.14,0,0,1-1.29,1.09C72.3,92.29,71.89,92,72,91.12Zm-.39,9.66c-1.16-.94-.23-2.08-.36-3.1,0-.27-.24-.89.39-.83s.91.33.68,1.05C72,98.83,71.86,99.8,71.62,100.78Zm38.33-.2a2.37,2.37,0,0,1-1.26,2c-.29.16-.53.7-.87.16s-.45-1,.22-1.26S109.25,100.92,110,100.58Zm-42.13-8a3.31,3.31,0,0,0,1.61.46c.27,0,.63-.18.72.26a.79.79,0,0,1-.43,1c-.3.15-.67.42-.9.07C68.47,93.73,67.37,93.65,67.82,92.53ZM74,88.08c.35.17.82-.45,1,0s-.34.67-.72.85c-.53.25-1,.65-1.66.33a.5.5,0,0,1-.17-.68C72.76,87.81,73.47,88.24,74,88.08Zm1.7,22c-1.32.23-1.44,2.28-3.08,2C73.62,111.35,74,109.76,75.69,110.08ZM63.5,60.24c1.36.33,1.34,1.18,1.1,2.14C63,62.29,63.31,61.28,63.5,60.24Zm6.56,31.45c-.59-.16-1-.25-1.45-.4s-.87-.23-.61-.83.58-.26.94-.15A1.63,1.63,0,0,1,70.06,91.69Zm-4.53-1.61c-.78.17-1.08,1.64-2.24.74-.18-.14-.33-.24-.27-.49a.29.29,0,0,1,.37-.23A8.52,8.52,0,0,0,65.53,90.08Zm3-2c1,.15,1.7-.12,2.22.42.16.17-.06.49-.32.57C69.66,89.3,69.2,88.87,68.51,88.06Zm-10,25.81c-1,.44-1.28-.37-1.81-.74C57.63,112.52,58.06,113.07,58.49,113.87Zm2.32-.35a.64.64,0,0,1,0,.73c-.2.35-.47.62-.92.48-.19-.06-.5-.21-.5-.32,0-.53.53-.41.82-.6A6.26,6.26,0,0,1,60.81,113.52ZM63.7,95.64c-.27,0-.53-.07-.44-.32.19-.51.72-.5,1.16-.6.2,0,.49,0,.39.3C64.63,95.54,64.1,95.52,63.7,95.64Zm0-3c.6-.59.95-1,1.76-.95A1.6,1.6,0,0,1,63.74,92.63Zm1.43-4.19a3.62,3.62,0,0,1-.36.25c-.45.19-.88.54-1.41.31a.46.46,0,0,1-.12-.43c.38-.44.91-.2,1.39-.23A4.62,4.62,0,0,1,65.17,88.44Zm-.1-1.21c-.87.09-1.37.26-1.86,0a.46.46,0,0,1,0-.44c.48-.42.87.24,1.34.15C64.57,86.89,64.64,87,65.07,87.23ZM26.72,94.81a1.11,1.11,0,0,1,.09.19s0,0-.07.08a.69.69,0,0,1-.1-.19S26.69,94.84,26.72,94.81Zm25.66,11.5s0,.06,0,.09-.08.12-.13,0,0-.07,0-.09S52.35,106.31,52.38,106.31Z"/><path class="cls-7" d="M91.2,49.1c-2.3-.23-4.62.15-6.91-.33-.69-.14-1.07.34-1.49.77-1,1.05-2,2.14-3.72,2.05a.58.58,0,0,0-.62.84c.35.8,0,1.48-.19,2.21a14.36,14.36,0,0,0,3.1,1.75,3.68,3.68,0,0,1,4.11,4A6.51,6.51,0,0,1,85,63.33a4.12,4.12,0,0,1-3.43,2.41c-.68.09-.82.22-.68.91a7.3,7.3,0,0,1,0,2.14c-.27,2.24,1.16,3.78,2.21,5.47L83,74.19l-.08,0,.28-.37c.23-.09.28-.29.35-.49.53-1.57,1.53-2.91,2.15-4.46s2-2.88,2.83-4.43a1.54,1.54,0,0,1,1.65-.71,7.91,7.91,0,0,0,2.87-.26,15,15,0,0,1,9.12,1,8.25,8.25,0,0,1,5,4c.62,1-.25,3-1.39,3.53-1.62.8-3.27,1.55-4.89,2.34-.37.18-.81.27-1.05.66l.6.42c.38,0,.76,0,1.14.06,1.28.19,3.26,2,3,3s.16,1.26.77,1.64a5.23,5.23,0,0,0,3.48.9c.37-.82.67-.13,1,.06h0c.35,0,.51.19.54.52l.1,0c.33,0,.61.06.63.47l.48.29.29.31a.34.34,0,0,0,0,.2,1.19,1.19,0,0,0,1.18-.59c2-3,4.69-5.48,6.79-8.43.46-.65.72-1.71,1.88-1.64,0-.33,0-.67,0-1a2.79,2.79,0,0,1-.51-1.9c0-2.69.16-5.38.2-8.07.14-7.68.06-15.35.06-23a28,28,0,0,1-6.32,1.52.79.79,0,0,0-.79.67c-.16.79-.6.76-1,.26a1,1,0,0,0-1.23-.36,7.9,7.9,0,0,0-2.24,1.6,2.8,2.8,0,0,1-3.28,1.2,1.68,1.68,0,0,0-2.08.76c-.14.24-.53.39-.39.73s.51.19.78.21a8,8,0,0,1,2.63.22c.32.13.52.28.47.64s-.29.28-.56.27a2.38,2.38,0,0,0-1.76.85,11.3,11.3,0,0,1-7.65,3.4c-.95.09-2.08-.2-2.83,1-.36.57-1.12.19-1.43-.4a1.37,1.37,0,0,0-1.36-.92C91.36,50.3,91.16,50.2,91.2,49.1Zm4,4,.25-.32a1.91,1.91,0,0,1,.3.46.24.24,0,0,1-.26.31C95.29,53.55,95.16,53.43,95.24,53.1Z"/><path class="cls-8" d="M81.48,123.34c-.42-.37-.62-.75-.2-1.29s.47-.9.74-1.33a1.45,1.45,0,0,0-.33-2c-1.72-1.79-1.42-3.4.68-4.7.91-.56,1.94-1,2.47-2.07.37-.76,3.22-1,4.45-.48a3.83,3.83,0,0,0,2.3.48c.88-.2,1.27-.68.93-1.53a3.66,3.66,0,0,1-.2-1.49c0-1.71,0-1.76,1.52-1,.84.41,1.54.74,2.33-.1a2,2,0,0,1,1.17-.41c1.16-.14.92-.76.47-1.38a4.44,4.44,0,0,0-.93-.85,2.5,2.5,0,0,1-1.12-2.41,1.49,1.49,0,0,0-1.1-1.94,2,2,0,0,1-1.56-2.7c.07-.26.17-.61-.16-.8s-.57,0-.82.18c-.62.39-1.11,1-2,.71-.56-.16-.56.56-.54.91.07,1.48-.76,1.93-2,1.94a4.31,4.31,0,0,0-3.93,2.24c-1.8,3-3.8,5.79-5.65,8.71a14.73,14.73,0,0,0-2.1,6.69c-.13,1.38-.34,2.76-.45,4.14a1.6,1.6,0,0,1-.11.48,65.39,65.39,0,0,0-1.19,7.7h6a29.14,29.14,0,0,0,1-4A29.71,29.71,0,0,0,81.48,123.34Z"/><path class="cls-5" d="M13.65,87.82l.76.08c.09-.25.29-.29.52-.27.51,0,.68-.36.79-.77a16.36,16.36,0,0,1,.15-2.71,8,8,0,0,0-.46-5.89c-.67-1.5-1.79-2.82-1.28-4.64.06-.21-.12-.48-.18-.72a1.15,1.15,0,0,1,.23-.94,33.51,33.51,0,0,0,3.27-6.18l-1.25-.53c-.78-.06-.36-.7-.51-1.06l-.5-.24-.44,1.72a3.93,3.93,0,0,1-1.15,2.71,6.92,6.92,0,0,1,0-1.61c.16-.57-.17-1.43.8-1.61l0-1.34-.49,0c0,.51,0,.94-.66.42a6,6,0,0,1-.65-.76l-.47.08c.27.33,1.06.65,0,1l-.75.59c-.35.06-.75.72-1-.09a2.16,2.16,0,0,1-1.54-.51,7.69,7.69,0,0,0-.27,2.74,2.71,2.71,0,0,0,.93,2.48c.84.64,1.38,0,2.06-.27.51-.17,1.24-.45,1.5.37.3,1-.79,2.34-1.8,2.59s-1.8-.21-2.7-.29c.84,1.82,2.18,2.16,4.47,1.13.42.91,0,1.46-.81,1.75a8.14,8.14,0,0,1-3.69.53c.3.87,1.08.83,1.78.9,3.51.37,4.81,2.89,4.66,5.75A1.84,1.84,0,0,1,13.63,84c-1.63.51-3.28.78-4.64-.69H8.93c-.36.73.19,1.21.54,1.68a9.55,9.55,0,0,0,3.44,2.73c-.05-.44-.62-.8-.34-1.25.16-.28.64-.2.93-.1C14.52,86.73,13.79,87.32,13.65,87.82ZM11.54,67.29c0-.51,0-1,0-1.52,0-.19,0-.45.26-.48s.5,0,.5.28c0,.91.4,1.94-.61,2.62l-.83.12c-.22.21-.11.74-.57.68s-.5-.4-.56-.74a3.27,3.27,0,0,1-.07-1.65c.39.33,1.16-.19,1.28.66Z"/><path class="cls-5" d="M2.47,27.37l1.13.05c15.08.59,19.88,0,28.09,0h9.88l.69,0c0-.36.11-.72-.16-1H40.27l-.75.08c-.37.37-.67-.13-1-.07l-35.43.11Z"/><path class="cls-9" d="M95.5,120.17c.72-.63,1.44-1.25,2.14-1.9.18-.17.34-.43.14-.68a.49.49,0,0,0-.68-.07,6.1,6.1,0,0,0-.54.34c-2,1.24-2.1,1.21-3.66-.49-1-1.09-1.88-2.27-2.79-3.43-.39-.51-.74-1.32-1.69-1a2.55,2.55,0,0,0-2,1.77,24.61,24.61,0,0,0-1,5.84c0,.67-.09,1.34-.14,2,.63.74.61,1.76,1,2.59l.13-2.76a9.38,9.38,0,0,0,.26-1.84,8,8,0,0,1,1-3.88c.85-1.35,2.17-1.56,3.11-.31s1.85,2.36,2.71,3.6C94.28,119.74,94.83,120.46,95.5,120.17Z"/><path class="cls-8" d="M58.93,122.83a19.06,19.06,0,0,1-4.41-7.91c-.1-.37-.41-.5-.66-.73-1.64-1.51-1.94-2.72-1-4.81a3.61,3.61,0,0,0-.11-2.21l-.24-.06c0,.16,0,.33-.05.49,0,.52,0,1-.69,1.07h0c0,.36-.16.52-.51.52h0a6.49,6.49,0,0,0,0,3.55c.38.86,1,2.19,1.62,3.82.92,2.24,1.52,3.88,1.68,4.3A53,53,0,0,0,60.08,131c.8.2,1.78.37,2,0s-.44-.83-1-2c-.74-1.54-.33-2.19-1-4A9.51,9.51,0,0,0,58.93,122.83Z"/><path class="cls-10" d="M114.15,108.37c1.82,0,2.94,1,3,2.65.06,1,.55,1.06,1.24.7a2.59,2.59,0,0,0,1.59-2.25,3.23,3.23,0,0,0-1.23-3,3.41,3.41,0,0,0-4.37-.09v0c-.07.28.08.71-.45.69C113.78,107.53,114.12,107.93,114.15,108.37Z"/><path class="cls-11" d="M105.78,115c.08.23.15.48.24.71.18.49-.35,1.45.81,1.31.94-.11,1.68-.46,1.71-1.62a5.4,5.4,0,0,0-1.87-4.12l-1.38-.05c-.08.14-.12.33-.24.42-1,.71-1.18,1.35,0,2.08A1.57,1.57,0,0,1,105.78,115Z"/><path class="cls-5" d="M121.74,72.12c-1.16-.07-1.42,1-1.88,1.64-2.1,2.95-4.78,5.42-6.79,8.43a1.19,1.19,0,0,1-1.18.59c.14.3.29.53-.13.84-1.06.77-.55,1.3.37,1.69h0a1.49,1.49,0,0,1,.45-1.37c2.91-3.61,5.8-7.24,8.7-10.85C121.51,72.8,121.85,72.58,121.74,72.12Z"/><path class="cls-8" d="M114.16,86.84c-.59.58-.14,1.6-.88,2.11a6.24,6.24,0,0,0-1.62,2.34,8.64,8.64,0,0,0-.75,2.75c1.85-1.73,4.15-3.12,4.21-6.07l-.32-.36c-.43-.08-.49-.47-.65-.78Z"/><path class="cls-8" d="M115.91,90.64c-1.28,1-1,2.47-1.38,3.85.47.06.84-.68,1.22-.21s-.2.82-.33,1.24-1,1.06-.41,1.38.86-.68,1.14-1.17c.7-1.22.66-2.79,1.81-3.79Z"/><path class="cls-5" d="M.18,72.62c0,.81.6,1.3,1.05,1.82,2.32,2.74,4.7,5.42,7.06,8.12.4-.29.21-.79.39-1.16,0-.14,0-.28-.08-.42a.92.92,0,0,1-.79-.25c-2.37-2.48-4.42-5.26-6.94-7.6-.11-.1-.13-.3-.2-.45Z"/><path class="cls-7" d="M14.93,87.63c-.23,0-.43,0-.52.27l2.8,6.3c.29.19.23.49.25.77.56-.07.43.58.76.75h.3A4.93,4.93,0,0,0,17.87,94Z"/><path class="cls-3" d="M60.08,131c-2.51-4.45-5-9.27-7.25-14.46-.56-1.28-1.1-2.56-1.62-3.82h-.27c.42,1.36.91,2.76,1.47,4.19A63.59,63.59,0,0,0,60.08,131Z"/><path class="cls-12" d="M87,122.66a.46.46,0,0,0-.48-.27c0,.91-.08,1.82-.13,2.76-.44-.83-.42-1.85-1-2.59v0a4.2,4.2,0,0,0,1.66,4Z"/><path class="cls-4" d="M17.46,95c0-.28,0-.58-.25-.77a2.3,2.3,0,0,0-.08,2.16,7.16,7.16,0,0,1,.42,1.94l.63.21c.44.28.59.9,1.16,1l.47-.07C18.65,98.16,17.34,96.94,17.46,95Z"/><path class="cls-3" d="M114.13,108.93l0-.5c-2.35.08-3.63,1.74-5,3.22l.18.26c.88-.72,1.74-1.47,2.64-2.17A2.72,2.72,0,0,1,114.13,108.93Z"/><path class="cls-10" d="M105.78,115a1.57,1.57,0,0,0-.72-1.27c-1.19-.73-1-1.37,0-2.08.12-.09.16-.28.24-.42a1.58,1.58,0,0,0-1.54,1.64v.43c.41.64,1.4.77,1.5,1.69Z"/><path class="cls-3" d="M103.76,113.28v-.43a13.29,13.29,0,0,0-4.56,1.91.48.48,0,0,0,.48.25A21.64,21.64,0,0,1,103.76,113.28Z"/><path class="cls-7" d="M13.65,87.82c.14-.5.87-1.09-.15-1.45-.29-.1-.77-.18-.93.1-.28.45.29.81.34,1.25A.92.92,0,0,0,13.65,87.82Z"/><path class="cls-4" d="M50.94,112.73h.27a6.49,6.49,0,0,1,0-3.55C50.31,110.29,50.64,111.51,50.94,112.73Z"/><path class="cls-7" d="M8.68,81.4c-.18.37,0,.87-.39,1.16.05.39.46.47.64.75H9C9,82.66,9.38,81.94,8.68,81.4Z"/><path class="cls-10" d="M114.41,106.39l.3-1a.91.91,0,0,1-.83-.57,1,1,0,0,0-.79.5,1.22,1.22,0,0,1,1.11,1.11l.22-.07Z"/><path class="cls-13" d="M109.84,115.27a.45.45,0,0,0-.16.59c.37-.26,1,.18,1.21-.54l-.3-.31Z"/><path class="cls-4" d="M51.72,108.67c.65-.08.72-.55.69-1.07l-.41,0C51.91,108,51.81,108.32,51.72,108.67Z"/><path class="cls-13" d="M.18,72.62l.49.06,0-.56H.19C0,72.28-.09,72.45.18,72.62Z"/><path class="cls-5" d="M114.42,106.37l-.22.07c-.08.21-.16.41-.23.62C114.5,107.08,114.35,106.65,114.42,106.37Z"/><path class="cls-5" d="M114.15,86.83c.16.31.22.7.65.78C114.59,87.35,114.71,86.8,114.15,86.83Z"/><path class="cls-4" d="M51.21,109.18c.35,0,.53-.16.51-.52A.85.85,0,0,0,51.21,109.18Z"/><path class="cls-13" d="M111.87,115l-.29,0A.18.18,0,0,0,111.87,115Z"/><path class="cls-5" d="M112.38,85.58l-.26-.26h0l.26.25Z"/><path class="cls-5" d="M110.59,115l.3.31C111,115.06,110.81,115,110.59,115Z"/><path class="cls-12" d="M13.06,16.52h0a11.19,11.19,0,0,1,1.15,0l35.2,0c0-.53-.64-.53-.74-1l-.52-.27h0c-.38-.08-.8-.11-.94-.73,1,.17,1.51-.62,2.22-1-.19-.46-.53-.55-1-.55-3.18,0-6.42.42-9.32-1.56-.8-.55-2-.36-2.72-1.36-.24-.35-.74-.08-.88.34s-.61.74-.83.42c-1.12-1.67-2.63-.66-3.94-.58-1,.07-1.94.49-2.93,0a.79.79,0,0,0-.62,0c-1.7,1-4.29,1-5,1.25a12.4,12.4,0,0,1-5.43.78C15,14.28,13,16.46,13.06,16.52Z"/><path class="cls-9" d="M67.5,10.2c-.64.73-.73,2-2.06,2.05-.85.76-.17,1.67-.25,2.5.2.13.33.27.13.5h0c.31-.4.6-.12.9,0a4.29,4.29,0,0,1,1.48.66,63.91,63.91,0,0,1,9.14,6.25c.37.29.67.8,1.28.66.47-3.38,1.39-6.7,1.65-10.12.06-.8.45-.86,1.1-.56A4.83,4.83,0,0,1,83,13.7l.46-.5c-.4-.92-1.3-1.31-2-1.92A18.47,18.47,0,0,1,78.1,9.72,41.66,41.66,0,0,0,70.68,8a2,2,0,0,0-2.09.71l-.36.5-.52.73Z"/><path class="cls-5" d="M65.32,15.25c.2-.23.07-.37-.13-.5A21.17,21.17,0,0,0,53.6,12.49a23.73,23.73,0,0,0-4.14,1.06c-.71.36-1.21,1.15-2.22,1,.14.62.56.65.94.73.06-.32.28-.44.56-.59a15.1,15.1,0,0,1,10.08-1.34A44.47,44.47,0,0,1,65.32,15.25Z"/><path class="cls-4" d="M63.9,8.41c.4-.12.8-.21,1.19-.36s.7-.37.53-.82-.6-.18-.93-.13c-.8.12-.81.7-.79,1.31Z"/><path class="cls-14" d="M40,5.53a.46.46,0,0,0,.55-.48c0-.47-.31-.63-.72-.67s-.73-.08-.73.4S39.57,5.35,40,5.53Z"/><path class="cls-15" d="M88.27,31.5a9.48,9.48,0,0,0,3.64,0,1.69,1.69,0,0,0,1.29-.71c.34-.61.81-1.32-.43-1.57a1.2,1.2,0,0,1-1-1.14c1.49.41,2.84.54,4-.55a.48.48,0,0,1,.45,0,.46.46,0,0,1,.08.68c-.49.55-1,1.25-.64,1.88a3.4,3.4,0,0,0,2.24,1c.71.16,1.45.29,2-.38.35-.44.77-.22,1.17-.22,1.44,0,2.93.09,3.67-1.6a2.2,2.2,0,0,0-.36-2.78,2.61,2.61,0,0,0-3,0,1.31,1.31,0,0,1-.88.45c.67-1.54,0-2.87-.62-4.18-.2-.44,0-.58.33-.62a12.34,12.34,0,0,0,5.41-1.44c.18.84-.44,1-.52,1.47,1.82.59,2.66.38,3.61-1,.22-.3.46-.29.76-.31,2.38-.14,2.94-.73,2.94-3.06,0-.33,0-.67,0-1l-1.62-2-.22-.21c-1.12-.87-2.23-1.74-3.8-1.17a20.53,20.53,0,0,1-4,1.79c.77-1.41,1.93-2.3,1.49-3.75a15.85,15.85,0,0,0-10,0,4.18,4.18,0,0,0-1.55,1.26L91.5,16.54a.78.78,0,0,1,0,.7l.16.48a2.67,2.67,0,0,0,2.84.28c1.6-.59,3.27-1,5-1.5,0,.24,0,.33,0,.4a1.68,1.68,0,0,1-.27.42,7.54,7.54,0,0,1-5.76,2.4c-.35,0-.75-.29-1,.13-1,1.39-2.57,1.85-4,2.6-.45.23-1.15,0-1.34.51-.42,1.18-1.46,1.7-2.32,2.43-.29.25-.57.52-.36,1a15.29,15.29,0,0,0,1.21,3Zm4.47-6.68c-.58.1-1-1-1.85-.72-.28.08-.75.17-.88-.26s.3-.64.61-.83a4.72,4.72,0,0,1,3.56-.19c.38.07.94-.23,1.06.36s-.38.79-.75,1.07A3.36,3.36,0,0,1,92.74,24.82Z"/><path class="cls-4" d="M110.58,14.33l.22.21a3.63,3.63,0,0,1,1.45-.31c1.51-.24,2.94.45,4.44.28a6.1,6.1,0,0,1,1.73.14,10.27,10.27,0,0,1,1.38.31l-1.65-2.35-.81.16a4.5,4.5,0,0,1-1.92.2l-.16-.05a1.78,1.78,0,0,1-.68-.5c-.3-.36-.78-.17-1.19-.2-.31.72-.76.49-1.22.19-.34.47-.84.32-1.28.27s-.66-.31-.9.11.18.59.38.84A.94.94,0,0,1,110.58,14.33Z"/><path class="cls-5" d="M104.27,11.2c.44,1.45-.72,2.34-1.49,3.75a20.53,20.53,0,0,0,4-1.79C106.12,12.28,105.68,11.12,104.27,11.2Z"/><path class="cls-14" d="M112.17,12.41c.46.3.91.53,1.22-.19-.14-.43-.37-.78-.89-.64S112.16,12.08,112.17,12.41Z"/><path class="cls-14" d="M86.2,3.65c-.29-.18-.57-.41-.92-.13s-.13.53,0,.8C85.79,4.43,86.26,4.43,86.2,3.65Z"/><path class="cls-5" d="M85.54,29.4a15.29,15.29,0,0,1-1.21-3c-.21-.45.07-.72.36-1,.86-.73,1.9-1.25,2.32-2.43.19-.55.89-.28,1.34-.51,1.41-.75,3-1.21,4-2.6.3-.42.7-.12,1-.13a7.54,7.54,0,0,0,5.76-2.4,1.68,1.68,0,0,0,.27-.42c0-.07,0-.16,0-.4-1.69.5-3.36.91-5,1.5a2.67,2.67,0,0,1-2.84-.28c-.3.1-.58.22-.38.62.55,1.12-.08,1.48-1,1.51-1.73,0-3.46,0-5.19,0-1.33,0-.91-1.06-1-1.75-.18-.89.5-.77,1-.78l6.45-.09a.78.78,0,0,0,0-.7l-.45-.08-6.35.05c-.37,0-.89,0-.94-.43-.1-.86-.73-1.52-.79-2.38a4.83,4.83,0,0,0-2.13-1.54c-.65-.3-1-.24-1.1.56-.26,3.42-1.18,6.74-1.65,10.12,0,.31,0,.62-.27.81l7.41,6.08Zm3.76-8.53c-.8,1-2.1.65-2.73,1.46-.49.64-1.08.55-1.69.53-.88,0-.57-.77-.65-1.25s.17-.75.71-.74Z"/><path class="cls-12" d="M83,13.7c.06.86.69,1.52.79,2.38,0,.46.57.43.94.43l6.35-.05s0-.08,0-.12c.79-2.55.75-2.56-1.86-2.38-1.54.12-3.1,0-4.65,0-.53,0-1-.15-1.13-.78Z"/><path class="cls-13" d="M78.1,9.72a18.47,18.47,0,0,0,3.34,1.56A4,4,0,0,0,78.1,9.72Z"/><path class="cls-2" d="M67.5,10.2l.21-.27-.33.09Z"/><path class="cls-2" d="M68.23,9.2l.36-.5C68.3,8.74,68.23,9,68.23,9.2Z"/><path class="cls-6" d="M85.23,29.73l-7.41-6.08a4.5,4.5,0,0,1-.64-.38C74.88,21.4,72.49,19.67,70,18a28.57,28.57,0,0,1-3.84-2.38,1.35,1.35,0,0,1-.89-.41h0a44.47,44.47,0,0,0-6.5-1.92,15.1,15.1,0,0,0-10.08,1.34c-.28.15-.5.27-.56.59h0l.51,0c.57.14,1.09.34,1.28,1,.31.16.25.48.32.75.52.18.53.56.17.83-.95.71-1.69,1.79-3,1.87l-.42.39c-.36.56.11,1.4-.62,1.84-.44.61-.87.5-1.29,0l-.27-.5c-.57-.54-.89-1.07.1-1.51l0,0v-.29c-1.05-1-1.39-1-2.17.08-.19.26-.26.63-.69.63s-1.14-.35-1.27.53A12.22,12.22,0,0,1,41,22.15c0,.46.3,1.05-.44,1.24a1.11,1.11,0,0,1-.79.52c-1.23.63-1.3.87-.56,2a5.61,5.61,0,0,1,.29.54l.75-.08c.06-.47.14-.95.74-1a1,1,0,0,1,1.09,1c.27.3.19.66.16,1,0,.76-.54,1.1-1.2,1.29-.24,1.33.54,2.45.78,3.68,0,.25,0,.67.5.64-.32-4.8,2.13-8.12,5.76-10.81a1.53,1.53,0,0,1,1.06-.32c.5.18.88-.34,1.37-.26,1-.5,1.48-2.23,2.74-1.76,2.61,1,5.35.45,8,1.07A41.61,41.61,0,0,1,69,23.76,77.66,77.66,0,0,1,82.12,32c2.41,1.74,5.25,2.89,7.76,4.5a24,24,0,0,0,10.89,3.32c.89.08,1.07.43,1,1.19a7.93,7.93,0,0,1-1.12,2.93c.88.42,1.23-.43,1.75-.79,1.6-1.12,2.66-2.81,4.14-4.07,0-.36.43-.65.15-1.1-1.38.13-2.78.61-4.19.12-4.06-.21-7.59-1.87-10.94-4A12.23,12.23,0,0,1,88.25,32,13.79,13.79,0,0,1,85.23,29.73Z"/><path class="cls-13" d="M106.52,39.07c-1.48,1.26-2.54,3-4.14,4.07-.52.36-.87,1.21-1.75.79-.78.82-1.81,1.46-2.46,2.29-1.27,1.64-3.07,1.92-4.78,2.52-.3.11-.68,0-.87.38,0,.2,0,.41-.07.61a1.37,1.37,0,0,1,1.36.92c.31.59,1.07,1,1.43.4.75-1.17,1.88-.88,2.83-1a11.3,11.3,0,0,0,7.65-3.4,2.38,2.38,0,0,1,1.76-.85c.27,0,.51.09.56-.27s-.15-.51-.47-.64a8,8,0,0,0-2.63-.22c-.27,0-.64.14-.78-.21s.25-.49.39-.73a1.68,1.68,0,0,1,2.08-.76,2.8,2.8,0,0,0,3.28-1.2,7.9,7.9,0,0,1,2.24-1.6,1,1,0,0,1,1.23.36c.44.5.88.53,1-.26a.79.79,0,0,1,.79-.67,28,28,0,0,0,6.32-1.52c-.13-1,.39-2,.22-3a13.16,13.16,0,0,1-2.91.78,13.28,13.28,0,0,0-4.64,1c-.79.36-1.14,1.05-1.81,1.47a9,9,0,0,1-4.21,1.43C107.38,39.83,106.88,39.78,106.52,39.07Z"/><path class="cls-4" d="M121.56,30.49c0-.17,0-.33,0-.49A11,11,0,0,0,120,30a94.72,94.72,0,0,1-13.47.74c-.44,0-.94.16-1.3-.27a5.45,5.45,0,0,1-6.69,1.93,9.32,9.32,0,0,1-2.91-1.13c-.43-.35-.61,0-.87.32-.65.85-1.19,1.86-2.44,2,0,.67.59.75,1,1a34.94,34.94,0,0,0,9.11,3.32c1.28,0,2.27-1.16,3.67-.8,1.18.3,1.5-.62,1.66-1.55.07-.41,0-.84,0-1.26.11-.84.39-1.48,1.43-1.6a33.54,33.54,0,0,0,4.57-.77A37.56,37.56,0,0,1,121.56,30.49Z"/><path class="cls-3" d="M121.56,30.49a37.56,37.56,0,0,0-7.73,1.4,33.54,33.54,0,0,1-4.57.77c-1,.12-1.32.76-1.43,1.6,0,.42,0,.85,0,1.26-.16.93-.48,1.85-1.66,1.55-1.4-.36-2.39.82-3.67.8a1.62,1.62,0,0,1,0,.22c1.41.49,2.81,0,4.19-.12.28.45-.17.74-.15,1.1.36.71.86.76,1.66.7a9,9,0,0,0,4.21-1.43c.67-.42,1-1.11,1.81-1.47a13.28,13.28,0,0,1,4.64-1,13.16,13.16,0,0,0,2.91-.78C121.68,33.53,122,32,121.56,30.49Z"/><path class="cls-10" d="M112.31,26.46c3.25-.22,6.5.38,9.75.08a1.69,1.69,0,0,0,1.48-.81c.31-.54.79-1.13.48-1.75s-1-.3-1.51-.29c-4,0-8,.11-12,.12-2.36,0-4.73-.09-7.1-.12a5.9,5.9,0,0,0-1.25.13.51.51,0,0,0-.41.67c.07.34.3.31.58.3a3.81,3.81,0,0,1,3.27,1.31,1.34,1.34,0,0,0,1.17.36Z"/><path class="cls-12" d="M105.26,30.47c.36.43.86.27,1.3.27A94.72,94.72,0,0,0,120,30a11,11,0,0,1,1.52,0,3.14,3.14,0,0,0,.2-1.49c0-.75-.32-1.1-1.15-1.13-4-.11-8-.22-12-.16-.21,0-.42,0-.63,0-1.09.11-2.18.14-2.06,1.76C106,29.47,105.49,30,105.26,30.47Z"/><path class="cls-10" d="M123.62,20.07a.68.68,0,0,0,.54-.14.52.52,0,0,0,.1-.4L122,17.35c-3.82.11-6.54.17-7.46.12a1.16,1.16,0,0,0-.91.25,1.46,1.46,0,0,0-.24,1,1.21,1.21,0,0,0,.24.94,1.17,1.17,0,0,0,.89.22C116,19.79,123,20,123.62,20.07Z"/><path class="cls-11" d="M109.92,22.85c4.13,0,8.25,0,12.37,0,.71,0,.87-.32.8-.94s.18-1.2-.82-1.17c-3,.08-6,0-9,.17-1.29.06-2.07,1.41-3.38,1.61Z"/><path class="cls-12" d="M120.29,15.21a8.32,8.32,0,0,0-1.87-.56,4.85,4.85,0,0,0-1.73-.14c-1.5.17-2.93-.52-4.44-.28a3.63,3.63,0,0,0-1.45.31l1.62,2h8.34l.9-.26Z"/><path class="cls-7" d="M102.48,38.09a1.62,1.62,0,0,0,0-.22,34.94,34.94,0,0,1-9.11-3.32c-.42-.23-1-.31-1-1-.43-.07-.54.36-.81.52C94.89,36.22,98.42,37.88,102.48,38.09Z"/><path class="cls-3" d="M85.23,29.73a13.79,13.79,0,0,0,3,2.3l0-.53-2.73-2.1Z"/><path class="cls-10" d="M47,20.09l.42-.39c0-.34.1-.58.47-.62,1-.1,1.41-.77,1.65-1.63q-12.78-.11-25.73-.09-6,0-11.87.06L9.52,19.87l32.06,0,.5-.07c.8-1.62,1.84-1.92,3-.84.34.32.37.56-.18.63,0,.09,0,.19,0,.29C45.59,19.94,46.33,19.65,47,20.09Z"/><path class="cls-10" d="M3.11,26.52l35.39-.11c0-.9-.42-1.79,0-2.7-3.15.05-6.32.08-9.5.11l-9.6.05c-3.8,0-8.36,0-13.55,0Z"/><path class="cls-11" d="M40.46,21,8.64,20.89,6.85,22.82H40.53Z"/><path class="cls-12" d="M44.88,19.57c.55-.07.52-.31.18-.63-1.14-1.08-2.18-.78-3,.84l-.06.5c.43,0,.5-.37.69-.63C43.49,18.6,43.83,18.59,44.88,19.57Z"/><path class="cls-13" d="M38.45,23.71c-.37.91.07,1.8,0,2.7.35-.06.65.44,1,.07a5.61,5.61,0,0,0-.29-.54c-.74-1.16-.67-1.4.56-2C39.4,23.47,38.92,23.66,38.45,23.71Z"/><path class="cls-4" d="M49.53,17.45c-.24.86-.66,1.53-1.65,1.63-.37,0-.49.28-.47.62,1.34-.08,2.08-1.16,3-1.87.36-.27.35-.65-.17-.83Z"/><path class="cls-12" d="M40.46,21c0,.62,0,1.23.07,1.85,0,.19,0,.39,0,.58.74-.19.48-.78.44-1.24a12.22,12.22,0,0,0-.27-1.34Z"/><path class="cls-4" d="M50,16.25c-.19-.64-.71-.84-1.28-1v.25c.1.44.77.44.74,1A.42.42,0,0,0,50,16.25Z"/><path class="cls-3" d="M.73,33.78q0,6.22,0,12.44C2,46.19,2.86,45,4.32,45.09c-.81,1.09-1.55,2-2.25,3-.24.33-.53.77-.25,1.17s.83.23,1.27.07a20.24,20.24,0,0,0,2.12-.83,1,1,0,0,1,1.39.37A2.64,2.64,0,0,0,8.75,50a8.1,8.1,0,0,1,5.31,2.56,2.64,2.64,0,0,1,.87,1.77c.1,2.23.91,2.85,3.07,2.38.62-.14,1.41-.38,1.82.06.81.86,1.69.57,2.59.49.5,0,1.13-.52,1.35.31a1,1,0,0,1-.89,1.29c-.25.06-.53.08-.54.41a.51.51,0,0,0,.42.56c1.33.21,1.38,1.13,1.31,2.18s.35,1.83,1.42,1.9a14.12,14.12,0,0,0,3.78-.12,16.51,16.51,0,0,0,9.92-6.34c1.58-2,3.62-2.4,5.78-2.88.31-.07.74.09.9-.3.49-1.16,1.69-1.61,2.46-2.49a8.87,8.87,0,0,1,2.52-2.29c1-.51.72-2.34,2.3-2.22.4-1.36,1.87-1.63,2.64-2.61-.23-.77.61-1.28.51-2-2.76.21-4.9-1.36-7.18-2.51-2-1-3.44-2.82-5.25-4.11,0,.52-.46.72-.77,1-.93,1-2.4,1.26-3.31,2.3.17.31.48.62,0,1s-.9,0-1.29-.27c-.14.16-.25.4-.42.45a8,8,0,0,0-4.72,4.09c-.29.52-.57,1-.83,1.57a3.47,3.47,0,0,1-1.79,1.89c-2.2.64-4,2.23-6.49,2.32a29.48,29.48,0,0,1-6.37-.34c-.55-.1-.89-.36-.94-.86-.14-1.53-1-2-2.4-1.73-.49.08-.94-.34-1.48-.14s-.46-.23-.46-.52c0-1.36-.86-1.58-1.89-1.27s-1.54-.06-1.75-1a3.11,3.11,0,0,0-2.2-2.37,3,3,0,0,1-2-4.2c.79-2.48.13-3.67-2.3-4.36C1.81,33.45,1.31,33.87.73,33.78Z"/><path class="cls-7" d="M.7,72.12l0,.56c.07.15.09.35.2.45,2.52,2.34,4.57,5.12,6.94,7.6A.92.92,0,0,0,8.6,81a45,45,0,0,0-.82-5.55A6.33,6.33,0,0,1,7.13,73c0-.58.07-1.21.92-1.14a3.23,3.23,0,0,0-.41-1.94C6.75,68.09,5.91,66.26,5,64.36c.74-.14,1.49-.09,1.77-.88l.07-.56c0-.26-.16-.57.19-.75V61c-.42-.22-.68-.58-.48-1s.72-.5,1.19-.51,1-.15,1.1.53c.67-.22,1,.33,1.35.68.82.77,1.62,1.55,2.43,2.33.42-.46-.08-.65-.28-.9-.35-.44-.36-.74.24-.89a.39.39,0,0,0,0-.24c-.47-.1-1.24.36-1.24-.65-.44.13-.76,0-.74-.48s.45-.71,1-.62c1.15-.45,1.3-.29,1.28,1.36.55.18.61.74.88,1.13s.23.71.58.75c.55.07.14-.69.57-.77.06-.37-.47-.79-.09-1s.69.3,1,.56c.9.83,1.24,2.05,2,3a.82.82,0,0,1-.25,1.29l-.07.3A33.51,33.51,0,0,1,14.18,72a1.15,1.15,0,0,0-.23.94c.06.24.24.51.18.72-.51,1.82.61,3.14,1.28,4.64a8,8,0,0,1,.46,5.89,16.36,16.36,0,0,0-.15,2.71c.69.25.94.87,1.23,1.46a23.52,23.52,0,0,0,2.51,4.35l.27-.27c-.59-1.55-1.8-2.81-2.19-4.47-.57-.63,0-.58.37-.59,1.14,0,2.28,0,3.42,0s2.92-1.68,2.63-2.76c-.37-1.34.39-2,1.14-2.7a16.2,16.2,0,0,1,1.37-1.11c.59-.45.6,0,.61.42l.44.15c.19-.33.51-.33.84-.33a1.22,1.22,0,0,1,1.07-1.37c1.73-.13,1.94-1.26,2-2.64s1.61-3.1,2.64-3S36,73.82,37,73.89a2.13,2.13,0,0,0,2.36-1.66c1-2.94,1-2.93,4-2.89a1.62,1.62,0,0,0,1.33-1.68,1.49,1.49,0,0,1,.93-1.25C47.72,65.23,49.82,64,52.37,64c.68,0,.78-.51.88-1a6.33,6.33,0,0,1-.58-4.62c.19-.89.94-1.39,1.11-2.22a1.64,1.64,0,0,0-1.35,1.32,2.71,2.71,0,0,1-1.79,1.8c-.79.28-1.82.57-2.19,1.18a12.15,12.15,0,0,1-3.17,3.22c-1.48,1.18-2.63,3.07-5,2.67,0,0-.08,0-.12,0-1.8.6-3.61,1.14-5.39,1.79-2.18.8-4.32,1.63-6.73,1.46A3.16,3.16,0,0,1,25.28,68c-.24-.44-.41-1-1-1.12a1.44,1.44,0,0,1-1.18-1.46c0-1.39-.9-1.91-2-2.3-.9-.33-1.65-1-2.71-.92-.15,0-.39-.19-.5-.35a31.48,31.48,0,0,1-1.81-2.73,3.46,3.46,0,0,0-3.77-2,8,8,0,0,1-1.9,0c-.37-.05-1,0-1-.54s.51-.51.85-.64c.59-.22,1.2-.39,1.8-.59a.58.58,0,0,0,.46-.67c-.07-.46-.44-.69-.83-.87-.24-.12-.48-.22-.62.13s-.18.68-.55.53-.29-.61-.17-.89c.4-1-.48-1.05-.92-1.36s-.85,0-1,.5c-.07.21-.3.4-.49.33a3.86,3.86,0,0,0-3.14.49c-.27.11-.48,0-.63-.28a.76.76,0,0,0-.87-.39c-.89.33-1.74-.09-2.61,0Zm21.7,8a.62.62,0,0,1-.56-.69.55.55,0,0,1,.6-.62.58.58,0,0,1,.57.67A.61.61,0,0,1,22.4,80.11ZM4.83,63a1,1,0,0,1,.77-.82c.24-.06.38.14.39.37,0,.54-.4.68-.79.82S4.86,63.27,4.83,63Z"/><path class="cls-11" d="M93.09,63.49a7.91,7.91,0,0,1-2.87.26,1.54,1.54,0,0,0-1.65.71c-.86,1.55-2.19,2.84-2.83,4.43s-1.62,2.89-2.15,4.46c-.07.2-.12.4-.35.49,0,.2,0,.42-.28.37l.08,0,.06.07a2.67,2.67,0,0,1-1.35,2.28,4.41,4.41,0,0,0-2,2.4c-2.1,4.88-3.62,10-5.32,15-.86,2.57-1.22,5.25-2.06,7.82-.3.92.52.87,1,1s.79-.32,1.21-.06c0,.31-.27.4-.5.5a.56.56,0,0,0-.42.67.67.67,0,0,0,.69.6c.26,0,.69-.19.73.24s-.33.58-.67.64a5.5,5.5,0,0,1-2,.25c-.79-.16-.83.27-.94.76a10.89,10.89,0,0,0-.24,1.5c0,.43-.35,1,.09,1.27s.74-.41,1.09-.68v-.5c-.17-.28-.5-.65.11-.73a9.55,9.55,0,0,0,2-.22.31.31,0,0,1,.4.36c-.35,1.06.42.62.8.58.56,0,1-.84,1.69-.21,0,0,.37-.11.41-.23.37-1,1.35-1.68,1.83-2.69-.65-.3-.93.37-1.44.38a1.66,1.66,0,0,1-1.64-.73c-.28-.46-.32-.85.38-.8s1.16-.35,2,.06c1.2.62,1.75-.9,2.11-1.62a13.71,13.71,0,0,1,4.59-5.47c1.14-.76,1.55-2.33,3.05-2.74.23-.07.31-.65.46-1a1.77,1.77,0,0,1,1.12-1.13,1.62,1.62,0,0,0,1.42-1.54c0-.34.2-.58.58-.48.94.26,1.07-.4,1.18-1a3.36,3.36,0,0,1,2.23-2.54c1.38-.56,1.52-.7,1-2.12a.61.61,0,0,1-.07-.34c.36-1.53.07-1.56-1.17-2.28a4,4,0,0,1-1.79-2.75,4.06,4.06,0,0,0-.41-1.9c-.37-.66-.64-1.23.49-1.43.4-.07.84-.24.74-.94-.16-1.12.45-1.56,1.58-1.32a3.28,3.28,0,0,0,3.33-1.71.74.74,0,0,1,.67-.47,2.54,2.54,0,0,0,2.12-1.69c.23-.6.54-1.21,1.42-1.19a.51.51,0,0,0,.43-.82c-.36-.63-.76-1.34-1.55-1.36a1.72,1.72,0,0,1-1.67-1.28,6.62,6.62,0,0,0-1.89-.6A36.2,36.2,0,0,0,93.09,63.49ZM77,100.53c-.49-.06-.87-.25-.91-.81,0-.28.24-.6.4-.39.43.54,1.39-.14,1.5.64C78,100.35,77.41,100.49,77,100.53Zm5.31-6.06a4.65,4.65,0,0,1,1.33.74c.18.21-.3.44-.58.47A1,1,0,0,1,82,94.94C81.9,94.71,82,94.55,82.29,94.47Z"/><path class="cls-4" d="M39.78,39.41c.91-1,2.38-1.27,3.31-2.3.31-.33.74-.53.77-1a1.85,1.85,0,0,0-.78-.74c-.76-.09-1-.69-1.22-1.27-.37-.93-.7-1.86-1-2.79-1-.1-1.9.33-2.88.26-2.06-.14-4.15-.2-6.18-.15s-4.37,0-6.39,1a.62.62,0,0,1-.69-.09,1.91,1.91,0,0,0-2.43.13A1.69,1.69,0,0,1,20,32.17a3.75,3.75,0,0,0-2.52-.94c-2-.1-3.88.45-5.8.24a19.86,19.86,0,0,0-4.75,0,16.36,16.36,0,0,1-1.73.24,22.47,22.47,0,0,1-4.41-.48c0,.85,0,1.7,0,2.54.58.09,1.08-.33,1.73-.15,2.43.69,3.09,1.88,2.3,4.36a3,3,0,0,0,2,4.2A3.11,3.11,0,0,1,9,44.56c.21.94.71,1.32,1.75,1s1.88-.09,1.89,1.27c0,.29,0,.69.46.52s1,.22,1.48.14c1.4-.24,2.26.2,2.4,1.73.05.5.39.76.94.86a29.48,29.48,0,0,0,6.37.34c2.5-.09,4.29-1.68,6.49-2.32a3.47,3.47,0,0,0,1.79-1.89c.26-.53.54-1.05.83-1.57a8,8,0,0,1,4.72-4.09c.17,0,.28-.29.42-.45C38.62,39.28,39.24,39.43,39.78,39.41Zm-15.9,3.48a.73.73,0,0,1,.78-.67.65.65,0,0,1,.67.75.6.6,0,0,1-.72.67A.8.8,0,0,1,23.88,42.89Z"/><path class="cls-9" d="M23.52,121.72c5.58.12,11.15,0,16.73.08,1.69,0,1.76-.12,1.63-1.84-.35-4.68-.13-9.37,0-14.06,0-.77.43-1.8-.28-2.26a4.73,4.73,0,0,0-3-.22,1.53,1.53,0,0,0-.71.47c-1.3,1.27-2.13,1.38-3.66.39-.8-.52-1.2-.82-2.34,0a7.93,7.93,0,0,1-4.61,1.21,2.55,2.55,0,0,0-1.1,0A5.64,5.64,0,0,1,19.88,104a2.19,2.19,0,0,0-1.66-.67c-2.54,0-5.07,0-7.61,0a1.33,1.33,0,0,0-1,.26,1.29,1.29,0,0,0-.27,1c.05,1,.05,3.75,0,7.56L19,121.71C20.92,121.67,22.5,121.69,23.52,121.72Zm-5.05-3.17H15.8l-.51-.45H37.41v.43H22Zm7.23-11.74h2.16c2.91,0,5.83,0,8.74,0,.31,0,.82-.14.84.3s-.5.43-.85.47a8.63,8.63,0,0,1-.88,0c-4,0-8,0-12,0-2.91,0-5.83,0-8.74,0-.43,0-1.13.11-1.15-.45s.66-.35,1-.37A104.1,104.1,0,0,1,25.7,106.81Zm.06,3.71v0c-3.55,0-7.1,0-10.65,0-.51,0-1.49.32-1.48-.42s1-.37,1.55-.37c7.06,0,14.12,0,21.18,0a8.44,8.44,0,0,1,1,0c.25,0,.56.07.53.4s-.36.3-.6.32-.59,0-.89,0ZM38,115.68c-.2.49-.64.34-1,.34q-11.28.06-22.56.07c-.38,0-1,.18-1-.42s.61-.41,1-.45a1.61,1.61,0,0,1,.38,0l21.93.13C37.15,115.35,37.66,115.18,38,115.68ZM25.7,113.39v.08c-1.4,0-2.79,0-4.19,0l-6.84-.07c-.31,0-.78.08-.75-.42s.44-.29.71-.32a4.34,4.34,0,0,1,.51,0h21.3c.29,0,.59,0,.88,0s.36.11.34.29a.49.49,0,0,1-.31.33,7.07,7.07,0,0,1-1.13.07C32.71,113.4,29.2,113.39,25.7,113.39ZM39,105.6a1.39,1.39,0,0,1,1.32-1.49c.85,0,1.22.67,1.24,1.44s-.66,1.22-1.41,1.28S39.06,106.38,39,105.6Zm-.28,14c0-.81.35-1.06,1-1.08a1.25,1.25,0,0,1,1.46,1.2c0,.71-.59,1-1.2,1C39.15,120.77,38.82,120.21,38.73,119.57ZM12.16,105.3c0,.74-.28,1.16-1,1.12A1.14,1.14,0,0,1,10,105.2c0-.77.54-1.06,1.16-1.06S12.09,104.76,12.16,105.3Z"/><path class="cls-11" d="M61.86,80c-.74-.48-2-.53-2-1.72.1-1.35-.78-2.4-.83-3.66a1.38,1.38,0,0,0-.91-1.25c-.45-.2-.75-.15-.86.48-.06.38-.46.07-.52-.12-.14-.46-1.19-.64-.58-1.26.79-.82.58-1.18-.4-1.36-.58-.11-.51-.58-.65-1a1.46,1.46,0,0,0-2.1-1,.52.52,0,0,1-.66-.15,5.44,5.44,0,0,0-2-1.42c.64-.53,1.27-.19,1.8-.42-1.53-1.14-4.7-1.22-6.09-.19a1.84,1.84,0,0,0-.17,3c1.67,1.49,3.68,2.54,5.23,4.17.23.24.66.35.62.74s-.53.39-.81.44a2.52,2.52,0,0,0-1.48.9c-.44.51-1,1,.4,1.22-.8.58-1.57,1-1.49,1.93,0,.1-.2.3-.32.32a.36.36,0,0,1-.38-.41c0-.49.07-1,.11-1.47-1.27.66-1.89,3.28-1,4.36a5.3,5.3,0,0,1-.34,2.65c-.56.32-.14.7,0,1,1,2.62,2.22,5.2,3.18,7.85,1.22,3.36,2.87,6.58,3.33,10.19a4.87,4.87,0,0,0,.46,1.31c.34.8.88.84,1.5.33.27-.21.33-.8.84-.55s.1.74.13,1.08c.36.4.86-.59,1,.09.12.5-.37.84-.89.86-.68,0-1.46.34-1.49.87a3.48,3.48,0,0,0,.77,2.09c.35.47,1,.28,1.46-.15.22-.2.4-.49.73-.24a.56.56,0,0,1,.12.7c-.14.34-.42.71.11,1a1.4,1.4,0,0,0,1.53-.32c.41-.34,0-.67-.12-1a4.45,4.45,0,0,0-.93-1.18c-.16-.18-.34-.44-.11-.67s.46-.06.66.1c.67.51,1.33,1,2,0a5.79,5.79,0,0,1-1-.26.6.6,0,0,1-.34-.75c.19-.43.45-.16.71,0,.78.42,1-.38,1.5-.7-.38-.47-1.27-.43-1.22-1.24a2.38,2.38,0,0,1,0-2A22.81,22.81,0,0,1,60.59,98c0-1.41-.06-2.85,1.24-3.84a1.05,1.05,0,0,1,.59-.77c.88-.55,1.16-1.22.24-2a.76.76,0,0,1-.33-.87c.62-1.75-.1-3.5.07-5.24a.39.39,0,0,1-.1-.54l-.08-.68Zm-4.37,22.51a4,4,0,0,1-.74-.18c-.36-.15-.79-.67-.57-.8.63-.4,1.46.21,2.19-.2.16-.09.28.15.24.32a.67.67,0,0,1-.23.42A7.36,7.36,0,0,1,57.49,102.55Zm.58-10.73c.49-.32.63-1.15,1.38-1,.19,0,.19.37.09.56A1,1,0,0,1,58.07,91.82ZM52.33,77.56c-.6.46-1,.86-1.62.84-.14,0-.21-.26-.08-.41A1.34,1.34,0,0,1,52.33,77.56Z"/><path class="cls-13" d="M.73,52.82c.87-.06,1.72.36,2.61,0a.76.76,0,0,1,.87.39c.15.24.36.39.63.28A3.86,3.86,0,0,1,8,53c.19.07.42-.12.49-.33.17-.54.52-.85,1-.5s1.32.41.92,1.36c-.12.28-.23.74.17.89s.45-.26.55-.53.38-.25.62-.13c.39.18.76.41.83.87a.58.58,0,0,1-.46.67c-.6.2-1.21.37-1.8.59-.34.13-.88.23-.85.64s.65.49,1,.54a8,8,0,0,0,1.9,0,3.46,3.46,0,0,1,3.77,2A31.48,31.48,0,0,0,18,61.81c.11.16.35.37.5.35,1.06-.13,1.81.59,2.71.92,1.07.39,1.95.91,2,2.3a1.44,1.44,0,0,0,1.18,1.46c.54.12.71.68,1,1.12a3.16,3.16,0,0,0,2.79,1.64c2.41.17,4.55-.66,6.73-1.46,1.78-.65,3.59-1.19,5.39-1.79,0,0,.08,0,.12,0,2.34.4,3.49-1.49,5-2.67a12.15,12.15,0,0,0,3.17-3.22c.37-.61,1.4-.9,2.19-1.18a2.71,2.71,0,0,0,1.79-1.8,1.64,1.64,0,0,1,1.35-1.32l.68-.5c2.1-.29,3.94-1.6,6.13-1.54.44-.18.82-.31.6-1-.3-.93.1-2.1-1.32-2.54-2.49-.77-3.35-2-3.38-4.57l-.25-1.29h-.46c-.77,1-2.24,1.25-2.64,2.61-1.58-.12-1.27,1.71-2.3,2.22a8.87,8.87,0,0,0-2.52,2.29c-.77.88-2,1.33-2.46,2.49-.16.39-.59.23-.9.3-2.16.48-4.2.85-5.78,2.88a16.51,16.51,0,0,1-9.92,6.34,14.12,14.12,0,0,1-3.78.12c-1.07-.07-1.49-.89-1.42-1.9s0-2-1.31-2.18a.51.51,0,0,1-.42-.56c0-.33.29-.35.54-.41a1,1,0,0,0,.89-1.29c-.22-.83-.85-.36-1.35-.31-.9.08-1.78.37-2.59-.49-.41-.44-1.2-.2-1.82-.06-2.16.47-3-.15-3.07-2.38a2.64,2.64,0,0,0-.87-1.77A8.1,8.1,0,0,0,8.75,50,2.64,2.64,0,0,1,6.6,48.89a1,1,0,0,0-1.39-.37,20.24,20.24,0,0,1-2.12.83c-.44.16-.94.4-1.27-.07s0-.84.25-1.17c.7-1,1.44-1.93,2.25-3C2.86,45,2,46.19.74,46.22Q.74,49.52.73,52.82ZM36.5,63a1.58,1.58,0,0,1,.35-.37c.16-.08.35,0,.3.2a.68.68,0,0,1-.3.33C36.8,63.15,36.67,63,36.5,63Zm-1.68-.05.21-.09c0,.07.1.15.08.2s-.13.07-.2.1Z"/><path class="cls-14" d="M56.24,44.7,56.49,46C58,49,61.28,49.66,64,49.44a8.13,8.13,0,0,0,2.39-1c0-.14.07-.28.1-.42.25-1.11.45-2.23.76-3.31s.24-2.52,1-3.6a.3.3,0,0,1,.06-.22,10.57,10.57,0,0,1,1.41-5c.85,3.68.47,7.39.67,11.07l.16,1.31a2.24,2.24,0,0,1,1.18.41C74,49.93,76.44,50,78.94,49.74c1.7-.15,2.64-1.43,3.6-2.58,1.25-1.51,1.21-1.59-.23-3a2.48,2.48,0,0,1-.86-1.89c.11-2-.92-3.41-2.28-4.7-.32-.3-.94-.54-.62-1.21l-5.26-2.79-1.5-.22a5.78,5.78,0,0,1-2.55.16l-4.06,0-3.34,1.74a2,2,0,0,0-1.27,1.59c-.25,2.51-1.92,4.18-3.49,5.91C56.91,43.46,56.21,43.92,56.24,44.7ZM66,40.65v0a6.08,6.08,0,0,1,.59,5c-.22.92-.52,2.07-1.71,2.33a4,4,0,0,1-4.9-4.06,6.84,6.84,0,0,1,1.67-4.64c.86-1.66,2.17-1.79,3.31-.32.3.4.52.86.78,1.29A.49.49,0,0,1,66,40.65Zm9.64-2.31v.08H77a3.27,3.27,0,0,1,3.24,2.26c.8,1.74.15,3.19-.41,4.69A3.49,3.49,0,0,1,74.33,47a16.12,16.12,0,0,1-1.67-1.54,5.19,5.19,0,0,1-.74-5.72,2.31,2.31,0,0,1,2.53-1.4C74.82,38.37,75.21,38.34,75.59,38.34Z"/><path class="cls-8" d="M43.33,69.34c-3,0-3,0-4,2.89A2.13,2.13,0,0,1,37,73.89c-1-.07-1.9.17-2.88.09s-2.59,1.75-2.64,3-.27,2.51-2,2.64A1.22,1.22,0,0,0,28.36,81c1,3,3.43,4.79,5.84,6.14s4.75,3.12,7.4,4.17a2.92,2.92,0,0,0,1.18.41l.1-.1c-.19-.48-1-.87-.63-1.36s1,.12,1.45.37a3.28,3.28,0,0,0,1.41.47c0-.09.09-.19.07-.22-1.7-1.89-2.6-4.56-5.29-5.51-.83-.29-.71-1.28-1.23-1.84-1.5-1.6-2.61-3.54-4.29-5-.27-.24-.63-.56-.29-1s.61-.09.92.07c.86.45,1.71.91,2.59,1.33.53.26,1.23.53,1.62,0s-.39-.8-.66-1.18-.49-.37-.41-.74c.38-.25.72,0,1.07.09,1,.36,2,.67,2.54-.68.18-.43.59-.43,1-.18s.44.41.69.56c.52.32,1.08.6,1.53-.11s.13-1.13-.39-1.53c-.35-.28-.74-.51-1.24-.84a2.25,2.25,0,0,1,2.12.1c.52.21,1.13.45,1.55,0s.18-1.09,0-1.67C46.42,71,44.64,70.4,43.33,69.34Zm-11.41,12c0-.27.07-.47.31-.52a1.34,1.34,0,0,1,1.38.42c.62.74,1.15,1.56,1.78,2.29s1.18,1.92,2.21,2c1.73.08,2.82,1.2,4.12,2,.33.21.93.45.72.89s-.81.19-1.21,0c-1.73-.76-3.47-1.54-5.16-2.36s-3-2.69-4-4.41A1.16,1.16,0,0,1,31.92,81.31Z"/><path class="cls-8" d="M27.52,81.33l-.44-.15a9.14,9.14,0,0,0-1.77,1.39c-.8,1-.4,2,.33,3a7.19,7.19,0,0,1,2.73,4.54c-.87-1.43-1.87-2.75-2.8-4.13a1.33,1.33,0,0,0-1.74.68c-.4.6-.62,1.35-1.27,1.79l-.47.31c0,1.77,1.39,2.6,2.66,3.11a11.71,11.71,0,0,1,6.16,5.67c1.64.65,2.09,2.46,3.68,3.38-.89.27-1.14-.21-1.44-.52-.77-.76-1.5-1.56-2.25-2.35,0,2.31,2.37,5.48,4.58,6.08.86.24,1.36-.26,1.77-.89s-.29-.9-.64-1.23c-.69-.66-1.39-1.31-2.2-2.06a2.8,2.8,0,0,1,2.47,1c.48.45.89,1.06,1.68,1,.37,0,.82.05.95-.43a1,1,0,0,0-.38-1.12c-.45-.34-1.08-.49-1.32-1.08a2,2,0,0,1,.23-.19c.41-.19,1,.53,1.22-.11s-.4-.79-.73-1.08a2.41,2.41,0,0,1-1-1.45,7.57,7.57,0,0,0-2.9-5C31.41,88.7,28.46,85.72,27.52,81.33Zm2.13,10a4.24,4.24,0,0,1,1.53,1.85c-.94-.46-1.52-.9-1.57-1.81l-.09-.13Z"/><path class="cls-9" d="M62.65,84c1.88,2.07,4.24.83,5.28-1.14a56.68,56.68,0,0,0,4.63-11.62c.34-1.26.83-2.47,1.24-3.71.08-.23.3-.49.12-.71s-.57-.11-.83,0a17.91,17.91,0,0,1-2.85,1c-.43.08-.4.48-.54.78-1.27,2.82-1.83,5.87-2.76,8.81-.08.24-.15.48-.22.72-.17.56-.25,1.36-1,1.31s-.54-.91-.62-1.45a77.21,77.21,0,0,1-.22-8.47A3.91,3.91,0,0,0,62,65.9c-.77-.16-.55.48-.56.81a50.7,50.7,0,0,0,.29,7.08c.19,2,.4,3.94.6,5.91A27.26,27.26,0,0,1,62.65,84Z"/><path class="cls-8" d="M112.39,85.56l-.26-.25c-.92-.39-1.43-.92-.37-1.69.42-.31.27-.54.13-.84a.34.34,0,0,1,0-.2l-.29-.31L111.1,82l-.63-.48-.1,0c-.28-.07-.58-.12-.54-.52h0l-1-.06a5.23,5.23,0,0,1-3.48-.9c-.61-.38-1-.76-.77-1.64s-1.73-2.77-3-3c-.38,0-.76,0-1.14-.06-1.58-.2-2.54,1-3.68,1.72-.48.3-.57.94.13,1.33a4.47,4.47,0,0,1,1,.7c1.12,1.18,2.31,1.48,3.71.49a.66.66,0,0,1,.94,0c0,.1-.07.24-.15.31-.59.56-1.3,1.17-.64,2s1.65.69,2.55.29a7.12,7.12,0,0,0,1.06-.69,1.1,1.1,0,0,1,1.56.07c-.73.72-1.49,1.43-2.21,2.16-2.54,2.54-3.45,5.84-4.44,9.12a.67.67,0,0,0,.37.91c.47.28.74.06,1-.27,2-3.06,5.31-4.83,7.4-7.78.25-.36.67-.85,1.13-.57s.08.77,0,1.18c-.12.9-.7,1.7-.5,3C110.71,88,111.91,87,112.39,85.56Z"/><path class="cls-12" d="M68.26,40.87a.3.3,0,0,0-.06.22,24.61,24.61,0,0,1-.83,5.46c-.12.52,0,1.38-.91,1.45,0,.14-.06.28-.1.42.6,1.19.3,2-.89,2.3-.49.12-1,.16-1.5.25-1.2.21-1.79,1-1.32,2.12.39.92,1.26.52,1.94.32.22-.06.36-.38.6-.06,1.07-.47.92.49,1.17,1a2.81,2.81,0,0,1,2-1c.53-.05,1.11-.15,1.34.6.16.56.7.28,1.07.38l1,0,1.67-.28.09-.06,0-.1c.42-1.71-.22-2.6-1.94-3.07-.77-.21-1.86-.78-1.6-2.07L70,47c.12-1.87-.47-3.67-.61-5.51C69.33,40.69,69,40.4,68.26,40.87Z"/><path class="cls-9" d="M81.37,56.39a14.36,14.36,0,0,1-3.1-1.75c-1.21-.66-2-.28-2.1,1.11-.09.78-.16,1.58-.24,2.36-.16,1.42-.89,1.77-2.12,1.65a.12.12,0,0,1,0,.15c.09.14.16.29.25.44.31.49-.25,1.29.46,1.59a9.18,9.18,0,0,0,3,1,3.54,3.54,0,0,0,3.33-2.09A5.1,5.1,0,0,0,81.37,56.39Z"/><path class="cls-1" d="M19.34,99.53c-.57-.12-.72-.74-1.16-1,0,2.22.77,4,2.93,5a4.69,4.69,0,0,0,5-.3,5.93,5.93,0,0,0,1.25-7.45c-.1-.13-.24-.33-.35-.32-1.73.14-3.09-1-4.67-1.36a1.29,1.29,0,0,1-.16.17c.68,1.06,1.35,2.12,2,3.17a4.92,4.92,0,0,1,.78,2.62,1.47,1.47,0,0,1-2,1.62A6.28,6.28,0,0,1,19.34,99.53Z"/><path class="cls-9" d="M55.44,57.92a28,28,0,0,0,.68,4c.16.72.46.85,1.1.57,1.44-.64,3.14-.49,4.44-1.64.57-.51.68-1.37,1.45-1.67-.15-.47-1.09.08-1-.74h0c-.62.08-.51-.38-.51-.72,0-.94,0-1.89,0-2.84-.3-.33-.73-.1-1.07-.26a20,20,0,0,1-2.9.76A2.29,2.29,0,0,0,55.44,57.92Z"/><path class="cls-10" d="M65.92,95.71a5.14,5.14,0,0,1-1.53.53c-1,.05-1.87,0-2-1.29,0-.25-.28-.28-.5-.27A18.69,18.69,0,0,0,61,98.05c-.05,1.47-.08,2.94-.15,4.4,0,.94,0,1.88,1.1,2.1a2.05,2.05,0,0,0,2.33-1.36A21.64,21.64,0,0,0,66,95.74Z"/><path class="cls-10" d="M78.85,72.79c.08-.66,0-1-.95-.63a4.55,4.55,0,0,1-3.09.26c-.62-.2-.92.06-1.1.67-.3,1.09-.7,2.16-1,3.26S72.88,78,73.83,78A5.42,5.42,0,0,0,78.85,72.79Z"/><path class="cls-10" d="M72.43,64.84c-.72-.54-1.73-.72-1.78-1.83,0-.31-.43-.16-.66-.13-.83.11-1.66.25-2.5.35-1,.11-2-.85-3.06,0-.29.21-1.13-.18-1.57-.63-.61-.63-.8-.27-1,.35a2.29,2.29,0,0,0,2.8,2.85,8.09,8.09,0,0,1,3.68-.14A8.48,8.48,0,0,0,72.43,64.84Z"/><path class="cls-6" d="M65.64,116c-1.19,1.57-1.14,3.42-1,5.21.09.94,1,1.44,1.91,1.59s1.3-.49,1.58-1.19a8.18,8.18,0,0,0,.52-2.59c.12-1.81.11-1.83-1.68-2.16a3.06,3.06,0,0,1-1.37-.86Z"/><path class="cls-10" d="M19.46,92.67A23.52,23.52,0,0,1,17,88.32c-.29-.59-.54-1.21-1.23-1.46-.11.41-.28.76-.79.77L17.87,94a4.93,4.93,0,0,1,.65,1.75,4.89,4.89,0,0,1,1,2,5.49,5.49,0,0,1,.61.12c.5.16,1.06.72,1.48.3s-.1-1.07-.29-1.58c-.28-.73-.88-1.32-.93-2.14a1.86,1.86,0,0,1-.6-1.24Z"/><path class="cls-8" d="M111.29,103.76A9,9,0,0,0,114.4,102,16.71,16.71,0,0,0,119,95.18c.13-.4.46-.93-.16-1.21s-.87.26-1.12.71c-1,1.8-1.79,3.78-3.46,5.12-1.11.89-2.32,1.67-3.47,2.53-.28.21-.78.36-.65.83S110.81,103.61,111.29,103.76Z"/><path class="cls-6" d="M113.88,104.83a.91.91,0,0,0,.83.57c1-1.15,2.31-1.11,3.59-1.09a1.6,1.6,0,0,0,1.55-.79c.46-.68,0-1.1-.3-1.58L118,99.73C116.88,101.7,115,102.93,113.88,104.83Z"/><path class="cls-1" d="M103.76,113.28A21.64,21.64,0,0,0,99.67,115a2.81,2.81,0,0,1,1.57,3.1c2.56-.46,3.74-1.4,4-3.14C105.16,114.05,104.17,113.92,103.76,113.28Z"/><path class="cls-4" d="M73.29,33.54l5.26,2.79c.74-.51.62-1.14.18-1.74a4.38,4.38,0,0,0-2-1.63A25.63,25.63,0,0,0,71,31.53a1.92,1.92,0,0,0-1.22.23c.33.34.81.35,1.22.53C71.77,32.63,72.74,32.7,73.29,33.54Z"/><path class="cls-6" d="M54.46,55.63l-.68.5c-.17.83-.92,1.33-1.11,2.22A6.33,6.33,0,0,0,53.25,63c1.22.21,1.59-.28,1.48-1.51S54.33,59,55,57.9C54.94,57.12,55.65,56.14,54.46,55.63Z"/><path class="cls-10" d="M67.06,107.86c-.39,1.5-.19,3.11-.77,4.58a.81.81,0,0,0,.43,1.07,1.8,1.8,0,0,0,1.92-.08c.59-.4,1.32-3.33,1-4-.17-.35-.49-.25-.76-.32-.65-.18-1.32-.35-1.42-1.2Z"/><path class="cls-12" d="M72.9,81.06c-.73.76-.94,2-2.3,1.78-.34,0-.31.43-.32.72,0,.55,0,1.1,0,1.64-.07.83.18,1.46,1.06,1.57a1.5,1.5,0,0,0,1.86-1.14C73.35,84.17,73.8,82.65,72.9,81.06Z"/><path class="cls-6" d="M57.12,64.31a12.84,12.84,0,0,0-.37,3.38,3.26,3.26,0,0,0,1.15,2.7c.8.71,1.4-.22,2.05-.56-.51-.16-.66-.62-.81-1a7.53,7.53,0,0,1-.19-4c.22-1.18-.11-1.26-1-.87Z"/><path class="cls-8" d="M107.6,90.22c-2.1,1-5.17,5.74-5.09,8A14.62,14.62,0,0,0,107.6,90.22Z"/><path class="cls-1" d="M17.54,87.93c.39,1.66,1.6,2.92,2.19,4.47.41-.55.66-1.21,1.42-1.47s.4-.89.31-1.32.77-1.17.08-1.56a3.79,3.79,0,0,0-1.73-.11C19.05,87.92,18.29,87.93,17.54,87.93Z"/><path class="cls-2" d="M49.69,27.72c-.59.12-1,.35-.79,1.24a4.1,4.1,0,0,0,3.84,2.93c.49,0,.46-.22.48-.52C53.27,30,51.19,27.78,49.69,27.72Z"/><path class="cls-12" d="M69.16,101.55c-1.13,0-1.78.38-1.72,1.51a5.8,5.8,0,0,1-.14,1.37c-.13.61,0,1.11.58,1.35a1.22,1.22,0,0,0,1.57-.43,5.07,5.07,0,0,0,.67-2.89C70.1,101.88,69.71,101.44,69.16,101.55Z"/><path class="cls-10" d="M65.71,72c0,.36-.19.94.35,1s.51-.47.63-.81c.47-1.3,1-2.61,1.39-3.92.23-.69.23-1.41-.62-1.65s-1.3.37-1.39,1.17C65.92,69.17,65.83,70.55,65.71,72Z"/><path class="cls-10" d="M66.67,100.91c1.36-.43,2.48-.83,2.37-2.45a6.2,6.2,0,0,1,.3-1.22c.06-.4.47-1-.19-1.1s-1.49-.45-1.69.7C67.24,98.16,67,99.47,66.67,100.91Z"/><path class="cls-15" d="M73.57,54l0,.1-.09.06c.11,1.36.17,2.73.35,4.08.05.39-.06,1.13.7,1.09s.79-.62.77-1.19c0-1.17,0-2.35-.13-3.51S74.2,53.92,73.57,54Z"/><path class="cls-6" d="M77.49,78.74a14.71,14.71,0,0,1-3.08.51c-.49,0-.71.22-.63.68.12.73-.19,1.83.78,2s2,0,2.25-1.4A10,10,0,0,1,77.49,78.74Z"/><path class="cls-14" d="M17.46,95c-.12,2,1.19,3.19,2.35,4.49a7.24,7.24,0,0,0,.79.39,2.5,2.5,0,0,0,2.62-.36c.66-.57.2-1.36,0-2a3.52,3.52,0,0,0-1.08-1.77c-.27.55.08.92.23,1.29.32.73.6,1.53-.15,2.07s-1.54.13-2.21-.35a3.37,3.37,0,0,1-.54-.68,5.33,5.33,0,0,1-1.25-2.31C17.89,95.55,18,94.9,17.46,95Z"/><path class="cls-6" d="M74.87,65.82c0,.31,0,.56,0,.81,0,.57-.29,1.22.71,1.21s1.48-.2,1.55-1.2a2.57,2.57,0,0,0-1.82-2.55c-.43-.12-.53.06-.52.42S74.85,65.42,74.87,65.82Z"/><path class="cls-15" d="M66.36,54.34c-.25-.5-.1-1.46-1.17-1-.59,1.38-.26,2.83-.34,4.25,0,.42.22.62.63.59s.93-.2.93-.81C66.41,56.37,66.38,55.35,66.36,54.34Z"/><path class="cls-8" d="M41.74,83.84a4.54,4.54,0,0,0,.39.56c1.46,1.19,2.36,2.9,3.78,4.26C45.8,85.84,44.73,84.36,41.74,83.84Z"/><path class="cls-11" d="M63.61,58.34c0-1.1,0-2.19,0-3.29a1,1,0,0,0-.57-.93c-.45-.22-.67.18-.89.49V58.4h0Z"/><path class="cls-15" d="M67.94,56.45c0,.55,0,1.1,0,1.65,0,.27-.1.68.32.7a.71.71,0,0,0,.75-.55,12.94,12.94,0,0,0,.21-4c0-.49-.48-.38-.8-.39s-.48.25-.48.58v2Z"/><path class="cls-14" d="M71.83,54.39l-1,0c-.11,1.55-.51,3.11.18,4.62h.79C72.39,57.46,71.87,55.92,71.83,54.39Z"/><path class="cls-4" d="M69.24,33.48a5.78,5.78,0,0,0,2.55-.16c-.33-.51-.94-.48-1.4-.72s-1.19-.1-1.42-.8c-1.16.27-2.48.09-3.33,1.22H68.8C69.12,33,69.43,33,69.24,33.48Z"/><path class="cls-10" d="M50.56,25.91c.37,0,.93.14,1-.54.06-.45-1.43-1.67-2-1.68s-.87.18-.87.78C48.74,25.68,49.53,25.89,50.56,25.91Z"/><path class="cls-15" d="M73.18,62.35c-.32-.55.52-1.55-.72-1.76a.88.88,0,0,0-.48,0c-.41.21-.37,3,0,3.18s.78.4.91.28C73.46,63.6,73,62.93,73.18,62.35Z"/><path class="cls-14" d="M98.94,118.85c1-.81,1.35-2,.8-2.68a2.42,2.42,0,0,0-2.68-.29c-.24.17-.48.38-.41.72a.32.32,0,0,0,.49.21c1.58-.76,1.61.4,1.77,1.41C98.93,118.38,98.92,118.54,98.94,118.85Z"/><path class="cls-14" d="M58.09,112.31c1.23,1.09,2,1.12,3,.09.33-.37.5-1.07.14-1.36s-1.14-.44-1.43.08A3.25,3.25,0,0,1,58.09,112.31Z"/><path class="cls-3" d="M57.12,64.31l.8-.35c.92-.39,1.25-.31,1,.87a7.53,7.53,0,0,0,.19,4c.15.42.3.88.81,1,.32,0,.41-.24.36-.54-.39.09-.54-.18-.62-.47a6.79,6.79,0,0,1,.15-5.09C58.83,62.92,57.3,63.25,57.12,64.31Z"/><path class="cls-7" d="M54.46,55.63c1.19.51.48,1.49.56,2.27l.42,0a2.29,2.29,0,0,1,2.26-2.58,20,20,0,0,0,2.9-.76c0-.16,0-.33,0-.49C58.4,54,56.56,55.34,54.46,55.63Z"/><path class="cls-13" d="M40.81,31.26c.35.93.68,1.86,1,2.79.23.58.46,1.18,1.22,1.27-.06-.58-.78-1.06-.21-1.77.13-.18-.19-.5-.53-.52s-.45-.39-.5-.64c-.24-1.23-1-2.35-.78-3.68,0-.07,0-.14,0-.22-.85.13-.37.81-.51,1.24Z"/><path class="cls-14" d="M65.64,116h0a10.55,10.55,0,0,0,2.75-.08c.26-.07.49-.22.45-.5s-.31-.24-.52-.23a3.19,3.19,0,0,1-2.46-1.08C65.85,114.84,65.47,115.35,65.64,116Z"/><path class="cls-10" d="M74.83,85.51c.34.35-.67,1.11.21,1.27s.68-.79.89-1.29a3,3,0,0,0,.32-.95c0-.32.67-.81-.14-1-.57-.12-1.12,0-1.18.73C74.9,84.68,74.87,85.05,74.83,85.51Z"/><path class="cls-6" d="M59.84,63.73a6.79,6.79,0,0,0-.15,5.09c.08.29.23.56.62.47C60.08,67.44,60.51,65.54,59.84,63.73Z"/><path class="cls-11" d="M68.17,61.24c.16-.88-.24-1.1-1-1.09s-1,.28-.79.9-.26,1.42.81,1.35C68,62.35,68.45,62,68.17,61.24Z"/><path class="cls-1" d="M70.39,80.74c-.11.54.24.51.52.52.46,0,1.54-1.61,1.48-2.22a.7.7,0,0,0-.79-.61C70.59,78.87,70.76,80,70.39,80.74Z"/><path class="cls-1" d="M71.46,94.27c0,.76.43,1.27.94,1.17.88-.16,1-1.16,1-1.81s-.9-.52-1.31-.53C71.41,93.08,71.59,93.87,71.46,94.27Z"/><path class="cls-1" d="M72,91.12c-.12.86.29,1.17.91,1.19a1.14,1.14,0,0,0,1.29-1.09c0-.93-1-.68-1.53-.83C72,90.2,72.06,90.85,72,91.12Z"/><path class="cls-8" d="M110.86,98.4c1.5-.5,2.46-2,2.41-4.09a36.22,36.22,0,0,0-2.38,3.49Z"/><path class="cls-3" d="M93.09,63.49a36.2,36.2,0,0,1,5.88.43,6.62,6.62,0,0,1,1.89.6l1.35,0A15,15,0,0,0,93.09,63.49Z"/><path class="cls-10" d="M71.62,100.78c.24-1,.41-2,.71-2.88.23-.72-.17-1-.68-1.05s-.42.56-.39.83C71.39,98.7,70.46,99.84,71.62,100.78Z"/><path class="cls-14" d="M67.06,107.86l.41.08c.71,0,1.45.56,2.15-.07.19-.17.38-.37.28-.64s-.36-.13-.54-.09c-.84.2-1.52-.31-2.3-.57Z"/><path class="cls-8" d="M110,100.58c-.7.34-1.3.63-1.91.91s-.49.84-.22,1.26.58,0,.87-.16A2.37,2.37,0,0,0,110,100.58Z"/><path class="cls-1" d="M67.82,92.53c-.45,1.12.65,1.2,1,1.74.23.35.6.08.9-.07a.79.79,0,0,0,.43-1c-.09-.44-.45-.3-.72-.26A3.31,3.31,0,0,1,67.82,92.53Z"/><path class="cls-4" d="M25.57,85.93c.93,1.38,1.93,2.7,2.8,4.13a7.19,7.19,0,0,0-2.73-4.54C25.62,85.66,25.59,85.79,25.57,85.93Z"/><path class="cls-1" d="M74,88.08c-.52.16-1.23-.27-1.54.52a.5.5,0,0,0,.17.68c.62.32,1.13-.08,1.66-.33.38-.18.93-.36.72-.85S74.34,88.25,74,88.08Z"/><path class="cls-2" d="M30.9,98c.75.79,1.48,1.59,2.25,2.35.3.31.55.79,1.44.52-1.59-.92-2-2.73-3.68-3.38Z"/><path class="cls-14" d="M75.69,110.08c-1.68-.32-2.07,1.27-3.08,2C74.25,112.36,74.37,110.31,75.69,110.08Z"/><path class="cls-4" d="M61,98.05a18.69,18.69,0,0,1,.85-3.37c0-.18,0-.35,0-.53-1.3,1-1.22,2.43-1.24,3.84Z"/><path class="cls-12" d="M62.65,84a27.26,27.26,0,0,0-.31-4.33l-.48.34.36,4Z"/><path class="cls-14" d="M63.5,60.24c-.19,1-.47,2,1.1,2.14C64.84,61.42,64.86,60.57,63.5,60.24Z"/><path class="cls-13" d="M69,31.8c.23.7.94.55,1.42.8s1.07.21,1.4.72l1.5.22c-.55-.84-1.52-.91-2.33-1.25-.41-.18-.89-.19-1.22-.53Z"/><path class="cls-1" d="M70.06,91.69a1.63,1.63,0,0,0-1.12-1.38c-.36-.11-.71-.37-.94.15s.24.7.61.83S69.47,91.53,70.06,91.69Z"/><path class="cls-14" d="M50.53,21.64c-.49-.08-.87.44-1.37.26,0,.31-.54.64-.16.86a1.45,1.45,0,0,0,1.44,0C50.87,22.48,50.8,22,50.53,21.64Z"/><path class="cls-3" d="M69.24,33.48c.19-.48-.12-.45-.44-.45H65.64a.45.45,0,0,0-.46.5Z"/><path class="cls-12" d="M110.86,98.4l0-.6c-1.17.27-1.59,1.4-2.38,2.11A4,4,0,0,0,110.86,98.4Z"/><path class="cls-14" d="M65.53,90.08a8.52,8.52,0,0,1-2.14,0,.29.29,0,0,0-.37.23c-.06.25.09.35.27.49C64.45,91.72,64.75,90.25,65.53,90.08Z"/><path class="cls-3" d="M62.14,58.4V54.61l-.46.23c0,.95,0,1.9,0,2.84C61.63,58,61.52,58.48,62.14,58.4Z"/><path class="cls-1" d="M68.51,88.06c.69.81,1.15,1.24,1.9,1,.26-.08.48-.4.32-.57C70.21,87.94,69.5,88.21,68.51,88.06Z"/><path class="cls-14" d="M58.49,113.87c-.43-.8-.86-1.35-1.81-.74C57.21,113.5,57.5,114.31,58.49,113.87Z"/><path class="cls-14" d="M60.81,113.52a6.26,6.26,0,0,0-.58.29c-.29.19-.83.07-.82.6,0,.11.31.26.5.32.45.14.72-.13.92-.48A.64.64,0,0,0,60.81,113.52Z"/><path class="cls-14" d="M92.45,49.73c0-.2,0-.41.07-.61a2,2,0,0,0-1.32,0C91.16,50.2,91.36,50.3,92.45,49.73Z"/><path class="cls-7" d="M56.24,44.7c0-.78.67-1.24.84-1.94-.22-.47-.51-.18-.79-.08.1.74-.74,1.25-.51,2Z"/><path class="cls-12" d="M104.54,98.8c.59-.1,1.19-.19,1.44-.83a.68.68,0,0,0-.06-.58c-.17-.18-.39,0-.52.16-.31.39-.6.8-.91,1.2Z"/><path class="cls-6" d="M63.7,95.64c.4-.12.93-.1,1.11-.62.1-.29-.19-.34-.39-.3-.44.1-1,.09-1.16.6C63.17,95.57,63.43,95.65,63.7,95.64Z"/><path class="cls-14" d="M63.74,92.63a1.6,1.6,0,0,0,1.76-.95C64.69,91.6,64.34,92,63.74,92.63Z"/><path class="cls-14" d="M65.17,88.44a4.62,4.62,0,0,0-.5-.1c-.48,0-1-.21-1.39.23a.46.46,0,0,0,.12.43c.53.23,1-.12,1.41-.31A3.62,3.62,0,0,0,65.17,88.44Z"/><path class="cls-7" d="M19.75,93.19a1.86,1.86,0,0,0,.6,1.24l1.16.6A4.14,4.14,0,0,0,19.75,93.19Z"/><path class="cls-14" d="M65.07,87.23c-.43-.25-.5-.34-.56-.33-.47.09-.86-.57-1.34-.15a.46.46,0,0,0,0,.44C63.7,87.49,64.2,87.32,65.07,87.23Z"/><path class="cls-1" d="M73.81,59.91a.12.12,0,0,0,0-.15c-.07-.24-.15-.47-.21-.71s0-.51-.34-.58-.3.1-.37.25-.2.54.08.77S73.43,60,73.81,59.91Z"/><path class="cls-4" d="M60.38,103.08a2.38,2.38,0,0,0,0,2A2.07,2.07,0,0,0,60.38,103.08Z"/><path class="cls-12" d="M18.22,95.72A5.33,5.33,0,0,0,19.47,98v-.3a4.89,4.89,0,0,0-1-2Z"/><path class="cls-14" d="M72.54,107.89v.5c.48.52.88.54,1.19-.19C73.37,107.9,72.92,108,72.54,107.89Z"/><path class="cls-3" d="M63.61,58.34l-1.47.06c-.12.82.82.27,1,.74C63.73,59.16,63.62,58.72,63.61,58.34Z"/><path class="cls-4" d="M70,47l0,1.82a.55.55,0,0,0,.47-.55c-.06-.44-.11-.87-.16-1.31Z"/><path class="cls-12" d="M71.79,59H71c0,.28.16.43.45.41S71.78,59.21,71.79,59Z"/><path class="cls-12" d="M62.3,84.76a.39.39,0,0,0,.1.54C62.67,85.07,62.55,84.9,62.3,84.76Z"/><path class="cls-1" d="M26.72,94.81s-.09.07-.08.08a.69.69,0,0,0,.1.19s.08-.06.07-.08A1.11,1.11,0,0,0,26.72,94.81Z"/><path class="cls-4" d="M52.38,106.31s-.07,0-.08,0,0,.07,0,.09.1.1.13,0S52.39,106.34,52.38,106.31Z"/><path class="cls-7" d="M22.09,88.71l.47-.31C22.33,88.38,22.12,88.41,22.09,88.71Z"/><path class="cls-10" d="M66,95.74l.1-.13-.14.1Z"/><path class="cls-8" d="M42.78,91.72c.07.1.15.19.25,0s-.1-.1-.15-.15Z"/><path class="cls-4" d="M52.46,107.11l.24.06C52.67,107,52.6,106.9,52.46,107.11Z"/><path class="cls-8" d="M110.61,100.3l-.1,0,.09,0Z"/><path class="cls-8" d="M110.6,100.29l.07-.05-.06.06Z"/><path class="cls-12" d="M104.49,98.75l-.1.14.15-.09Z"/><path class="cls-1" d="M22.37,94.09c-.09-.09-.2-.14-.29,0s.08.12.13.18A1.29,1.29,0,0,0,22.37,94.09Z"/><path class="cls-13" d="M95.24,53.1c-.08.33.05.45.29.45a.24.24,0,0,0,.26-.31,1.91,1.91,0,0,0-.3-.46Z"/><path class="cls-5" d="M108.85,81l1,.06C109.52,80.83,109.22,80.14,108.85,81Z"/><path class="cls-5" d="M109.83,81c0,.4.26.45.54.52C110.34,81.2,110.18,81,109.83,81Z"/><path class="cls-5" d="M110.47,81.51l.63.48C111.08,81.57,110.8,81.51,110.47,81.51Z"/><path class="cls-5" d="M111.58,82.27l.29.31Z"/><path class="cls-5" d="M83,74.21c.32.05.28-.17.28-.37C83.15,74,83.05,74.08,83,74.21Z"/><path class="cls-6" d="M7.78,75.43A45,45,0,0,1,8.6,81c0,.14.05.28.08.42.7.54.29,1.26.31,1.9,1.36,1.47,3,1.2,4.64.69a1.84,1.84,0,0,0,1.31-1.82c.15-2.86-1.15-5.38-4.66-5.75-.7-.07-1.48,0-1.78-.9Z"/><path class="cls-1" d="M6.79,63.48c-.28.79-1,.74-1.77.88.89,1.9,1.73,3.73,2.62,5.54a3.23,3.23,0,0,1,.41,1.94.4.4,0,0,0,.48.27c.9.08,1.73.54,2.7.29s2.1-1.61,1.8-2.59c-.26-.82-1-.54-1.5-.37-.68.23-1.22.91-2.06.27a2.71,2.71,0,0,1-.93-2.48,7.69,7.69,0,0,1,.27-2.74h0c-.4.05-.77.05-.76-.51h0a.4.4,0,0,1-.51-.25h0l-.27-.26H6.79Z"/><path class="cls-9" d="M8.53,72.11a.4.4,0,0,1-.48-.27c-.85-.07-.88.56-.92,1.14a6.33,6.33,0,0,0,.65,2.45l.72.09A8.14,8.14,0,0,0,12.19,75c.83-.29,1.23-.84.81-1.75C10.71,74.27,9.37,73.93,8.53,72.11Z"/><path class="cls-14" d="M14.9,61.67c-.43.08,0,.84-.57.77-.35,0-.4-.48-.58-.75s-.33-.95-.88-1.13l-.26.39a.39.39,0,0,1,0,.24l1.31,2.59.49,0,.49-.1c.29-.14.29-.14.3.27v0l.5.24c.23-.32.27-.79.69-1C15.68,62.89,15.4,62.17,14.9,61.67Z"/><path class="cls-3" d="M7,61.5v.67c.9.62,1.78,1.27,2.71,1.85.39.25.65.5.59,1,.28.81.68.15,1,.09V64l-.53-.27a4.14,4.14,0,0,1-3-2C7.61,61.42,7.32,61.46,7,61.5Z"/><path class="cls-14" d="M12.64,63c-.81-.78-1.61-1.56-2.43-2.33-.38-.35-.68-.9-1.35-.68,0,.23.08.47.13.71l.34.15c.26.13.55.24.52.61h0c.17,0,.24.09.25.25h0a1.23,1.23,0,0,1,.76,1h0a.65.65,0,0,1,.45.52l.3.27h.52l.47-.08Z"/><path class="cls-14" d="M10.35,65c.06-.48-.2-.73-.59-1-.93-.58-1.81-1.23-2.71-1.85-.35.18-.19.49-.19.75l.45.56h0c.16,0,.27.09.27.26h0a.38.38,0,0,1,.51.25h0a.83.83,0,0,1,.76.51h0A2.16,2.16,0,0,0,10.35,65Z"/><path class="cls-14" d="M14.42,65.16c-1,.18-.64,1-.8,1.61a6.92,6.92,0,0,0,0,1.61,3.93,3.93,0,0,0,1.15-2.71A.61.61,0,0,1,14.42,65.16Z"/><path class="cls-14" d="M11,67.26c-.12-.85-.89-.33-1.28-.66a3.27,3.27,0,0,0,.07,1.65c.06.34.19.69.56.74s.35-.47.57-.68A1.71,1.71,0,0,1,11,67.26Z"/><path class="cls-10" d="M12.64,63l0,.46a6,6,0,0,0,.65.76c.62.52.68.09.66-.42L12.6,61.19c-.6.15-.59.45-.24.89C12.56,62.33,13.06,62.52,12.64,63Z"/><path class="cls-11" d="M11.72,68.19c1-.68.62-1.71.61-2.62,0-.23-.28-.29-.5-.28s-.25.29-.26.48c0,.5,0,1,0,1.52Z"/><path class="cls-6" d="M17.45,65.78l.07-.3c-.79-.32-.54-1.27-1.08-1.75a2.74,2.74,0,0,0-.24,1.52Z"/><path class="cls-3" d="M14.42,65.16a.61.61,0,0,0,.33.51c.15-.57.29-1.14.44-1.72v0l-.3-.27-.49.1C14.41,64.27,14.41,64.71,14.42,65.16Z"/><path class="cls-12" d="M16.2,65.25a2.74,2.74,0,0,1,.24-1.52l-.06-.53c-.42.2-.46.67-.69,1C15.84,64.55,15.42,65.19,16.2,65.25Z"/><path class="cls-2" d="M11.72,68.19l-.18-.9-.57,0a1.71,1.71,0,0,0-.08,1Z"/><path class="cls-3" d="M12.13,63.52h-.52l-.25.47v0a.77.77,0,0,1,.76.5C13.19,64.17,12.4,63.85,12.13,63.52Z"/><path class="cls-2" d="M12.13,64.5a.77.77,0,0,0-.76-.5c0,.37,0,.73,0,1.09Z"/><path class="cls-12" d="M40.54,29.73c.15-.43-.34-1.11.51-1.24.14-.36.54-.59.52-1H31.69c-11.08,0-17.42.4-28.09,0l-1.13-.05L.76,29c2,.31,3.93.36,5.89.54,2.79.26,5.58-.74,8.35,0a18.56,18.56,0,0,0,5.14.47,91.17,91.17,0,0,1,9.64,0,2.67,2.67,0,0,0,1.13-.06,2.89,2.89,0,0,1,2.66.33c.37.23.73.33,1-.06s.85-.42,1.35-.47C37.45,29.59,39,30,40.54,29.73Z"/><path class="cls-2" d="M40.54,29.73c-1.54.28-3.09-.14-4.63,0-.5.05-1-.06-1.35.47s-.62.29-1,.06a2.89,2.89,0,0,0-2.66-.33,2.67,2.67,0,0,1-1.13.06,91.17,91.17,0,0,0-9.64,0A18.56,18.56,0,0,1,15,29.51c-2.77-.75-5.56.25-8.35,0-2-.18-3.94-.23-5.89-.54,0,.76,0,1.52,0,2.28a22.47,22.47,0,0,0,4.41.48,16.36,16.36,0,0,0,1.73-.24,19.86,19.86,0,0,1,4.75,0c1.92.21,3.85-.34,5.8-.24a3.75,3.75,0,0,1,2.52.94,1.69,1.69,0,0,0,2.28.22,1.91,1.91,0,0,1,2.43-.13.62.62,0,0,0,.69.09c2-1,4.28-.93,6.39-1s4.12,0,6.18.15c1,.07,1.9-.36,2.88-.26Z"/><path class="cls-4" d="M42.1,26.4a1,1,0,0,0-1.09-1c-.6,0-.68.49-.74,1Z"/><path class="cls-4" d="M41.57,27.45c0,.45-.38.68-.52,1,0,.08,0,.15,0,.22.66-.19,1.16-.53,1.2-1.29Z"/><path class="cls-5" d="M48.68,15.52v-.25l-.51,0Z"/><path class="cls-13" d="M66.18,15.66A28.57,28.57,0,0,0,70,18c2.47,1.63,4.86,3.36,7.16,5.23a4.5,4.5,0,0,0,.64.38c.32-.19.3-.5.27-.81-.61.14-.91-.37-1.28-.66a63.91,63.91,0,0,0-9.14-6.25,4.29,4.29,0,0,0-1.48-.66Z"/><path class="cls-5" d="M66.18,15.66v-.39c-.3-.14-.59-.42-.9,0A1.35,1.35,0,0,0,66.18,15.66Z"/><path class="cls-10" d="M91.46,17.24,85,17.33c-.54,0-1.22-.11-1,.78.14.69-.28,1.75,1,1.75,1.73,0,3.46,0,5.19,0,1,0,1.58-.39,1-1.51-.2-.4.08-.52.38-.62Z"/><path class="cls-5" d="M92.74,24.82a3.36,3.36,0,0,0,1.75-.57c.37-.28.86-.55.75-1.07s-.68-.29-1.06-.36a4.72,4.72,0,0,0-3.56.19c-.31.19-.75.37-.61.83s.6.34.88.26C91.77,23.84,92.16,24.92,92.74,24.82Z"/><path class="cls-14" d="M89.3,20.87H84.94c-.54,0-.8.21-.71.74s-.23,1.21.65,1.25c.61,0,1.2.11,1.69-.53C87.2,21.52,88.5,21.84,89.3,20.87Z"/><path class="cls-5" d="M47,20.09c-.66-.44-1.4-.15-2.1-.23l0,0,0,1c.48.21,1.47-.71,1.44.64l0,.38C47.1,21.49,46.63,20.65,47,20.09Z"/><path class="cls-12" d="M44.88,20.91l0-1c-1,.44-.67,1-.1,1.51l.13-.1Z"/><path class="cls-12" d="M46.37,21.93l0-.38c-.32.25-.65.42-1,.13l-.22.22C45.5,22.43,45.93,22.54,46.37,21.93Z"/><path class="cls-12" d="M44.81,21.4l.27.5.22-.22-.36-.38Z"/><path class="cls-11" d="M39.78,39.41c-.54,0-1.16-.13-1.24.69.39.27.76.7,1.29.27S40,39.72,39.78,39.41Z"/><path class="cls-5" d="M16.38,63.2l.06.53c.54.48.29,1.43,1.08,1.75a.82.82,0,0,0,.25-1.29c-.76-.95-1.1-2.17-2-3-.27-.26-.49-.86-1-.56s.15.67.09,1C15.4,62.17,15.68,62.89,16.38,63.2Z"/><path class="cls-5" d="M12.61,61l.26-.39c0-1.65-.13-1.81-1.28-1.36.39.46.57.88-.22,1.1C11.37,61.31,12.14,60.85,12.61,61Z"/><path class="cls-5" d="M9,60.68c-.05-.24-.09-.48-.13-.71-.13-.68-.66-.51-1.1-.53.75,1,.07,1.28-.71,1.54v.52c.28,0,.57-.08.76.19C8.43,61.63,8.68,61.12,9,60.68Z"/><path class="cls-6" d="M7.05,61c.78-.26,1.46-.57.71-1.54-.47,0-1,0-1.19.51S6.63,60.76,7.05,61Z"/><path class="cls-9" d="M22.4,80.11a.61.61,0,0,0,.61-.64.58.58,0,0,0-.57-.67.55.55,0,0,0-.6.62A.62.62,0,0,0,22.4,80.11Z"/><path class="cls-6" d="M11.37,60.3c.79-.22.61-.64.22-1.1-.51-.09-.94,0-1,.62S10.93,60.43,11.37,60.3Z"/><path class="cls-6" d="M4.83,63c0,.26.09.48.37.37S6,63.1,6,62.56c0-.23-.15-.43-.39-.37A1,1,0,0,0,4.83,63Z"/><path class="cls-12" d="M7.31,63.48l-.45-.56c0,.19-.05.38-.07.56Z"/><path class="cls-3" d="M77,100.53c.43,0,1-.18,1-.56-.11-.78-1.07-.1-1.5-.64-.16-.21-.42.11-.4.39C76.11,100.28,76.49,100.47,77,100.53Z"/><path class="cls-4" d="M82.29,94.47c-.27.08-.39.24-.3.47a1,1,0,0,0,1.05.74c.28,0,.76-.26.58-.47A4.65,4.65,0,0,0,82.29,94.47Z"/><path class="cls-14" d="M23.88,42.89a.8.8,0,0,0,.73.75.6.6,0,0,0,.72-.67.65.65,0,0,0-.67-.75A.73.73,0,0,0,23.88,42.89Z"/><path class="cls-7" d="M25.7,106.81a104.1,104.1,0,0,0-10.89,0c-.38,0-1.06-.18-1,.37s.72.45,1.15.45c2.91,0,5.83,0,8.74,0,4,0,8,0,12.05,0a8.63,8.63,0,0,0,.88,0c.35,0,.89.06.85-.47s-.53-.3-.84-.3c-2.91,0-5.83,0-8.74,0Z"/><path class="cls-7" d="M25.76,110.52H36.41c.3,0,.59,0,.89,0s.57,0,.6-.32-.28-.38-.53-.4a8.44,8.44,0,0,0-1,0c-7.06,0-14.12,0-21.18,0-.55,0-1.54-.24-1.55.37s1,.41,1.48.42c3.55.06,7.1,0,10.65,0Z"/><path class="cls-7" d="M38,115.68c-.32-.5-.83-.33-1.26-.33l-21.93-.13a1.61,1.61,0,0,0-.38,0c-.39,0-1-.14-1,.45s.64.42,1,.42q11.28,0,22.56-.07C37.34,116,37.78,116.17,38,115.68Z"/><path class="cls-7" d="M25.7,113.39c3.5,0,7,0,10.52,0a7.07,7.07,0,0,0,1.13-.07.49.49,0,0,0,.31-.33c0-.18-.16-.28-.34-.29s-.59,0-.88,0H15.14a4.34,4.34,0,0,0-.51,0c-.27,0-.69-.07-.71.32s.44.42.75.42l6.84.07c1.4,0,2.79,0,4.19,0Z"/><path class="cls-5" d="M22,118.53H37.41v-.43H22.29C22.21,118.25,22.12,118.39,22,118.53Z"/><path class="cls-7" d="M39,105.6c.05.78.37,1.3,1.15,1.23s1.43-.39,1.41-1.28-.39-1.48-1.24-1.44A1.39,1.39,0,0,0,39,105.6Zm1.27-.67a.56.56,0,0,1,.52.55.54.54,0,0,1-.5.61c-.38.06-.54-.16-.55-.51A.59.59,0,0,1,40.28,104.93Z"/><path class="cls-7" d="M38.73,119.57c.09.64.42,1.2,1.26,1.15.61,0,1.24-.32,1.2-1a1.25,1.25,0,0,0-1.46-1.2C39.08,118.51,38.69,118.76,38.73,119.57Zm.58,0a.41.41,0,0,1,.41-.49c.38,0,.68.13.72.51s-.28.49-.57.51S39.36,119.9,39.31,119.58Z"/><path class="cls-13" d="M12.16,105.3c-.07-.54-.22-1.17-1-1.16S10,104.43,10,105.2a1.14,1.14,0,0,0,1.17,1.22C11.88,106.46,12.19,106,12.16,105.3Zm-1-.58c.35.08.45.35.47.66s-.09.54-.42.5a.59.59,0,0,1-.57-.69A.55.55,0,0,1,11.12,104.72Z"/><path class="cls-7" d="M18.46,118.11H15.29l.52.44h2.66C18.47,118.47,18.46,118.4,18.46,118.11Z"/><path class="cls-12" d="M18.46,118.11v.44l3.57,0,.25-.43Z"/><path class="cls-3" d="M57.49,102.55a7.36,7.36,0,0,0,.89-.44.67.67,0,0,0,.23-.42c0-.17-.08-.41-.24-.32-.73.41-1.56-.2-2.19.2-.22.13.21.65.57.8A4,4,0,0,0,57.49,102.55Z"/><path class="cls-3" d="M58.07,91.82a1,1,0,0,0,1.47-.43c.1-.19.1-.52-.09-.56C58.7,90.67,58.56,91.5,58.07,91.82Z"/><path class="cls-4" d="M52.33,77.56a1.34,1.34,0,0,0-1.7.43c-.13.15-.06.4.08.41C51.32,78.42,51.73,78,52.33,77.56Z"/><path class="cls-3" d="M36.5,63c.17.08.3.19.35.16a.68.68,0,0,0,.3-.33c.05-.23-.14-.28-.3-.2A1.58,1.58,0,0,0,36.5,63Z"/><path class="cls-3" d="M34.82,62.91l.09.21c.07,0,.18,0,.2-.1s0-.13-.08-.2Z"/><path class="cls-5" d="M75.59,38.34c-.38,0-.77,0-1.14,0a2.31,2.31,0,0,0-2.53,1.4,5.19,5.19,0,0,0,.74,5.72A16.12,16.12,0,0,0,74.33,47a3.49,3.49,0,0,0,5.48-1.63c.56-1.5,1.21-2.95.41-4.69A3.27,3.27,0,0,0,77,38.42H75.59Zm-.71,3.08a2.45,2.45,0,0,1,.51,1.15c.19.25.45.42.26.86-.37.89-.05,1.29.87,1.2.25,0,.51-.18.73-.14s.87-.2,1,.29-.23.71-.54.94a1.8,1.8,0,0,1-2,.24,6.17,6.17,0,0,1-2.57-2.36A2.6,2.6,0,0,1,73,41.28a1.23,1.23,0,0,1,1.24-.9C74.86,40.39,74.79,41,74.88,41.42Z"/><path class="cls-5" d="M61.59,39.2a6.84,6.84,0,0,0-1.67,4.64,4,4,0,0,0,4.9,4.06c1.19-.26,1.49-1.41,1.71-2.33a6.08,6.08,0,0,0-.59-5c0,.77,0,1.54,0,2.31,0,.3-.09.52-.45.5,0,.21.11.41.13.62.06.57.26,1.2-.3,1.64s-1.19.2-1.79,0a5.81,5.81,0,0,1-2.19-2,1.67,1.67,0,0,1,.27-2.51Z"/><path class="cls-12" d="M65.92,42.93c0-.77,0-1.54,0-2.31v0l-.27-.48c-.26-.43-.48-.89-.78-1.29-1.14-1.47-2.45-1.34-3.31.32v1.89a2.78,2.78,0,0,1,1.81.81c.35-.42.64-.14.95.06C64.87,42.3,65.4,42.61,65.92,42.93Z"/><path class="cls-5" d="M70,47l.34,0c-.2-3.68.18-7.39-.67-11.07a10.57,10.57,0,0,0-1.41,5c.74-.47,1.07-.18,1.13.61C69.53,43.32,70.12,45.12,70,47Z"/><path class="cls-4" d="M66.46,48c1-.07.79-.93.91-1.45a24.61,24.61,0,0,0,.83-5.46c-.74,1.08-.64,2.4-1,3.6S66.71,46.89,66.46,48Z"/><path class="cls-5" d="M65.68,40.17l.27.48A.49.49,0,0,0,65.68,40.17Z"/><path class="cls-5" d="M31.92,81.31a1.16,1.16,0,0,0,.1.32c1.08,1.72,2.23,3.52,4,4.41s3.43,1.6,5.16,2.36c.4.17,1,.54,1.21,0s-.39-.68-.72-.89c-1.3-.82-2.39-1.94-4.12-2-1,0-1.56-1.2-2.21-2S34.23,82,33.61,81.21a1.34,1.34,0,0,0-1.38-.42C32,80.84,31.92,81,31.92,81.31Z"/><path class="cls-2" d="M29.61,91.42c.05.91.63,1.35,1.57,1.81a4.24,4.24,0,0,0-1.53-1.85Z"/><path class="cls-2" d="M29.65,91.38l-.13-.09.09.13Z"/><path class="cls-12" d="M8.83,64.49A.83.83,0,0,0,8.07,64C8.06,64.54,8.43,64.54,8.83,64.49Z"/><path class="cls-12" d="M8.07,64a.38.38,0,0,0-.51-.25A.4.4,0,0,0,8.07,64Z"/><path class="cls-12" d="M7.57,63.73c0-.17-.11-.24-.27-.26Z"/><path class="cls-5" d="M14.89,63.72l.3.27C15.18,63.58,15.18,63.58,14.89,63.72Z"/><path class="cls-1" d="M9,60.68c-.31.44-.56,1-1.19,1a4.14,4.14,0,0,0,3,2c0-.16,0-.32,0-.47v-.52h0c-.68,0-.82-.44-.76-1h0a.22.22,0,0,1-.25-.25h0c-.47.05-.51-.26-.52-.61Z"/><path class="cls-2" d="M10.87,63.24c0,.15,0,.31,0,.47l.53.27.25-.47-.3-.27Z"/><path class="cls-12" d="M10.1,61.7c-.06.58.08,1,.76,1A1.23,1.23,0,0,0,10.1,61.7Z"/><path class="cls-12" d="M9.33,60.83c0,.35.05.66.52.61C9.88,61.07,9.59,61,9.33,60.83Z"/><path class="cls-12" d="M10.87,63.24h.44a.65.65,0,0,0-.45-.52Z"/><path class="cls-12" d="M9.85,61.45a.22.22,0,0,0,.25.25C10.09,61.54,10,61.45,9.85,61.45Z"/><path class="cls-14" d="M44.94,21.3l.36.38c.38.29.71.12,1-.13,0-1.35-1-.43-1.45-.64Z"/><path class="cls-9" d="M40.28,104.93a.59.59,0,0,0-.53.65c0,.35.17.57.55.51a.54.54,0,0,0,.5-.61A.56.56,0,0,0,40.28,104.93Z"/><path class="cls-9" d="M39.31,119.58c0,.32.21.56.56.53s.6-.15.57-.51-.34-.54-.72-.51A.41.41,0,0,0,39.31,119.58Z"/><path class="cls-9" d="M11.12,104.72a.55.55,0,0,0-.52.47.59.59,0,0,0,.57.69c.33,0,.43-.22.42-.5S11.47,104.8,11.12,104.72Z"/><path class="cls-1" d="M74.88,41.42c-.09-.44,0-1-.67-1a1.23,1.23,0,0,0-1.24.9,2.6,2.6,0,0,0,.15,2.32A6.17,6.17,0,0,0,75.69,46a1.8,1.8,0,0,0,2-.24c.31-.23.63-.58.54-.94s-.65-.22-1-.29-.48.12-.73.14c-.92.09-1.24-.31-.87-1.2.19-.44-.07-.61-.26-.86-.41.21-.71.85-1.29.45a1,1,0,0,1-.47-1.09C73.8,41.26,74.4,41.45,74.88,41.42Z"/><path class="cls-12" d="M74.88,41.42c-.48,0-1.08-.16-1.25.51A1,1,0,0,0,74.1,43c.58.4.88-.24,1.29-.45A2.45,2.45,0,0,0,74.88,41.42Z"/><path class="cls-9" d="M63.4,41.9a2.78,2.78,0,0,0-1.81-.81,1.67,1.67,0,0,0-.27,2.51,5.81,5.81,0,0,0,2.19,2c.6.25,1.2.49,1.79,0s.36-1.07.3-1.64c0-.21-.09-.41-.13-.62Zm-.49,1.91a.64.64,0,0,1,.65-.57c.42-.05.78.09.8.56a.62.62,0,0,1-.65.74A.82.82,0,0,1,62.91,43.81Z"/><path class="cls-4" d="M63.4,41.9l2.07,1.53c.36,0,.45-.2.45-.5-.52-.32-1-.63-1.57-1C64,41.76,63.75,41.48,63.4,41.9Z"/><path class="cls-6" d="M62.91,43.81a.82.82,0,0,0,.8.73.62.62,0,0,0,.65-.74c0-.47-.38-.61-.8-.56A.64.64,0,0,0,62.91,43.81Z"/></g></g></svg>