<svg xmlns="http://www.w3.org/2000/svg" viewBox="0 0 211.45 30.5"><defs><style>.cls-1{fill:#9cd9d9;}</style></defs><g id="Layer_2" data-name="Layer 2"><g id="Layer_7" data-name="Layer 7"><path class="cls-1" d="M72.9,8.62h-45L29,9.06,24.52,4.62l-2.39-2.4a8.71,8.71,0,0,0-2.19-2A9,9,0,0,0,16.87.07H6.9a1.5,1.5,0,0,0,0,3H19.36L18.3,2.64l5.13,5.12,2.39,2.39a6.34,6.34,0,0,0,1.33,1.26,3.58,3.58,0,0,0,1.75.21h44a1.5,1.5,0,0,0,0-3Z"/><path class="cls-1" d="M72.9,18.88h-44a3.7,3.7,0,0,0-1.75.2,6.61,6.61,0,0,0-1.33,1.26l-2.39,2.4L18.3,27.86l1.06-.44H6.9a1.5,1.5,0,0,0,0,3h10a8.51,8.51,0,0,0,3.07-.13c.82-.34,1.56-1.39,2.19-2l2.22-2.22L29,21.44l-1.07.44h45a1.5,1.5,0,0,0,0-3Z"/><path class="cls-1" d="M138.54,11.62h44a3.6,3.6,0,0,0,1.76-.21,6.34,6.34,0,0,0,1.33-1.26L188,7.76l5.13-5.12-1.06.43h12.46a1.5,1.5,0,0,0,0-3h-10a8.75,8.75,0,0,0-3.07.13,8.9,8.9,0,0,0-2.19,2L187.1,4.44l-4.62,4.62,1.06-.44h-45a1.5,1.5,0,0,0,0,3Z"/><path class="cls-1" d="M138.54,21.88h45l-1.06-.44,4.45,4.44,2.39,2.39c.65.65,1.35,1.67,2.19,2a8.75,8.75,0,0,0,3.07.13h10a1.5,1.5,0,0,0,0-3H192.09l1.06.44L188,22.74l-2.39-2.4a6.61,6.61,0,0,0-1.33-1.26,3.72,3.72,0,0,0-1.76-.2h-44a1.5,1.5,0,0,0,0,3Z"/><path class="cls-1" d="M44,16H88.56a.75.75,0,0,0,0-1.5H44A.75.75,0,0,0,44,16Z"/><path class="cls-1" d="M122.89,16h44.53a.75.75,0,0,0,0-1.5H122.89a.75.75,0,0,0,0,1.5Z"/><path class="cls-1" d="M.72,7.5H17.38l-.53-.22L20,10.43a.75.75,0,0,0,1.06-1.06l-2-2c-.5-.5-1-1.26-1.71-1.4a15.33,15.33,0,0,0-2.71,0H.72a.75.75,0,0,0,0,1.5Z"/><path class="cls-1" d="M.72,24.5h14a13.63,13.63,0,0,0,2.71,0c.67-.15,1.1-.79,1.58-1.27l2.1-2.1c.68-.69-.38-1.75-1.06-1.06l-3.15,3.15.53-.22H.72a.75.75,0,0,0,0,1.5Z"/><path class="cls-1" d="M210.72,6H196.78a13.63,13.63,0,0,0-2.71,0c-.67.15-1.1.79-1.58,1.27l-2.1,2.1a.75.75,0,0,0,1.06,1.06l3.15-3.15-.53.22h16.65a.75.75,0,0,0,0-1.5Z"/><path class="cls-1" d="M210.72,23H194.07l.53.22-3.15-3.15a.75.75,0,0,0-1.06,1.06l2,2c.49.49,1,1.26,1.71,1.4a15.33,15.33,0,0,0,2.71,0h13.94a.75.75,0,0,0,0-1.5Z"/></g></g></svg>