<svg xmlns="http://www.w3.org/2000/svg" viewBox="0 0 1896.02 1052.98"><defs><style>.cls-1{fill:#f4a6a2;}</style></defs><g id="Layer_2" data-name="Layer 2"><g id="Layer_8" data-name="Layer 8"><path class="cls-1" d="M823.89,239l45.53-45.26,45.35-45.07,45.53-45.26,45.35-45.08L1051,13.3l5.66-5.64a3.8,3.8,0,0,0,0-5.3,3.8,3.8,0,0,0-5.3,0l-45.53,45.25L960.49,92.69,915,137.94,869.61,183,824.26,228.1l-5.67,5.63a3.75,3.75,0,0,0,5.3,5.31Z"/><path class="cls-1" d="M6.41,1051.57,130.6,928.13,253.9,805.58,378.09,682.14l123.74-123,123.74-123,15.3-15.2c3.43-3.41-1.87-8.71-5.3-5.31L511.38,539.08,388.08,661.63,263.89,785.07l-123.74,123-123.74,123-15.3,15.2c-3.43,3.41,1.87,8.71,5.3,5.31Z"/><path class="cls-1" d="M876.69,239.48l45.53-45.26L967.75,149l45.36-45.08,45.71-45.43,45.36-45.08,5.67-5.64a3.82,3.82,0,0,0,0-5.3,3.81,3.81,0,0,0-5.31,0L1059,47.68l-45.53,45.26L968.12,138l-45.71,45.44-45.36,45.08-5.67,5.63a3.75,3.75,0,0,0,5.31,5.31Z"/><path class="cls-1" d="M59.58,1051.63,183.86,928.11,307.24,805.48,431.51,682,555.34,558.88,679.17,435.8l15.31-15.21c3.42-3.41-1.88-8.72-5.31-5.31L564.9,538.81,441.52,661.44,317.24,785,193.42,908,69.59,1031.11l-15.31,15.22c-3.43,3.41,1.87,8.71,5.3,5.3Z"/><path class="cls-1" d="M933.71,238.83l45.38-45.1,45.37-45.1,45.37-45.1,45.38-45.1,45.37-45.1,5.67-5.63a3.81,3.81,0,0,0,0-5.31,3.8,3.8,0,0,0-5.3,0l-45.37,45.1-45.38,45.1-45.37,45.1-45.38,45.1-45.37,45.1-5.67,5.64a3.75,3.75,0,1,0,5.3,5.3Z"/><path class="cls-1" d="M116,1051.6,240.34,928,363.79,805.3,488.14,681.7,612,558.55,735.94,435.4l15.32-15.22c3.43-3.41-1.87-8.72-5.3-5.31L621.61,538.47,498.16,661.17,373.81,784.77,249.91,907.92,126,1031.07l-15.32,15.23c-3.43,3.4,1.87,8.71,5.3,5.3Z"/><path class="cls-1" d="M985.77,240l45.74-45.46,45.38-45.11L1122.63,104l45.56-45.28,45.56-45.29,5.67-5.64a3.8,3.8,0,0,0,0-5.3,3.8,3.8,0,0,0-5.3,0l-45.74,45.46L1123,93l-45.74,45.46-45.56,45.29-45.56,45.28-5.67,5.64a3.75,3.75,0,0,0,5.3,5.3Z"/><path class="cls-1" d="M169.16,1051.67,293.44,928.14,416.81,805.52,541.09,682,664.91,558.92,788.74,435.84l15.31-15.21c3.43-3.41-1.88-8.72-5.31-5.31L674.47,538.85,551.09,661.47,426.82,785,303,908.07,179.17,1031.15l-15.31,15.21c-3.43,3.41,1.87,8.72,5.3,5.31Z"/><path class="cls-1" d="M1047.73,239l45.51-45.23,45.33-45.06,45.51-45.23,45.34-45.06,45.33-45.06,5.67-5.63a3.82,3.82,0,0,0,0-5.3,3.8,3.8,0,0,0-5.31,0L1229.6,47.61l-45.33,45.06-45.51,45.23L1093.43,183,1048.09,228l-5.66,5.63a3.75,3.75,0,1,0,5.3,5.3Z"/><path class="cls-1" d="M230.15,1051.58,354.52,928,478,805.24,602.36,681.63,726.28,558.46,850.2,435.29l15.32-15.23c3.43-3.41-1.87-8.71-5.3-5.3L735.85,538.37,612.38,661.09,488,784.71,364.09,907.88,240.17,1031.05l-15.32,15.23c-3.43,3.41,1.87,8.71,5.3,5.3Z"/><path class="cls-1" d="M1100.28,239.64l45.56-45.28,45.56-45.29L1236.79,104q22.86-22.74,45.74-45.46l45.38-45.11,5.68-5.64a3.83,3.83,0,0,0,0-5.31,3.81,3.81,0,0,0-5.31,0l-45.56,45.29L1237.16,93l-45.39,45.11L1146,183.59l-45.38,45.11-5.67,5.64a3.75,3.75,0,0,0,5.3,5.3Z"/><path class="cls-1" d="M283.32,1051.65,407.57,928.16l123.35-122.6,124.25-123.5L779,559l123.8-123,15.31-15.21c3.42-3.41-1.88-8.71-5.31-5.3L788.51,538.94,665.17,661.54,540.92,785,417.12,908.09l-123.79,123L278,1046.35c-3.43,3.4,1.87,8.71,5.3,5.3Z"/><path class="cls-1" d="M1156.82,239.48l45.54-45.26L1247.89,149l45.36-45.09L1339,58.43l45.36-45.08L1390,7.71a3.8,3.8,0,0,0,0-5.3,3.8,3.8,0,0,0-5.3,0l-45.54,45.26-45.53,45.26L1248.26,138l-45.72,45.43-45.35,45.09-5.67,5.63a3.75,3.75,0,0,0,5.3,5.31Z"/><path class="cls-1" d="M339.73,1051.62,464,928.14,587.28,805.56,711.51,682.09l123.77-123L959.06,436l15.3-15.21c3.43-3.41-1.87-8.71-5.3-5.3L844.83,539,721.51,661.58,597.28,785.05l-123.77,123-123.78,123-15.3,15.21c-3.43,3.41,1.87,8.71,5.3,5.31Z"/><path class="cls-1" d="M1209.61,239.92l45.72-45.44,45.36-45.09L1346.41,104,1392,58.68l45.54-45.26,5.67-5.64a3.8,3.8,0,0,0,0-5.3,3.8,3.8,0,0,0-5.3,0l-45.72,45.44L1346.78,93l-45.72,45.44-45.54,45.27L1210,229l-5.67,5.63a3.75,3.75,0,0,0,5.31,5.3Z"/><path class="cls-1" d="M852.94,594.44l68.39-68,68-67.63,38.27-38a3.75,3.75,0,1,0-5.31-5.3l-68.39,68-68,67.62-38.27,38a3.75,3.75,0,0,0,5.31,5.31Z"/><path class="cls-1" d="M392.9,1051.68l75.72-75.26,75.17-74.71,75.72-75.26,75.45-75,75.44-75,9.33-9.27c3.43-3.41-1.87-8.71-5.3-5.31l-75.72,75.26-75.17,74.72-75.72,75.26-75.45,75-75.44,75-9.33,9.27c-3.43,3.41,1.87,8.71,5.3,5.3Z"/><path class="cls-1" d="M1274.9,239.78l45.71-45.43L1366,149.26l45.71-45.43,45.54-45.26,45.53-45.26,5.67-5.64a3.8,3.8,0,0,0,0-5.3,3.8,3.8,0,0,0-5.3,0L1457.41,47.8l-45.36,45.09-45.72,45.43-45.53,45.27-45.54,45.26-5.67,5.63a3.75,3.75,0,1,0,5.31,5.3Z"/><path class="cls-1" d="M918.3,594.22l68.37-68,68-67.6,38.26-38a3.75,3.75,0,1,0-5.31-5.3l-68.36,67.95-68,67.59-38.26,38a3.75,3.75,0,1,0,5.3,5.31Z"/><path class="cls-1" d="M458.16,1051.57q31.44-31.23,62.86-62.48l62.41-62,62.87-62.48,62.63-62.26,62.64-62.26,7.75-7.7c3.42-3.4-1.88-8.71-5.31-5.3l-62.86,62.48-62.41,62-62.87,62.48-62.63,62.26-62.64,62.25-7.74,7.7c-3.43,3.41,1.87,8.71,5.3,5.3Z"/><path class="cls-1" d="M1329.14,238.78l45.36-45.08,45.35-45.08,45.36-45.08,45.36-45.08,45.35-45.09,5.67-5.63a3.8,3.8,0,0,0,0-5.3,3.79,3.79,0,0,0-5.3,0l-45.36,45.08L1465.58,92.6l-45.36,45.08-45.36,45.08-45.35,45.08-5.67,5.64a3.75,3.75,0,0,0,5.3,5.3Z"/><path class="cls-1" d="M971.31,594.45l68.06-67.65,68.06-67.65,38.28-38a3.75,3.75,0,0,0-5.3-5.3l-68.06,67.65-68.06,67.65-38.29,38a3.75,3.75,0,0,0,5.31,5.3Z"/><path class="cls-1" d="M511.33,1051.64l52.52-52.2L616,947.62l52.52-52.21,52.33-52,52.33-52,6.47-6.43c3.43-3.41-1.88-8.71-5.3-5.3l-52.52,52.2-52.14,51.82-52.52,52.2-52.33,52q-26.18,26-52.33,52l-6.47,6.43c-3.43,3.41,1.87,8.71,5.3,5.3Z"/><path class="cls-1" d="M1366.73,257.46l49.18-48.89L1464.74,160l49.19-48.89,49-48.71,49-48.71,6.06-6a3.81,3.81,0,0,0,0-5.31,3.8,3.8,0,0,0-5.3,0l-49.19,48.89-48.83,48.53-49.18,48.89-49,48.71-49,48.71-6.06,6a3.75,3.75,0,1,0,5.31,5.3Z"/><path class="cls-1" d="M1027.35,594.78l68.39-68,68.38-68,38.62-38.39a3.75,3.75,0,1,0-5.3-5.31l-68.38,68-68.39,68-38.62,38.38a3.75,3.75,0,1,0,5.3,5.31Z"/><path class="cls-1" d="M567.74,1051.61l51.14-50.83,50.77-50.47,51.14-50.83,51-50.65,51-50.65,6.3-6.26c3.42-3.4-1.88-8.71-5.31-5.3l-51.14,50.83-50.77,50.46-51.14,50.84-51,50.64-51,50.65-6.3,6.26c-3.43,3.41,1.87,8.72,5.3,5.31Z"/><path class="cls-1" d="M1367.25,309.85l59.49-59.13L1485.8,192l59.49-59.13L1604.57,74l59.27-58.91,7.33-7.29c3.43-3.4-1.87-8.71-5.3-5.3L1606.38,61.6l-59.06,58.7-59.49,59.13-59.28,58.92-59.27,58.91-7.33,7.29c-3.43,3.4,1.88,8.71,5.3,5.3Z"/><path class="cls-1" d="M1080.85,594.52l68.39-68,68.4-68,38.62-38.39a3.75,3.75,0,1,0-5.3-5.3l-68.39,68-68.4,68-38.63,38.39a3.75,3.75,0,0,0,5.31,5.3Z"/><path class="cls-1" d="M620.91,1051.68l51.21-50.9L723,950.25l51.21-50.89q25.5-25.36,51-50.71t51-50.71l6.3-6.27c3.43-3.41-1.87-8.72-5.3-5.31L826,837.26l-50.83,50.52L724,938.68l-51,50.71q-25.5,25.36-51,50.71l-6.3,6.27c-3.43,3.41,1.87,8.71,5.3,5.31Z"/><path class="cls-1" d="M1367.23,370.41l2.53-2.51,7.19-7.15,11.42-11.36,15-14.94,18.2-18.08,20.84-20.73,23.12-23,24.65-24.51,25.8-25.64,26.43-26.27L1569,169.84l26.33-26.18,25.33-25.18,24-23.81,22.09-22,19.79-19.67,16.8-16.71L1716.75,23l9.52-9.47,5.14-5.1.75-.75c3.43-3.41-1.87-8.71-5.3-5.31l-2.81,2.79-7.44,7.4L1705,24.15l-15.23,15.14-18.36,18.25-21,20.85-23.23,23.09-24.73,24.58-25.84,25.69-26.46,26.3-26.57,26.4-26.3,26.14L1472,255.7l-23.87,23.73-22,21.82-19.64,19.52-16.62,16.53-13.21,13.12-9.29,9.24-4.86,4.83-.62.61c-3.43,3.41,1.87,8.72,5.3,5.31Z"/><path class="cls-1" d="M1122.34,613.82l37.89-37.66,38.07-37.84,37.9-37.67L1274.09,463,1312,425.33l4.78-4.76a3.75,3.75,0,1,0-5.3-5.3l-37.89,37.66-38.07,37.84-37.9,37.67-37.89,37.66-37.89,37.66-4.78,4.76a3.75,3.75,0,0,0,5.3,5.3Z"/><path class="cls-1" d="M681.9,1051.59l51.31-51L784.15,950l51.31-51,51.12-50.81q25.56-25.41,51.13-50.81l6.32-6.29c3.42-3.4-1.88-8.71-5.31-5.3l-51.31,51-50.93,50.63-51.31,51Q759.6,963.77,734,989.19L682.92,1040l-6.32,6.28c-3.43,3.4,1.87,8.71,5.3,5.3Z"/><path class="cls-1" d="M1122.42,666.66l129.76-129,128.82-128,129.76-129,129.3-128.51L1769.35,23.64l16-15.88c3.43-3.41-1.87-8.71-5.3-5.31l-129.76,129-128.82,128-129.77,129L1262.39,517,1133.1,645.47l-16,15.89c-3.43,3.4,1.88,8.71,5.31,5.3Z"/><path class="cls-1" d="M735.07,1051.66l51.08-50.77,50.71-50.41q25.54-25.38,51.08-50.77l50.9-50.58,50.89-50.59,6.3-6.26c3.43-3.4-1.88-8.71-5.31-5.3l-51.08,50.77-50.71,50.4-51.08,50.78L787,989.51l-50.9,50.59-6.29,6.26c-3.43,3.4,1.87,8.71,5.3,5.3Z"/><path class="cls-1" d="M1122.57,722.54l140.77-139.92L1403.1,443.71l140.77-139.92,140.27-139.42L1824.4,25l17.34-17.24c3.43-3.41-1.87-8.71-5.3-5.3L1695.66,142.34,1555.91,281.25,1415.14,421.17,1274.87,560.59,1134.61,700l-17.35,17.24c-3.42,3.41,1.88,8.71,5.31,5.3Z"/><path class="cls-1" d="M791.48,1051.62l51.15-50.84,50.79-50.48,51.15-50.84,51-50.66,51-50.67,6.3-6.26c3.42-3.41-1.88-8.71-5.31-5.3l-51.15,50.84-50.79,50.48-51.15,50.85-51,50.66-51,50.66-6.3,6.26c-3.43,3.41,1.87,8.71,5.3,5.3Z"/><path class="cls-1" d="M844.65,1051.69l7.3-7.25,20.78-20.66,33-32.79,43.43-43.17,52.54-52.21,60.5-60.14,66.41-66,71.5-71.06,74.44-74,76.62-76.16,76.62-76.15,75.87-75.41,72.93-72.5,69.24-68.82,63.41-63L1766,136l48-47.74,38.33-38.1,26.8-26.64,14.06-14,1.73-1.72c3.43-3.41-1.87-8.71-5.3-5.3l-7.3,7.25L1861.53,30.4l-33,32.79-43.42,43.17-52.54,52.21-60.5,60.14-66.41,66-71.5,71.06-74.44,74-76.62,76.16-76.62,76.15-75.87,75.41L1157.68,730l-69.24,68.82-63.41,63L968.3,918.21l-48,47.74-38.33,38.1-26.8,26.64-14.06,14-1.73,1.72c-3.43,3.41,1.87,8.71,5.3,5.3Z"/><path class="cls-1" d="M899.39,1051.76l6.9-6.85,19.63-19.51,31.17-31,41-40.78,49.63-49.33,57.16-56.81,62.74-62.36L1235.2,718l70.32-69.9,72.4-72,72.38-71.95L1522,433l68.9-68.49,65.41-65,59.91-59.54,53.59-53.26,45.38-45.11,36.21-36,25.32-25.17L1890,67.17l1.63-1.63c3.43-3.41-1.87-8.71-5.3-5.3l-6.9,6.85-19.63,19.52-31.17,31-41,40.78L1738,207.7l-57.16,56.81-62.74,62.36L1550.51,394l-70.33,69.9-72.39,72-72.38,71.94-71.68,71.24-68.9,68.49-65.41,65-59.91,59.54-53.59,53.27-45.38,45.1-36.21,36L909,1031.63l-13.29,13.2-1.63,1.63c-3.43,3.41,1.87,8.71,5.3,5.3Z"/><path class="cls-1" d="M952.56,1051.83l6.53-6.48,18.58-18.47,29.5-29.32L1046,959l47-46.69,54.09-53.76,59.38-59L1270.36,736l66.55-66.15,68.51-68.09,68.49-68.08,67.84-67.43L1607,401.4l61.9-61.53,56.69-56.35,50.72-50.41,42.94-42.68,34.27-34.06,24-23.82,12.57-12.5,1.55-1.54c3.42-3.4-1.88-8.71-5.31-5.3l-6.52,6.49-18.58,18.47-29.5,29.32-38.83,38.59-47,46.68-54.09,53.76-59.38,59-63.92,63.54-66.56,66.15-68.5,68.1-68.5,68.08-67.84,67.42-65.21,64.82L1170,825.17l-56.69,56.35-50.72,50.41-42.94,42.68-34.27,34.07-24,23.81L948.81,1045l-1.55,1.54c-3.43,3.41,1.87,8.71,5.3,5.3Z"/><path class="cls-1" d="M1009,1051.8l6.13-6.1,17.47-17.36,27.73-27.56,36.49-36.27,44.15-43.88,50.84-50.54,55.81-55.47,60.09-59.73,62.56-62.17,64.39-64,64.39-64,63.76-63.38,61.29-60.92,58.19-57.84,53.29-53,47.67-47.38,40.36-40.12,32.22-32,22.52-22.39L1890.14,176l1.45-1.45c3.43-3.41-1.87-8.71-5.3-5.3l-6.13,6.09-17.47,17.36L1835,220.23l-36.49,36.28-44.15,43.88-50.84,50.53-55.81,55.48-60.09,59.72L1525,528.3l-64.4,64-64.38,64-63.76,63.37-61.3,60.93L1213,838.43l-53.29,53L1112,938.78l-40.36,40.12-32.22,32-22.52,22.38-11.82,11.75-1.45,1.45c-3.43,3.4,1.87,8.71,5.3,5.3Z"/><path class="cls-1" d="M1062.14,1051.87l5.76-5.73,16.41-16.31,26.06-25.9,34.3-34.09,41.48-41.24,47.78-47.48L1286.37,829l56.47-56.12,58.78-58.43,60.52-60.15,60.5-60.13,59.91-59.55,57.6-57.25L1694.83,423l50.07-49.77,44.8-44.53,37.93-37.7,30.27-30.08,21.16-21,11.11-11,1.37-1.36c3.43-3.41-1.88-8.71-5.31-5.3l-5.76,5.73-16.41,16.31L1838,270.13l-34.29,34.09-41.49,41.23-47.78,47.49L1662,445.07l-56.47,56.12-58.78,58.43-60.51,60.14-60.5,60.14-59.92,59.55-57.6,57.25-54.68,54.35-50.07,49.77-44.8,44.52L1120.74,983l-30.27,30.09-21.16,21-11.11,11-1.36,1.36c-3.43,3.41,1.87,8.72,5.3,5.31Z"/><path class="cls-1" d="M1123.13,1051.78l5.34-5.31,15.21-15.12,24.15-24,31.79-31.59,38.45-38.22,44.28-44L1331,845.21l52.34-52L1437.78,739l56.09-55.75,56.07-55.73,55.53-55.2,53.39-53.06,50.68-50.37L1756,422.8l41.52-41.27,35.15-34.94,28.06-27.89,19.62-19.5L1890.59,289l1.27-1.26c3.42-3.41-1.88-8.71-5.31-5.3l-5.34,5.31L1866,302.84l-24.15,24-31.79,31.59-38.45,38.22-44.28,44L1678.72,489l-52.33,52-54.49,54.15-56.08,55.75-56.08,55.73-55.53,55.2-53.39,53.06-50.67,50.37-46.42,46.13-41.51,41.27-35.16,34.94L1149,1015.49l-19.61,19.5-10.29,10.23-1.27,1.26c-3.43,3.41,1.87,8.71,5.3,5.3Z"/><path class="cls-1" d="M1176.3,1051.85l5-4.94,14.16-14.07,22.48-22.35,29.58-29.4,35.79-35.58,41.22-41,45.24-45,48.71-48.42,50.71-50.4,52.21-51.89L1573.56,657l51.69-51.38,49.68-49.38,47.17-46.89,43.2-42.93L1804,428l32.72-32.53,26.11-26L1881,351.38l9.58-9.52,1.18-1.17c3.43-3.41-1.88-8.72-5.3-5.31l-5,4.94-14.16,14.08-22.47,22.34-29.59,29.4-35.79,35.58-41.21,41-45.25,45-48.71,48.42-50.71,50.4-52.2,51.89-52.19,51.87-51.69,51.38L1387.86,831l-47.17,46.88-43.2,42.94-38.64,38.41-32.72,32.52-26.11,26-18.26,18.15-9.58,9.52-1.18,1.18c-3.43,3.4,1.87,8.71,5.3,5.3Z"/><path class="cls-1" d="M1232.71,1051.82l4.58-4.56,13-13,20.71-20.58,27.25-27.09,33-32.77,38-37.74,41.68-41.42,44.87-44.6,46.72-46.44,48.08-47.79,48.08-47.79,47.62-47.33,45.77-45.49,43.45-43.19,39.8-39.56,35.6-35.38,30.14-30,24.06-23.91,16.82-16.72,8.82-8.77,1.09-1.08c3.42-3.41-1.88-8.71-5.31-5.3l-4.58,4.55-13,13-20.71,20.58-27.25,27.09-33,32.77-38,37.74-41.67,41.43-44.88,44.6-46.71,46.43-48.09,47.8-48.08,47.78L1473,802.45,1427.18,848l-43.45,43.19-39.79,39.55-35.6,35.38-30.15,30-24,23.91-16.82,16.72-8.83,8.77-1.08,1.08c-3.43,3.41,1.87,8.71,5.3,5.31Z"/><path class="cls-1" d="M1285.88,1051.88l4.21-4.18,12-11.92,19-18.92,25.06-24.9,30.3-30.12,34.9-34.69,38.32-38.08,41.25-41,42.94-42.68,44.2-43.94,44.2-43.93L1666.05,674l42.08-41.82,39.94-39.7,36.58-36.36,32.72-32.52,27.71-27.54,22.12-22,15.46-15.37,8.11-8.06,1-1c3.43-3.4-1.87-8.71-5.3-5.3l-4.21,4.19-12,11.91-19,18.92-25,24.9-30.31,30.13L1761,569.09l-38.31,38.09-41.25,41-42.94,42.69-44.21,43.93-44.2,43.93-43.77,43.51-42.07,41.82-39.94,39.7-36.58,36.36L1355,972.64l-27.71,27.54-22.11,22-15.46,15.37-8.11,8.06-1,1c-3.43,3.41,1.87,8.71,5.3,5.3Z"/><path class="cls-1" d="M1351.14,1051.77l3.76-3.73,10.69-10.63,17-16.88,22.35-22.22,27-26.88,31.14-30.95,34.18-34,36.81-36.58,38.31-38.08,39.45-39.2,39.43-39.2,39-38.82,37.55-37.31,35.63-35.43,32.64-32.44,29.2-29,24.72-24.57,19.73-19.61,13.8-13.71,7.24-7.2.89-.88c3.43-3.41-1.88-8.71-5.3-5.31l-3.76,3.74L1872,523.51l-17,16.88-22.35,22.22-27.05,26.88-31.14,31-34.18,34L1703.48,691l-38.32,38.08-39.44,39.2-39.44,39.2-39,38.81-37.54,37.32L1474.05,919l-32.64,32.44-29.2,29-24.72,24.58-19.73,19.61-13.8,13.71-7.23,7.19-.9.89c-3.42,3.41,1.88,8.71,5.31,5.3Z"/><path class="cls-1" d="M1404.31,1051.84l3.39-3.37,9.64-9.58,15.31-15.22,20.15-20,24.38-24.23,28.08-27.9,30.81-30.64,33.18-33,34.55-34.33,35.56-35.34,35.55-35.34,35.21-35L1744,714.25l32.13-31.94,29.43-29.25,26.32-26.16,22.29-22.15,17.79-17.68,12.43-12.37,6.53-6.48.8-.8c3.43-3.41-1.87-8.71-5.3-5.3l-3.39,3.36-9.64,9.59L1858,590.29l-20.16,20-24.37,24.23-28.08,27.9-30.82,30.63-33.18,33-34.54,34.34-35.56,35.34-35.55,35.34-35.21,35-33.84,33.64-32.13,31.94-29.43,29.24-26.32,26.17-22.29,22.15-17.79,17.68-12.44,12.36-6.52,6.49-.8.8c-3.43,3.41,1.87,8.71,5.3,5.3Z"/><path class="cls-1" d="M1460.72,1051.81l3-3,8.53-8.48,13.54-13.45,17.82-17.72,21.56-21.43L1550,963.08,1577.24,936l29.34-29.16,30.55-30.37,31.44-31.25L1700,814l31.14-31,29.93-29.75L1789.49,725l26-25.86L1838.79,676l19.71-19.59,15.73-15.63,11-10.93,5.77-5.74.71-.71c3.43-3.4-1.87-8.71-5.3-5.3l-3,3-8.53,8.47L1861.34,643l-17.82,17.72L1822,682.17l-24.82,24.68-27.26,27.09-29.34,29.16L1710,793.46l-31.45,31.26L1647.11,856,1616,886.91l-29.93,29.75-28.42,28.24-26,25.87-23.28,23.13-19.71,19.6-15.73,15.63-11,10.93-5.77,5.74-.71.7c-3.42,3.41,1.88,8.72,5.31,5.31Z"/><path class="cls-1" d="M1513.89,1051.88l2.62-2.61,7.48-7.43,11.87-11.8,15.62-15.52,18.89-18.79,21.76-21.63L1616,950.36l25.72-25.56,26.77-26.61,27.56-27.4,27.56-27.39,27.29-27.12,26.23-26.08,24.91-24.75,22.81-22.67,20.4-20.28,17.27-17.17,13.79-13.7L1886,682l5.06-5,.62-.62c3.43-3.41-1.87-8.71-5.3-5.31l-2.63,2.61-7.47,7.43-11.87,11.8-15.62,15.52-18.89,18.79-21.76,21.62-23.89,23.75-25.72,25.56-26.77,26.61-27.57,27.4-27.55,27.39-27.29,27.12-26.24,26.08-24.9,24.75-22.81,22.67-20.4,20.28-17.28,17.17-13.79,13.7-9.64,9.59-5,5-.63.62c-3.42,3.41,1.88,8.71,5.31,5.31Z"/><path class="cls-1" d="M1574.88,1051.79l2.2-2.18,6.25-6.22,9.93-9.87,13.07-13,15.81-15.72,18.21-18.1,20-19.86,21.52-21.39,22.4-22.27,23.07-22.93,23.06-22.91,22.83-22.7,22-21.82L1816,812.12l19.09-19,17.07-17,14.46-14.37,11.53-11.47,8.07-8,4.23-4.2.52-.52c3.43-3.41-1.87-8.71-5.3-5.3l-2.2,2.18-6.25,6.22-9.93,9.87-13.07,13-15.81,15.72-18.21,18.09-20,19.87-21.52,21.39-22.41,22.27-23.06,22.92-23.06,22.92-22.83,22.7-21.95,21.82L1644.55,972l-19.09,19-17.07,17-14.46,14.37-11.53,11.46-8.07,8-4.23,4.21-.52.52c-3.43,3.4,1.87,8.71,5.3,5.3Z"/><path class="cls-1" d="M1628.05,1051.86l1.83-1.82,5.2-5.17,8.26-8.21,10.87-10.8,13.15-13.07,15.14-15,16.62-16.52,17.9-17.79,18.63-18.52,19.18-19.06L1774,906.79l19-18.88,18.26-18.14,17.33-17.23,15.87-15.77,14.2-14.11,12-11.95,9.6-9.54,6.7-6.67,3.52-3.5.44-.43c3.42-3.4-1.88-8.71-5.31-5.3l-1.82,1.82-5.21,5.17-8.25,8.2-10.87,10.81-13.15,13.07-15.15,15-16.62,16.52-17.89,17.79L1778,892.22l-19.18,19.06-19.17,19.06-19,18.88-18.26,18.14-17.33,17.23-15.87,15.77-14.2,14.11-12,12-9.59,9.54-6.71,6.67-3.52,3.49-.43.44c-3.43,3.4,1.87,8.71,5.3,5.3Z"/><path class="cls-1" d="M1684.46,1051.82l5.53-5.49,15-15,22.26-22.13,27.17-27,29.76-29.58,30-29.86,28-27.85,23.75-23.6,17-16.91c2.69-2.67,5.4-5.31,8.06-8l.34-.34a3.75,3.75,0,1,0-5.3-5.31l-5.53,5.5-15.06,15-22.26,22.13-27.17,27L1786.37,940l-30,29.87-28,27.84-23.74,23.6-17,16.92c-2.68,2.66-5.4,5.3-8,8l-.35.34a3.75,3.75,0,1,0,5.31,5.3Z"/><path class="cls-1" d="M1737.63,1051.89l4.14-4.12,11.28-11.2,16.67-16.58L1790,999.85l22.28-22.14,22.48-22.34,20.89-20.76L1873.35,917l12.74-12.66c2-2,4.06-4,6-6l.26-.25a3.75,3.75,0,1,0-5.3-5.31l-4.15,4.12-11.27,11.21L1855,924.68l-20.26,20.13L1812.45,967,1790,989.3l-20.88,20.76-17.73,17.62-12.74,12.66c-2,2-4.06,4-6,6l-.26.25a3.75,3.75,0,1,0,5.31,5.3Z"/><path class="cls-1" d="M1793,1051.79l9.9-9.83,23.57-23.43L1855,990.21l24.71-24.56c4-4,8.12-7.85,12-11.93l.17-.16a3.75,3.75,0,0,0-5.3-5.31l-9.9,9.84-23.57,23.43-28.49,28.32-24.71,24.56c-4,4-8.12,7.85-12,11.93l-.17.16a3.75,3.75,0,0,0,5.3,5.3Z"/><path class="cls-1" d="M1846.21,1051.86l15.48-15.38,24.47-24.32,5.66-5.63a3.75,3.75,0,1,0-5.3-5.3L1871,1016.61l-24.47,24.32-5.66,5.63a3.75,3.75,0,1,0,5.3,5.3Z"/><path class="cls-1" d="M579.85,415.06l-112.72,112L355.22,638.33l-112.72,112L130.18,862,17.87,973.64,4,987.44c-3.43,3.41,1.87,8.71,5.3,5.3L122,880.7l111.9-111.22L346.64,657.43,459,545.8,571.27,434.17l13.88-13.81c3.43-3.4-1.87-8.71-5.3-5.3Z"/><path class="cls-1" d="M996.21,1.22,950.52,46.63,904.83,92.05l-45.69,45.41-45.69,45.42-45.69,45.41-5.67,5.63a3.75,3.75,0,0,0,5.3,5.31l45.69-45.42,45.69-45.41L904.47,103l45.69-45.41,45.69-45.42,5.67-5.63a3.81,3.81,0,0,0,0-5.3,3.81,3.81,0,0,0-5.31,0Z"/><path class="cls-1" d="M529.19,412.5,426.39,514.67,324.34,616.1,221.55,718.28,119.12,820.08,16.7,921.88,4,934.47c-3.43,3.41,1.87,8.71,5.3,5.3L112.14,837.6,214.19,736.17,317,634l102.43-101.8,102.42-101.8,12.66-12.59c3.43-3.41-1.87-8.71-5.3-5.3Z"/><path class="cls-1" d="M943,1.15,897.35,46.56,851.66,92l-45.51,45.24-45.51,45.24L715,227.86l-5.67,5.63a3.75,3.75,0,1,0,5.31,5.3l45.69-45.41L806,148l45.51-45.24L897,57.5l45.69-45.41,5.67-5.64a3.82,3.82,0,0,0,0-5.3,3.81,3.81,0,0,0-5.31,0Z"/><path class="cls-1" d="M530.25,355.41l-103,102.38L325,559.44,222,661.82l-102.64,102L16.7,865.85,4,878.46c-3.43,3.41,1.87,8.72,5.3,5.31l103-102.39L214.58,679.74l103-102.39,102.64-102,102.64-102,12.69-12.61c3.42-3.41-1.88-8.71-5.31-5.3Z"/><path class="cls-1" d="M886.63,1.18,840.74,46.8l-45.9,45.62-45.71,45.44-45.9,45.62-45.9,45.61-5.67,5.64A3.75,3.75,0,0,0,657,240l45.89-45.61,45.9-45.62,45.72-45.44,45.89-45.62,45.9-45.62,5.67-5.63a3.82,3.82,0,0,0,0-5.31,3.81,3.81,0,0,0-5.31,0Z"/><path class="cls-1" d="M529.24,303.5,426.44,405.68,324.38,507.11,221.58,609.29,119.16,711.1,16.73,812.9,4.07,825.49c-3.43,3.41,1.87,8.71,5.3,5.3l102.8-102.17L214.22,627.18,317,525,419.45,423.2,521.88,321.39l12.66-12.59c3.43-3.4-1.88-8.71-5.3-5.3Z"/><path class="cls-1" d="M833.46,1.12,787.6,46.71,741.73,92.3,696,137.71,650.17,183.3,604.3,228.89l-5.67,5.63a3.75,3.75,0,0,0,5.31,5.31l45.86-45.59,45.87-45.59,45.69-45.42,45.87-45.59L833.1,12.05l5.67-5.63a3.81,3.81,0,0,0,0-5.3,3.79,3.79,0,0,0-5.31,0Z"/><path class="cls-1" d="M772.47,1.2l-5.34,5.31L751.92,21.63l-24.15,24L696,77.23l-38.45,38.22-44.28,44-48.61,48.31-52.33,52-54.49,54.15-56.08,55.75-56.08,55.74-55.53,55.19-53.39,53.06-50.67,50.38-46.41,46.13L98.14,671.45,63,706.4,34.92,734.28l-19.61,19.5L5,764l-1.27,1.26c-3.43,3.41,1.87,8.71,5.3,5.3l5.34-5.31L29.6,750.14l24.15-24,31.79-31.59L124,656.33l44.28-44L216.88,564l52.34-52,54.48-54.15,56.09-55.75,56.07-55.73,55.53-55.2,53.39-53.06,50.68-50.37,46.41-46.13,41.52-41.27,35.15-34.94L746.6,37.49,766.22,18,776.51,7.76l1.27-1.26c3.42-3.4-1.88-8.71-5.31-5.3Z"/><path class="cls-1" d="M719.3,1.13l-5,4.94L700.17,20.15,677.69,42.49l-29.58,29.4-35.79,35.58-41.22,41-45.24,45-48.71,48.42-50.71,50.4-52.2,51.89L322,396l-51.68,51.38-49.69,49.39L173.5,543.63l-43.2,42.94L91.66,625,58.94,657.5l-26.12,26L14.56,701.6,5,711.12,3.8,712.3c-3.42,3.4,1.88,8.71,5.31,5.3l5-4.94,14.16-14.07,22.48-22.35,29.58-29.4,35.79-35.58,41.22-41,45.24-45,48.71-48.42L302,426.51l52.2-51.89,52.2-51.87,51.68-51.38L507.74,222l47.17-46.89,43.2-42.93,38.64-38.41,32.72-32.53,26.12-25.95,18.26-18.15,9.57-9.52,1.19-1.17C728,3,722.73-2.28,719.3,1.13Z"/><path class="cls-1" d="M662.89,1.17l-4.58,4.55-13,13L624.56,39.26,597.31,66.35l-33,32.77-38,37.74L484.7,178.29l-44.88,44.6-46.71,46.43L345,317.12,296.94,364.9l-47.62,47.33-45.77,45.5L160.1,500.92l-39.79,39.55-35.6,35.38-30.15,30-24,23.91L13.69,646.44l-8.83,8.77-1.08,1.08C.35,659.7,5.65,665,9.08,661.6L13.66,657l13-13L47.41,623.5l27.25-27.09,33-32.77,38-37.74,41.68-41.42,44.87-44.6,46.72-46.44L327,345.65,375,297.86l47.62-47.33L468.42,205l43.45-43.19,39.8-39.56,35.6-35.38,30.14-30L641.47,33l16.82-16.72,8.82-8.77,1.09-1.08c3.43-3.41-1.88-8.71-5.31-5.3Z"/><path class="cls-1" d="M609.72,1.1l-4.21,4.18-12,11.92-19,18.92-25,24.9L519.13,91.14l-34.9,34.69-38.31,38.08-41.25,41L361.72,247.6l-44.2,43.93-44.2,43.93L229.55,379l-42.07,41.82-39.95,39.7L111,496.85,78.23,529.38,50.52,556.92l-22.11,22L12.94,594.26l-8.11,8.07-1,1c-3.43,3.41,1.88,8.71,5.31,5.3l4.21-4.18,12-11.92,19-18.92,25.05-24.9,30.31-30.12,34.9-34.69,38.31-38.08,41.25-41,42.95-42.68,44.2-43.94,44.2-43.93,43.77-43.51,42.07-41.82,39.95-39.7,36.58-36.36,32.72-32.52,27.71-27.54,22.11-22,15.47-15.37L614,7.4l1-1c3.42-3.41-1.88-8.71-5.31-5.3Z"/><path class="cls-1" d="M544.46,1.21l-3.75,3.73L530,15.58,513,32.46,490.67,54.67l-27,26.88-31.14,31-34.18,34L361.5,183.06l-38.31,38.08-39.44,39.21-39.44,39.19-39.05,38.82-37.54,37.32L132.08,411.1,99.44,443.54l-29.2,29L45.52,497.13,25.79,516.74,12,530.46l-7.23,7.19-.9.89c-3.42,3.4,1.88,8.71,5.31,5.3l3.75-3.74,10.7-10.63,17-16.88L63,490.37,90,463.5l31.14-30.95,34.18-34L192.13,362l38.31-38.09,39.44-39.2,39.44-39.19,39.05-38.82,37.54-37.32L421.55,134l32.64-32.44,29.2-29,24.72-24.57L527.84,28.3l13.8-13.71,7.24-7.19.89-.89c3.43-3.4-1.88-8.71-5.31-5.3Z"/><path class="cls-1" d="M491.29,1.14l-3.38,3.37-9.65,9.58L463,29.31l-20.15,20L418.42,73.57l-28.07,27.91-30.82,30.63-33.18,33-34.54,34.33-35.56,35.34L220.7,270.1l-35.21,35-33.85,33.64-32.13,31.93L90.09,399.92,63.76,426.08,41.48,448.24,23.69,465.92,11.25,478.28l-6.52,6.48-.81.8c-3.43,3.41,1.88,8.71,5.3,5.31l3.39-3.37,9.65-9.59L37.57,462.7l20.15-20L82.1,418.43l28.07-27.9L141,359.9l33.18-33,34.54-34.33,35.56-35.35,35.55-35.33,35.21-35,33.85-33.64L381,121.33l29.42-29.24,26.32-26.17L459,43.77l17.79-17.68,12.44-12.36,6.52-6.49.81-.8c3.43-3.4-1.88-8.71-5.31-5.3Z"/><path class="cls-1" d="M434.89,1.17l-3,3-8.53,8.48L409.82,26.09,392,43.8,370.44,65.23,345.62,89.9,318.36,117,289,146.16l-30.55,30.36L227,207.77,195.59,239l-31.13,31-29.94,29.75L106.11,328l-26,25.86L56.81,377,37.1,396.55,21.37,412.18l-11,10.94L4.6,428.85l-.71.71c-3.43,3.41,1.88,8.71,5.31,5.3l3-3,8.53-8.47L34.26,410l17.82-17.71,21.56-21.43,24.83-24.68L125.72,319l29.34-29.16,30.55-30.36,31.44-31.26L248.49,197l31.14-31,29.93-29.75L338,108.08l26-25.87,23.28-23.13L407,39.49l15.73-15.64,11-10.93,5.77-5.73.71-.71c3.43-3.41-1.88-8.71-5.3-5.31Z"/><path class="cls-1" d="M381.72,1.11l-2.63,2.61-7.47,7.43L359.75,22.94,344.13,38.47l-18.9,18.78L303.47,78.88l-23.89,23.74-25.71,25.56L227.09,154.8l-27.56,27.39L172,209.58,144.68,236.7l-26.23,26.08L93.54,287.53,70.74,310.2,50.33,330.48,33.06,347.65,19.27,361.36l-9.64,9.58-5.06,5-.62.62c-3.43,3.4,1.87,8.71,5.3,5.3l2.63-2.61,7.47-7.43,11.87-11.8,15.62-15.52,18.9-18.78L87.5,304.12l23.89-23.75,25.71-25.56,26.78-26.61,27.56-27.39L219,173.42l27.29-27.13,26.23-26.07,24.9-24.76,22.81-22.67,20.4-20.28,17.28-17.17,13.79-13.7,9.64-9.58,5.06-5,.62-.62c3.43-3.41-1.88-8.71-5.3-5.3Z"/><path class="cls-1" d="M320.72,1.19l-2.19,2.19-6.26,6.21-9.93,9.87-13.07,13L273.46,48.17l-18.21,18.1-20,19.87-21.52,21.39-22.4,22.26-23.06,22.93-23.06,22.92-22.84,22.69-21.95,21.82L79.59,240.87l-19.08,19-17.08,17L29,291.17,17.44,302.64l-8.07,8-4.23,4.2-.52.52c-3.43,3.41,1.87,8.71,5.3,5.31l2.2-2.19,6.25-6.21,9.93-9.87,13.08-13,15.81-15.71,18.21-18.1,20-19.87,21.52-21.39,22.41-22.27,23.06-22.92,23.06-22.92,22.84-22.7,21.95-21.82L251.06,81l19.08-19,17.07-17,14.46-14.36,11.54-11.47,8.06-8L325.51,7,326,6.5c3.43-3.41-1.88-8.72-5.31-5.31Z"/><path class="cls-1" d="M267.55,1.12l-1.82,1.82-5.2,5.17-8.26,8.21L241.4,27.12,228.25,40.19,213.11,55.24,196.48,71.76,178.59,89.55,160,108.07l-19.17,19.06L121.6,146.19l-19,18.88L84.35,183.22,67,200.44,51.15,216.22,37,230.33l-12,11.95-9.59,9.53-6.71,6.67L5.11,262l-.43.43c-3.43,3.41,1.87,8.71,5.3,5.3l1.83-1.81,5.2-5.17,8.26-8.21,10.87-10.81,13.15-13.07,15.14-15,16.62-16.52L99,179.28l18.63-18.51,19.18-19.07,19.17-19.06,19-18.87,18.26-18.15L210.51,68.4l15.87-15.78,14.2-14.11,12-11.95L262.2,17l6.7-6.66,3.52-3.5.44-.43C276.29,3,271-2.28,267.55,1.12Z"/><path class="cls-1" d="M211.15,1.16l-5.53,5.5-15.06,15L168.3,43.75l-27.17,27-29.76,29.58-30,29.86L53.31,158l-23.74,23.6-17,16.91c-2.68,2.67-5.4,5.31-8,8l-.35.34a3.81,3.81,0,0,0,0,5.3,3.81,3.81,0,0,0,5.31,0L15,206.7l15.05-15L52.3,169.61l27.17-27L109.23,113l30.05-29.86,28-27.85L191,31.72l17-16.91c2.69-2.67,5.4-5.31,8.06-8l.34-.34a3.8,3.8,0,0,0,0-5.3,3.8,3.8,0,0,0-5.3,0Z"/><path class="cls-1" d="M158,1.09l-4.15,4.12L142.56,16.42,125.88,33,105.62,53.13,83.35,75.27,60.86,97.62,40,118.38,22.25,136,9.51,148.66c-2,2-4.06,4-6,6l-.26.26a3.81,3.81,0,0,0,0,5.3,3.81,3.81,0,0,0,5.31,0l4.14-4.12L24,144.88l16.67-16.57,20.26-20.14L83.16,86l22.48-22.35,20.89-20.76,17.72-17.61L157,12.64c2-2,4.06-4,6-6l.26-.26a3.8,3.8,0,0,0,0-5.3,3.8,3.8,0,0,0-5.3,0Z"/><path class="cls-1" d="M102.56,1.19,92.66,11,69.09,34.45,40.6,62.77,15.89,87.33c-4,4-8.12,7.85-12,11.93l-.17.17a3.81,3.81,0,0,0,0,5.3,3.81,3.81,0,0,0,5.31,0l9.89-9.84L42.5,71.46,71,43.14l24.7-24.55c4-4,8.12-7.85,12-11.93l.16-.17a3.8,3.8,0,0,0,0-5.3,3.8,3.8,0,0,0-5.3,0Z"/><path class="cls-1" d="M49.39,1.12,33.91,16.5,9.44,40.83,3.78,46.45a3.81,3.81,0,0,0,0,5.31,3.8,3.8,0,0,0,5.3,0L24.56,36.37,49,12.05l5.66-5.63a3.8,3.8,0,0,0,0-5.3,3.8,3.8,0,0,0-5.3,0Z"/></g></g></svg>