<svg xmlns="http://www.w3.org/2000/svg" viewBox="0 0 264.47 264.52"><defs><style>.cls-1{fill:#9cd9d9;}</style></defs><g id="Layer_2" data-name="Layer 2"><g id="Layer_5" data-name="Layer 5"><path class="cls-1" d="M24.57,264.45H237.26a42.85,42.85,0,0,0,4.39,0h0c1-.1,1.5-.88,2.15-1.52l2.23-2.23,7.14-7.15,7.27-7.27,2-2a9.87,9.87,0,0,0,1.67-1.75c.44-.78.21-2,.21-2.84V25.11a5,5,0,0,0-.21-2.32,10.14,10.14,0,0,0-2-2.08l-3.9-3.91L243.77,2.29a10.14,10.14,0,0,0-2.08-2,4.78,4.78,0,0,0-2.32-.2l-6.79,0-12,0L195.49.24a42.28,42.28,0,0,0-5.74,0,4.43,4.43,0,0,0-2.19,1.47l-2.25,2.06-8.62,7.91,1.06-.44h-92l1.06.44L80.58,5.47,77.64,2.53C76.58,1.48,75.81.3,74.23.26,68.53.12,62.81.22,57.1.2L39.46.13,30.89.1l-4.15,0c-1.22,0-2.9-.35-3.91.43a32.74,32.74,0,0,0-2.95,2.94l-3.31,3.3L10.3,13,4.23,19.06c-1,1-2,1.92-2.95,2.94S.65,24.54.65,25.85l-.09,35q-.09,35-.19,70L.19,201,.1,236a22.57,22.57,0,0,0,0,4.11c.22,1.17,1.74,2.19,2.55,3l5.41,5.43,9.87,9.9q2.79,2.78,5.56,5.57a1.5,1.5,0,0,0,2.13-2.12l-23-23,.44,1.06q.11-42.28.22-84.58t.22-84.58Q3.59,47,3.66,23.24L3.22,24.3,25,2.63l-1.06.44,50.86.19-1.06-.44,8.8,8.8a20.77,20.77,0,0,0,2.2,2.2,4,4,0,0,0,2.63.44h87.81a10.88,10.88,0,0,0,3,0c1-.31,1.8-1.44,2.53-2.11l10.13-9.28-1.06.44,51.19-.19-1.07-.44,22,22-.44-1.06v218.2l.44-1.06-21.21,21.21,1.06-.44H33.4c-2.82,0-5.65-.06-8.46,0h-.37A1.5,1.5,0,0,0,24.57,264.45Z"/></g></g></svg>