<svg id="Game_Information" data-name="Game Information" xmlns="http://www.w3.org/2000/svg" viewBox="0 0 174.17 526.88"><defs><style>.cls-1{fill:#757575;}.cls-2{fill:none;stroke:#505050;stroke-miterlimit:10;stroke-width:5px;}</style></defs><title>UI-Objectives</title><path class="cls-1" d="M1894.12,326.71c-40.35.06-102.9.45-139,.45q-5.77,5.88-11.53,11.78v53.33h-.35q-4.53-5.34-9.07-10.69-.21-23.76-.43-47.5L1750,316.55c28.4-.15,102.87-.77,131.28-.92l12.84,11.07Z" transform="translate(-1729.95 -313.12)"/><path class="cls-2" d="M1904.12,326.7h-10c-40.35.06-102.9.45-139,.45q-5.77,5.88-11.53,11.78V816.22" transform="translate(-1729.95 -313.12)"/><path class="cls-2" d="M1894.12,326.7l-12.84-11.07c-28.41.15-102.88.77-131.28.92l-16.27,17.53q.21,23.75.43,47.5,4.54,5.34,9.07,10.69" transform="translate(-1729.95 -313.12)"/><path class="cls-2" d="M1744,720.8l-.4.41-11.13,11.37V840" transform="translate(-1729.95 -313.12)"/></svg>